<?xml version="1.0" standalone="no"?><!DOCTYPE svg PUBLIC "-//W3C//DTD SVG 1.1//EN" "http://www.w3.org/Graphics/SVG/1.1/DTD/svg11.dtd"><svg t="1583240249246" class="icon" viewBox="0 0 1024 1024" version="1.1" xmlns="http://www.w3.org/2000/svg" p-id="12871" xmlns:xlink="http://www.w3.org/1999/xlink" width="200" height="200"><defs><style type="text/css"></style></defs><path d="M810.666667 597.333333a213.418667 213.418667 0 0 1 213.333333 213.333334l-0.213333 9.258666a213.461333 213.461333 0 0 1-159.274667 197.205334l-8.661333 2.090666a213.888 213.888 0 0 1-90.368 0l-8.661334-2.090666A213.418667 213.418667 0 0 1 810.666667 597.333333z m-128.042667 213.461334a128.085333 128.085333 0 0 0 78.208 117.802666l1.664 0.682667c-8.533333-6.869333-14.421333-16.938667-15.786667-28.330667L746.496 896v-21.333333l-63.829333-63.872z m177.92-118.058667l-2.133333 1.877333a42.496 42.496 0 0 1-21.674667 9.088l-4.949333 0.298667h-42.666667v42.666667c0 10.410667-7.594667 19.2-17.493333 20.992l-3.84 0.341333h-42.666667v42.666667h128c10.410667 0 19.2 7.594667 20.992 17.493333l0.341333 3.84V896h21.333334a42.666667 42.666667 0 0 1 9.301333 1.024 128 128 0 0 0-44.544-204.288zM853.333333 170.666667c44.8 0 81.834667 34.986667 85.077334 78.976L938.666667 256v284.757333a296.533333 296.533333 0 0 0-85.290667-25.728L853.333333 256H170.666667v426.666667h370.090666A297.514667 297.514667 0 0 0 512 810.666667c0 14.506667 1.024 28.757333 3.029333 42.709333L0 853.333333v-85.333333h85.333333V256c0-44.8 34.986667-81.834667 78.976-85.077333L170.666667 170.666667h682.666666z" p-id="12872"></path></svg>