<?xml version="1.0" standalone="no"?><!DOCTYPE svg PUBLIC "-//W3C//DTD SVG 1.1//EN" "http://www.w3.org/Graphics/SVG/1.1/DTD/svg11.dtd"><svg t="1583240138374" class="icon" viewBox="0 0 1024 1024" version="1.1" xmlns="http://www.w3.org/2000/svg" p-id="9658" xmlns:xlink="http://www.w3.org/1999/xlink" width="200" height="200"><defs><style type="text/css"></style></defs><path d="M906.24 543.232l-380.9792 177.0496a28.9792 28.9792 0 0 1-26.112 0.6144l-382.0032-177.7664a27.5456 27.5456 0 1 1 23.296-49.8688l370.9952 172.6976 371.3536-172.5952a27.5456 27.5456 0 1 1 23.4496 49.8688zM140.4416 658.5344l370.9952 172.6976 371.3536-172.5952a27.5456 27.5456 0 1 1 23.296 49.8688L525.1072 885.76a29.1328 29.1328 0 0 1-26.112 0.6144l-381.8496-177.9712a27.5456 27.5456 0 1 1 23.296-49.8688z" fill="#333333" p-id="9659"></path><path d="M922.9824 352.3072v-1.792a26.0608 26.0608 0 0 0-5.632-14.6432l-0.4608-0.5632A29.7472 29.7472 0 0 0 906.24 326.656l-381.2352-177.2544a29.2352 29.2352 0 0 0-26.1632-0.6144l-381.952 177.92A28.16 28.16 0 0 0 102.4 363.8272a26.4704 26.4704 0 0 0 10.24 11.4176 34.9696 34.9696 0 0 0 4.4544 2.6112l381.8496 177.7664a29.1328 29.1328 0 0 0 26.112-0.6144L906.24 377.9072a28.672 28.672 0 0 0 10.24-7.7824l0.8704-0.9728a26.2656 26.2656 0 0 0 5.7344-14.848c-0.1536-1.024-0.1024-1.4336-0.1024-1.9968z m-411.5456 148.48l-318.8224-148.48 318.6688-148.48 319.3344 148.48z" fill="#00B65F" p-id="9660"></path></svg>