<?xml version="1.0" standalone="no"?><!DOCTYPE svg PUBLIC "-//W3C//DTD SVG 1.1//EN" "http://www.w3.org/Graphics/SVG/1.1/DTD/svg11.dtd"><svg t="1583240713775" class="icon" viewBox="0 0 1024 1024" version="1.1" xmlns="http://www.w3.org/2000/svg" p-id="13963" xmlns:xlink="http://www.w3.org/1999/xlink" width="200" height="200"><defs><style type="text/css"></style></defs><path d="M512 957.205333a21.12 21.12 0 0 1-9.066667-2.026666l-426.666666-200.149334A21.290667 21.290667 0 0 1 64 735.722667v-235.52a21.333333 21.333333 0 0 1 30.4-19.328L512 676.778667l405.333333-190.122667v-164.842667l-396.266666 185.877334a21.248 21.248 0 0 1-18.133334 0l-426.666666-200.128a21.333333 21.333333 0 0 1 0-38.613334l426.666666-200.128a21.248 21.248 0 0 1 18.133334 0l272.341333 127.722667-18.133333 38.634667L512 111.68 135.573333 288.256 512 464.810667l417.6-195.882667a21.333333 21.333333 0 0 1 30.4 19.328v211.968a21.333333 21.333333 0 0 1-12.266667 19.306667l-426.666666 200.128a21.248 21.248 0 0 1-18.133334 0L106.666667 533.781333v188.394667l405.333333 190.144 417.6-195.904 18.133333 38.634667-426.666666 200.149333c-2.88 1.344-5.973333 2.005333-9.066667 2.005333z" p-id="13964"></path><path d="M530.688 143.488l156.629333 73.493333-18.133333 38.634667-156.629333-73.493333z" p-id="13965"></path></svg>