<?xml version="1.0" standalone="no"?><!DOCTYPE svg PUBLIC "-//W3C//DTD SVG 1.1//EN" "http://www.w3.org/Graphics/SVG/1.1/DTD/svg11.dtd"><svg t="1583406112029" class="icon" viewBox="0 0 1024 1024" version="1.1" xmlns="http://www.w3.org/2000/svg" p-id="9644" xmlns:xlink="http://www.w3.org/1999/xlink" width="200" height="200"><defs><style type="text/css"></style></defs><path d="M952.888889 796.444444h-256l-82.488889 162.133334c-2.844444 5.688889-8.533333 5.688889-11.377778 2.844444L355.555556 796.444444h-284.444445c-28.444444 0-56.888889-14.222222-56.888889-56.888888V108.088889c0-28.444444 22.755556-51.2 51.2-51.2h896c28.444444 0 51.2 22.755556 51.2 51.2v637.155555c-5.688889 31.288889-17.066667 51.2-59.733333 51.2z m0-682.666666h-881.777778v625.777778h312.888889l199.111111 142.222222 71.111111-142.222222h298.666667V113.777778z m-227.555556 398.222222c-31.288889 0-56.888889-25.6-56.888889-56.888889s25.6-56.888889 56.888889-56.888889 56.888889 25.6 56.888889 56.888889-25.6 56.888889-56.888889 56.888889z m-227.555555 0c-31.288889 0-56.888889-25.6-56.888889-56.888889s25.6-56.888889 56.888889-56.888889 56.888889 25.6 56.888889 56.888889-25.6 56.888889-56.888889 56.888889z m-230.4 0c-31.288889 0-56.888889-25.6-56.888889-56.888889s25.6-56.888889 56.888889-56.888889 56.888889 25.6 56.888889 56.888889-25.6 56.888889-56.888889 56.888889z" fill="#545E68" p-id="9645"></path></svg>