<?xml version="1.0" standalone="no"?><!DOCTYPE svg PUBLIC "-//W3C//DTD SVG 1.1//EN" "http://www.w3.org/Graphics/SVG/1.1/DTD/svg11.dtd"><svg t="1583240875080" class="icon" viewBox="0 0 1024 1024" version="1.1" xmlns="http://www.w3.org/2000/svg" p-id="19011" xmlns:xlink="http://www.w3.org/1999/xlink" width="200" height="200"><defs><style type="text/css"></style></defs><path d="M168.317 622.15h53.864l-35.862 127.925h-53.864l35.862-127.925z m143.637 0h53.864l-35.862 127.925h-53.864l35.862-127.925z m125.682 0H491.5l-35.862 127.925h-53.863l35.861-127.925z m549.802 189.038h-0.556c0.358-2.055 0.556-4.165 0.556-6.322v6.322z m0-42.844V421.125H36.562v383.741c0 20.198 16.374 36.571 36.572 36.571H987.438v33.426A54.74 54.74 0 0 1 969.143 878H54.857C24.56 878 0 853.44 0 823.143V201.857C0 171.56 24.56 147 54.857 147h914.286c30.297 0 54.857 24.56 54.857 54.857v566.487h-36.562z m-36.572-584.781H73.134c-20.198 0-36.572 16.373-36.572 36.571v91.335h950.876v-91.335c0-20.198-16.374-36.571-36.572-36.571z" p-id="19012"></path></svg>