<?xml version="1.0" standalone="no"?><!DOCTYPE svg PUBLIC "-//W3C//DTD SVG 1.1//EN" "http://www.w3.org/Graphics/SVG/1.1/DTD/svg11.dtd"><svg t="1583241560860" class="icon" viewBox="0 0 1024 1024" version="1.1" xmlns="http://www.w3.org/2000/svg" p-id="27777" xmlns:xlink="http://www.w3.org/1999/xlink" width="200" height="200"><defs><style type="text/css"></style></defs><path d="M17.066667 341.333333c-10.24 0-17.066667-6.826667-17.066667-17.066666V102.4c0-58.026667 47.786667-102.4 102.4-102.4h221.866667c10.24 0 17.066667 6.826667 17.066666 17.066667s-6.826667 17.066667-17.066666 17.066666H102.4c-37.546667 0-68.266667 30.72-68.266667 68.266667v221.866667c0 10.24-6.826667 17.066667-17.066666 17.066666zM1006.933333 341.333333c-10.24 0-17.066667-6.826667-17.066666-17.066666V102.4c0-37.546667-30.72-68.266667-68.266667-68.266667h-221.866667c-10.24 0-17.066667-6.826667-17.066666-17.066666s6.826667-17.066667 17.066666-17.066667H921.6c58.026667 0 102.4 47.786667 102.4 102.4v221.866667c0 10.24-6.826667 17.066667-17.066667 17.066666zM324.266667 1024H102.4c-58.026667 0-102.4-47.786667-102.4-102.4v-221.866667c0-10.24 6.826667-17.066667 17.066667-17.066666s17.066667 6.826667 17.066666 17.066666V921.6c0 37.546667 30.72 68.266667 68.266667 68.266667h221.866667c10.24 0 17.066667 6.826667 17.066666 17.066666s-6.826667 17.066667-17.066666 17.066667zM921.6 1024h-221.866667c-10.24 0-17.066667-6.826667-17.066666-17.066667s6.826667-17.066667 17.066666-17.066666H921.6c37.546667 0 68.266667-30.72 68.266667-68.266667v-221.866667c0-10.24 6.826667-17.066667 17.066666-17.066666s17.066667 6.826667 17.066667 17.066666V921.6c0 54.613333-47.786667 102.4-102.4 102.4zM512 716.8c-112.64 0-204.8-92.16-204.8-204.8s92.16-204.8 204.8-204.8 204.8 92.16 204.8 204.8-92.16 204.8-204.8 204.8z m0-375.466667c-95.573333 0-170.666667 75.093333-170.666667 170.666667s75.093333 170.666667 170.666667 170.666667 170.666667-75.093333 170.666667-170.666667-75.093333-170.666667-170.666667-170.666667z" fill="" p-id="27778"></path></svg>