<?xml version="1.0" standalone="no"?><!DOCTYPE svg PUBLIC "-//W3C//DTD SVG 1.1//EN" "http://www.w3.org/Graphics/SVG/1.1/DTD/svg11.dtd"><svg t="1583241534010" class="icon" viewBox="0 0 1024 1024" version="1.1" xmlns="http://www.w3.org/2000/svg" p-id="26891" xmlns:xlink="http://www.w3.org/1999/xlink" width="200" height="200"><defs><style type="text/css"></style></defs><path d="M1002.816 388.608c-3.584-11.008-13.184-19.072-24.672-20.736l-303.712-44.16-135.808-275.2c-10.304-20.864-44.448-20.864-54.72 0l-135.808 275.2-303.744 44.16c-11.488 1.664-21.056 9.728-24.608 20.736s-0.608 23.168 7.712 31.264l219.776 214.24-51.904 302.56c-1.952 11.456 2.784 23.008 12.16 29.792 9.44 6.912 21.888 7.744 32.16 2.304l271.648-142.784 80.96 41.696c0.256 0.128 0.576 0.192 0.8 0.288 1.248 0.608 2.496 1.024 3.744 1.44 2.432 0.768 4.96 1.376 7.616 1.536 0.64 0 1.248 0.352 1.92 0.352 1.12 0 2.048-0.48 3.04-0.608 2.56-0.256 4.992-0.64 7.328-1.472 1.536-0.544 2.912-1.44 4.352-2.208 1.824-1.024 3.616-2.144 5.184-3.52 0.96-0.768 1.824-1.6 2.624-2.56 2.048-2.208 3.744-4.64 4.992-7.392 0.224-0.352 0.48-0.736 0.64-1.056 1.376-3.328 2.08-6.976 2.208-10.784 0-0.288 0.128-0.512 0.128-0.896s-0.224-0.768-0.224-1.184c-0.448-11.424-7.328-21.024-16.928-25.856l-2.368-1.248-51.392-27.584-40.448-20.448c-4.416-2.336-9.344-3.52-14.208-3.52s-9.76 1.184-14.208 3.52l-231.168 121.536 44.16-257.408c1.664-9.888-1.6-19.968-8.768-26.976l-187.072-182.272 258.432-37.6c9.952-1.408 18.56-7.68 23.008-16.64l115.552-234.208 115.584 234.208c4.448 8.96 13.024 15.232 22.944 16.64l258.496 37.6-187.04 182.272c-7.168 7.04-10.464 17.088-8.736 26.976l22.88 133.568c0.128-0.128 0.256-0.16 0.352-0.288-0.288-1.6-0.736-3.168-0.736-4.832 0 16.8 13.664 30.496 30.496 30.496s30.496-13.696 30.496-30.496c0-1.504-0.64-2.752-0.864-4.096 0.256 0 0.416-0.064 0.608-0.064l-20.384-118.784 219.776-214.24c8.32-8.064 11.328-20.224 7.712-31.264z" p-id="26892"></path><path d="M1004.832 784.064c-11.936-11.904-31.232-11.904-43.136 0l-149.248 149.152-90.624-58.016c-14.24-9.12-33.056-4.96-42.176 9.216-9.056 14.176-4.928 32.992 9.28 42.112l110.848 71.008c1.6 1.024 3.36 1.6 5.024 2.272 0.384 0.192 0.64 0.288 1.024 0.48 3.36 1.248 6.88 2.08 10.368 2.08 0.096 0 0.128-0.064 0.224-0.064 0.16 0 0.288 0.128 0.416 0.128 0.672 0 1.312-0.352 1.952-0.416 2.304-0.192 4.48-0.608 6.656-1.28 1.664-0.512 3.264-1.056 4.832-1.92 0.896-0.48 1.728-1.12 2.56-1.664 1.92-1.184 3.936-2.08 5.536-3.712l166.4-166.304c11.904-11.904 11.904-31.2 0-43.104z" p-id="26893"></path></svg>