<?xml version="1.0" standalone="no"?><!DOCTYPE svg PUBLIC "-//W3C//DTD SVG 1.1//EN" "http://www.w3.org/Graphics/SVG/1.1/DTD/svg11.dtd"><svg t="1583240829058" class="icon" viewBox="0 0 1024 1024" version="1.1" xmlns="http://www.w3.org/2000/svg" p-id="17122" xmlns:xlink="http://www.w3.org/1999/xlink" width="200" height="200"><defs><style type="text/css"></style></defs><path d="M232.191246 123.377982l559.545876 0 52.865022 448.767863 66.388013-7.748475L851.858408 61.830207 172.179454 61.830207 113.046682 564.397371l66.388013 7.748475L232.191246 123.377982zM232.191246 123.377982" p-id="17123"></path><path d="M286.923802 174.3724l450.190259 0 0 56.269561L286.923802 230.641961 286.923802 174.3724 286.923802 174.3724zM286.923802 174.3724" p-id="17124"></path><path d="M286.923802 286.916639l450.190259 0 0 56.268538L286.923802 343.185176 286.923802 286.916639 286.923802 286.916639zM286.923802 286.916639" p-id="17125"></path><path d="M286.923802 399.458831l450.190259 0 0 56.269561L286.923802 455.728392 286.923802 399.458831 286.923802 399.458831zM286.923802 399.458831" p-id="17126"></path><path d="M286.923802 512.002047l450.190259 0 0 56.269561L286.923802 568.271608 286.923802 512.002047 286.923802 512.002047zM286.923802 512.002047" p-id="17127"></path><path d="M934.072875 624.545262 89.969081 624.545262c-15.497972 0-24.179702 11.974729-19.234063 26.677593l94.738711 284.269345c4.835122 14.697747 21.544689 26.677593 37.043684 26.677593L821.524542 962.169793c15.498996 0 32.094976-11.979846 37.038568-26.677593l94.740758-284.214087C958.14206 636.519991 949.570847 624.545262 934.072875 624.545262L934.072875 624.545262zM624.566752 737.083361 399.471111 737.083361l0-56.268538 225.095641 0L624.566752 737.083361 624.566752 737.083361zM624.566752 737.083361" p-id="17128"></path></svg>