<?xml version="1.0" standalone="no"?><!DOCTYPE svg PUBLIC "-//W3C//DTD SVG 1.1//EN" "http://www.w3.org/Graphics/SVG/1.1/DTD/svg11.dtd"><svg t="1583241380918" class="icon" viewBox="0 0 1024 1024" version="1.1" xmlns="http://www.w3.org/2000/svg" p-id="22140" xmlns:xlink="http://www.w3.org/1999/xlink" width="200" height="200"><defs><style type="text/css"></style></defs><path d="M384.008 0.063996l0 95.994c73.467408 0 144.694957 14.3991 211.698769 42.685332 64.763952 27.390288 122.936316 66.619836 172.917193 116.600712s89.210424 108.15324 116.600712 172.917193c28.350228 67.003812 42.685332 138.231361 42.685332 211.698769l95.994 0c0-353.449909-286.510093-639.960002-639.960002-639.960002z" p-id="22141"></path><path d="M384.008 192.051997l0 95.994c94.010124 0 182.388601 36.605712 248.880445 103.097556s103.097556 154.870321 103.097556 248.880445l95.994 0c0-247.408537-200.563465-447.972002-447.972002-447.972002z" p-id="22142"></path><path d="M480.002 384.039998l-63.996 63.996-223.986001 63.996-191.988001 415.974002 25.342416 25.342416 232.817449-232.817449c-1.407912-5.311668-2.175864-10.815324-2.175864-16.574964 0-35.325792 28.670208-63.996 63.996-63.996s63.996 28.670208 63.996 63.996-28.670208 63.996-63.996 63.996c-5.75964 0-11.263296-0.767952-16.574964-2.175864l-232.817449 232.817449 25.342416 25.342416 415.974002-191.988001 63.996-223.986001 63.996-63.996-159.990001-159.990001z" p-id="22143"></path></svg>