<?xml version="1.0" standalone="no"?><!DOCTYPE svg PUBLIC "-//W3C//DTD SVG 1.1//EN" "http://www.w3.org/Graphics/SVG/1.1/DTD/svg11.dtd"><svg t="1583241526188" class="icon" viewBox="0 0 1024 1024" version="1.1" xmlns="http://www.w3.org/2000/svg" p-id="26753" xmlns:xlink="http://www.w3.org/1999/xlink" width="200" height="200"><defs><style type="text/css"></style></defs><path d="M512 96C282.624 96 96 282.624 96 512s186.624 416 416 416 416-186.624 416-416S741.376 96 512 96z m0 64c194.08 0 352 157.92 352 352s-157.92 352-352 352S160 706.08 160 512 317.92 160 512 160z m-89.6 128c-75.36 72.32-90.272 242.88-44.512 443.84 90.24 20.16 221.12-34.24 354.56-142.08 36.384-152-209.76-265.28-310.08-301.76z m89.6 160a64 64 0 1 1 0.032 127.968A64 64 0 0 1 512 448z" p-id="26754"></path></svg>