<?xml version="1.0" standalone="no"?><!DOCTYPE svg PUBLIC "-//W3C//DTD SVG 1.1//EN" "http://www.w3.org/Graphics/SVG/1.1/DTD/svg11.dtd"><svg t="1583405804345" class="icon" viewBox="0 0 1024 1024" version="1.1" xmlns="http://www.w3.org/2000/svg" p-id="3776" xmlns:xlink="http://www.w3.org/1999/xlink" width="200" height="200"><defs><style type="text/css"></style></defs><path d="M556.4 888.1c-8.4 20.1-31.5 29.7-51.6 21.3L47.1 719.3c-20.1-8.4-29.7-31.5-21.3-51.6 8.4-20.1 31.5-29.7 51.6-21.3L535 836.6c20.2 8.2 29.8 31.4 21.4 51.5z" fill="#242424" p-id="3777"></path><path d="M483.9 887.9c8.4 20.1 31.5 29.7 51.6 21.3l442-183.7c20.1-8.4 29.7-31.5 21.3-51.6-8.4-20.1-31.5-29.7-51.6-21.3l-442 183.7c-20.1 8.4-29.7 31.5-21.3 51.6zM556.4 718.1c-8.4 20.1-31.5 29.7-51.6 21.3L47.1 549.3c-20.1-8.4-29.7-31.5-21.3-51.6 8.4-20.1 31.5-29.7 51.6-21.3L535 666.6c20.2 8.2 29.8 31.4 21.4 51.5z" fill="#242424" p-id="3778"></path><path d="M483.9 717.9c8.4 20.1 31.5 29.7 51.6 21.3l442-183.7c20.1-8.4 29.7-31.5 21.3-51.6-8.4-20.1-31.5-29.7-51.6-21.3l-442 183.7c-20.1 8.4-29.7 31.5-21.3 51.6zM999.5 323.7c-3.6-10.2-11.3-18.9-22.1-23.4L519.8 110.1c-5.1-2.1-10.4-3.1-15.6-3-5.2-0.1-10.5 0.9-15.6 3L47.4 293.4c-11.7 4.8-19.8 14.6-22.9 25.9-0.1 0.2-0.1 0.5-0.2 0.7v0.1c-5.3 18.9 4.3 39.3 22.9 47l457.6 190.2c10.2 4.2 21.2 3.9 30.6-0.1h0.1l442-183.7c19.6-8.1 29.2-30.1 22-49.8z" fill="#242424" p-id="3779"></path></svg>