<?xml version="1.0" standalone="no"?><!DOCTYPE svg PUBLIC "-//W3C//DTD SVG 1.1//EN" "http://www.w3.org/Graphics/SVG/1.1/DTD/svg11.dtd"><svg t="1583240171343" class="icon" viewBox="0 0 1024 1024" version="1.1" xmlns="http://www.w3.org/2000/svg" p-id="10874" xmlns:xlink="http://www.w3.org/1999/xlink" width="200" height="200"><defs><style type="text/css"></style></defs><path d="M925.888 776.768c-71.68-11.008-242.24-24.64-379.008 61.12a52.352 52.352 0 0 1-4.992 2.624l0.192-570.688c46.912-34.048 196.352-124.928 395.968-68.224a30.4 30.4 0 0 1 21.952 29.504v515.264a30.144 30.144 0 0 1-34.112 30.4z m-449.792 60.8c-136.448-85.632-306.56-71.936-378.048-61.12A30.08 30.08 0 0 1 64 746.24V231.104c0-13.824 8.96-25.984 21.952-29.568a462.72 462.72 0 0 1 131.456-18.048h2.432v0.192a463.872 463.872 0 0 1 262.336 87.232l-0.32 569.664a37.824 37.824 0 0 1-5.76-3.008z" p-id="10875"></path></svg>