<?xml version="1.0" standalone="no"?><!DOCTYPE svg PUBLIC "-//W3C//DTD SVG 1.1//EN" "http://www.w3.org/Graphics/SVG/1.1/DTD/svg11.dtd"><svg t="1583240764678" class="icon" viewBox="0 0 1024 1024" version="1.1" xmlns="http://www.w3.org/2000/svg" p-id="15702" xmlns:xlink="http://www.w3.org/1999/xlink" width="200" height="200"><defs><style type="text/css"></style></defs><path d="M932.4 821c-39.9 108.3-159.6 164.2-268.2 125.2-254.3-102.5-57.4-343.8-57.4-343.8-15.2 95.3 62.6 87.9 62.6 87.9-11.8-186.4 89.4-223.5 89.4-223.5-30.1 112 102.6 177.1 102.6 177.1 57.6 38.9 85.8 109.1 71 177.1z m-125.9-49.9s-73.7-29.7-56.8-80.7c0 0-56.2 16.9-49.7 101.9-10.7 1.6-21.4-2.3-28.5-10.5-7-8.2-9.4-19.4-6.2-29.7s-109.4 110 31.9 156.7c0 0 104.3 30.9 148.9-57 8.2-33.1-8.5-67.1-39.6-80.7zM266.9 243.3H714v89.4H266.9v-89.4z m0 178.8h268.2v89.4H266.9v-89.4z m581.2 0c-11.9 0-23.2-4.7-31.6-13.1-8.4-8.4-13.1-19.8-13.1-31.6V153.8H177.5v715.3h268.2c24.7 0 44.7 20 44.7 44.7 0 24.7-20 44.7-44.7 44.7H177.5c-49.4 0-89.4-40-89.4-89.4V153.8c0-49.4 40-89.4 89.4-89.4h625.9c49.4 0 89.4 40 89.4 89.4v223.5c0 11.9-4.7 23.2-13.1 31.6-8.4 8.5-19.8 13.2-31.6 13.2z m0 0" p-id="15703"></path></svg>