<?xml version="1.0" encoding="UTF-8"?>
<svg width="24px" height="24px" viewBox="0 0 24 24" version="1.1" xmlns="http://www.w3.org/2000/svg" xmlns:xlink="http://www.w3.org/1999/xlink">
    <!-- Generator: Sketch 49.1 (51147) - http://www.bohemiancoding.com/sketch -->
    <title>navic/doc_nor</title>
    <desc>Created with Sketch.</desc>
    <defs></defs>
    <g id="navic/doc_nor" stroke="none" stroke-width="1" fill="none" fill-rule="evenodd">
        <g id="ic_doc_nor">
            <rect id="Rectangle-7" x="0" y="0" width="24" height="24"></rect>
            <path d="M19.2825844,10.5381974 L20.6041001,11.2040032 C20.9986782,11.4027994 21.1573908,11.8838243 20.9585946,12.2784024 C20.8814628,12.4314963 20.757194,12.5557651 20.6041001,12.6328968 L12.4721011,16.7299585 C12.1890859,16.8725471 11.8552352,16.8725471 11.57222,16.7299585 L3.44022092,12.6328968 C3.04564284,12.4341006 2.88693029,11.9530757 3.08572651,11.5584976 C3.16285823,11.4054037 3.28712706,11.2811349 3.44022092,11.2040032 L4.76173669,10.5381974 L11.57222,13.9694534 C11.8552352,14.112042 12.1890859,14.112042 12.4721011,13.9694534 L19.2825844,10.5381974 Z M19.2825844,15.5381974 L20.6041001,16.2040032 C20.9986782,16.4027994 21.1573908,16.8838243 20.9585946,17.2784024 C20.8814628,17.4314963 20.757194,17.5557651 20.6041001,17.6328968 L12.4721011,21.7299585 C12.1890859,21.8725471 11.8552352,21.8725471 11.57222,21.7299585 L3.44022092,17.6328968 C3.04564284,17.4341006 2.88693029,16.9530757 3.08572651,16.5584976 C3.16285823,16.4054037 3.28712706,16.2811349 3.44022092,16.2040032 L4.76173669,15.5381974 L11.57222,18.9694534 C11.8552352,19.112042 12.1890859,19.112042 12.4721011,18.9694534 L19.2825844,15.5381974 Z M12.4721011,2.10694147 L20.6041001,6.20400317 C20.9986782,6.4027994 21.1573908,6.88382432 20.9585946,7.27840241 C20.8814628,7.43149627 20.757194,7.5557651 20.6041001,7.63289681 L12.4721011,11.7299585 C12.1890859,11.8725471 11.8552352,11.8725471 11.57222,11.7299585 L3.44022092,7.63289681 C3.04564284,7.43410058 2.88693029,6.95307566 3.08572651,6.55849758 C3.16285823,6.40540371 3.28712706,6.28113488 3.44022092,6.20400317 L11.57222,2.10694147 C11.8552352,1.96435284 12.1890859,1.96435284 12.4721011,2.10694147 Z" id="Combined-Shape" fill="#7C878E"></path>
        </g>
    </g>
</svg>