<?xml version="1.0" standalone="no"?><!DOCTYPE svg PUBLIC "-//W3C//DTD SVG 1.1//EN" "http://www.w3.org/Graphics/SVG/1.1/DTD/svg11.dtd"><svg t="1583240095692" class="icon" viewBox="0 0 1024 1024" version="1.1" xmlns="http://www.w3.org/2000/svg" p-id="9241" xmlns:xlink="http://www.w3.org/1999/xlink" width="200" height="200"><defs><style type="text/css"></style></defs><path d="M530.588444 873.187556h-60.088888c-70.997333 0-265.898667-43.832889-265.898667-184.917334V527.971556a14.236444 14.236444 0 0 1 19.968-13.013334l262.883555 116.096a31.943111 31.943111 0 0 0 26.154667 0L776.533333 514.958222a14.222222 14.222222 0 0 1 19.968 13.013334v115.143111c4.849778-14.947556 13.866667-27.975111 25.770667-36.807111v-118.542223l-307.911111 135.964445a34.048 34.048 0 0 1-27.676445-0.028445L65.038222 437.504c-14.122667-6.229333-23.253333-21.162667-23.253333-38.016 0-16.881778 9.144889-31.786667 23.267555-38.016l421.703112-186.197333a34.204444 34.204444 0 0 1 27.619555 0l421.703111 186.211555c14.108444 6.200889 23.239111 21.12 23.253334 37.987556 0 16.867556-9.130667 31.786667-23.253334 38.030222l-42.183111 18.631111V606.293333c18.346667 13.582222 29.809778 37.091556 29.809778 62.264889s-11.463111 48.682667-29.809778 62.264889v43.904a14.222222 14.222222 0 0 1-14.222222 14.222222h-43.178667a14.222222 14.222222 0 0 1-14.222222-14.222222v-43.918222c-11.989333-8.888889-21.048889-22.030222-25.870222-37.12-5.489778 145.863111-231.381333 179.498667-265.813334 179.498667zM233.045333 549.788444v138.467556c0 117.959111 176.597333 156.472889 237.454223 156.472889h60.088888c48.327111 0 237.468444-40.846222 237.468445-156.472889v-138.467556L525.112889 657.066667a60.472889 60.472889 0 0 1-49.137778 0l-242.929778-107.278223z m617.656889 210.730667h14.734222v-37.432889c0-5.219556 2.858667-10.012444 7.424-12.501333 13.596444-7.381333 22.385778-23.879111 22.385778-42.026667s-8.789333-34.645333-22.385778-42.026666a14.222222 14.222222 0 0 1-7.424-12.501334V446.862222a14.222222 14.222222 0 0 1 8.476445-13.013333l50.659555-22.371556c3.712-1.635556 6.300444-6.570667 6.300445-12.003555 0-5.418667-2.588444-10.353778-6.286222-11.975111L502.855111 201.272889a5.632 5.632 0 0 0-4.622222 0L76.515556 387.498667c-3.712 1.635556-6.300444 6.556444-6.300445 11.989333 0 5.432889 2.588444 10.368 6.300445 12.003556l421.717333 186.225777c1.607111 0.711111 3.128889 0.668444 4.508444 0.042667l327.992889-144.839111a14.236444 14.236444 0 0 1 19.968 13.013333v148.124445c0 5.205333-2.844444 10.012444-7.424 12.487111-13.582222 7.381333-22.357333 23.879111-22.357333 42.026666 0 18.133333 8.775111 34.631111 22.357333 42.012445a14.222222 14.222222 0 0 1 7.424 12.487111v37.447111z" fill="" p-id="9242"></path></svg>