<?xml version="1.0" standalone="no"?><!DOCTYPE svg PUBLIC "-//W3C//DTD SVG 1.1//EN" "http://www.w3.org/Graphics/SVG/1.1/DTD/svg11.dtd"><svg t="1583240852684" class="icon" viewBox="0 0 1024 1024" version="1.1" xmlns="http://www.w3.org/2000/svg" p-id="18211" xmlns:xlink="http://www.w3.org/1999/xlink" width="200" height="200"><defs><style type="text/css"></style></defs><path d="M887 180.6H140.7c-22.6-0.3-41.2 17.8-41.5 40.5v134.5c0.3 22.6 18.8 40.7 41.4 40.5h746.3c22.6 0.2 41.1-17.9 41.4-40.5V221.1c-0.3-22.6-18.8-40.6-41.3-40.5z m13.7 175c-0.1 7.5-6.2 13.6-13.8 13.5H140.7c-7.5 0.1-13.7-6-13.8-13.5V221c0.1-7.5 6.2-13.6 13.8-13.5H887c7.5-0.1 13.7 6 13.8 13.5l-0.1 134.6zM887 409.5H140.7c-22.6-0.3-41.2 17.8-41.5 40.4v134.5c0.3 22.6 18.8 40.7 41.4 40.5h746.3c22.6 0.2 41.1-17.9 41.4-40.5V449.9c-0.3-22.6-18.8-40.6-41.3-40.4z m13.7 174.9c-0.1 7.5-6.2 13.6-13.8 13.5H140.7c-7.5 0.1-13.7-6-13.8-13.5V449.9c0.1-7.5 6.2-13.6 13.8-13.5H887c7.5-0.1 13.7 6 13.8 13.5l-0.1 134.5z m-691-336.5c-22.3 0.6-39.9 19.1-39.3 41.4s19.1 39.9 41.4 39.3c21.9-0.6 39.3-18.5 39.3-40.4-0.3-22.5-18.8-40.5-41.4-40.3z m0 53.9c-7.4-0.2-13.3-6.4-13.1-13.8s6.4-13.3 13.8-13.1c7.3 0.2 13.1 6.2 13.1 13.5-0.1 7.5-6.3 13.5-13.8 13.4z m0 175c-22.3 0.6-39.9 19.1-39.3 41.4 0.6 22.3 19.1 39.9 41.4 39.3 21.9-0.6 39.3-18.5 39.3-40.4-0.3-22.5-18.8-40.6-41.4-40.3z m0 53.8c-7.4-0.2-13.3-6.4-13.1-13.8 0.2-7.4 6.4-13.3 13.8-13.1 7.3 0.2 13.1 6.2 13.1 13.5-0.1 7.5-6.3 13.5-13.8 13.4z m96.7-282.7c-22.3 0.6-39.9 19.1-39.3 41.4s19.1 39.9 41.4 39.3c21.9-0.6 39.3-18.5 39.3-40.4-0.2-22.4-18.7-40.5-41.4-40.3z m0 53.9c-7.4-0.2-13.3-6.4-13.1-13.8 0.2-7.4 6.4-13.3 13.8-13.1 7.3 0.2 13.1 6.2 13.1 13.5 0 7.4-6.2 13.5-13.8 13.4z m0 175c-22.3 0.6-39.9 19.1-39.3 41.4 0.6 22.3 19.1 39.9 41.4 39.3 21.9-0.6 39.3-18.5 39.3-40.4-0.2-22.5-18.7-40.6-41.4-40.3z m0 53.8c-7.4-0.2-13.3-6.4-13.1-13.8 0.2-7.4 6.4-13.3 13.8-13.1 7.3 0.2 13.1 6.2 13.1 13.5-0.1 7.5-6.2 13.5-13.8 13.4z m96.8-282.7c-22.3 0.6-39.9 19.1-39.3 41.4s19.1 39.9 41.4 39.3c21.9-0.6 39.3-18.5 39.3-40.4-0.3-22.4-18.8-40.5-41.4-40.3z m0 53.9c-7.4-0.2-13.3-6.4-13.1-13.8 0.2-7.4 6.4-13.3 13.8-13.1 7.3 0.2 13.1 6.2 13.1 13.5-0.1 7.4-6.3 13.4-13.8 13.4z m0 175c-22.3 0.6-39.9 19.1-39.3 41.4 0.6 22.3 19.1 39.9 41.4 39.3 21.9-0.6 39.3-18.5 39.3-40.4-0.3-22.5-18.8-40.6-41.4-40.3z m0 53.8c-7.4-0.2-13.3-6.4-13.1-13.8 0.2-7.4 6.4-13.3 13.8-13.1 7.3 0.2 13.1 6.2 13.1 13.5-0.1 7.5-6.3 13.5-13.8 13.4z m414.6-296.1c-29.7 0.8-53.2 25.5-52.4 55.3 0.8 29.7 25.5 53.2 55.3 52.4 29.2-0.8 52.4-24.6 52.4-53.8-0.5-30.2-25.2-54.2-55.3-53.9z m0 80.8c-14.9-0.4-26.6-12.8-26.2-27.6 0.4-14.9 12.8-26.6 27.6-26.2 14.6 0.4 26.2 12.3 26.2 26.9-0.2 15-12.5 27-27.6 26.9z m0 148c-29.7 0.8-53.2 25.5-52.4 55.3 0.8 29.7 25.5 53.2 55.3 52.4 29.2-0.8 52.4-24.6 52.4-53.8-0.5-30.1-25.2-54.2-55.3-53.9z m0 80.8c-14.9-0.4-26.6-12.8-26.2-27.7 0.4-14.9 12.8-26.6 27.7-26.2 14.6 0.4 26.2 12.4 26.2 26.9-0.3 15.1-12.6 27.2-27.7 27z m69.1 94.2H140.6c-22.6-0.2-41.2 17.9-41.4 40.5v134.4c0.3 22.6 18.8 40.7 41.4 40.5h746.3c22.6 0.2 41.1-17.9 41.4-40.5V678.8c-0.3-22.6-18.8-40.7-41.4-40.5z m13.8 174.9c-0.1 7.5-6.2 13.6-13.8 13.5H140.6c-7.5 0.1-13.7-6-13.8-13.5V678.8c0.1-7.5 6.2-13.6 13.8-13.5h746.3c7.5-0.1 13.7 6 13.8 13.5v134.4z m-691-107.6c-22.3 0.6-39.9 19.1-39.3 41.4 0.6 22.3 19.1 39.9 41.4 39.3 21.9-0.6 39.3-18.5 39.3-40.4-0.3-22.5-18.8-40.6-41.4-40.3z m0 53.8c-7.4-0.2-13.3-6.4-13.1-13.8 0.2-7.4 6.4-13.3 13.8-13.1 7.3 0.2 13.1 6.2 13.1 13.5-0.1 7.5-6.3 13.5-13.8 13.4z m96.7-53.8c-22.3 0.6-39.9 19.1-39.3 41.4 0.6 22.3 19.1 39.9 41.4 39.3 21.9-0.6 39.3-18.5 39.3-40.4-0.2-22.5-18.7-40.5-41.4-40.3z m0 53.8c-7.4-0.2-13.3-6.4-13.1-13.8 0.2-7.4 6.4-13.3 13.8-13.1 7.3 0.2 13.1 6.2 13.1 13.5-0.1 7.5-6.2 13.5-13.8 13.4z m96.8-53.8c-22.3 0.6-39.9 19.1-39.3 41.4 0.6 22.3 19.1 39.9 41.4 39.3 21.9-0.6 39.3-18.5 39.3-40.4-0.3-22.5-18.8-40.5-41.4-40.3z m0 53.8c-7.4-0.2-13.3-6.4-13.1-13.8 0.2-7.4 6.4-13.3 13.8-13.1 7.3 0.2 13.1 6.2 13.1 13.5-0.1 7.5-6.3 13.5-13.8 13.4z m414.6-67.2c-29.7 0.8-53.2 25.5-52.4 55.3 0.8 29.7 25.5 53.2 55.3 52.4 29.2-0.8 52.4-24.6 52.4-53.8-0.5-30.2-25.2-54.3-55.3-53.9z m0 80.7c-14.9-0.4-26.6-12.8-26.2-27.6 0.4-14.9 12.8-26.6 27.6-26.2 14.6 0.4 26.2 12.3 26.2 26.9-0.2 15-12.6 27.1-27.6 26.9z" p-id="18212"></path></svg>