<?xml version="1.0" standalone="no"?><!DOCTYPE svg PUBLIC "-//W3C//DTD SVG 1.1//EN" "http://www.w3.org/Graphics/SVG/1.1/DTD/svg11.dtd"><svg t="1583240241291" class="icon" viewBox="0 0 1024 1024" version="1.1" xmlns="http://www.w3.org/2000/svg" p-id="12729" xmlns:xlink="http://www.w3.org/1999/xlink" width="200" height="200"><defs><style type="text/css"></style></defs><path d="M0 0h1024v1024H0z" fill="#FFFFFF" fill-opacity=".01" p-id="12730"></path><path d="M552.504889 97.621333h271.644444v548.807111H552.504889z" fill="#999999" fill-opacity=".24" p-id="12731"></path><path d="M875.861333 234.723556v475.648H198.485333v-475.591112H82.318222v575.772445c0 36.807111 29.809778 66.958222 66.275556 66.958222h783.473778c36.408889 0 66.275556-30.151111 66.275555-66.958222V234.723556h-122.481778z" fill="#999999" fill-opacity=".24" p-id="12732"></path><path d="M932.067556 902.371556H148.593778A91.192889 91.192889 0 0 1 57.457778 811.235556V240.924444c0-1.137778 0-2.218667 0.113778-3.185777a24.917333 24.917333 0 0 1 49.664 1.706666v571.676445c0 22.869333 18.602667 41.415111 41.472 41.415111h783.473777a41.415111 41.415111 0 0 0 41.415111-41.415111V240.924444a24.917333 24.917333 0 0 1 49.720889 0v570.197334a91.477333 91.477333 0 0 1-91.249777 91.249778z" fill="#999999" p-id="12733"></path><path d="M917.845333 137.500444A25.031111 25.031111 0 0 0 900.494222 113.777778c-4.778667-1.536-9.671111-2.958222-14.392889-4.551111-69.973333-22.072889-136.192-42.951111-196.721777-49.550223-62.748444-6.826667-111.672889 3.299556-148.764445 31.118223C503.466667 63.146667 454.542222 52.792889 391.793778 59.733333c-60.529778 6.599111-126.691556 27.477333-196.721778 49.550223-4.721778 1.592889-9.500444 3.015111-14.336 4.551111a24.689778 24.689778 0 0 0-17.351111 23.722666v581.688889c0.455111 12.970667 11.150222 23.324444 24.177778 23.324445h705.991111a24.234667 24.234667 0 0 0 24.177778-24.177778V137.557333h0.113777z m-69.973333 556.657778H560.924444c65.422222-50.403556 152.746667-50.744889 287.004445 0zM566.613333 133.632c64.056889-52.224 179.370667-16.440889 301.511111 22.129778v492.885333c-63.601778-24.291556-115.825778-37.489778-162.417777-41.130667a340.536889 340.536889 0 0 0-25.770667-0.967111c-24.177778 0-46.933333 2.730667-68.152889 8.362667a229.774222 229.774222 0 0 0-45.169778 17.237333V133.688889z m-46.364444 560.526222H233.187556c134.257778-50.744889 221.582222-50.403556 287.004444 0zM213.105778 155.761778c122.140444-38.570667 237.454222-74.353778 301.511111-22.129778v498.403556a232.448 232.448 0 0 0-45.169778-17.180445 282.055111 282.055111 0 0 0-93.866667-7.338667c-46.648889 3.640889-98.986667 16.839111-162.474666 41.130667V155.761778z" fill="#999999" p-id="12734"></path></svg>