<?xml version="1.0" encoding="UTF-8"?>
<svg width="24px" height="24px" viewBox="0 0 24 24" version="1.1" xmlns="http://www.w3.org/2000/svg" xmlns:xlink="http://www.w3.org/1999/xlink">
    <!-- Generator: Sketch 49.1 (51147) - http://www.bohemiancoding.com/sketch -->
    <title>navic/picture_nor</title>
    <desc>Created with Sketch.</desc>
    <defs></defs>
    <g id="navic/picture_nor" stroke="none" stroke-width="1" fill="none" fill-rule="evenodd">
        <g id="ic_recent_nor">
            <rect id="Rectangle-5" x="0" y="0" width="24" height="24"></rect>
            <path d="M3,5.00087166 C3,4.4481055 3.44494629,4 3.99339768,4 L20.0066023,4 C20.5552407,4 21,4.44463086 21,5.00087166 L21,18.9991283 C21,19.5518945 20.5550537,20 20.0066023,20 L3.99339768,20 C3.44475929,20 3,19.5553691 3,18.9991283 L3,5.00087166 Z M11.3459313,13.2465099 C11.3083198,13.3066883 11.258329,13.3581711 11.1992823,13.3975356 C10.9695179,13.5507118 10.6590832,13.4886249 10.505907,13.2588605 L9.41602515,11.6240377 C9.37940772,11.5691116 9.33227624,11.5219801 9.2773501,11.4853627 C9.04758575,11.3321864 8.73715108,11.3942734 8.58397485,11.6240377 L5.5182334,16.2226499 C5.46347756,16.3047837 5.43425855,16.4012875 5.43425855,16.5 C5.43425855,16.7761424 5.65811617,17 5.93425855,17 L18.0978762,17 C18.191586,17 18.2834098,16.9736653 18.3628756,16.9239992 C18.5970439,16.777644 18.6682305,16.4691688 18.5218753,16.2350005 L14.4239992,9.67839864 C14.3837588,9.61401408 14.329384,9.55963931 14.2649995,9.51939896 C14.0308312,9.3730438 13.722356,9.44423038 13.5760008,9.67839864 L11.3459313,13.2465099 Z" id="Combined-Shape" fill="#7C878E"></path>
        </g>
    </g>
</svg>