<?xml version="1.0" standalone="no"?><!DOCTYPE svg PUBLIC "-//W3C//DTD SVG 1.1//EN" "http://www.w3.org/Graphics/SVG/1.1/DTD/svg11.dtd"><svg t="1583406065416" class="icon" viewBox="0 0 1024 1024" version="1.1" xmlns="http://www.w3.org/2000/svg" p-id="8450" xmlns:xlink="http://www.w3.org/1999/xlink" width="200" height="200"><defs><style type="text/css"></style></defs><path d="M900.3 93.9H123.7c-33 0-59.7 26.7-59.7 59.7v537.6c0 33 26.7 59.7 59.7 59.7h59.7v179.2l268.8-179.2h448c33 0 59.7-26.7 59.7-59.7V153.6c0.1-33-26.6-59.7-59.6-59.7z m0 567.4c0 16.5-13.4 29.9-29.9 29.9h-448L243.2 810.7V691.2h-89.6c-16.5 0-29.9-13.4-29.9-29.9V183.5c0-16.5 13.4-29.9 29.9-29.9h716.8c16.5 0 29.9 13.4 29.9 29.9v477.8z" fill="#000000" p-id="8451"></path></svg>