<?xml version="1.0" standalone="no"?><!DOCTYPE svg PUBLIC "-//W3C//DTD SVG 1.1//EN" "http://www.w3.org/Graphics/SVG/1.1/DTD/svg11.dtd"><svg t="1583240179564" class="icon" viewBox="0 0 1024 1024" version="1.1" xmlns="http://www.w3.org/2000/svg" p-id="11012" xmlns:xlink="http://www.w3.org/1999/xlink" width="200" height="200"><defs><style type="text/css"></style></defs><path d="M534.7 940.5h-36.5c-3.8 0-7.6-1.1-10.8-3.2l-35.7-23c-89-57.2-258.4-56.2-387.2-36.3-13.5 2.1-26.9-2.2-36.7-11.7-10-9.6-14.7-23-13.1-36.8l68.6-571c2.1-17.7 17.2-31.1 35.1-31.1 1.2 0 2.3 0.1 3.5 0.3L228 246.4c10.9 1.9 18.1 12.3 16.2 23.2-1.9 10.9-12.3 18.1-23.2 16.2l-98.6-17.4-68 565.8c-0.2 1.7 0.6 2.8 1.1 3.3 0.8 0.8 1.7 1.1 2.8 0.9 72.9-11.3 149.1-15.3 214.6-11.4 85.6 5.1 153 23.2 200.3 53.6l30.8 19.8h24.7l30.8-19.8c47.5-30.5 114.6-49 199.5-54.8 66-4.5 142-1 213.9 9.9 1.1 0.2 2-0.1 2.8-0.9 0.5-0.5 1.3-1.6 1.1-3.3l-66.3-562.6-101 25.1c-10.7 2.7-21.6-3.9-24.2-14.6-2.7-10.7 3.9-21.6 14.6-24.2l109.9-27.3c1.6-0.4 3.2-0.6 4.8-0.6 17.9 0 33 13.4 35.1 31.2l67 568.4c1.6 13.7-3.1 27.1-13.1 36.7-9.8 9.5-23.2 13.8-36.6 11.7-69.1-10.5-142-13.9-205.1-9.6-77 5.3-139.4 22.1-180.6 48.5l-35.7 23c-3.3 2.2-7 3.3-10.9 3.3z" fill="#1C1C1C" p-id="11013"></path><path d="M520 572c-60.4 0-117.2-24.4-159.9-68.7-42.5-44.1-65.9-102.7-65.9-165s23.4-120.9 65.9-165c42.7-44.3 99.4-68.7 159.9-68.7 60.4 0 117.2 24.4 159.9 68.7 42.5 44.1 65.9 102.7 65.9 165s-23.4 120.9-65.9 165C637.2 547.6 580.4 572 520 572z m0-427.3c-102.4 0-185.7 86.9-185.7 193.7S417.5 532 520 532s185.7-86.9 185.7-193.7S622.4 144.7 520 144.7z" fill="#1C1C1C" p-id="11014"></path><path d="M217.6 647.9c-5.1 0-10.2-2-14.1-5.9-7.8-7.8-7.8-20.5 0-28.3l148.3-148.3c7.8-7.8 20.5-7.8 28.3 0s7.8 20.5 0 28.3L231.8 642.1c-3.9 3.9-9.1 5.8-14.2 5.8z" fill="#1C1C1C" p-id="11015"></path></svg>