<?xml version="1.0" standalone="no"?><!DOCTYPE svg PUBLIC "-//W3C//DTD SVG 1.1//EN" "http://www.w3.org/Graphics/SVG/1.1/DTD/svg11.dtd"><svg t="1583240253938" class="icon" viewBox="0 0 1024 1024" version="1.1" xmlns="http://www.w3.org/2000/svg" p-id="13013" xmlns:xlink="http://www.w3.org/1999/xlink" width="200" height="200"><defs><style type="text/css"></style></defs><path d="M494 843.7c-174.5 0-298.2-121-298.2-287.6 0-88.5 53.1-183.8 55.3-187.8 4.6-8.2 13.7-12.7 23.1-11.7 9.3 1.2 17 7.9 19.4 17 0.2 0.6 14.5 54 33.3 83.7 12.6 20 20.2 6.8 34.6 16.6-9.8-42.4-11.9-78.8 0.3-144.3 33.5-179.8 175-222.7 181-224.5 7.8-2.2 16-0.2 22 5.1 6 5.5 8.6 13.6 7.1 21.5-0.2 1.2-23.6 127.1 26 234.3 4.5 9.8 10.8 21.1 17.5 32.4 1.9-15.5 4.9-32.1 9.5-48.2 18.2-63.6 65.2-85.3 67.2-86.2 7.9-3.6 17-2.4 23.8 2.9 6.8 5.3 10 14 8.4 22.4-0.2 1.6-6.8 44.8 30 106.2 33.3 55.5 42.9 91.3 42.9 160.3 0.1 166.9-127.5 287.9-303.2 287.9z" p-id="13014"></path></svg>