<?xml version="1.0" standalone="no"?><!DOCTYPE svg PUBLIC "-//W3C//DTD SVG 1.1//EN" "http://www.w3.org/Graphics/SVG/1.1/DTD/svg11.dtd"><svg t="1583240737729" class="icon" viewBox="0 0 1024 1024" version="1.1" xmlns="http://www.w3.org/2000/svg" p-id="14533" xmlns:xlink="http://www.w3.org/1999/xlink" width="200" height="200"><defs><style type="text/css"></style></defs><path d="M232.5 322.1h-93.9c-8.7 0-15.8-7.1-15.8-15.8 0-8.7 7.1-15.8 15.8-15.8h93.9c8.7 0 15.8 7.1 15.8 15.8 0 8.7-7.1 15.8-15.8 15.8zM232.5 425.5h-93.9c-8.7 0-15.8-7.1-15.8-15.8 0-8.7 7.1-15.8 15.8-15.8h93.9c8.7 0 15.8 7.1 15.8 15.8 0 8.7-7.1 15.8-15.8 15.8zM505 385.5h-93.9c-8.7 0-15.8-7.1-15.8-15.8 0-8.7 7.1-15.8 15.8-15.8H505c8.7 0 15.8 7.1 15.8 15.8 0.1 8.6-7.1 15.8-15.8 15.8zM505 485.7h-93.9c-8.7 0-15.8-7.1-15.8-15.8 0-8.7 7.1-15.8 15.8-15.8H505c8.7 0 15.8 7.1 15.8 15.8 0.1 8.7-7.1 15.8-15.8 15.8zM232.5 528.9h-93.9c-8.7 0-15.8-7.1-15.8-15.8 0-8.7 7.1-15.8 15.8-15.8h93.9c8.7 0 15.8 7.1 15.8 15.8 0 8.7-7.1 15.8-15.8 15.8z" fill="#4E65A8" p-id="14534"></path><path d="M237.6 102.1H134.7c-37.8 0-68.6 30.8-68.6 68.6v465c0 9.5 7.7 17.2 17.2 17.2s17.2-7.7 17.2-17.2v-465c0-18.9 15.4-34.3 34.3-34.3h102.9c18.9 0 34.3 15.4 34.3 34.3v688.9c0 18.9-15.4 34.3-34.3 34.3h-103c-18.9 0-34.3-15.4-34.3-34.3v-86.8h-0.1c-0.2-9.3-7.7-16.7-17.1-16.7s-16.8 7.5-17.1 16.7H66v86.8c0 37.8 30.8 68.6 68.6 68.6h102.9c37.8 0 68.6-30.8 68.6-68.6V170.7c0.1-37.9-30.7-68.6-68.5-68.6zM509.6 102.1h-103c-37.8 0-68.6 30.8-68.6 68.6v465c0 9.5 7.7 17.2 17.2 17.2s17.2-7.7 17.2-17.2v-465c0-18.9 15.4-34.3 34.3-34.3h102.9c18.9 0 34.3 15.4 34.3 34.3v688.9c0 18.9-15.4 34.3-34.3 34.3h-103c-18.9 0-34.3-15.4-34.3-34.3v-86.8h-0.1c-0.2-9.3-7.7-16.7-17.1-16.7s-16.8 7.5-17.1 16.7v86.8c0 37.8 30.8 68.6 68.6 68.6h102.9c37.8 0 68.6-30.8 68.6-68.6V170.7c0.1-37.9-30.7-68.6-68.5-68.6zM956.8 821.2l-66.2-434.6h-0.1c0-0.3 0.1-0.5 0-0.7-1.4-9.4-10.2-15.8-19.5-14.4-9.4 1.4-15.8 10.2-14.4 19.5v0.1h-0.1l66.3 435.2c1.4 9-0.9 18-6.3 25.5s-13.4 12.3-22.4 13.6L792.4 881c-9 1.4-18-0.9-25.5-6.3-7.4-5.5-12.3-13.4-13.6-22.4L652 187.5c-1.4-9 0.9-18 6.3-25.5 5.5-7.4 13.4-12.3 22.4-13.6l101.7-15.5c1.8-0.3 3.5-0.4 5.2-0.4 16.7 0 31.3 12.2 33.9 29.2l14.3 93.8h0.1v0.4c1.4 9.4 10.2 15.8 19.5 14.4 9.4-1.4 15.8-10.2 14.4-19.5 0-0.1-0.1-0.2-0.1-0.3l-14.3-93.8c-5.7-37.4-40.8-63.2-78.2-57.5l-101.7 15.5c-18.1 2.8-34 12.4-44.9 27.2s-15.4 32.9-12.6 51l101.3 664.7c2.8 18.1 12.4 34 27.2 44.9 12 8.8 26.1 13.4 40.6 13.4 3.5 0 6.9-0.3 10.4-0.8l101.7-15.5c18.1-2.8 34-12.4 44.9-27.2 11-15 15.5-33.1 12.7-51.2z" fill="#4E65A8" p-id="14535"></path></svg>