<?xml version="1.0" standalone="no"?><!DOCTYPE svg PUBLIC "-//W3C//DTD SVG 1.1//EN" "http://www.w3.org/Graphics/SVG/1.1/DTD/svg11.dtd"><svg t="1583239215380" class="icon" viewBox="0 0 1024 1024" version="1.1" xmlns="http://www.w3.org/2000/svg" p-id="4267" xmlns:xlink="http://www.w3.org/1999/xlink" width="200" height="200"><defs><style type="text/css"></style></defs><path d="M517.438508 414.760728a117.752128 117.752128 0 1 0-117.752128-117.752129 117.752128 117.752128 0 0 0 117.752128 117.752129z m0-158.709391a40.957262 40.957262 0 1 1-40.957262 40.957262 40.957262 40.957262 0 0 1 40.957262-40.957262zM635.190636 721.940193a117.752128 117.752128 0 1 0-117.752128 117.752128 117.752128 117.752128 0 0 0 117.752128-117.752128z m-158.70939 0a40.957262 40.957262 0 1 1 40.957262 40.957262 40.957262 40.957262 0 0 1-40.957262-40.957262zM729.904305 627.226524a117.752128 117.752128 0 1 0-117.752129-117.752128 117.752128 117.752128 0 0 0 117.752129 117.752128z m0-158.70939a40.957262 40.957262 0 1 1-40.957262 40.957262 40.957262 40.957262 0 0 1 40.957262-40.957262zM304.972711 391.722268a117.752128 117.752128 0 1 0 117.752129 117.752128 117.752128 117.752128 0 0 0-117.752129-117.752128z m0 158.70939a40.957262 40.957262 0 1 1 40.957262-40.957262 40.957262 40.957262 0 0 1-40.957262 40.957262z" p-id="4268"></path><path d="M960.288903 947.205134h-178.573662a511.965775 511.965775 0 1 0-272.826561 76.794866h451.400223a38.397433 38.397433 0 0 0 0-76.794866zM77.147941 512.034225a435.170909 435.170909 0 1 1 435.170909 435.170909 435.682875 435.682875 0 0 1-435.170909-435.170909z" p-id="4269"></path></svg>