<?xml version="1.0" standalone="no"?><!DOCTYPE svg PUBLIC "-//W3C//DTD SVG 1.1//EN" "http://www.w3.org/Graphics/SVG/1.1/DTD/svg11.dtd"><svg t="1583240233514" class="icon" viewBox="0 0 1024 1024" version="1.1" xmlns="http://www.w3.org/2000/svg" p-id="12591" xmlns:xlink="http://www.w3.org/1999/xlink" width="200" height="200"><defs><style type="text/css"></style></defs><path d="M261.2 827.3c0 25-18.4 45.3-43.4 45.3h-46.7c-25 0-43.4-20.3-43.4-45.3v-41.5h133.5v41.5z m0 0M127.7 378.7h133.5v361.8H127.7zM261.2 331.5l-133.5 1.4v-46.7c0-25 18.4-45.3 43.4-45.3h46.7c25 0 43.4 20.3 43.4 45.3v45.3z m0 0M489.6 827.3c0 25-20.3 45.3-45.3 45.3h-93.4c-25 0-41.5-20.3-41.5-45.3v-41h180.2v41z m0 0M489.6 739.1l-180.2-0.5V286.7h180.2v452.4z m0 0M489.6 241.9l-180.2-1.4v-47.2c0-25 16.5-45.3 41.5-45.3h93.4c25 0 45.3 20.3 45.3 45.3v48.6z m0 0M761.3 828.7c0 25-20.3 45.3-45.3 45.3H579.2c-25 0-45.3-20.3-45.3-45.3v-542c0-25 20.3-45.3 45.3-45.3H716c25 0 45.3 20.3 45.3 45.3v542z m0 0M897.1 828.7c0 25-17.4 45.3-42.5 45.3h-7.1c-25 0-40.6-18.4-40.6-43.4V741l90.1-1.9v89.6z m0 0M897.1 691.4l-90.1 1.9v-133l90.1-0.5v131.6z m0 0M897.1 512.2H807V423c0-25 15.6-47.2 40.6-47.2h7.1c25 0 42.5 20.3 42.5 45.3v91.1z m0 0" p-id="12592"></path></svg>