<?xml version="1.0" standalone="no"?><!DOCTYPE svg PUBLIC "-//W3C//DTD SVG 1.1//EN" "http://www.w3.org/Graphics/SVG/1.1/DTD/svg11.dtd"><svg t="1583240108963" class="icon" viewBox="0 0 1024 1024" version="1.1" xmlns="http://www.w3.org/2000/svg" p-id="9379" xmlns:xlink="http://www.w3.org/1999/xlink" width="200" height="200"><defs><style type="text/css"></style></defs><path d="M896 234.7c11.8 0 21.3-9.6 21.3-21.3V106.7c0-23.6-19.1-42.7-42.7-42.7H149.3c-23.6 0-42.7 19.1-42.7 42.7v746.7c0 58.7 48 106.7 106.7 106.7H896c11.8 0 21.3-9.6 21.3-21.3V384c0-11.8-9.6-21.3-21.3-21.3s-21.3 9.6-21.3 21.3v362.7H213.3c-24.1 0-46.1 8.4-64 22V128c0-11.8 9.6-21.3 21.3-21.3h682.7c11.8 0 21.3 9.6 21.3 21.3v85.3c0.1 11.8 9.6 21.4 21.4 21.4zM213.3 789.3h661.3v128H213.3c-35.3 0-64-28.7-64-64s28.7-64 64-64z m512-512c0-11.8-9.6-21.3-21.3-21.3H320c-11.8 0-21.3 9.6-21.3 21.3 0 11.8 9.6 21.3 21.3 21.3h384c11.8 0.1 21.3-9.5 21.3-21.3zM320 405.3c-11.8 0-21.3 9.6-21.3 21.3 0 11.8 9.6 21.3 21.3 21.3h213.3c11.8 0 21.3-9.6 21.3-21.3 0-11.8-9.6-21.3-21.3-21.3H320z" fill="#000000" p-id="9380"></path></svg>