<?xml version="1.0" standalone="no"?><!DOCTYPE svg PUBLIC "-//W3C//DTD SVG 1.1//EN" "http://www.w3.org/Graphics/SVG/1.1/DTD/svg11.dtd"><svg t="1583237988386" class="icon" viewBox="0 0 1024 1024" version="1.1" xmlns="http://www.w3.org/2000/svg" p-id="2634" xmlns:xlink="http://www.w3.org/1999/xlink" width="200" height="200"><defs><style type="text/css"></style></defs><path d="M45.866667 94.933333h932.266666c14.72 0 24.533333-9.813333 24.533334-24.533333s-9.813333-24.533333-24.533334-24.533333h-932.266666c-14.72 0-24.533333 9.813333-24.533334 24.533333s9.813333 24.533333 24.533334 24.533333z m932.266666 834.133334h-932.266666c-14.72 0-24.533333 9.770667-24.533334 24.490666 0 14.762667 9.813333 24.533333 24.533334 24.533334h932.266666c14.72 0 24.533333-9.770667 24.533334-24.533334 0-14.677333-9.813333-24.490667-24.533334-24.490666z m-98.133333-760.533334h-736a121.472 121.472 0 0 0-122.666667 122.666667v441.6a121.472 121.472 0 0 0 122.666667 122.666667h736a121.472 121.472 0 0 0 122.666667-122.666667v-441.6a121.472 121.472 0 0 0-122.666667-122.666667z m73.6 564.266667c0 41.728-31.872 73.642667-73.6 73.642667h-736a72.277333 72.277333 0 0 1-73.6-73.642667v-441.6c0-41.728 31.914667-73.6 73.6-73.6h736c41.728 0 73.6 31.914667 73.6 73.6v441.6z m-321.408-252.714667l-161.92-100.565333a45.994667 45.994667 0 0 0-19.626667-4.906667 37.717333 37.717333 0 0 0-36.778666 36.821334v201.173333c0 19.626667 17.152 36.778667 36.778666 36.778667 7.338667 0 14.72-2.474667 19.626667-4.864l161.92-100.608c9.813333-7.338667 17.152-19.584 17.152-31.872s-7.296-24.576-17.152-31.957334z m-14.677333 41.728l-161.92 100.608c-2.474667 2.432-4.906667 2.432-7.381334 2.432-7.338667 0-12.245333-4.864-12.245333-12.245333v-201.173333c0-7.338667 4.906667-12.288 12.245333-12.288 2.474667 0 4.906667 0 7.381334 2.474666l161.92 100.565334a11.52 11.52 0 0 1 0 19.626666z" fill="#252B3A" p-id="2635"></path></svg>