<?xml version="1.0" standalone="no"?><!DOCTYPE svg PUBLIC "-//W3C//DTD SVG 1.1//EN" "http://www.w3.org/Graphics/SVG/1.1/DTD/svg11.dtd"><svg t="1583240804541" class="icon" viewBox="0 0 1024 1024" version="1.1" xmlns="http://www.w3.org/2000/svg" p-id="16841" xmlns:xlink="http://www.w3.org/1999/xlink" width="200" height="200"><defs><style type="text/css"></style></defs><path d="M535.601129 0h68.997178v95.247413h349.200376c19.747883 0.842897 41.301976 0 58.400753 12.041392 12.041392 17.580433 10.596425 39.977422 12.041392 60.206962q-0.963311 310.186265 0 619.890875c0 34.67921 3.130762 70.080903-3.97366 104.158043-4.575729 24.805268-33.715898 25.407338-53.10254 26.250235H605.32079V1023.518344h-72.248353C355.100659 991.006585 177.490122 960.541863 0 928.752587V95.367827C178.573848 63.578551 357.147695 32.270931 535.601129 0z" fill="#207245" p-id="16842"></path><path d="M604.598307 131.010348h383.879586v750.058326H604.598307v-71.405457h93.079962v-83.326434h-93.079962v-48.165569h93.079962v-82.844779h-93.079962v-47.5635h93.079962v-83.446848h-93.079962v-48.16557h93.079962v-82.724365h-93.079962v-48.165569h93.079962v538.250235h-93.079962z" fill="#FFFFFF" p-id="16843"></path><path d="M660.349953 188.568203h246.728128v147.747884H660.349953zM660.349953 429.757291h246.728128V577.98683H660.349953zM660.349953 671.066792h246.728128V818.814675H660.349953z" fill="#207245" p-id="16844"></path><path d="M514.287865 628.560677L379.063029 443.725306a13.004704 13.004704 0 0 0-22.396989 0l-95.608655 130.76952-46.238947-64.060207a13.004704 13.004704 0 0 0-22.276575 0L107.288805 628.560677c-6.14111 8.428975-2.528692 15.292568 8.188147 15.292569H505.738476c11.198495 0 14.690499-6.863594 8.549389-15.292569zM198.201317 438.667921a37.569144 37.569144 0 1 0-37.569144-37.569144 37.569144 37.569144 0 0 0 37.569144 37.569144z" fill="#FFFFFF" p-id="16845"></path></svg>