<?xml version="1.0" standalone="no"?><!DOCTYPE svg PUBLIC "-//W3C//DTD SVG 1.1//EN" "http://www.w3.org/Graphics/SVG/1.1/DTD/svg11.dtd"><svg t="1583241406142" class="icon" viewBox="0 0 1024 1024" version="1.1" xmlns="http://www.w3.org/2000/svg" p-id="22623" xmlns:xlink="http://www.w3.org/1999/xlink" width="200" height="200"><defs><style type="text/css"></style></defs><path d="M501.787 900.848c-96.608 0-193.481-25.729-265.78-70.591-84.535-52.454-131.09-127.581-131.09-211.542 0-44.155 12.303-91.01 36.568-139.262 23.307-46.347 56.979-92.645 100.083-137.608 86.156-89.812 182.946-143.425 258.921-143.425 36.27 0 67.222 12.28 89.509 35.513 13.912 14.485 28.325 37.313 32.178 71.445 23.435-5.796 45.595-8.718 66.266-8.718 28.494 0 53.56 5.643 74.503 16.772 17.265 9.175 31.35 21.78 41.864 37.467 12.181 18.125 18.839 39.133 19.763 62.4 0.435 10.929-0.422 22.4-2.554 34.328 26.438 13.162 48.858 30.544 65.88 51.239 24.673 29.998 37.715 66.322 37.715 105.044 0 37.01-11.699 75.673-33.831 111.811-21.107 34.462-51.997 67.032-89.33 94.187-80.622 58.644-187.401 90.94-300.665 90.94z m-1.298-628.428c-54.538 0-135.206 47.355-205.511 120.644-74.84 78.07-116.062 158.211-116.062 225.652 0 73.583 52.263 121.458 96.107 148.663 60.908 37.794 143.561 59.47 226.764 59.47 97.745 0 189.064-27.269 257.135-76.783 58.04-42.217 92.69-96.854 92.69-146.154 0-45.105-31.099-81.329-85.323-99.383a36.999 36.999 0 0 1-23.12-47.651c9.946-28.349 10.012-50.131 0.195-64.74-11.902-17.757-36.434-21.477-54.922-21.477-26.002 0-57.893 7.181-92.225 20.765a37 37 0 0 1-49.893-41.673c4.118-20.557 5.776-48.447-9.713-64.576-8.124-8.47-20.273-12.757-36.122-12.757z" p-id="22624"></path><path d="M484.586 775.346c-55.108 0-107.367-15.667-147.147-44.116-20.53-14.681-36.813-32.057-48.398-51.645-12.684-21.445-19.115-44.421-19.115-68.29s6.431-46.844 19.115-68.289c11.585-19.588 27.869-36.963 48.398-51.645 39.781-28.448 92.04-44.116 147.148-44.116 55.108 0 107.366 15.667 147.147 44.116 20.53 14.682 36.813 32.057 48.398 51.645 12.684 21.445 19.115 44.421 19.115 68.29s-6.431 46.845-19.115 68.29c-11.585 19.588-27.869 36.963-48.398 51.645-39.782 28.448-92.04 44.115-147.148 44.115z m0-254.1c-76.246 0-140.661 41.238-140.661 90.05s64.415 90.05 140.661 90.05 140.66-41.238 140.66-90.05-64.414-90.05-140.66-90.05zM836.995 337.945c-14.845 0.001-28.85-8.997-34.521-23.674-3.629-9.392-9.298-15.262-17.841-18.474-5.594-2.104-10.947-2.373-10.952-2.374-20.399 0.988-37.764-14.741-38.761-35.151-0.997-20.411 14.741-37.764 35.152-38.761 3.241-0.154 20.436-0.564 40.606 7.021 28.493 10.714 49.525 31.831 60.822 61.067 7.365 19.061-2.116 40.484-21.177 47.849a36.9 36.9 0 0 1-13.328 2.497z" p-id="22625"></path><path d="M922.092 287.493c-14.845 0.001-28.85-8.997-34.521-23.674-11.252-29.121-30.892-49.126-58.373-59.46-20.043-7.537-37.353-7.226-37.517-7.214-20.421 0.99-37.764-14.741-38.761-35.151-0.997-20.41 14.741-37.764 35.151-38.761 3.228-0.156 32.534-1.163 67.172 11.861 33.05 12.428 77.461 40.221 101.354 102.053 7.365 19.061-2.116 40.484-21.177 47.849a36.914 36.914 0 0 1-13.328 2.497z" p-id="22626"></path></svg>