<?xml version="1.0" standalone="no"?><!DOCTYPE svg PUBLIC "-//W3C//DTD SVG 1.1//EN" "http://www.w3.org/Graphics/SVG/1.1/DTD/svg11.dtd"><svg t="1583405692463" class="icon" viewBox="0 0 1024 1024" version="1.1" xmlns="http://www.w3.org/2000/svg" p-id="3638" xmlns:xlink="http://www.w3.org/1999/xlink" width="200" height="200"><defs><style type="text/css"></style></defs><path d="M756.565333 896A85.333333 85.333333 0 0 1 682.666667 938.666667H85.333333a85.333333 85.333333 0 0 1-85.333333-85.333334c0-133.12 111.957333-245.845333 266.581333-284.458666a256 256 0 1 1 234.794667 0C656.085333 607.488 768 720.213333 768 853.333333c0 15.530667-4.138667 30.122667-11.434667 42.666667h79.829334-79.786667zM85.333333 896h597.333334a42.666667 42.666667 0 0 0 42.666666-42.666667c0-141.397333-152.832-256-341.333333-256s-341.333333 114.602667-341.333333 256a42.666667 42.666667 0 0 0 42.666666 42.666667z m298.666667-341.333333A213.333333 213.333333 0 1 0 384 128a213.333333 213.333333 0 0 0 0 426.666667z m452.181333 340.650666a19.456 19.456 0 0 1-5.205333 0.682667 20.864 20.864 0 0 1-20.309333-21.333333 20.864 20.864 0 0 1 21.376-21.333334h110.677333c22.442667 0 40.661333-19.114667 40.661333-42.666666 0-140.245333-143.232-254.165333-320.810666-256v-0.128A20.864 20.864 0 0 1 640 533.333333a20.864 20.864 0 0 1 21.504-21.333333 192 192 0 0 0 0-384H661.333333a21.333333 21.333333 0 1 1 0-42.666667h0.170667A234.666667 234.666667 0 0 1 772.266667 526.805333C918.442667 565.930667 1024 678.272 1024 810.666667c0 47.146667-36.394667 85.333333-81.28 85.333333h-106.325333a30.805333 30.805333 0 0 1-0.213334-0.682667z" p-id="3639"></path></svg>