<?xml version="1.0" standalone="no"?><!DOCTYPE svg PUBLIC "-//W3C//DTD SVG 1.1//EN" "http://www.w3.org/Graphics/SVG/1.1/DTD/svg11.dtd"><svg t="1583241479748" class="icon" viewBox="0 0 1024 1024" version="1.1" xmlns="http://www.w3.org/2000/svg" p-id="25270" xmlns:xlink="http://www.w3.org/1999/xlink" width="200" height="200"><defs><style type="text/css"></style></defs><path d="M490.057143 877.714286l-182.857143 58.514285c-14.628571 3.657143-32.914286 0-40.228571-14.628571L219.428571 859.428571c-7.314286-10.971429-14.628571-29.257143-14.628571-43.885714V658.285714l-84.114286-128c-10.971429-18.285714-7.314286-40.228571 10.971429-51.2 3.657143 0 7.314286-3.657143 10.971428-3.657143l219.428572-54.857142c18.285714-3.657143 29.257143-14.628571 40.228571-29.257143l142.628572-193.828572c10.971429-14.628571 32.914286-18.285714 51.2-7.314285l190.171428 135.314285 21.942857 10.971429 117.028572 32.914286c18.285714 3.657143 32.914286 25.6 25.6 43.885714l-29.257143 98.742857-80.457143 109.714286c-10.971429 10.971429-14.628571 29.257143-14.628571 43.885714v190.171429l-43.885715 54.857142c-3.657143 7.314286-10.971429 10.971429-18.285714 10.971429l-54.857143 14.628571-171.885714-58.514285c-18.285714-3.657143-32.914286-3.657143-47.542857 0z" fill="#F2F2F2" p-id="25271"></path><path d="M299.885714 969.142857c-51.2 0-98.742857-32.914286-117.028571-84.114286-3.657143-14.628571-7.314286-29.257143-7.314286-43.885714l3.657143-168.228571c0-7.314286-3.657143-18.285714-7.314286-21.942857L65.828571 512c-40.228571-54.857143-29.257143-131.657143 25.6-175.542857 10.971429-7.314286 25.6-14.628571 40.228572-21.942857L292.571429 266.971429c7.314286-3.657143 14.628571-7.314286 18.285714-14.628572l95.085714-138.971428c18.285714-29.257143 47.542857-47.542857 80.457143-51.2 32.914286-7.314286 65.828571 0 95.085714 18.285714 10.971429 7.314286 21.942857 18.285714 32.914286 32.914286l95.085714 138.971428c3.657143 7.314286 10.971429 10.971429 18.285715 14.628572l160.914285 47.542857c65.828571 18.285714 102.4 87.771429 84.114286 153.6-3.657143 14.628571-10.971429 29.257143-21.942857 40.228571l-102.4 135.314286c-3.657143 7.314286-7.314286 14.628571-7.314286 21.942857l3.657143 168.228571c0 32.914286-10.971429 65.828571-32.914286 87.771429-21.942857 25.6-54.857143 36.571429-87.771428 40.228571-14.628571 0-29.257143-3.657143-43.885715-7.314285L512 899.657143l-171.885714 62.171428c-14.628571 3.657143-29.257143 7.314286-40.228572 7.314286zM512 113.371429h-14.628571c-18.285714 3.657143-32.914286 14.628571-43.885715 29.257142L358.4 285.257143c-10.971429 18.285714-29.257143 29.257143-51.2 36.571428L146.285714 369.371429l-21.942857 10.971428c-29.257143 21.942857-36.571429 69.485714-14.628571 98.742857l102.4 135.314286c14.628571 18.285714 18.285714 36.571429 18.285714 58.514286L226.742857 841.142857c0 7.314286 0 18.285714 3.657143 25.6 7.314286 18.285714 18.285714 32.914286 36.571429 40.228572 18.285714 7.314286 36.571429 7.314286 54.857142 3.657142L512 841.142857l190.171429 69.485714c7.314286 3.657143 18.285714 3.657143 25.6 3.657143 18.285714 0 36.571429-7.314286 47.542857-21.942857 14.628571-14.628571 18.285714-32.914286 18.285714-51.2l-3.657143-168.228571c0-21.942857 7.314286-40.228571 18.285714-58.514286l102.4-135.314286c3.657143-7.314286 10.971429-14.628571 10.971429-21.942857 10.971429-36.571429-10.971429-76.8-47.542857-87.771428l-160.914286-47.542858c-18.285714-7.314286-36.571429-18.285714-51.2-36.571428L570.514286 146.285714c-3.657143-7.314286-10.971429-14.628571-18.285715-18.285714-10.971429-10.971429-25.6-14.628571-40.228571-14.628571z" fill="#262626" p-id="25272"></path><path d="M512 658.285714c-62.171429 0-109.714286-47.542857-109.714286-109.714285s47.542857-109.714286 109.714286-109.714286 109.714286 47.542857 109.714286 109.714286-47.542857 109.714286-109.714286 109.714285z m0-164.571428c-29.257143 0-54.857143 25.6-54.857143 54.857143s25.6 54.857143 54.857143 54.857142 54.857143-25.6 54.857143-54.857142-25.6-54.857143-54.857143-54.857143z" fill="#262626" p-id="25273"></path></svg>