<?xml version="1.0" standalone="no"?><!DOCTYPE svg PUBLIC "-//W3C//DTD SVG 1.1//EN" "http://www.w3.org/Graphics/SVG/1.1/DTD/svg11.dtd"><svg t="1583406275776" class="icon" viewBox="0 0 1024 1024" version="1.1" xmlns="http://www.w3.org/2000/svg" p-id="10922" xmlns:xlink="http://www.w3.org/1999/xlink" width="200" height="200"><defs><style type="text/css"></style></defs><path d="M736.8 235.1h-89.6L509.1 97 371 235.1h-83.8L148.3 662.7 512 927l363.7-264.3-138.9-427.6z m-227.7-73l73 73H436l73.1-73z m-306.8 483l118.3-364h382.8l118.3 364-309.7 225-309.7-225z" p-id="10923"></path><path d="M703.7 488.5L569.2 469l-60.1-121.8L448.9 469l-134.5 19.5 97.3 94.8-23 133.9L509 654l120.3 63.2-23-133.9 97.4-94.8zM568.2 633.2L509 602.1l-59.2 31.1 11.3-65.9-47.9-46.7 66.2-9.6 29.6-60 29.6 60 66.2 9.6-47.9 46.7 11.3 65.9z" p-id="10924"></path></svg>