<?xml version="1.0" standalone="no"?><!DOCTYPE svg PUBLIC "-//W3C//DTD SVG 1.1//EN" "http://www.w3.org/Graphics/SVG/1.1/DTD/svg11.dtd"><svg t="1583405865974" class="icon" viewBox="0 0 1024 1024" version="1.1" xmlns="http://www.w3.org/2000/svg" p-id="6195" xmlns:xlink="http://www.w3.org/1999/xlink" width="200" height="200"><defs><style type="text/css"></style></defs><path d="M337.5 552.8c-2.2 0-4.5-0.3-6.7-0.9L250 529.4c-8.6-2.4-15.3-9.2-17.5-17.8-9.7-37.8-39.2-67.9-76.8-78.4-8.6-2.4-15.3-9.2-17.5-17.9l-20.9-81.2c-2.2-8.7 0.3-17.8 6.7-24.1 27.9-27.3 39.1-67.8 29.4-105.7-2.2-8.7 0.3-17.8 6.7-24.1l59.9-58.7c6.4-6.2 15.6-8.6 24.2-6.2 37.7 10.5 78.4 0 106.3-27.4 6.4-6.2 15.6-8.6 24.2-6.2l80.8 22.5c8.6 2.4 15.3 9.2 17.5 17.8 9.7 37.8 39.2 67.9 76.8 78.4 8.6 2.4 15.3 9.2 17.5 17.9l20.9 81.2c2.2 8.7-0.3 17.8-6.7 24.1-27.9 27.3-39.1 67.8-29.4 105.7 2.2 8.7-0.3 17.8-6.7 24.1l-59.9 58.7c-6.4 6.2-15.6 8.6-24.2 6.2-37.7-10.5-78.4 0-106.3 27.4-4.7 4.6-11 7.1-17.5 7.1z m-61-67.9l54.5 15.2c36.1-29.3 83.4-41.5 129.1-33.3l40.4-39.6c-7.3-45.9 5.8-93 35.7-128.5l-14.1-54.8c-43.4-16.6-77.6-51.5-93.3-95.2l-54.5-15.2c-28.7 23.3-64.5 35.7-101 35.8-9.4 0-18.8-0.8-28.1-2.5l-40.4 39.6c7.3 45.9-5.8 93-35.7 128.5l14.1 54.8c43.4 16.6 77.6 51.5 93.3 95.2z" fill="" p-id="6196"></path><path d="M354.8 418.1c-54.8 0-99.3-44.5-99.3-99.3s44.5-99.3 99.3-99.3 99.3 44.5 99.3 99.3-44.5 99.3-99.3 99.3z m0-148.6c-27.2 0-49.3 22.1-49.3 49.3s22.1 49.3 49.3 49.3 49.3-22.1 49.3-49.3-22.1-49.3-49.3-49.3z" fill="#BCBCBC" p-id="6197"></path><path d="M640.1 579.9c-1.9 0-3.8-0.2-5.7-0.6l-58.6-13.6c-8.7-2-15.6-8.5-18.3-17-7.5-24.4-27.5-43.1-52.3-48.9-13.4-3.1-21.8-16.6-18.7-30 3.1-13.4 16.6-21.8 30-18.7 37.2 8.6 68.2 34.5 83.6 68.9l32.6 7.6c25.2-21 58-31 90.6-27.7l22.8-24.4c-5.6-32.3 2.1-65.8 21.4-92.3l-9.8-31.9c-30.8-11.3-55.8-34.7-69.2-64.6l-32.6-7.6c-15.3 12.8-33.4 21.6-53.2 25.7-11.7 2.4-23.5 3.1-35.3 2.1-13.8-1.2-24-13.3-22.8-27 1.2-13.8 13.3-24 27-22.8 7 0.6 14 0.2 20.9-1.3 14.5-3 27.5-10.4 37.7-21.2 6.1-6.5 15.2-9.3 23.9-7.2l58.6 13.6c8.7 2 15.6 8.5 18.3 17 7.5 24.4 27.5 43.1 52.3 48.9 8.7 2 15.6 8.5 18.3 17l17.6 57.5c2.6 8.6 0.5 17.9-5.7 24.4-17.4 18.6-23.6 45.3-16.1 69.7 2.6 8.5 0.5 17.8-5.6 24.4l-41 44c-6.1 6.5-15.2 9.3-23.9 7.3-24.8-5.8-51 2.3-68.5 20.9-4.8 5-11.5 7.8-18.3 7.8z" fill="" p-id="6198"></path><path d="M645.8 477.9c-40.4 0-73.3-32.9-73.3-73.3s32.9-73.3 73.3-73.3 73.3 32.9 73.3 73.3-32.9 73.3-73.3 73.3z m0-106.6c-18.4 0-33.3 14.9-33.3 33.3s14.9 33.3 33.3 33.3 33.3-14.9 33.3-33.3-14.9-33.3-33.3-33.3z" fill="#BCBCBC" p-id="6199"></path><path d="M688 926.8H346.4c-13.8 0-25-11.2-25-25v-59.9l-63.6-203.3c-10-15-18.9-30.8-26.5-47.1-5.8-12.5-0.4-27.4 12.1-33.2 12.5-5.8 27.4-0.4 33.2 12.1 7 15 15.2 29.5 24.6 43.2 1.4 2 2.5 4.3 3.2 6.6l65.8 210.4c0.8 2.4 1.1 4.9 1.1 7.5v38.7H663v-64.9c0-13.8 11.2-25 25-25h148l16.2-199.5c1.1-13 11.9-23 24.9-23H919l-63.2-108.6c-2.2-3.8-3.4-8.2-3.4-12.6 0-166.5-135.4-301.9-301.9-301.9-13.8 0-25-11.2-25-25s11.2-25 25-25c47.5 0 93.6 9.3 137 27.7 41.9 17.7 79.5 43.1 111.8 75.4 32.3 32.3 57.7 69.9 75.4 111.9 17.5 41.3 26.7 85 27.6 130.1l81.8 140.5c4.5 7.7 4.5 17.3 0.1 25-4.5 7.8-12.7 12.5-21.7 12.5h-62.4l-16.2 199.5c-1.1 13-11.9 23-24.9 23H713v64.9c0 13.8-11.2 25-25 25z" fill="" p-id="6200"></path></svg>