<?xml version="1.0" standalone="no"?><!DOCTYPE svg PUBLIC "-//W3C//DTD SVG 1.1//EN" "http://www.w3.org/Graphics/SVG/1.1/DTD/svg11.dtd"><svg t="1583240160026" class="icon" viewBox="0 0 1024 1024" version="1.1" xmlns="http://www.w3.org/2000/svg" p-id="10598" xmlns:xlink="http://www.w3.org/1999/xlink" width="200" height="200"><defs><style type="text/css"></style></defs><path d="M220.16 861.866667h-85.333333c-28.16 0-51.2-23.04-51.2-51.2V213.333333c0-28.16 23.04-51.2 51.2-51.2h85.333333c28.16 0 51.2 23.04 51.2 51.2v597.333334c0 28.16-23.04 51.2-51.2 51.2zM459.093333 861.866667h-85.333333c-28.16 0-51.2-23.04-51.2-51.2V213.333333c0-28.16 23.04-51.2 51.2-51.2h85.333333c28.16 0 51.2 23.04 51.2 51.2v597.333334c0 28.16-23.04 51.2-51.2 51.2zM904.106667 829.013333l-80.64 27.733334c-26.88 9.386667-55.893333-5.12-65.28-31.573334L563.626667 260.266667c-9.386667-26.88 5.12-55.893333 31.573333-65.28l80.64-27.733334c26.88-9.386667 55.893333 5.12 65.28 31.573334L935.68 763.733333c9.386667 26.88-4.693333 55.893333-31.573333 65.28z" fill="#4C4C4C" p-id="10599"></path></svg>