<?xml version="1.0" standalone="no"?><!DOCTYPE svg PUBLIC "-//W3C//DTD SVG 1.1//EN" "http://www.w3.org/Graphics/SVG/1.1/DTD/svg11.dtd"><svg t="1583240166127" class="icon" viewBox="0 0 1024 1024" version="1.1" xmlns="http://www.w3.org/2000/svg" p-id="10736" xmlns:xlink="http://www.w3.org/1999/xlink" width="200" height="200"><defs><style type="text/css"></style></defs><path d="M607.259 183.586l62.472-25.42c32.252-13.14 69.028 2.37 82.141 34.622a45.897 45.897 0 0 1 1.478 4.032l186.37 565.516c10.369 31.481-5.416 65.611-36.101 78.103l-62.505 25.422c-32.219 13.139-68.994-2.37-82.103-34.621a48.663 48.663 0 0 1-1.479-4.032L571.16 261.692c-10.402-31.482 5.418-65.612 36.099-78.106zM393.654 153.95h63.026c34.804 0 63.027 28.221 63.027 63.027V806.22c0 34.807-28.224 63.025-63.027 63.025h-63.026c-34.807 0-63.025-28.219-63.025-63.025V216.977c-0.001-34.806 28.218-63.027 63.025-63.027z m-252.105 0h63.025c34.804 0 63.026 28.221 63.026 63.027V806.22c0 34.807-28.222 63.025-63.026 63.025h-63.025c-34.807 0-63.031-28.219-63.031-63.025V216.977c0-34.806 28.224-63.027 63.031-63.027z" p-id="10737"></path></svg>