<?xml version="1.0" standalone="no"?><!DOCTYPE svg PUBLIC "-//W3C//DTD SVG 1.1//EN" "http://www.w3.org/Graphics/SVG/1.1/DTD/svg11.dtd"><svg t="1583405649385" class="icon" viewBox="0 0 1024 1024" version="1.1" xmlns="http://www.w3.org/2000/svg" p-id="2666" xmlns:xlink="http://www.w3.org/1999/xlink" width="200" height="200"><defs><style type="text/css"></style></defs><path d="M956.6 133.3l-62.9-62.9c-8.5-8.5-22.6-8.5-31.2 0.2l-61.2 61.2c-8.8 8.8-8.8 22.7-0.2 31.2l62.9 62.9c8.5 8.5 22.6 8.5 31.2-0.2l61.2-61.2c8.8-8.8 8.8-22.7 0.2-31.2zM378.6 570.8l-19.7 81c-2.9 11.9 4.4 19.3 16.4 16.4l80.9-19.7c11.9-2.9 14.7-12.2 6.1-20.8l-62.9-62.9c-8.5-8.5-17.9-5.9-20.8 6z" fill="#000000" p-id="2667"></path><path d="M895.8 892.8c0 12.4-10 22.4-22.4 22.4H134.2c-12.4 0-22.4-10-22.4-22.4V153.6c0-12.4 10-22.4 22.4-22.4h515.2l44.8-44.8h-560c-37.1 0-67.2 30.1-67.2 67.2v739.2c0 37.1 30.1 67.2 67.2 67.2h739.2c37.1 0 67.2-30.1 67.2-67.2V310.4l-44.8 44.8v537.6z" fill="#000000" p-id="2668"></path><path d="M414.8 549.3l62.9 62.9c8.5 8.5 22.5 8.5 31.2-0.2l339.4-339.4c8.6-8.6 8.7-22.6 0.2-31.2l-62.9-62.9c-8.5-8.5-22.5-8.5-31.2 0.2L415 518.1c-8.7 8.6-8.8 22.6-0.2 31.2z" fill="#000000" p-id="2669"></path></svg>