<?xml version="1.0" standalone="no"?><!DOCTYPE svg PUBLIC "-//W3C//DTD SVG 1.1//EN" "http://www.w3.org/Graphics/SVG/1.1/DTD/svg11.dtd"><svg t="1583241432627" class="icon" viewBox="0 0 1024 1024" version="1.1" xmlns="http://www.w3.org/2000/svg" p-id="23866" xmlns:xlink="http://www.w3.org/1999/xlink" width="200" height="200"><defs><style type="text/css"></style></defs><path d="M369.437585 678.288281l64.901149 86.490863 22.083971 0L607.479073 605.751221l119.321596 159.027923 71.447239 0L607.479073 513.579985 445.380208 688.829358 369.437585 585.346495 233.094314 764.780167l71.446215 0L369.437585 678.288281zM274.238386 272.66096l63.698764 0 0 63.698764-63.698764 0L274.238386 272.66096 274.238386 272.66096zM385.055285 272.66096l365.597629 0 0 63.698764L385.055285 336.359724 385.055285 272.66096 385.055285 272.66096zM274.238386 400.058488l63.698764 0 0 62.822814-63.698764 0L274.238386 400.058488 274.238386 400.058488zM385.055285 400.058488l365.597629 0 0 62.822814L385.055285 462.881302 385.055285 400.058488 385.055285 400.058488zM892.880195 257.394255c0-70.117964-56.839543-126.957507-126.959553-126.957507L258.096754 130.436748c-70.117964 0-126.95853 56.839543-126.95853 126.957507l0 507.817748c0 70.120011 56.840566 126.960577 126.95853 126.960577l507.823887 0c70.120011 0 126.959553-56.840566 126.959553-126.960577L892.880195 257.394255 892.880195 257.394255zM849.773422 756.258073c0 50.774407-41.159422 91.934852-91.933829 91.934852l-490.787886 0c-50.773384 0-91.933829-41.160445-91.933829-91.934852L175.117878 265.479397c0-50.77236 41.160445-91.938945 91.933829-91.938945l490.787886 0c50.774407 0 91.933829 41.166585 91.933829 91.938945L849.773422 756.258073 849.773422 756.258073zM830.055334 741.916437" p-id="23867"></path></svg>