<?xml version="1.0" standalone="no"?><!DOCTYPE svg PUBLIC "-//W3C//DTD SVG 1.1//EN" "http://www.w3.org/Graphics/SVG/1.1/DTD/svg11.dtd"><svg t="1583240814852" class="icon" viewBox="0 0 1024 1024" version="1.1" xmlns="http://www.w3.org/2000/svg" p-id="16982" xmlns:xlink="http://www.w3.org/1999/xlink" width="200" height="200"><defs><style type="text/css"></style></defs><path d="M659.992381 888.685714h-185.051429c-6.826667 0-12.190476-5.36381-12.190476-12.190476s5.36381-12.190476 12.190476-12.190476h179.931429l172.617143-172.617143V206.019048c0-20.23619-16.335238-36.571429-36.571429-36.571429H253.805714c-20.23619 0-36.571429 16.335238-36.571428 36.571429v312.563809c0 6.826667-5.36381 12.190476-12.190476 12.190476s-12.190476-5.36381-12.190477-12.190476V206.019048a60.952381 60.952381 0 0 1 60.952381-60.952381h537.112381a60.952381 60.952381 0 0 1 60.952381 60.952381v490.544762c0 3.169524-1.219048 6.339048-3.657143 8.533333l-179.931428 179.687619c-1.950476 2.681905-5.12 3.900952-8.289524 3.900952z" p-id="16983"></path><path d="M659.992381 888.685714c-6.826667 0-12.190476-5.36381-12.190476-12.190476v-130.925714a60.952381 60.952381 0 0 1 60.952381-60.952381h131.169524c6.826667 0 12.190476 5.36381 12.190476 12.190476s-5.36381 12.190476-12.190476 12.190476h-131.169524c-20.23619 0-36.571429 16.335238-36.571429 36.571429v130.925714c0 6.826667-5.607619 12.190476-12.190476 12.190476zM736.792381 338.895238H430.32381c-6.826667 0-12.190476-5.36381-12.190477-12.190476s5.36381-12.190476 12.190477-12.190476h306.224761c6.826667 0 12.190476 5.36381 12.190477 12.190476s-5.36381 12.190476-11.946667 12.190476zM736.792381 465.67619h-149.699048c-6.826667 0-12.190476-5.36381-12.190476-12.190476s5.36381-12.190476 12.190476-12.190476h149.699048c6.826667 0 12.190476 5.36381 12.190476 12.190476s-5.607619 12.190476-12.190476 12.190476zM736.792381 592.700952h-89.234286c-6.826667 0-12.190476-5.36381-12.190476-12.190476s5.36381-12.190476 12.190476-12.190476h89.234286c6.826667 0 12.190476 5.36381 12.190476 12.190476s-5.607619 12.190476-12.190476 12.190476zM344.990476 338.895238h-34.133333c-6.826667 0-12.190476-5.36381-12.190476-12.190476s5.36381-12.190476 12.190476-12.190476h34.133333c6.826667 0 12.190476 5.36381 12.190476 12.190476s-5.36381 12.190476-12.190476 12.190476z" p-id="16984"></path><path d="M348.40381 927.695238a11.459048 11.459048 0 0 1-8.533334-3.657143c-4.87619-4.87619-4.87619-12.434286 0-17.310476l184.32-184.32c63.146667-63.146667 68.510476-160.670476 11.702857-217.234286-27.062857-27.062857-64.853333-40.71619-105.569523-39.009523-41.447619 2.194286-81.188571 20.23619-111.664762 50.71238l-180.419048 180.419048c-23.649524 23.649524-37.546667 54.125714-39.009524 86.064762-1.706667 31.451429 8.777143 60.220952 29.744762 80.944762 20.72381 20.72381 49.737143 31.207619 80.944762 29.744762 31.939048-1.706667 62.415238-15.36 86.064762-39.009524l175.055238-175.055238c15.847619-15.847619 25.112381-36.327619 26.331429-57.782857 0.975238-20.967619-6.095238-39.984762-19.748572-53.881905-13.897143-13.897143-33.158095-20.72381-53.881905-19.748571-21.455238 0.975238-41.935238 10.48381-57.782857 26.331428l-172.129524 172.129524c-8.045714 8.045714-12.678095 18.529524-13.409523 29.257143-0.487619 10.24 2.925714 19.748571 9.752381 26.575238 14.384762 14.384762 39.253333 12.678095 55.832381-3.657143l172.373333-172.373333c4.87619-4.87619 12.434286-4.87619 17.310476 0s4.87619 12.434286 0 17.310476l-172.373333 172.373333c-25.84381 25.84381-66.31619 27.550476-90.209524 3.657143-11.702857-11.702857-17.554286-27.550476-16.822857-44.860952 0.975238-16.822857 8.045714-32.914286 20.48-45.348572l172.129524-172.129524c20.23619-20.23619 46.32381-31.939048 73.874285-33.401904 28.038095-1.462857 53.638095 8.045714 72.411429 26.819047s28.281905 44.373333 26.819047 72.411429c-1.462857 27.550476-13.165714 53.638095-33.401904 73.874286l-175.055238 175.055238c-27.794286 27.794286-64.121905 44.373333-101.912381 46.08-38.278095 1.706667-73.630476-11.215238-99.474286-36.815238s-38.765714-60.952381-36.815238-99.474286c1.950476-37.790476 18.285714-74.118095 46.08-101.912381l180.419047-180.419048c34.864762-34.864762 80.213333-55.344762 127.756191-57.782857 48.030476-2.681905 91.91619 13.897143 124.099048 46.08 66.072381 66.072381 60.952381 178.95619-11.702858 251.855238l-184.32 184.32c-3.169524 1.950476-6.339048 3.169524-9.264761 3.169524z" p-id="16985"></path></svg>