<?xml version="1.0" standalone="no"?><!DOCTYPE svg PUBLIC "-//W3C//DTD SVG 1.1//EN" "http://www.w3.org/Graphics/SVG/1.1/DTD/svg11.dtd"><svg t="1583241366784" class="icon" viewBox="0 0 1024 1024" version="1.1" xmlns="http://www.w3.org/2000/svg" p-id="22001" xmlns:xlink="http://www.w3.org/1999/xlink" width="200" height="200"><defs><style type="text/css"></style></defs><path d="M384 0v96a541.44 541.44 0 0 1 384.64 159.296 542.208 542.208 0 0 1 159.296 384.64h96c0-353.472-286.528-640-640-640z" fill="" p-id="22002"></path><path d="M384 192v96c94.016 0 182.4 36.608 248.896 103.104S736 545.984 736 640H832a448 448 0 0 0-448-448zM480 384l-64 64L192 512l-192 416 25.344 25.344 232.832-232.832a64 64 0 1 1 45.248 45.248l-232.832 232.832 25.344 25.344 416-192 64-224 64-64-160-160z" fill="" p-id="22003"></path></svg>