<?xml version="1.0" standalone="no"?><!DOCTYPE svg PUBLIC "-//W3C//DTD SVG 1.1//EN" "http://www.w3.org/Graphics/SVG/1.1/DTD/svg11.dtd"><svg t="1583239859730" class="icon" viewBox="0 0 1024 1024" version="1.1" xmlns="http://www.w3.org/2000/svg" p-id="8375" xmlns:xlink="http://www.w3.org/1999/xlink" width="200" height="200"><defs><style type="text/css"></style></defs><path d="M512 341.333333c-117.845333 0-213.333333 95.488-213.333333 213.333334s95.488 213.333333 213.333333 213.333333 213.333333-95.488 213.333333-213.333333-95.488-213.333333-213.333333-213.333334z m0-42.666666c141.397333 0 256 114.581333 256 256s-114.602667 256-256 256c-141.418667 0-256-114.581333-256-256s114.581333-256 256-256z m279.616-42.325334h104.448a85.674667 85.674667 0 0 1 85.568 85.269334l1.706667 469.12a84.650667 84.650667 0 0 1-85.077334 85.056l-767.936-1.813334a85.973333 85.973333 0 0 1-85.674666-85.504l-1.685334-466.816a84.928 84.928 0 0 1 84.992-85.312h130.410667c11.861333 0 25.792-8.618667 31.125333-19.221333l34.858667-69.376c10.496-20.906667 38.144-38.08 61.674667-38.186667l276.928-1.344c23.637333-0.128 51.2 16.853333 61.824 37.952l35.904 71.253334c5.290667 10.496 19.114667 18.922667 30.933333 18.922666z m0 42.666667c-27.882667 0-56.469333-17.472-69.034667-42.410667l-35.904-71.253333c-3.349333-6.656-16.128-14.506667-23.509333-14.464l-276.906667 1.344c-7.466667 0.021333-20.48 8.106667-23.786666 14.677333l-34.858667 69.376c-12.586667 25.024-41.237333 42.730667-69.248 42.730667H127.957333c-23.466667 0-42.410667 18.986667-42.325333 42.474667l1.706667 466.837333a43.306667 43.306667 0 0 0 43.093333 42.986667l767.914667 1.813333a41.984 41.984 0 0 0 42.304-42.24l-1.685334-469.12a43.008 43.008 0 0 0-42.88-42.752h-104.469333zM506.666667 714.666667a21.333333 21.333333 0 1 1 0-42.666667c61.866667 0 112-50.133333 112-112a21.333333 21.333333 0 0 1 42.666666 0 154.666667 154.666667 0 0 1-154.666666 154.666667z" fill="#3D3D3D" p-id="8376"></path></svg>