<?xml version="1.0" standalone="no"?><!DOCTYPE svg PUBLIC "-//W3C//DTD SVG 1.1//EN" "http://www.w3.org/Graphics/SVG/1.1/DTD/svg11.dtd"><svg t="1583240195018" class="icon" viewBox="0 0 1024 1024" version="1.1" xmlns="http://www.w3.org/2000/svg" p-id="11434" xmlns:xlink="http://www.w3.org/1999/xlink" width="200" height="200"><defs><style type="text/css"></style></defs><path d="M510.7 816c-8.6 0-17.3-1.8-25.4-5.5-86.4-38.8-155-58.5-203.8-58.5-44.9 0-89 12.5-131.1 37.2-4.6 2.7-9.9 4.1-15.2 4.1-16.5 0-30-13.5-30-30V205.5c0-30.6 21.9-56.3 52-61.2 61.8-10.1 124.4-7.9 186.2 6.5 62 14.4 114.3 39.1 155.5 73.3 9.3 7.7 22.4 8.6 32.6 2.2 56.3-34.9 113.4-59.2 169.8-72.3 53.3-12.4 108.2-15.3 163-8.6 31 3.8 54.5 30.3 54.5 61.5v546.3c0 5.9-1.7 11.5-4.9 16.4-9.1 13.8-27.7 17.7-41.5 8.7-18.5-12.1-51.6-21-98.5-26.4-65.9-7.6-145 11.7-235 57.4-9 4.5-18.6 6.7-28.2 6.7z m-229.3-98c54.4 0 125.6 20.1 217.7 61.5 7.8 3.5 16.6 3.3 24.2-0.6 47.7-24.2 93.1-41.6 135-51.7 42.5-10.3 82.7-13.3 119.3-9.1 48.5 5.6 83.6 14.8 107.1 28V206.9c0-14.1-10.6-26.1-24.6-27.8-50.9-6.2-101.7-3.6-151.2 7.9-52.8 12.3-106.5 35.2-159.5 68.1-22.7 14.1-51.7 12.1-72.3-5-37.1-30.8-84.7-53.1-141.5-66.3-57.4-13.4-115.6-15.4-173-6.1-13.6 2.2-23.5 13.8-23.5 27.6v551C184.7 731 232.6 718 281.4 718z" fill="#454545" p-id="11435"></path><path d="M447.2 351.3c-3 0-6-0.8-8.7-2.4-38.3-22.8-77-39.4-115.1-49.4-37.9-9.9-76.2-13.4-113.8-10.6-9.4 0.7-17.5-6.3-18.2-15.7-0.7-9.4 6.3-17.5 15.7-18.2 41.4-3.1 83.4 0.8 124.9 11.7 41.2 10.8 82.9 28.6 124 53.1 8.1 4.8 10.7 15.2 5.9 23.3-3.3 5.2-8.9 8.2-14.7 8.2zM447.2 431.3c-3 0-6-0.8-8.8-2.5-37.3-22.5-75-38.9-112.1-48.6-37-9.7-76.4-13.5-117.1-11.4-9.4 0.5-17.4-6.7-17.8-16.1-0.5-9.4 6.7-17.4 16.1-17.8 44.2-2.3 87.1 1.9 127.4 12.5 40.3 10.5 81 28.1 121.1 52.3 8 4.9 10.6 15.3 5.8 23.3-3.3 5.4-8.9 8.3-14.6 8.3zM446.8 521.4c-3 0-6.1-0.8-8.8-2.5-36.9-22.4-74.3-38.7-111-48.3-36.7-9.5-76.5-13.4-118.3-11.6-9.4 0.4-17.3-6.9-17.7-16.2-0.4-9.4 6.9-17.3 16.2-17.7 45.2-2 88.4 2.3 128.4 12.7 39.9 10.4 80.3 28 120.1 52.1 8 4.9 10.6 15.3 5.7 23.4-3.2 5.2-8.8 8.1-14.6 8.1zM446.8 604.4c-3 0-6.1-0.8-8.8-2.5-36.8-22.4-74-38.6-110.6-48.2-36.6-9.5-76.5-13.5-118.7-11.7-9.4 0.4-17.3-6.9-17.7-16.3-0.4-9.4 6.9-17.3 16.3-17.7 45.6-1.9 88.9 2.4 128.7 12.8 39.8 10.4 80.1 27.9 119.7 52 8 4.9 10.6 15.3 5.7 23.4-3.2 5.3-8.8 8.2-14.6 8.2zM446.8 687.4c-2.9 0-5.9-0.8-8.6-2.4-39-23-78.6-39.9-117.4-50-38.5-10-75.9-13.4-111.2-10.1-9.3 0.9-17.6-6-18.5-15.3-0.9-9.3 6-17.6 15.3-18.5 39.3-3.7 80.6 0 123 11.1 41.9 11 84.4 29 126.1 53.6 8.1 4.8 10.8 15.2 6 23.3-3.2 5.3-8.9 8.3-14.7 8.3z" fill="#454545" p-id="11436"></path><path d="M589.2 521.4c-5.8 0-11.5-3-14.7-8.4-4.8-8.1-2.1-18.5 6-23.3 41.7-24.6 84.1-42.6 125.9-53.5 42.3-11.1 83.7-14.8 123.2-11.1 9.3 0.9 16.2 9.2 15.4 18.5-0.9 9.3-9.1 16.2-18.5 15.4-35.5-3.3-73 0.1-111.4 10.2-38.8 10.1-78.3 26.9-117.2 50-2.8 1.4-5.8 2.2-8.7 2.2zM589.2 604.4c-5.8 0-11.5-3-14.7-8.4-4.8-8.1-2.1-18.5 6-23.3C622.4 548.1 665 530 707.1 519c42.5-11.1 83.7-14.8 122.6-10.9 9.3 0.9 16.1 9.2 15.2 18.6-0.9 9.3-9.2 16.2-18.6 15.2-34.8-3.4-72.1-0.1-110.7 10-39 10.2-78.7 27.1-117.9 50.1-2.6 1.6-5.6 2.4-8.5 2.4zM589.2 687.4c-5.8 0-11.5-3-14.7-8.4-4.8-8.1-2.1-18.5 6-23.3C622.4 631 665 613 707.1 602c42.5-11.1 83.8-14.8 122.5-10.9 9.3 0.9 16.2 9.3 15.2 18.6s-9.3 16.2-18.6 15.2c-34.7-3.5-71.9-0.1-110.6 10-39.1 10.2-78.8 27.1-118 50.2-2.5 1.5-5.5 2.3-8.4 2.3z" fill="#454545" p-id="11437"></path><path d="M513.5 886.4c-2.7 0-5.4-0.6-7.9-1.9-85.6-44.7-138.9-65-203.8-77.4-39.8-7.6-90.8 4.4-151.5 35.6-8.4 4.3-18.6 1-22.9-7.3-4.3-8.4-1-18.6 7.3-22.9 67.6-34.8 126-47.8 173.4-38.8 65.6 12.5 122 33.5 205.5 76.6 8-4 15.8-8 23.4-11.8 55.4-28.2 107.7-54.8 177.4-64.9 56-8.1 120.4 4.9 191.3 38.7 8.5 4 12.1 14.2 8 22.7-4 8.5-14.2 12.1-22.7 8-64.8-30.8-122.5-42.8-171.8-35.7-64.1 9.3-111.7 33.5-166.8 61.5-10.2 5.2-20.7 10.5-31.5 15.9-2.3 1.1-4.9 1.7-7.4 1.7z m0-67.5c-0.1 0-0.1 0 0 0-9.4 0-17-7.6-17-17v-0.1l2.1-549.8c0-9.4 7.6-16.9 17-16.9h0.1c9.4 0 16.9 7.6 16.9 17v0.1L530.5 802c-0.1 9.4-7.7 16.9-17 16.9zM813.9 342.1c-3.5 0-6.9-1.1-9.9-3.1l-47.2-33.6-54.4 34.2c-5.2 3.3-11.9 3.5-17.3 0.5s-8.8-8.7-8.8-14.9V181.5c0-9.4 7.6-17 17-17s17 7.6 17 17v112.9l38-23.9c5.8-3.7 13.3-3.4 18.9 0.5l29.7 21.1V158.7c0-9.4 7.6-17 17-17s17 7.6 17 17v166.4c0 6.4-3.6 12.2-9.2 15.1-2.5 1.3-5.1 1.9-7.8 1.9z" fill="#454545" p-id="11438"></path></svg>