<?xml version="1.0" standalone="no"?><!DOCTYPE svg PUBLIC "-//W3C//DTD SVG 1.1//EN" "http://www.w3.org/Graphics/SVG/1.1/DTD/svg11.dtd"><svg t="1583240838448" class="icon" viewBox="0 0 1024 1024" version="1.1" xmlns="http://www.w3.org/2000/svg" p-id="17935" xmlns:xlink="http://www.w3.org/1999/xlink" width="200" height="200"><defs><style type="text/css"></style></defs><path d="M924.2 746.8c-2 3.3-3.6 6.9-6 9.8-5.1 6.2-12.1 8.4-20 8.4-71.6-0.1-143.3 0-214.9 0h-31c-15.3-0.1-25.8-10.6-25.8-25.9 0-45.6 0.1-91.3 0-136.9 0-16.5 13-26.2 26.1-26.1 72.2 0.3 144.3 0.1 216.5 0.1 5.7 0 5.7 0 5.7-5.6V464.7c0-15-9.4-24.4-24.5-24.4-151.8 0-303.6 0-455.4 0.2-10.7 0-18.7-3.4-25.6-11.6-24.5-29-49.5-57.7-74.1-86.6-2.8-3.2-5.5-4.6-9.8-4.5-36.7 0.2-73.5 0.4-110.2-0.1-10.8-0.1-23.5 7.8-23.7 23.3v489.5c0 9.6 2.9 17.8 11.7 22.4 3.5 1.8 7.9 2.8 11.8 2.8 136.2 0.1 272.3 0.1 408.5 0.1h266.1c7.3 0 14.1 1.5 19.6 6.7 7.4 6.9 10.2 17.6 6.4 27-3.9 9.9-11.5 15.3-22.2 16-1.4 0.1-2.8 0-4.3 0H175.3c-36.3 0-64.9-23.5-72.1-59.1-0.5-2.4-0.9-4.8-1.4-7.1V354.2c0.3-1.2 0.7-2.5 0.9-3.7 3.4-28.9 25.7-54.5 54.3-60.3 11-2.2 22.6-1.6 33.9-2.3 1.9-0.1 3.7-0.2 5.8-0.3v-5.1-116.8c0-29.6 19.8-56.2 48.3-64.5 4.7-1.4 9.5-2.1 14.3-3.1h508.2c2.1 0.4 4.3 0.8 6.4 1.2 33.7 6.7 55.9 33.9 55.9 68.2v66.3c0 20.3 0.1 40.6 0 60.9-0.1 16.1-13.6 27.2-29.3 24.5-11.9-2.1-20.1-12-20.1-24.4-0.1-25.1 0-50.2 0-75.2 0-16.8 0.1-33.6 0-50.4-0.1-14.3-7.3-21.4-21.6-21.4-15.8 0-31.5 0.1-47.3-0.1-3.7 0-4.8 1-4.8 4.7 0.1 77.9 0.1 155.9 0.1 233.8 0 1.4 0.1 2.7 0.2 4.5H852.7c32.6 0 60.8 21.7 69.3 53.4 0.8 3.1 1.5 6.2 2.3 9.3-0.1 97.9-0.1 195.7-0.1 293.4zM657 390.9c0.1-2.1 0.2-3.4 0.2-4.8 0-77.8 0-155.7 0.1-233.5 0-3.6-0.8-4.9-4.7-4.9-128.8 0.1-257.6 0.1-386.4 0.1-12.4 0-20.3 8-20.3 20.4 0 38.5 0 77.1-0.1 115.6 0 3.6 1.1 4.6 4.6 4.6 17.3-0.2 34.7 0 52-0.1 7.9 0 14.3 2.9 19.4 8.8 25.9 30.2 51.9 60.4 77.7 90.6 1.9 2.3 3.8 3.2 6.9 3.2 82-0.1 164-0.1 245.9-0.1 1.4 0.1 2.8 0.1 4.7 0.1zM874.7 715c0.1-1.6 0.2-3 0.2-4.4 0-26.8-0.1-53.5 0.1-80.3 0-3.8-1.1-4.7-4.8-4.7-63.1 0.1-126.1 0.1-189.2 0-3.8 0-4.7 1.1-4.7 4.8 0.1 26.8 0.1 53.5 0.1 80.3 0 1.4 0.1 2.8 0.2 4.3h198.1z" p-id="17936"></path></svg>