<?xml version="1.0" standalone="no"?><!DOCTYPE svg PUBLIC "-//W3C//DTD SVG 1.1//EN" "http://www.w3.org/Graphics/SVG/1.1/DTD/svg11.dtd"><svg t="1583241390198" class="icon" viewBox="0 0 1024 1024" version="1.1" xmlns="http://www.w3.org/2000/svg" p-id="22485" xmlns:xlink="http://www.w3.org/1999/xlink" width="200" height="200"><defs><style type="text/css"></style></defs><path d="M913.066667 755.2c-85.333333 110.933333-42.666667 204.8-12.8 251.733333 12.8 17.066667-4.266667 17.066667-12.8 17.066667a256 256 0 0 1-170.666667-115.2c-8.533333-4.266667-12.8-8.533333-21.333333-4.266667-59.733333 17.066667-119.466667 29.866667-183.466667 25.6C230.4 930.133333 0 725.333333 0 469.333333 0 213.333333 230.4 0 512 0s512 209.066667 512 469.333333c0 106.666667-42.666667 204.8-110.933333 285.866667zM512 597.333333l136.533333 93.866667a17.066667 17.066667 0 0 0 25.6-17.066667L622.933333 512l132.266667-102.4a17.066667 17.066667 0 0 0-8.533333-25.6h-166.4l-55.466667-162.133333a17.066667 17.066667 0 0 0-25.6 0L443.733333 384h-170.666666a17.066667 17.066667 0 0 0-4.266667 29.866667l128 102.4-42.666667 157.866666a17.066667 17.066667 0 0 0 21.333334 17.066667L512 597.333333z" fill="" p-id="22486"></path></svg>