<?xml version="1.0" standalone="no"?><!DOCTYPE svg PUBLIC "-//W3C//DTD SVG 1.1//EN" "http://www.w3.org/Graphics/SVG/1.1/DTD/svg11.dtd"><svg t="1583241473779" class="icon" viewBox="0 0 1024 1024" version="1.1" xmlns="http://www.w3.org/2000/svg" p-id="25129" xmlns:xlink="http://www.w3.org/1999/xlink" width="200" height="200"><defs><style type="text/css"></style></defs><path d="M384 853.333333H128c-12.8 0-21.333333-8.533333-21.333333-21.333333V448c0-12.8 8.533333-21.333333 21.333333-21.333333h256c12.8 0 21.333333 8.533333 21.333333 21.333333v384c0 12.8-8.533333 21.333333-21.333333 21.333333zM149.333333 810.666667h213.333334V469.333333H149.333333v341.333334z" p-id="25130"></path><path d="M640 853.333333H384c-12.8 0-21.333333-8.533333-21.333333-21.333333V192c0-12.8 8.533333-21.333333 21.333333-21.333333h256c12.8 0 21.333333 8.533333 21.333333 21.333333v640c0 12.8-8.533333 21.333333-21.333333 21.333333z m-234.666667-42.666666h213.333334V213.333333H405.333333v597.333334z" p-id="25131"></path><path d="M896 853.333333H640c-12.8 0-21.333333-8.533333-21.333333-21.333333V618.666667c0-12.8 8.533333-21.333333 21.333333-21.333334h256c12.8 0 21.333333 8.533333 21.333333 21.333334v213.333333c0 12.8-8.533333 21.333333-21.333333 21.333333z m-234.666667-42.666666h213.333334v-170.666667H661.333333v170.666667zM384 533.333333H128c-6.4 0-10.666667-4.266667-10.666667-10.666666s4.266667-10.666667 10.666667-10.666667h256c6.4 0 10.666667 4.266667 10.666667 10.666667s-4.266667 10.666667-10.666667 10.666666zM640 277.333333H384c-6.4 0-10.666667-4.266667-10.666667-10.666666s4.266667-10.666667 10.666667-10.666667h256c6.4 0 10.666667 4.266667 10.666667 10.666667s-4.266667 10.666667-10.666667 10.666666z" p-id="25132"></path><path d="M896 704H640c-6.4 0-10.666667-4.266667-10.666667-10.666667s4.266667-10.666667 10.666667-10.666666h256c6.4 0 10.666667 4.266667 10.666667 10.666666s-4.266667 10.666667-10.666667 10.666667zM565.333333 465.066667v36.266666h-104.533333v-36.266666h34.133333v-98.133334h-27.733333v-32l8.533333-2.133333c12.8-2.133333 21.333333-4.266667 27.733334-8.533333l2.133333-2.133334H533.333333v140.8h32z" p-id="25133"></path></svg>