<?xml version="1.0" standalone="no"?><!DOCTYPE svg PUBLIC "-//W3C//DTD SVG 1.1//EN" "http://www.w3.org/Graphics/SVG/1.1/DTD/svg11.dtd"><svg t="1583241420887" class="icon" viewBox="0 0 1024 1024" version="1.1" xmlns="http://www.w3.org/2000/svg" p-id="23587" xmlns:xlink="http://www.w3.org/1999/xlink" width="200" height="200"><defs><style type="text/css"></style></defs><path d="M511.939185 874.030645C312.344934 874.030645 149.969355 711.655066 149.969355 511.939185c0-199.594251 162.375579-361.96983 361.96983-361.96983 199.594251 0 361.96983 162.375579 361.96983 361.96983 0.12163 199.715881-162.253949 362.09146-361.96983 362.09146z m0-677.963654C337.76553 196.066991 195.945362 337.76553 195.945362 512.060815s141.698539 315.993823 315.993823 315.993823S827.933009 686.356099 827.933009 512.060815 686.23447 196.066991 511.939185 196.066991z" fill="#5B5C5C" p-id="23588"></path><path d="M554.144673 333.265233c-17.636299-35.759116-28.461337-70.666825-33.934672-90.978976V498.681554c9.000594 3.40563 15.325336 11.919705 15.325336 22.014966 0 13.014372-10.581779 23.596152-23.596152 23.596151s-23.596152-10.581779-23.596151-23.596151c0-10.581779 7.05452-19.460744 16.663261-22.379855V242.042998c-5.473334 20.190521-16.298373 55.21986-34.056301 91.222235-27.73156 56.071267-62.274379 105.452904-62.274379 105.452905L430.93384 741.089441s21.041929 23.474522 81.613493 23.474521c60.693194 0 81.613493-23.474522 81.613494-23.474521l22.136595-302.371303c0.12163 0-34.42119-49.381637-62.152749-105.452905z" fill="#5B5C5C" p-id="23589"></path></svg>