<?xml version="1.0" standalone="no"?><!DOCTYPE svg PUBLIC "-//W3C//DTD SVG 1.1//EN" "http://www.w3.org/Graphics/SVG/1.1/DTD/svg11.dtd"><svg t="1583406082247" class="icon" viewBox="0 0 1024 1024" version="1.1" xmlns="http://www.w3.org/2000/svg" p-id="8876" xmlns:xlink="http://www.w3.org/1999/xlink" width="200" height="200"><defs><style type="text/css"></style></defs><path d="M818.5 303.8c-2.3 2.3-5.5 3.7-9 3.7h-37.2c-7 0-12.8-5.7-12.8-12.8s5.7-12.8 12.8-12.8h37.2c7 0 12.8 5.7 12.8 12.8 0 3.6-1.5 6.8-3.8 9.1z" fill="" p-id="8877"></path><path d="M970.5 126.9c7.1 0 13.8 2.8 18.9 7.9 5.1 5.1 7.9 11.8 7.9 18.9v590.7c0 7.1-2.8 13.8-7.9 18.9-5.1 5.1-11.8 7.9-18.9 7.9H621.4l-8 8.5-100.6 107.9-116.4-109.1-7.7-7.3h-331c-7.1 0-13.8-2.8-18.9-7.9s-7.9-11.8-7.9-18.9V153.7c0-7.1 2.8-13.8 7.9-18.9 5.1-5.1 11.8-7.9 18.9-7.9h912.8m0-26.9H57.7C28.1 100 4 124.2 4 153.7v590.7C4 773.9 28.1 798 57.7 798h320.4l136 127.5 119-127.5h337.4c29.5 0 53.7-24.2 53.7-53.7V153.7c0-29.5-24.2-53.7-53.7-53.7z" fill="" p-id="8878"></path><path d="M195.3 280.7h510.1v30.6H195.3zM818.5 456.8c-2.3 2.3-5.5 3.7-9 3.7h-37.2c-7 0-12.8-5.7-12.8-12.8s5.7-12.8 12.8-12.8h37.2c7 0 12.8 5.7 12.8 12.8 0 3.6-1.5 6.8-3.8 9.1zM195.3 433.7h510.1v30.6H195.3zM818.5 609.8c-2.3 2.3-5.5 3.7-9 3.7h-37.2c-7 0-12.8-5.7-12.8-12.8s5.7-12.8 12.8-12.8h37.2c7 0 12.8 5.7 12.8 12.8 0 3.6-1.5 6.8-3.8 9.1zM195.3 586.8h510.1v30.6H195.3z" fill="" p-id="8879"></path></svg>