<?xml version="1.0" standalone="no"?><!DOCTYPE svg PUBLIC "-//W3C//DTD SVG 1.1//EN" "http://www.w3.org/Graphics/SVG/1.1/DTD/svg11.dtd"><svg t="1583240214636" class="icon" viewBox="0 0 1024 1024" version="1.1" xmlns="http://www.w3.org/2000/svg" p-id="11716" xmlns:xlink="http://www.w3.org/1999/xlink" width="200" height="200"><defs><style type="text/css"></style></defs><path d="M657.749333 142.222222c-55.523556 0-113.777778 24.007111-145.976889 63.488-32.426667-39.480889-90.794667-63.488-145.863111-63.488H48.241778v728.177778h288.881778c109.795556-1.934222 126.634667 14.677333 135.509333 22.755556a48.924444 48.924444 0 0 1 12.970667 22.755555h52.337777a49.607111 49.607111 0 0 1 16.611556-27.534222c13.425778-9.102222 34.133333-20.252444 159.288889-18.773333h261.688889V142.222222z m-172.487111 694.044445c-35.498667-13.312-104.903111-18.887111-151.210666-18.887111H100.238222V194.56h265.671111c56.888889 0 119.694222 33.223111 119.694223 80.896v481.621333s-0.796444 45.169778-0.341334 79.075556z m240.526222-18.659556c-97.962667-1.706667-152.689778 0.796444-187.505777 18.659556V275.456c0-47.672889 63.146667-80.896 119.808-80.896h265.329777v622.933333z" fill="#538EF4" p-id="11717"></path><path d="M810.666667 415.288889l-79.644445-62.577778-79.758222 62.577778v-307.2h159.402667v307.2zM167.708444 332.231111h250.311112v52.337778h-250.311112zM167.708444 480.369778h250.311112v52.337778h-250.311112zM167.708444 628.508444h250.311112v52.337778h-250.311112z" fill="#538EF4" p-id="11718"></path></svg>