<?xml version="1.0" standalone="no"?><!DOCTYPE svg PUBLIC "-//W3C//DTD SVG 1.1//EN" "http://www.w3.org/Graphics/SVG/1.1/DTD/svg11.dtd"><svg t="1583405875151" class="icon" viewBox="0 0 1027 1024" version="1.1" xmlns="http://www.w3.org/2000/svg" p-id="6343" xmlns:xlink="http://www.w3.org/1999/xlink" width="200.5859375" height="200"><defs><style type="text/css"></style></defs><path d="M997.391059 628.058353L978.823529 626.341647a202.059294 202.059294 0 0 0-23.913411-57.208471l10.571294-13.025882c9.411765-11.550118 9.953882-26.819765 1.219764-35.553882l-34.590117-34.590118c-8.508235-8.478118-23.326118-8.146824-34.770824 0.662588l-16.022588 10.37553c-10.435765-7.228235-17.950118-12.318118-34.258823-16.534588V203.866353c0-42.029176-35.282824-87.160471-75.173648-87.160471H485.240471c-22.904471-25.479529-60.973176-32.888471-91.904-15.254588l-43.474824 24.847059L42.932706 301.748706a74.571294 74.571294 0 0 0-27.708235 101.632L285.214118 875.730824a74.029176 74.029176 0 0 0 45.101176 34.831058c6.565647 1.776941 13.221647 2.665412 19.832471 2.665412 12.754824 0 25.313882-3.312941 36.608-9.758118l166.113882-93.650823-0.240941-0.421647h30.373647c1.400471 1.716706 3.011765 3.222588 4.939294 4.186353 0.316235 0.150588 0.647529 0.271059 0.978824 0.406588l29.153882 39.499294c0.451765 0.602353 0.948706 1.069176 1.475765 1.611294 11.188706 11.248941 25.464471 13.010824 34.650353 5.436236l18.236235-13.146353a204.077176 204.077176 0 0 0 52.434823 22.889411l2.304 20.043295c4.397176 42.947765 18.823529 39.544471 24.259765 39.54447h48.865882c4.939294 0 19.983059 3.418353 24.184471-38.053647l1.807059-8.643765c20.178824-5.436235 38.881882-15.375059 55.401412-25.554823l14.848 10.782117c10.992941 9.020235 26.624 9.110588 35.629176 0.13553l34.575059-35.011765c8.764235-8.794353 8.342588-24.169412-1.054118-35.689412l-11.264-14.20047c10.917647-17.543529 19.486118-36.397176 24.651294-56.32l18.236236-1.807059c13.839059-1.385412 30.433882-10.375529 30.433882-24.289882V652.348235c0.015059-13.929412-16.579765-22.889412-30.358588-24.289882zM488.628706 120.289882c-0.436706-0.557176-0.978824-0.978824-1.430588-1.520941 1.370353 0.451765 2.123294 0.963765 1.430588 1.520941z m-79.947294 8.011294a43.595294 43.595294 0 0 1 48.338823 3.46353h-54.407529l6.068706-3.46353z m-37.195294 748.288a43.128471 43.128471 0 0 1-33.039059 4.141177 43.264 43.264 0 0 1-26.383059-20.329412L42.059294 388.035765a43.279059 43.279059 0 0 1-4.141176-33.054118 43.218824 43.218824 0 0 1 20.34447-26.383059l248.094118-141.808941a105.065412 105.065412 0 0 0-1.41553 15.540706v133.556706a7.68 7.68 0 0 0-7.695058-0.180706L138.631529 426.390588a7.725176 7.725176 0 0 0 7.664942 13.44753l158.629647-90.669177 0.015058-0.015059v140.182589a7.619765 7.619765 0 0 0-9.878588-2.123295l-91.708235 52.434824a7.740235 7.740235 0 1 0 7.68 13.417412l91.708235-52.434824a7.830588 7.830588 0 0 0 2.213647-1.927529v119.521882c-0.075294-0.165647-0.075294-0.361412-0.180706-0.527059a7.785412 7.785412 0 0 0-10.556235-2.876235l-36.111059 20.630588a7.725176 7.725176 0 1 0 7.68 13.44753l36.111059-20.630589a7.484235 7.484235 0 0 0 3.056941-3.538823v107.369412c0 40.417882 28.491294 62.298353 61.560471 62.298353h150.859294l-145.889882 82.191058z m235.369411-94.027294c-2.379294-0.813176-4.894118-1.264941-7.514353-0.813176l-0.105411 0.015059a15.540706 15.540706 0 0 0-8.07153-2.469647H366.501647c-35.388235 0-46.501647-35.493647-46.501647-47.23953V202.330353c0-9.908706 0.933647-18.010353 2.439529-24.741647l42.752-24.440471 11.068236-6.324706h395.610353c22.949647 0 45.056 32.105412 45.056 57.042824v254.027294l-0.466824-0.632471c-2.123294-3.147294-3.297882-4.321882-11.776-4.321882l-50.959059 0.240941c-4.096 0-6.324706-0.015059-10.496 2.590118-2.831059 1.776941-4.502588 6.339765-4.924235 10.616471l-2.710588 26.473411-4.126118 0.843294c-20.434824 4.126118-39.845647 8.041412-57.765647 18.808471l-21.639529-20.570353c-9.743059-7.936-19.727059-9.366588-25.404236-3.689412l-35.162353 34.304c-3.900235 3.900235-4.592941 9.788235-2.831058 15.796706H405.654588a7.544471 7.544471 0 0 0-7.725176 7.529412c0 4.276706 3.448471 7.529412 7.725176 7.529412h185.509647a7.830588 7.830588 0 0 0 5.330824-2.078118l14.893176 18.100706a197.436235 197.436235 0 0 0-24.515764 60.867765l-32.993883 3.026823c-4.909176 0.496941-16.459294 3.433412-21.052235 10.435765h-127.186824a7.544471 7.544471 0 0 0-7.725176 7.529412c0 4.276706 3.448471 7.529412 7.725176 7.529411h125.168942v40.809412c0 11.700706 16.911059 16.097882 23.085176 16.730353l30.885647 3.087059c4.788706 19.907765 13.447529 39.875765 25.765647 59.512471l-3.689412 3.599058z m390.79153-87.943529c0 0.045176-2.800941 0.090353-3.056941 0.120471l-30.614589 2.951529a15.420235 15.420235 0 0 0-13.552941 12.333176 171.866353 171.866353 0 0 1-28.220235 65.596236c-3.990588 5.647059-3.734588 13.236706 0.602353 18.597647l17.52847 21.910588-26.337882 26.669176-22.588235-16.549647a15.435294 15.435294 0 0 0-17.498353-0.677647c-18.838588 12.182588-41.170824 24.801882-64.045177 28.882824-6.535529 1.159529-11.595294 5.616941-12.574117 12.182588l-3.448471 21.729882c-0.376471 3.764706-1.536 11.399529-2.695529 11.39953H760.771765c-1.204706 0-2.424471-8.207059-2.831059-12.242824l-3.46353-29.56047a15.450353 15.450353 0 0 0-12.167529-13.477647c-19.892706-4.216471-40.598588-13.522824-61.515294-27.663059a15.36 15.36 0 0 0-17.498353 0.12047l-22.317176 15.600942-23.838118-32.331294c0.391529-1.882353 0.451765-3.900235 0.105412-5.903059 0-0.060235-0.060235-0.120471-0.060236-0.180706l8.764236-8.508235a7.740235 7.740235 0 0 0 1.069176-9.833412c-14.320941-21.534118-23.762824-43.414588-28.16-65.024a7.589647 7.589647 0 0 0-6.686118-6.159059l-36.909176-3.629177c-3.659294-0.376471-9.351529-2.017882-9.351529-3.267764V658.823529h45.281882a7.544471 7.544471 0 0 0 7.725176-7.529411 7.333647 7.333647 0 0 0-4.156235-6.595765 7.559529 7.559529 0 0 0 5.797647-5.767529c4.487529-23.476706 13.462588-45.628235 26.669177-65.852236a7.740235 7.740235 0 0 0-0.496942-9.125647l-21.413647-26.172235c-1.957647-2.409412-2.138353-4.833882-2.966588-4.246588l33.987765-33.144471c1.219765 0.361412 3.358118 1.295059 5.541647 3.056941l25.615059 24.289883a7.755294 7.755294 0 0 0 9.728 0.602353c16.775529-11.595294 35.584-15.706353 57.374117-20.10353l9.743059-2.620235c3.297882-0.692706 5.767529-4.668235 6.098824-8.011294l2.800941-29.726118c0.572235 0.075294 1.445647-3.403294 2.078118-3.403294l50.176-0.090353c0.752941 0 0.707765 3.553882 1.415529 3.433412l2.379294 17.498353c0.602353 3.177412 3.117176 5.647059 6.294588 6.189176l2.063059 0.39153a14.832941 14.832941 0 0 0 5.857883 8.944941c2.032941 4.035765 5.601882 7.243294 10.36047 8.252235 15.435294 3.312941 19.486118 6.113882 30.34353 13.628235 3.026824 2.093176 6.415059 4.457412 10.480941 7.107765 6.249412 4.080941 14.592 3.132235 19.727059-2.334118l5.12-5.421176 15.194352-9.833412 25.750589 25.705412-16.489412 20.419765a15.405176 15.405176 0 0 0-0.572235 18.522353 172.784941 172.784941 0 0 1 28.084706 66.499764c1.249882 6.716235 7.363765 11.821176 14.155294 12.528941l29.018353 2.891295c0.240941 0.030118 2.996706 0.060235 2.996705 0.105411v35.704471z" p-id="6344"></path><path d="M778.917647 530.642824c-80.353882 0-145.724235 65.370353-145.724235 145.724235 0 80.338824 65.370353 145.709176 145.724235 145.709176 80.338824 0 145.709176-65.370353 145.709177-145.709176 0-80.353882-65.370353-145.724235-145.709177-145.724235z m0 275.983058c-71.830588 0-130.273882-58.443294-130.273882-130.258823 0-71.830588 58.443294-130.273882 130.273882-130.273883 71.815529 0 130.243765 58.443294 130.243765 130.273883s-58.428235 130.258824-130.243765 130.258823z" p-id="6345"></path><path d="M778.917647 622.592c-29.665882 0-53.790118 24.124235-53.790118 53.790118s24.124235 53.790118 53.790118 53.790117 53.790118-24.124235 53.790118-53.790117-24.139294-53.790118-53.790118-53.790118z m0 76.649412c-12.604235 0-22.874353-10.270118-22.874353-22.874353s10.270118-22.874353 22.874353-22.874353c12.604235 0 22.874353 10.270118 22.874353 22.874353s-10.270118 22.874353-22.874353 22.874353zM405.654588 297.411765H761.223529a7.559529 7.559529 0 0 0 7.725177-7.529412c0-4.276706-3.463529-7.529412-7.725177-7.529412H405.654588a7.544471 7.544471 0 0 0-7.725176 7.529412c0 4.276706 3.448471 7.529412 7.725176 7.529412zM405.654588 432.941176H668.461176a7.544471 7.544471 0 0 0 7.725177-7.529411c0-4.276706-3.448471-7.529412-7.725177-7.529412H405.654588a7.544471 7.544471 0 0 0-7.725176 7.529412c0 4.276706 3.448471 7.529412 7.725176 7.529411z" p-id="6346"></path></svg>