<?xml version="1.0" standalone="no"?><!DOCTYPE svg PUBLIC "-//W3C//DTD SVG 1.1//EN" "http://www.w3.org/Graphics/SVG/1.1/DTD/svg11.dtd"><svg t="1583406237336" class="icon" viewBox="0 0 1024 1024" version="1.1" xmlns="http://www.w3.org/2000/svg" p-id="10495" xmlns:xlink="http://www.w3.org/1999/xlink" width="200" height="200"><defs><style type="text/css"></style></defs><path d="M512.030592 537.605837c-3.929553 0-7.846306-0.895989-11.455862-2.700768l-486.394164-243.197081a25.625292 25.625292 0 0 1 0-45.797851l486.394164-243.197082a25.650892 25.650892 0 0 1 22.898925 0l486.394163 243.197082a25.599693 25.599693 0 0 1 0.0128 45.797851l-486.394163 243.197081A25.574093 25.574093 0 0 1 512.030592 537.605837zM82.877342 268.809062L512.030592 483.385687 941.183842 268.809062 512.030592 54.232437 82.877342 268.809062z" fill="#333333" p-id="10496"></path><path d="M512.030592 780.802918c-3.929553 0-7.846306-0.895989-11.455862-2.700767l-486.394164-243.197082a25.599693 25.599693 0 0 1 0-45.79785l243.197082-121.598541a25.612493 25.612493 0 0 1 22.898925 45.81065L82.877342 512.006144 512.030592 726.582769 941.183842 512.006144l-197.412031-98.699616a25.599693 25.599693 0 0 1 22.898925-45.81065l243.197082 121.598541a25.638092 25.638092 0 0 1 0.0128 45.81065l-486.394163 243.197082A25.574093 25.574093 0 0 1 512.030592 780.802918z" fill="#333333" p-id="10497"></path><path d="M512.030592 1024c-3.929553 0-7.846306-0.895989-11.455862-2.700768l-486.394164-243.197081a25.599693 25.599693 0 0 1 0-45.797851l243.197082-121.59854a25.612493 25.612493 0 0 1 22.898925 45.81065L82.877342 755.203226 512.030592 969.779851 941.183842 755.203226l-197.412031-98.699616a25.599693 25.599693 0 0 1 22.898925-45.81065l243.197082 121.598541a25.625292 25.625292 0 0 1 0.0128 45.81065l-486.394163 243.197081A25.574093 25.574093 0 0 1 512.030592 1024zM326.445619 304.00864a25.625292 25.625292 0 0 1-11.468662-48.511418l217.597389-108.798694a25.599693 25.599693 0 1 1 22.898925 45.81065l-217.597389 108.798694a25.394895 25.394895 0 0 1-11.430263 2.700768zM480.043776 380.807718a25.625292 25.625292 0 0 1-11.468662-48.511418l217.597388-108.798694a25.599693 25.599693 0 0 1 22.898926 45.81065l-217.597389 108.798695a25.394895 25.394895 0 0 1-11.430263 2.700767z" fill="#333333" p-id="10498"></path></svg>