<?xml version="1.0" standalone="no"?><!DOCTYPE svg PUBLIC "-//W3C//DTD SVG 1.1//EN" "http://www.w3.org/Graphics/SVG/1.1/DTD/svg11.dtd"><svg t="1583238012012" class="icon" viewBox="0 0 1024 1024" version="1.1" xmlns="http://www.w3.org/2000/svg" p-id="3415" xmlns:xlink="http://www.w3.org/1999/xlink" width="200" height="200"><defs><style type="text/css"></style></defs><path d="M286.986 130.181a263.37 263.37 0 0 0-59.233 40.376c-47.757 43.127-78.81 102.341-85.057 179.386-0.726 8.948 5.94 16.789 14.887 17.514 8.948 0.726 16.789-5.94 17.514-14.887 5.553-68.488 32.638-120.134 74.443-157.887 16.517-14.915 34.235-26.601 51.918-35.393 6.146-3.056 11.822-5.523 16.869-7.447 2.909-1.11 4.877-1.768 5.745-2.024 8.612-2.534 13.539-11.57 11.004-20.181-2.534-8.612-11.57-13.539-20.18-11.005-5.92 1.742-15.64 5.448-27.91 11.548zM747.402 804.834c148.867 0 268.471-139.238 268.471-309.874 0-170.637-119.604-309.874-268.47-309.874-39.925 0-78.624 10.064-113.954 29.188l15.475 28.589c30.639-16.585 64.031-25.27 98.478-25.27 129.724 0 235.963 123.68 235.963 277.367S877.126 772.326 747.402 772.326c-79.617 0-152.795-46.844-196.43-123.705l-28.27 16.049c49.173 86.615 132.824 140.164 224.7 140.164z" fill="" p-id="3416"></path><path d="M654.204 381.968c0-193.803-138.266-349.46-306.785-349.46-168.518 0-306.784 155.657-306.784 349.46 0 193.803 138.266 349.46 306.784 349.46 168.519 0 306.785-155.657 306.785-349.46z m-646.077 0C8.127 171.013 160.033 0 347.419 0c187.386 0 339.293 171.013 339.293 381.968S534.805 763.937 347.419 763.937 8.127 592.923 8.127 381.968z" fill="" p-id="3417"></path><path d="M315.906 759.266c-18.66 34.194-22.232 72.028-0.499 108.964 30.447 51.744 35.767 62.916 35.735 80.281-0.024 12.505-5.366 25.098-18.2 40.402-5.769 6.878-4.869 17.13 2.01 22.898 6.878 5.768 17.13 4.869 22.898-2.01 17.413-20.763 25.76-40.44 25.8-61.229 0.048-26.02-5.855-38.416-40.225-96.828-15.129-25.71-12.662-51.84 1.017-76.905 4.273-7.83 8.477-13.475 10.969-16.21 6.046-6.636 5.567-16.916-1.069-22.962-6.635-6.045-16.916-5.567-22.961 1.069-4.12 4.52-9.832 12.19-15.475 22.53zM718.689 797.615c-14.29 20.949-17.16 45.26-0.172 68.356 18.713 25.441 22.174 31.256 22.16 37.56-0.01 3.888-2.49 8.566-9.632 15.379-6.496 6.196-6.738 16.485-0.542 22.98 6.196 6.495 16.485 6.738 22.98 0.542 13.023-12.423 19.669-24.955 19.701-38.825 0.04-16.835-3.981-23.59-28.48-56.897-7.587-10.316-6.43-20.12 0.84-30.775 2.445-3.585 4.855-6.174 6.111-7.277 6.746-5.923 7.412-16.193 1.49-22.938-5.924-6.746-16.194-7.412-22.94-1.49-3.15 2.768-7.351 7.28-11.516 13.385z" fill="" p-id="3418"></path></svg>