<?xml version="1.0" standalone="no"?><!DOCTYPE svg PUBLIC "-//W3C//DTD SVG 1.1//EN" "http://www.w3.org/Graphics/SVG/1.1/DTD/svg11.dtd"><svg t="1583405832077" class="icon" viewBox="0 0 1024 1024" version="1.1" xmlns="http://www.w3.org/2000/svg" p-id="4695" xmlns:xlink="http://www.w3.org/1999/xlink" width="200" height="200"><defs><style type="text/css"></style></defs><path d="M803.885176 571.286588c-67.026824 0-121.554824 54.528-121.554823 121.554824s54.528 121.554824 121.554823 121.554823c67.026824 0 121.554824-54.528 121.554824-121.554823s-54.512941-121.554824-121.554824-121.554824z m-1.731764 166.821647a45.989647 45.989647 0 1 1-0.015059-91.994353 45.989647 45.989647 0 0 1 0.015059 91.994353z" p-id="4696"></path><path d="M1019.286588 669.530353c0-7.228235-3.222588-13.778824-10.149647-15.811765l-28.672-7.198117c-4.502588-18.025412-10.420706-34.996706-19.802353-50.477177l12.965647-22.588235c3.478588-6.339765 2.439529-15.706353-2.68047-20.826353L941.778824 523.294118c-3.192471-3.192471-8.011294-4.909176-12.724706-4.909177-2.831059 0-5.632 0.617412-8.026353 1.92753l-22.994824 12.604235a182.407529 182.407529 0 0 0-49.724235-20.299294l-7.469177-20.61553c-2.032941-6.942118-9.396706-13.568-16.624941-13.568l-41.607529 0.692706c-7.228235 0-14.878118 5.948235-16.911059 12.890353l-7.664941 23.702588c-17.227294 4.472471-33.460706 10.164706-48.338824 19.124706l-24.259764-13.884235a17.694118 17.694118 0 0 0-8.417883-2.032941c-4.623059 0-9.291294 1.596235-12.40847 4.713412l-29.334589 29.168941c-5.104941 5.104941-6.460235 14.411294-2.981647 20.751059l13.507765 24.681411a182.482824 182.482824 0 0 0-19.636706 47.585883l-25.479529 7.936c-6.927059 2.032941-16.308706 9.592471-16.308706 16.820706l0.406588 41.472c0 7.228235 8.96 14.802824 15.902118 16.835764l23.009882 7.951059c4.306824 16.941176 12.227765 32.918588 20.87153 47.600941l-12.905412 24.71153c-3.463529 6.339765-1.822118 15.706353 3.297882 20.826353l29.485177 29.334588c3.192471 3.192471 8.071529 4.909176 12.830117 4.909176 2.861176 0 5.677176-0.617412 8.07153-1.927529l24.304941-13.266824a182.678588 182.678588 0 0 0 48.353882 20.344471l7.68 24.515765c2.032941 6.942118 9.035294 16.956235 16.26353 16.956235l42.405647 0.030118c7.228235 0 14.456471-10.059294 16.489411-16.986353l7.484236-21.443765c17.724235-4.336941 34.439529-12.468706 49.739294-21.534118l23.04 11.986824c2.288941 1.249882 4.954353 1.837176 7.68 1.837176 4.848941 0 9.878588-1.852235 13.146353-5.135058l29.334588-29.485177c5.104941-5.104941 6.460235-14.561882 2.981647-20.901647l-12.348235-22.633412a182.934588 182.934588 0 0 0 21.037176-50.492235l26.217412-7.213177c6.927059-2.032941 10.767059-9.622588 10.767059-16.850823l-0.632471-42.496zM803.885176 820.976941c-70.640941 0-128.135529-57.479529-128.135529-128.135529s57.479529-128.135529 128.135529-128.13553 128.135529 57.479529 128.13553 128.13553-57.479529 128.135529-128.13553 128.135529zM461.507765 94.328471a75.158588 75.158588 0 0 0-57.569883 7.243294l-0.150588 0.075294h75.14353c-5.436235 0-11.218824-5.616941-17.423059-7.318588z" p-id="4697"></path><path d="M592.941176 752.775529c-16.248471-5.074824-33.264941-20.886588-33.264941-40.493176l-0.421647-43.866353c0-2.544941 0.301176-9.592471 0.828236-9.592471H398.245647a7.544471 7.544471 0 1 1 0-15.058823h169.155765c6.656 0 16.429176-13.372235 25.825882-16.112941l12.619294-2.891294c3.117176-9.411765 6.881882-18.085647 11.324236-27.000471l-6.987295-12.423529a43.188706 43.188706 0 0 1 7.243295-50.492236l29.123764-29.078588a42.059294 42.059294 0 0 1 29.861647-12.032c7.288471 0 13.748706 1.776941 20.284236 5.360941l10.947764 6.957177c8.493176-4.080941 15.284706-7.695059 25.675294-10.917647l-4.336941-10.752c5.315765-17.438118 12.679529-30.674824 27.738353-30.674824v-0.286118l67.102118-5.406117h0.406588c17.618824 0 34.846118 15.781647 40.463059 33.355294l-2.138353 4.186353c1.822118-2.846118-0.421647-3.975529-0.421647-4.502588V206.320941c0-41.351529-26.608941-89.615059-69.285647-89.615059H504.470588a14.757647 14.757647 0 0 0-5.421176 1.099294c-0.346353-0.391529-0.752941-1.099294-1.084236-1.099294h-107.248941c-21.383529 0-40.568471 31.096471-40.56847 57.690353v605.364706c0 27.226353 27.151059 44.709647 56.214588 44.709647h200.282353c-3.343059 0-2.56-19.968 2.785882-29.741176l6.610824-11.294118c-5.270588-9.984-9.426824-18.642824-12.619294-27.738353l-10.480942-2.921412zM398.245647 282.352941h379.316706a7.544471 7.544471 0 1 1 0 15.058824H398.245647a7.544471 7.544471 0 1 1 0-15.058824z m0 135.529412H686.531765a7.544471 7.544471 0 1 1 0 15.058823H398.245647a7.544471 7.544471 0 1 1 0-15.058823z m0 105.411765h197.240471a7.544471 7.544471 0 1 1 0 15.058823H398.245647a7.544471 7.544471 0 1 1 0-15.058823z" p-id="4698"></path><path d="M335.058824 779.760941v-605.364706c0-13.733647 4.773647-28.069647 10.962823-40.357647L43.008 307.606588C6.686118 328.357647-5.662118 374.784 15.088941 411.105882l277.775059 485.707294a75.535059 75.535059 0 0 0 46.004706 35.493648c6.686118 1.822118 13.492706 2.710588 20.224 2.710588 13.010824 0 25.856-6.189176 37.421176-12.8l139.700706-82.672941h-129.882353c-37.933176-0.015059-71.273412-23.717647-71.273411-59.78353z m-25.705412-137.426823l-37.12 21.217882a7.559529 7.559529 0 0 1-10.360471-2.816 7.574588 7.574588 0 0 1 2.831059-10.345412l37.12-21.217882a7.574588 7.574588 0 1 1 7.529412 13.161412z m0.873412-131.192471l-94.313412 53.910588a7.649882 7.649882 0 0 1-10.360471-2.831059 7.604706 7.604706 0 0 1 2.831059-10.36047l94.313412-53.910588a7.589647 7.589647 0 1 1 7.529412 13.191529z m2.258823-155.768471L149.368471 448.617412a7.559529 7.559529 0 0 1-10.345412-2.816 7.559529 7.559529 0 0 1 2.816-10.345412l163.102117-93.244235a7.574588 7.574588 0 1 1 7.544471 13.161411z" p-id="4699"></path></svg>