<?xml version="1.0" standalone="no"?><!DOCTYPE svg PUBLIC "-//W3C//DTD SVG 1.1//EN" "http://www.w3.org/Graphics/SVG/1.1/DTD/svg11.dtd"><svg t="1583239661934" class="icon" viewBox="0 0 1024 1024" version="1.1" xmlns="http://www.w3.org/2000/svg" p-id="6619" xmlns:xlink="http://www.w3.org/1999/xlink" width="200" height="200"><defs><style type="text/css"></style></defs><path d="M584.971 512c0 23.424-18.979 42.43-42.402 42.43-23.425 0-42.402-19.006-42.402-42.43 0-23.425 18.978-42.402 42.402-42.402C565.992 469.598 584.971 488.575 584.971 512z" p-id="6620"></path><path d="M542.568 410.224c56.202 0 101.804-45.602 101.804-101.804s-45.602-101.804-101.804-101.804c-56.229 0-101.776 45.602-101.776 101.804S486.339 410.224 542.568 410.224zM542.568 234.379c40.83 0 74.041 33.211 74.041 74.041s-33.211 74.042-74.041 74.042c-40.803 0-74.014-33.212-74.014-74.042S501.766 234.379 542.568 234.379z" p-id="6621"></path><path d="M542.568 613.804c-56.229 0-101.776 45.574-101.776 101.804 0 56.201 45.547 101.776 101.776 101.776 56.202 0 101.804-45.575 101.804-101.776C644.372 659.378 598.771 613.804 542.568 613.804zM542.568 789.621c-40.803 0-74.014-33.212-74.014-74.014 0-40.83 33.211-74.042 74.014-74.042 40.83 0 74.041 33.212 74.041 74.042C616.609 756.409 583.398 789.621 542.568 789.621z" p-id="6622"></path><path d="M746.175 410.224c-56.229 0-101.803 45.574-101.803 101.776s45.574 101.804 101.803 101.804c56.229 0 101.776-45.602 101.776-101.804S802.404 410.224 746.175 410.224zM746.175 586.041c-40.829 0-74.041-33.211-74.041-74.041 0-40.803 33.212-74.015 74.041-74.015 40.803 0 74.015 33.212 74.015 74.015C820.189 552.83 786.978 586.041 746.175 586.041z" p-id="6623"></path><path d="M338.988 410.224c-56.202 0-101.803 45.574-101.803 101.776s45.601 101.804 101.803 101.804c56.229 0 101.804-45.602 101.804-101.804S395.218 410.224 338.988 410.224zM338.988 586.041c-40.83 0-74.041-33.211-74.041-74.041 0-40.803 33.211-74.015 74.041-74.015 40.83 0 74.042 33.212 74.042 74.015C413.03 552.83 379.818 586.041 338.988 586.041z" p-id="6624"></path><path d="M542.568 95.568c-229.986 0-416.432 186.445-416.432 416.432 0 47.798 8.161 93.643 22.991 136.37 6.642 19.223 14.64 37.821 23.912 55.633 2.305 3.443 4.284 7.076 6.1 10.845 5.422 11.306 8.54 23.939 8.54 37.306 0 47.852-38.905 86.757-86.756 86.757-8.133 0-15.996-1.193-23.479-3.308-2.63 9.38-6.859 17.866-12.444 25.132 11.306 3.769 23.343 5.938 35.923 5.938 61.055 0 110.804-47.824 114.193-108.012 0.136-2.169 0.325-4.311 0.325-6.507 0-18.273-4.392-35.517-12.01-50.861-1.247-2.196-2.413-4.446-3.606-6.696C170.626 640.102 153.898 578.017 153.898 512c0-214.316 174.354-388.67 388.67-388.67 214.316 0 388.67 174.354 388.67 388.67s-174.354 388.67-388.67 388.67c-81.714 0-157.572-25.403-220.227-68.646-1.681 9.868-3.85 19.602-6.805 29.01 65.312 42.564 143.257 67.398 227.031 67.398C772.555 928.432 959 741.986 959 512S772.555 95.568 542.568 95.568z" p-id="6625"></path></svg>