<?xml version="1.0" standalone="no"?><!DOCTYPE svg PUBLIC "-//W3C//DTD SVG 1.1//EN" "http://www.w3.org/Graphics/SVG/1.1/DTD/svg11.dtd"><svg t="1583405654100" class="icon" viewBox="0 0 1024 1024" version="1.1" xmlns="http://www.w3.org/2000/svg" p-id="2810" xmlns:xlink="http://www.w3.org/1999/xlink" width="200" height="200"><defs><style type="text/css"></style></defs><path d="M893.3 149.5L798 897.2c0 8.1-2 8.1-10.1 4.1L579.2 779.7c-10.1-6.1-22.3-2-28.4 8.1s-2 22.3 8.1 28.4l208.7 121.6c32.4 18.2 64.8 2 70.9-34.4L939.9 113c4.1-38.5-26.3-60.8-60.8-42.6l-770 407.3c-34.4 18.2-34.4 54.7-2 75L275.2 654c10.1 6.1 22.3 2 28.4-6.1 6.1-10.1 2-22.3-6.1-28.4L129.4 518.3c-6.1-4.1-6.1-2 0-4.1l731.5-387L407 710.8v229c0 12.2 8.1 20.3 20.3 20.3s20.3-8.1 20.3-20.3V722.9l445.7-573.4z" p-id="2811"></path></svg>