<?xml version="1.0" standalone="no"?><!DOCTYPE svg PUBLIC "-//W3C//DTD SVG 1.1//EN" "http://www.w3.org/Graphics/SVG/1.1/DTD/svg11.dtd"><svg t="1583240849425" class="icon" viewBox="0 0 1024 1024" version="1.1" xmlns="http://www.w3.org/2000/svg" p-id="18073" xmlns:xlink="http://www.w3.org/1999/xlink" width="200" height="200"><defs><style type="text/css"></style></defs><path d="M882.9 223.7H571c-6.3 0-12.3-2.3-17-6.4L496.8 167c-11-9.7-25.1-15-39.7-15h-205c-24.2 0.3-43.6 20.1-43.4 44.3v59.2h-65.6c-24.2 0.3-43.6 20.1-43.4 44.3v530.6c-0.2 24.2 19.2 44 43.4 44.3h630.8c24.2-0.3 43.6-20.1 43.4-44.3v-59.2h65.6c24.2-0.3 43.6-20.1 43.4-44.3v-459c0.2-24.2-19.2-44-43.4-44.2zM782.6 830.2c0 4.8-3.8 8.8-8.7 8.9H143.1c-4.8-0.1-8.7-4-8.7-8.9v-364h648.2v364z m0-399.5H134.4V299.6c0-4.8 3.8-8.8 8.7-8.8h205c6.3 0 12.3 2.3 17 6.4l57.2 50.3c11 9.7 25.1 15 39.7 15h311.9c4.8 0.1 8.7 4 8.7 8.9v59.3z m109 296c0 4.8-3.8 8.8-8.7 8.9h-65.6V371.4c0.2-24.2-19.2-44-43.4-44.3H462.1c-6.3 0-12.3-2.3-17-6.4l-57.2-50.3c-11-9.7-25.1-15-39.7-15H243.4v-59.2c0-4.8 3.8-8.8 8.7-8.8h205c6.3 0 12.3 2.3 17 6.4l57.2 50.3c11 9.7 25.1 15 39.7 15h311.9c4.8 0 8.7 4 8.7 8.8v458.8zM713.4 526.5h-104c-9.8 0-17.7 7.9-17.7 17.7s7.9 17.7 17.7 17.7h104c9.8 0 17.7-8 17.6-17.8 0-9.7-7.8-17.6-17.6-17.6z m0 85h-104c-9.8 0.3-17.5 8.5-17.2 18.2 0.3 9.4 7.8 16.9 17.2 17.2h104c9.8-0.3 17.5-8.5 17.2-18.3-0.3-9.3-7.8-16.8-17.2-17.1z" p-id="18074"></path></svg>