<?xml version="1.0" standalone="no"?><!DOCTYPE svg PUBLIC "-//W3C//DTD SVG 1.1//EN" "http://www.w3.org/Graphics/SVG/1.1/DTD/svg11.dtd"><svg t="1583406070182" class="icon" viewBox="0 0 1024 1024" version="1.1" xmlns="http://www.w3.org/2000/svg" p-id="8592" xmlns:xlink="http://www.w3.org/1999/xlink" width="200" height="200"><defs><style type="text/css"></style></defs><path d="M860.2 59H163.7C74.5 59 1.9 131.6 1.9 220.9v416.9c0 89.2 72.6 161.8 161.8 161.8h201.5l160.9 165.5 162.2-165.5h171.8c89.2 0 161.8-72.6 161.8-161.8V220.9C1022 131.6 949.4 59 860.2 59z m132.4 578.8c0 73-59.4 132.4-132.4 132.4H676L526.3 923 377.7 770.2h-214c-73 0-132.4-59.4-132.4-132.4V220.9c0-73 59.4-132.4 132.4-132.4h696.4c73 0 132.4 59.4 132.4 132.4v416.9z" fill="#333234" p-id="8593"></path><path d="M215.2 279.7H708v29.4H215.2z" fill="#333234" p-id="8594"></path><path d="M811 294.4m-16.9 0a16.9 16.9 0 1 0 33.8 0 16.9 16.9 0 1 0-33.8 0Z" fill="#333234" p-id="8595"></path><path d="M215.2 425.6H708V455H215.2zM811 423.4c-9.3 0-16.9 7.6-16.9 16.9 0 9.3 7.6 16.9 16.9 16.9s16.9-7.6 16.9-16.9c0-9.3-7.5-16.9-16.9-16.9zM215.2 545.8H708v29.4H215.2zM811 543.6c-9.3 0-16.9 7.6-16.9 16.9 0 9.3 7.6 16.9 16.9 16.9s16.9-7.6 16.9-16.9c0-9.4-7.5-16.9-16.9-16.9z" fill="#333234" p-id="8596"></path></svg>