<?xml version="1.0" standalone="no"?><!DOCTYPE svg PUBLIC "-//W3C//DTD SVG 1.1//EN" "http://www.w3.org/Graphics/SVG/1.1/DTD/svg11.dtd"><svg t="1583405906524" class="icon" viewBox="0 0 1024 1024" version="1.1" xmlns="http://www.w3.org/2000/svg" p-id="7324" xmlns:xlink="http://www.w3.org/1999/xlink" width="200" height="200"><defs><style type="text/css"></style></defs><path d="M138.710793 847.880882a26.774945 26.774945 0 0 1-20.795741-9.843393 510.221615 510.221615 0 0 1-42.506082-59.68915 27.031033 27.031033 0 1 1 46.164486-28.135414 448.154503 448.154503 0 0 0 38.047403 53.4127 27.163651 27.163651 0 0 1-3.532646 38.0817 28.101117 28.101117 0 0 1-17.37742 6.173557z m0 0" p-id="7325"></path><path d="M511.890877 1023.998742a507.69503 507.69503 0 0 1-294.798776-93.552252 26.994449 26.994449 0 0 1 31.085003-44.140932 454.533845 454.533845 0 0 0 263.713773 83.594534c252.281261 0 457.609191-205.510851 457.609192-458.020762S764.172138 53.881433 511.890877 53.881433 54.396011 259.483744 54.396011 511.993655a456.523103 456.523103 0 0 0 18.394913 128.775825 27.031033 27.031033 0 0 1-51.880743 15.205242A513.582774 513.582774 0 0 1 0.457415 511.993655C0.457415 229.610588 229.896516 0 512.005202 0s511.536354 229.633453 511.536355 511.993655-229.541993 512.005087-511.65068 512.005087z m0 0" p-id="7326"></path><path d="M385.973181 447.960151h207.843083v53.115454h-207.843083z m0-88.521947h207.843083v53.115454h-207.843083z m0 177.043893h118.898133v53.104023h-118.898133z m369.270165 84.600595c-18.1091-30.193266-17.811855-30.764892-17.811855-30.764892s-62.501548 17.537475-74.139846-42.414622h-36.229633s-9.980584 60.043557-73.842601 42.300297c-18.463508 30.79919-19.080864 31.759521-19.103729 31.782386s49.982946 34.949192 0 82.39412l19.435272 31.931008s55.184739-23.836789 73.259542 41.259939h36.641204s11.432513-59.814907 73.556788-42.12881c17.674665-30.193266 17.960478-30.490512 17.960477-30.490511s-46.873303-40.425365 0.285813-83.834617z m-110.895375 83.914645a42.300298 42.300298 0 1 1 42.300297-42.300298 42.300298 42.300298 0 0 1-42.300297 42.300298zM348.211591 724.706989a35.44079 35.44079 0 0 1-35.44079-35.44079V334.732543a35.44079 35.44079 0 0 1 35.44079-35.440789h283.366263a35.44079 35.44079 0 0 1 35.44079 35.440789v188.327784h44.038039V290.694504a44.243825 44.243825 0 0 0-44.220959-44.26669h-353.836273a44.243825 44.243825 0 0 0-44.209527 44.26669v442.609734a44.232392 44.232392 0 0 0 44.209527 44.255258h203.430134V724.706989z m0 0" p-id="7327"></path></svg>