<?xml version="1.0" standalone="no"?><!DOCTYPE svg PUBLIC "-//W3C//DTD SVG 1.1//EN" "http://www.w3.org/Graphics/SVG/1.1/DTD/svg11.dtd"><svg t="1583405914637" class="icon" viewBox="0 0 1024 1024" version="1.1" xmlns="http://www.w3.org/2000/svg" p-id="7464" xmlns:xlink="http://www.w3.org/1999/xlink" width="200" height="200"><defs><style type="text/css"></style></defs><path d="M381.3 87.3h-238C99.7 87.3 64 123 64 166.7v238c0 43.6 35.7 79.3 79.3 79.3h238c43.6 0 79.3-35.7 79.3-79.3v-238c0.1-43.7-35.6-79.4-79.3-79.4zM381.3 563.3h-238C99.7 563.3 64 599 64 642.7v238c0 43.6 35.7 79.3 79.3 79.3h238c43.6 0 79.3-35.7 79.3-79.3v-238c0.1-43.7-35.6-79.4-79.3-79.4zM857.3 563.3h-238c-43.6 0-79.3 35.7-79.3 79.3v238c0 43.6 35.7 79.3 79.3 79.3h238c43.6 0 79.3-35.7 79.3-79.3v-238c0.1-43.6-35.6-79.3-79.3-79.3zM936.8 229.6L794.4 87.2c-30.9-30.9-81.3-30.9-112.2 0L539.8 229.6c-30.9 30.9-30.9 81.3 0 112.2l142.4 142.4c30.9 30.9 81.3 30.9 112.2 0l142.4-142.4c30.9-30.9 30.9-81.4 0-112.2z" fill="#333333" p-id="7465"></path></svg>