<?xml version="1.0" standalone="no"?><!DOCTYPE svg PUBLIC "-//W3C//DTD SVG 1.1//EN" "http://www.w3.org/Graphics/SVG/1.1/DTD/svg11.dtd"><svg t="1583240227977" class="icon" viewBox="0 0 1024 1024" version="1.1" xmlns="http://www.w3.org/2000/svg" p-id="12449" xmlns:xlink="http://www.w3.org/1999/xlink" width="200" height="200"><defs><style type="text/css"></style></defs><path d="M905.472 725.333333c13.056 0 23.722667 11.178667 23.722667 24.874667v87.125333L1024 737.792v273.749333l-94.805333-99.541333v87.125333c0 13.653333-10.666667 24.874667-23.722667 24.874667h-284.416c-13.056 0-23.722667-11.178667-23.722667-24.874667v-248.917333c0-13.653333 10.666667-24.874667 23.722667-24.874667zM853.333333 170.666667c44.8 0 81.834667 34.986667 85.077334 78.976L938.666667 256v384h-85.333334V256H170.666667v426.666667h341.333333v170.666666H0v-85.333333h85.333333V256c0-44.8 34.986667-81.834667 78.976-85.077333L170.666667 170.666667h682.666666z" p-id="12450"></path></svg>