<?xml version="1.0" standalone="no"?><!DOCTYPE svg PUBLIC "-//W3C//DTD SVG 1.1//EN" "http://www.w3.org/Graphics/SVG/1.1/DTD/svg11.dtd"><svg t="1583405812949" class="icon" viewBox="0 0 1130 1024" version="1.1" xmlns="http://www.w3.org/2000/svg" p-id="3922" xmlns:xlink="http://www.w3.org/1999/xlink" width="220.703125" height="200"><defs><style type="text/css"></style></defs><path d="M333.093333 269.173333l227.52 117.333334a32 32 0 0 1-29.333333 56.885333l-227.52-117.333333a32 32 0 0 1 29.333333-56.885334z" fill="#70E07B" p-id="3923"></path><path d="M1117.946667 521.162667L893.306667 629.248l224.64 108.096c16.746667 8.053333 16.746667 21.098667 0 29.141333L595.493333 1017.845333a78.986667 78.986667 0 0 1-60.586666 0L12.56 766.485333c-16.746667-8.042667-16.746667-21.088 0-29.141333l224.64-108.096L12.56 521.162667c-16.746667-8.053333-16.746667-21.098667 0-29.152l213.546667-102.762667-213.546667-102.752c-16.746667-8.053333-16.746667-21.098667 0-29.152L534.906667 5.984a79.082667 79.082667 0 0 1 60.586666 0l522.453334 251.36c16.746667 8.053333 16.746667 21.098667 0 29.152l-213.546667 102.752 213.546667 102.762667c16.746667 8.053333 16.746667 21.056 0 29.152z m-969.813334 214.4c-12.586667 6.005333-12.586667 15.733333 0 21.738666L542.48 944.746667a60.096 60.096 0 0 0 45.653333 0L982.48 757.333333c12.586667-6.005333 12.586667-15.733333 0-21.738666L826.426667 661.44 595.493333 772.544a78.986667 78.986667 0 0 1-60.586666 0L304.08 661.461333zM982.48 277.333333c12.586667-6.005333 12.586667-15.733333 0-21.738666L588.133333 68.149333a60.096 60.096 0 0 0-45.653333 0L148.133333 255.594667c-12.586667 6.005333-12.586667 15.733333 0 21.738666l394.346667 187.445334a60.096 60.096 0 0 0 45.653333 0z m0 212.928l-144.853333-68.853333-242.133334 116.469333a78.986667 78.986667 0 0 1-60.586666 0L292.88 421.429333l-144.746667 68.832c-12.586667 6.005333-12.586667 15.733333 0 21.738667l394.346667 187.445333a60.096 60.096 0 0 0 45.653333 0L982.48 512c12.586667-6.037333 12.586667-15.765333 0-21.770667z m-461.866667-100.16l-227.52-117.333333a32 32 0 0 1 29.333334-56.874667l227.52 117.333334a32 32 0 0 1-29.333334 56.842666z" p-id="3924"></path></svg>