<?xml version="1.0" standalone="no"?><!DOCTYPE svg PUBLIC "-//W3C//DTD SVG 1.1//EN" "http://www.w3.org/Graphics/SVG/1.1/DTD/svg11.dtd"><svg t="1583240142710" class="icon" viewBox="0 0 1024 1024" version="1.1" xmlns="http://www.w3.org/2000/svg" p-id="9797" xmlns:xlink="http://www.w3.org/1999/xlink" width="200" height="200"><defs><style type="text/css"></style></defs><path d="M532.7 884.6h-36.2c-3.8 0-7.6-1.1-10.8-3.2l-35.5-22.8c-88.3-56.7-256.5-55.8-384.4-36-13.4 2.1-26.8-2.2-36.6-11.6-9.9-9.6-14.7-22.9-13-36.6l68.1-567c2.1-17.7 17.1-31 34.9-31h38.3c11 0 20 9 20 20s-9 20-20 20h-34.1L55.9 779.1c-0.2 1.6 0.6 2.6 1.1 3.1 0.8 0.7 1.7 1 2.7 0.9 72.4-11.2 148.1-15.2 213.1-11.3 85 5.1 152 23 199 53.2l30.5 19.6h24.5l30.5-19.6c47.2-30.3 113.9-48.6 198.2-54.4 65.6-4.5 141-1 212.4 9.9 0.4 0.1 1.5 0.2 2.6-0.9 0.5-0.5 1.3-1.5 1.1-3.1l-66-560.1h-34c-11 0-20-9-20-20s9-20 20-20h38.3c17.8 0 32.9 13.4 35 31.1l66.5 564.4c1.6 13.7-3.1 27-13 36.6-9.8 9.4-23.1 13.7-36.5 11.7-68.6-10.4-140.9-13.8-203.7-9.5-76.4 5.3-138.4 21.9-179.3 48.2l-35.5 22.8c-3.1 1.8-6.9 2.9-10.7 2.9z" fill="#1C1C1C" p-id="9798"></path><path d="M486.4 694.7c-4.1 0-8.1-1.2-11.6-3.7l-27.7-19.6c-39.2-27.8-85.9-41.3-142.6-41.3-27.7 0-58.8 3.2-95 9.8-2.4 0.4-4.8 0.6-7.2 0.6-11 0-21.5-4.6-28.7-12.6-7.1-7.8-10.4-17.8-9.5-28.2L206 145.4c0.8-8.8 7.2-16 15.9-17.8 41.8-8.6 76.4-15.2 109.5-15.2 49.2 0 90.8 14.5 138.9 48.6l27.7 19.6c5.3 3.7 8.4 9.8 8.4 16.3v477.7c0 7.5-4.2 14.3-10.8 17.8-2.9 1.5-6 2.3-9.2 2.3zM304.6 590.1c63.5 0 116.5 15 161.9 46V207.3l-19.3-13.6c-41.4-29.3-74.9-41.3-115.8-41.3-25.7 0-53.8 4.8-86.9 11.4l-40.2 436.3c37.8-6.7 70.6-10 100.3-10z" fill="#1C1C1C" p-id="9799"></path><path d="M514 694.7c-6.3 0-12.4-2.9-16.3-8.4-6.4-9-4.3-21.5 4.8-27.9l27.7-19.6c85.9-60.9 187.1-52.8 266.1-38.6L756 163.8c-84.4-17-131.6-20.6-202.7 29.8l-27.7 19.6c-9 6.4-21.5 4.3-27.9-4.8-6.4-9-4.3-21.5 4.8-27.9l27.7-19.6c88.3-62.6 148.9-54 248.4-33.4 8.6 1.8 15.1 9 15.9 17.8l41.9 454.4c1.1 11.5-3.3 22.7-11.9 30.6-8.9 8.2-21.4 11.7-33.5 9.5-76-13.8-163.7-20.9-237.7 31.5L525.6 691c-3.5 2.5-7.6 3.7-11.6 3.7z" fill="#1C1C1C" p-id="9800"></path><path d="M562.5 363c-6.3 0-12.4-2.9-16.3-8.4-6.4-9-4.3-21.5 4.8-27.9l24.7-17.5c55.1-39.1 99-32.2 145.5-24.9 6.4 1 13 2 19.6 3 10.9 1.5 18.6 11.6 17.1 22.5s-11.6 18.6-22.5 17.1c-7-1-13.8-2-20.4-3.1-43.1-6.8-74.3-11.7-116.2 18L574 359.3c-3.5 2.5-7.5 3.7-11.5 3.7zM562.5 472.1c-6.3 0-12.4-2.9-16.3-8.4-6.4-9-4.3-21.5 4.8-27.9l24.7-17.5c54.9-38.9 108-30.5 154.8-23.1 6.8 1.1 13.8 2.2 20.6 3.1 10.9 1.5 18.6 11.6 17.1 22.5s-11.6 18.6-22.5 17.1c-7.2-1-14.4-2.1-21.4-3.2-44.9-7.1-83.7-13.3-125.4 16.3L574 468.4c-3.5 2.5-7.5 3.7-11.5 3.7zM436.3 362.5c-4 0-8-1.2-11.5-3.7l-24.2-17.2c-41-29.1-71.6-24.3-113.9-17.6-6.4 1-13.1 2.1-20 3-10.9 1.5-21-6.1-22.5-17.1-1.5-10.9 6.1-21 17.1-22.5 6.5-0.9 13-1.9 19.3-2.9 45.7-7.2 88.9-14 143.2 24.5l24.2 17.2c9 6.4 11.1 18.9 4.8 27.9-4 5.5-10.2 8.4-16.5 8.4zM436.3 469.8c-4 0-8-1.2-11.5-3.7l-24.2-17.2c-41.6-29.5-80.9-23.4-126.5-16.4-6.2 1-12.6 1.9-18.9 2.8-10.9 1.5-21-6.1-22.5-17.1-1.5-10.9 6.1-21 17.1-22.5 6.1-0.8 12.3-1.8 18.3-2.7 47.3-7.3 100.9-15.5 155.7 23.3l24.2 17.2c9 6.4 11.1 18.9 4.8 27.9-4 5.4-10.2 8.4-16.5 8.4z" fill="#1C1C1C" p-id="9801"></path></svg>