<?xml version="1.0" standalone="no"?><!DOCTYPE svg PUBLIC "-//W3C//DTD SVG 1.1//EN" "http://www.w3.org/Graphics/SVG/1.1/DTD/svg11.dtd"><svg t="1583240761301" class="icon" viewBox="0 0 1024 1024" version="1.1" xmlns="http://www.w3.org/2000/svg" p-id="15560" xmlns:xlink="http://www.w3.org/1999/xlink" width="200" height="200"><defs><style type="text/css"></style></defs><path d="M213.333333 589.44a21.333333 21.333333 0 0 0 0 42.666667h170.666667a21.333333 21.333333 0 0 0 0-42.666667h-170.666667zM554.666667 461.44a21.333333 21.333333 0 0 0-21.333334-21.333333H213.333333a21.333333 21.333333 0 0 0 0 42.666666h320a21.333333 21.333333 0 0 0 21.333334-21.333333z" fill="#666666" p-id="15561"></path><path d="M450.773333 909.44H192c-47.146667 0-93.226667-30.293333-93.226667-77.226667V333.44h768v154.666667a21.333333 21.333333 0 0 0 42.666667 0V192c0-70.613333-49.493333-135.893333-119.893333-135.893333h-93.44V42.666667a21.333333 21.333333 0 0 0-42.666667 0v13.44h-341.333333V42.666667a21.333333 21.333333 0 0 0-42.666667 0v13.44H192A142.293333 142.293333 0 0 0 56.106667 192v640c0 70.613333 65.493333 120.106667 136.106666 120.106667h258.56a21.333333 21.333333 0 0 0 0-42.666667zM98.773333 192A99.84 99.84 0 0 1 192 98.773333h77.44V149.333333a21.333333 21.333333 0 0 0 42.666667 0V98.773333h341.333333V149.333333a21.333333 21.333333 0 0 0 42.666667 0V98.773333H789.333333c47.146667 0 77.44 46.293333 77.44 93.44v98.773334h-768V192z" fill="#666666" p-id="15562"></path><path d="M953.813333 966.186667L862.933333 874.666667a194.56 194.56 0 1 0-27.946666 32.426666l88.533333 88.533334a21.333333 21.333333 0 0 0 30.293333-29.44zM704 917.333333a149.333333 149.333333 0 1 1 149.333333-149.333333 149.333333 149.333333 0 0 1-149.333333 149.333333z" fill="#666666" p-id="15563"></path></svg>