<?xml version="1.0" encoding="UTF-8"?>
<svg width="24px" height="24px" viewBox="0 0 24 24" version="1.1" xmlns="http://www.w3.org/2000/svg" xmlns:xlink="http://www.w3.org/1999/xlink">
    <!-- Generator: Sketch 49.1 (51147) - http://www.bohemiancoding.com/sketch -->
    <title>navic/music_nor</title>
    <desc>Created with Sketch.</desc>
    <defs></defs>
    <g id="navic/music_nor" stroke="none" stroke-width="1" fill="none" fill-rule="evenodd">
        <g id="ic_music_nor">
            <rect id="Rectangle-8" x="0" y="0" width="24" height="24"></rect>
            <path d="M17,14.2792408 L17,7.54218306 C17,6.98989831 16.5522847,6.54218306 16,6.54218306 C15.9558,6.54218306 15.9116486,6.54511352 15.8678363,6.55095516 L8.86783628,7.4842885 C8.37103026,7.5505293 8,7.97431378 8,8.4755164 L8,19.2792408 C8,19.7096712 7.72456991,20.09181 7.31622777,20.2279241 L3.31622777,21.5612574 C2.79228445,21.7359052 2.22596447,21.4527452 2.0513167,20.9288019 C2.01732788,20.8268354 2,20.7200562 2,20.6125741 L2,17.7207592 C2,17.2903288 2.27543009,16.90819 2.68377223,16.7720759 L4.31622777,16.2279241 C4.72456991,16.09181 5,15.7096712 5,15.2792408 L5,4.8755164 C5,4.37431378 5.37103026,3.9505293 5.86783628,3.8842885 L18.8678363,2.15095516 C19.4152763,2.07796316 19.9182359,2.46257929 19.9912279,3.01001934 C19.9970695,3.05383164 20,3.09798304 20,3.14218306 L20,18.2792408 C20,18.7096712 19.7245699,19.09181 19.3162278,19.2279241 L15.3162278,20.5612574 C14.7922844,20.7359052 14.2259645,20.4527452 14.0513167,19.9288019 C14.0173279,19.8268354 14,19.7200562 14,19.6125741 L14,16.7207592 C14,16.2903288 14.2754301,15.90819 14.6837722,15.7720759 L16.3162278,15.2279241 C16.7245699,15.09181 17,14.7096712 17,14.2792408 Z" id="Combined-Shape" fill="#7C878E"></path>
        </g>
    </g>
</svg>