<?xml version="1.0" standalone="no"?><!DOCTYPE svg PUBLIC "-//W3C//DTD SVG 1.1//EN" "http://www.w3.org/Graphics/SVG/1.1/DTD/svg11.dtd"><svg t="1583240186111" class="icon" viewBox="0 0 1171 1024" version="1.1" xmlns="http://www.w3.org/2000/svg" p-id="11152" xmlns:xlink="http://www.w3.org/1999/xlink" width="228.7109375" height="200"><defs><style type="text/css"></style></defs><path d="M1121.034 947.942c0 0-142.543-24.912-274.03-24.912-130.08 0-249.119 24.912-249.119 24.912-4.327 0-8.453-0.725-12.456-1.761-4.003 1.036-8.129 1.761-12.456 1.761 0 0-142.543-24.912-274.03-24.912-130.08 0-249.119 24.912-249.119 24.912-27.518 0-49.824-22.306-49.824-49.824L0 175.674c0 33.215 29.565-99.647 309.892-99.647 157.587 0 236.431 40.771 275.57 71.502 38.97-30.731 117.131-71.502 272.491-71.502 284.344 0 312.905 132.862 312.905 99.647l0 722.444C1170.858 925.636 1148.552 947.942 1121.034 947.942zM548.061 225.498c0 0-49.824-74.736-249.119-74.736-166.081 0-224.207 74.736-224.207 74.736l0 622.797c0 27.518 22.306 24.912 49.824 24.912 0 0 85.433-24.912 174.384-24.912 97.495 0 199.295 24.912 199.295 24.912 27.518 0 49.824 2.606 49.824-24.912L548.062 225.498zM1096.122 225.498c0 0-27.802-41.543-124.559-62.676l0 386.53-99.647-74.736-99.647 74.736L772.269 156.537c-109.032 17.411-149.471 68.961-149.471 68.961l0 622.797c0 27.518 22.306 24.912 49.824 24.912 0 0 85.433-24.912 174.383-24.912 97.495 0 199.295 24.912 199.295 24.912 27.518 0 49.824 2.606 49.824-24.912L1096.124 225.498zM423.502 673.911 199.295 673.911c-13.759 0-24.912-11.153-24.912-24.912l0-24.912c0-13.759 11.153-24.912 24.912-24.912l224.207 0c13.759 0 24.912 11.153 24.912 24.912L448.414 649C448.414 662.758 437.261 673.911 423.502 673.911zM423.502 449.705 199.295 449.705c-13.759 0-24.912-11.153-24.912-24.912l0-24.912c0-13.759 11.153-24.912 24.912-24.912l224.207 0c13.759 0 24.912 11.153 24.912 24.912l0 24.912C448.414 438.552 437.261 449.705 423.502 449.705z" p-id="11153"></path></svg>