<?xml version="1.0" standalone="no"?><!DOCTYPE svg PUBLIC "-//W3C//DTD SVG 1.1//EN" "http://www.w3.org/Graphics/SVG/1.1/DTD/svg11.dtd"><svg t="1583240218187" class="icon" viewBox="0 0 1024 1024" version="1.1" xmlns="http://www.w3.org/2000/svg" p-id="11855" xmlns:xlink="http://www.w3.org/1999/xlink" width="200" height="200"><defs><style type="text/css"></style></defs><path d="M150.3 655.2l737.3-451.4v451.4z" fill="#F9B5A0" p-id="11856"></path><path d="M832.7 159.2h-645c-45.5 0-82.5 37-82.5 82.5V701c0 45.5 37 82.5 82.5 82.5h300-8.4v48.2H241.9c-12.2 0-22.2 10-22.2 22.3 0 12.2 10 22.2 22.2 22.2h536.6c12.2 0 22.2-10 22.2-22.2s-10-22.3-22.2-22.3H543.3v-48.2h-10.6 300c45.5 0 82.5-37 82.5-82.5V241.7c0-45.5-37-82.5-82.5-82.5zM510.3 761c-23.6 0-42.7-19.1-42.7-42.7s19.1-42.7 42.7-42.7 42.7 19.1 42.7 42.7c0 23.5-19.1 42.7-42.7 42.7z m359.9-105.8h-720V241.7c0-20.7 16.8-37.5 37.5-37.5h645c20.7 0 37.5 16.8 37.5 37.5v413.5z" fill="#FE7743" p-id="11857"></path></svg>