<?xml version="1.0" standalone="no"?><!DOCTYPE svg PUBLIC "-//W3C//DTD SVG 1.1//EN" "http://www.w3.org/Graphics/SVG/1.1/DTD/svg11.dtd"><svg t="1583406257363" class="icon" viewBox="0 0 1024 1024" version="1.1" xmlns="http://www.w3.org/2000/svg" p-id="10778" xmlns:xlink="http://www.w3.org/1999/xlink" width="200" height="200"><defs><style type="text/css"></style></defs><path d="M697.856 930.816h-41.472c-11.264 0-20.48-9.216-20.48-20.48s9.216-20.48 20.48-20.48h41.472c9.728-0.512 46.592-25.088 97.28-76.288 50.176-50.688 75.264-88.576 76.8-98.304V318.976c0-68.096-55.296-123.392-123.392-123.392H275.456c-68.096 0-123.392 55.296-123.392 123.392v448c0 68.096 55.296 123.392 123.392 123.392h201.728c11.264 0 20.48 9.216 20.48 20.48s-9.216 20.48-20.48 20.48H275.456c-90.624 0-164.352-73.728-164.352-164.352V318.976c0-90.624 73.728-164.352 164.352-164.352h473.088c90.624 0 164.352 73.728 164.352 164.352v396.8c0 33.28-60.928 99.328-87.552 125.952-32.768 33.28-93.184 89.088-127.488 89.088z" fill="#4C4C4C" p-id="10779"></path><path d="M131.584 385.536H885.76v40.96H131.584zM262.656 273.92c-11.264 0-20.48-9.216-20.48-20.48V123.904c0-11.264 9.216-20.48 20.48-20.48s20.48 9.216 20.48 20.48v129.536c0 11.264-9.216 20.48-20.48 20.48zM757.248 273.92c-11.264 0-20.48-9.216-20.48-20.48V123.904c0-11.264 9.216-20.48 20.48-20.48s20.48 9.216 20.48 20.48v129.536c0 11.264-9.216 20.48-20.48 20.48zM653.312 926.72c-11.264 0-20.48-9.216-20.48-20.48v-104.448c0-81.408 66.048-147.456 147.456-147.456h91.648c11.264 0 20.48 9.216 20.48 20.48s-9.216 20.48-20.48 20.48h-91.648c-58.88 0-106.496 47.616-106.496 106.496V906.24c0 11.264-9.216 20.48-20.48 20.48z" fill="#4C4C4C" p-id="10780"></path></svg>