<?xml version="1.0" standalone="no"?><!DOCTYPE svg PUBLIC "-//W3C//DTD SVG 1.1//EN" "http://www.w3.org/Graphics/SVG/1.1/DTD/svg11.dtd"><svg t="1583241514300" class="icon" viewBox="0 0 1024 1024" version="1.1" xmlns="http://www.w3.org/2000/svg" p-id="26615" xmlns:xlink="http://www.w3.org/1999/xlink" width="200" height="200"><defs><style type="text/css"></style></defs><path d="M575.62 402.009c-61.17-34.846-139.388-14.165-174.695 46.195-35.324 60.358-14.36 137.543 46.812 172.39 61.173 34.861 139.387 14.164 174.71-46.192 35.31-60.36 14.345-137.53-46.827-172.393z m18.872 156.47c-26.412 45.116-84.897 60.572-130.632 34.517-45.733-26.049-61.407-83.744-34.995-128.858 26.395-45.13 84.882-60.59 130.633-34.535 45.733 26.052 61.405 83.748 34.994 128.877z m293.312-120.832c0.097 0.02 0.192 0.042 0.29 0.061l-6.364-26.7-1.9-6.601c-34.913-10.391-61.324-31.391-77.55-59.114-16.226-27.722-21.922-67.894-13.088-96.15l-13.938-12.534a382.898 382.898 0 0 0-11.014-9.904l-1.057-0.95c-0.004 0.01-0.007 0.022-0.01 0.034-36.972-31.728-80.154-56.597-127.524-72.561l0.013-0.015-0.537-0.16a384.37 384.37 0 0 0-25.668-7.628l-0.415-0.124-0.828-0.205c-0.23-0.06-0.457-0.124-0.686-0.183v0.012l-5.23-1.302c-26.58 24.632-58.225 36.695-90.673 36.695-32.45 0-70.567-15.222-90.956-36.893l-5.58 1.656a384.601 384.601 0 0 0-27.956 8.303l-0.402 0.12c0.004 0.002 0.007 0.006 0.01 0.01-47.34 16.08-90.48 41.055-127.386 72.887l-0.009-0.026-0.673 0.613a384.59 384.59 0 0 0-13.538 12.31l-6.14 5.582-4.846 4.924c8.334 35.022 3.104 68.085-13.122 95.806-16.224 27.722-48.647 52.675-77.869 59.257l-1.976 8.419a372.544 372.544 0 0 0-5.83 24.835l-0.182 0.777 0.028-0.006a374.728 374.728 0 0 0-7.039 72.381c0 25.06 2.492 49.544 7.21 73.24l-0.006-0.002 0.034 0.144a372.547 372.547 0 0 0 6.564 27.483l0.028-0.017 1.638 5.692c34.913 10.39 61.325 31.389 77.55 59.11 16.225 27.726 21.92 67.897 13.088 96.153l6.941 6.35a384.376 384.376 0 0 0 146.376 89.858l-0.013 0.016 0.51 0.152a384.363 384.363 0 0 0 23.284 7.002l2.762 0.83 6.746 1.679c26.58-24.631 58.222-36.695 90.674-36.695 32.45 0 70.566 15.22 90.956 36.895l6.592-1.97c67.06-17.332 126.939-52.14 174.374-99.172l0.621-0.571 4.844-4.925c-8.333-35.023-3.103-68.083 13.123-95.806 16.225-27.725 48.645-52.674 77.87-59.258l1.281-5.37 0.086 0.049c8.985-32.113 13.802-65.932 13.802-100.865a374.817 374.817 0 0 0-7.29-73.628z m-34.482 156.23c-30.951 12.715-59.831 34.518-78.902 67.102-19.266 32.919-23.9 67.132-19.09 100.298-40.52 38.392-90.336 67.312-145.805 83.128-26.56-19.959-59.982-33.616-97.982-33.616-38.444 0-70.754 13.107-97.441 33.725-55.417-15.734-105.205-44.548-145.736-82.817 4.236-32.66-0.535-68.007-19.56-100.516-19.278-32.938-47.096-54.023-78.682-66.502-6.695-26.72-10.266-54.652-10.266-83.409 0-28.566 3.52-56.32 10.13-82.876 30.867-12.72 59.627-34.51 78.67-67.048 19.227-32.852 23.907-66.918 19.16-99.98 40.507-38.404 90.31-67.348 145.773-83.183 26.585 19.95 60.05 33.608 98.033 33.608 38.437 0 70.774-13.14 97.474-33.77 55.483 15.742 105.322 44.6 145.884 82.921-4.167 32.523 0.676 67.642 19.667 100.09 19.213 32.828 46.912 53.884 78.368 66.38 6.767 26.854 10.375 54.94 10.375 83.86-0.001 28.469-3.503 56.13-10.07 82.606z" p-id="26616"></path></svg>