<?xml version="1.0" standalone="no"?><!DOCTYPE svg PUBLIC "-//W3C//DTD SVG 1.1//EN" "http://www.w3.org/Graphics/SVG/1.1/DTD/svg11.dtd"><svg t="1583240190790" class="icon" viewBox="0 0 1024 1024" version="1.1" xmlns="http://www.w3.org/2000/svg" p-id="11290" xmlns:xlink="http://www.w3.org/1999/xlink" width="200" height="200"><defs><style type="text/css"></style></defs><path d="M224.2 266.8H121c-33.8 0-61.3 27-61.3 60.2v572c0 33.2 27.5 60.2 61.3 60.2h103.1c33.9 0 61.4-27 61.4-60.2V327c0.1-33.2-27.5-60.2-61.3-60.2z m-103.2 50h103.1c6.2 0 11.4 4.7 11.4 10.2v89.8H109.7V327c0-5.5 5.2-10.2 11.3-10.2z m103.2 592.5H121c-6.1 0-11.3-4.7-11.3-10.2V466.9h125.9v432.2c0 5.5-5.2 10.2-11.4 10.2zM487.7 64.7H384.5c-33.8 0-61.3 27.1-61.3 60.3v774c0 33.2 27.5 60.2 61.3 60.2h103.1c33.9 0 61.4-27 61.4-60.2V125c0.1-33.2-27.5-60.3-61.3-60.3z m-103.2 50h103.1c6.2 0 11.4 4.7 11.4 10.3v88.8H373.2V125c0-5.6 5.2-10.3 11.3-10.3z m103.2 794.5H384.5c-6.1 0-11.3-4.7-11.3-10.2V263.8h125.9V899c0 5.6-5.3 10.2-11.4 10.2zM961.9 846.4L801 296.5v0.1c-8.1-26.5-32.5-43.7-58.9-43.7-5.7 0-11.4 0.8-17.1 2.4l-99.1 28c-15.5 4.2-28.7 14.5-36.6 28.5-7.9 14-9.9 30.6-5.5 46l161 549.8c8 26.5 32.4 43.7 58.8 43.7 5.6 0 11.4-0.8 17.1-2.4l99.1-28c32.6-9.2 51.5-42.7 42.1-74.5zM632.8 336.3c1.3-2.4 3.5-4.1 6.2-4.8l0.2-0.1 0.2-0.1 99.1-28h0.2c1.1-0.3 2.2-0.5 3.2-0.5 4.1 0 9.3 2.6 11 8.2l0.4 1.3 23.5 80.3-120.9 34.1-24-82.7c-0.7-2.6-0.4-5.3 0.9-7.7z m280.3 531.2c-0.8 1.5-2.8 4.1-6.8 5.3l-99.1 28h-0.2c-1.1 0.3-2.1 0.5-3.2 0.5-4 0-9.2-2.5-10.9-8L670.2 474.7 791 440.6l122.9 419.8c0.7 2.4 0.4 4.8-0.8 7.1z" p-id="11291"></path></svg>