<?xml version="1.0" standalone="no"?><!DOCTYPE svg PUBLIC "-//W3C//DTD SVG 1.1//EN" "http://www.w3.org/Graphics/SVG/1.1/DTD/svg11.dtd"><svg t="1583240769966" class="icon" viewBox="0 0 1024 1024" version="1.1" xmlns="http://www.w3.org/2000/svg" p-id="15840" xmlns:xlink="http://www.w3.org/1999/xlink" width="200" height="200"><defs><style type="text/css"></style></defs><path d="M716.8 170.65v409.6H240.64c-25.6 0-49.51 6.86-69.99 18.79V239.77c0-38.4 30.72-69.12 69.12-69.12H716.8z m68.25-68.25H239.77A137.318 137.318 0 0 0 102.4 239.77v544.46c0 75.93 61.44 137.37 137.37 137.37H921.6V170.65h-68.25v682.7H240.64c-38.4 0-69.99-31.59-69.99-69.99v-64.87c0-38.4 31.59-69.94 69.99-69.94h544.41V102.4z m0 614.4h-546.1v68.25h546.1V716.8z" p-id="15841"></path></svg>