<?xml version="1.0" standalone="no"?><!DOCTYPE svg PUBLIC "-//W3C//DTD SVG 1.1//EN" "http://www.w3.org/Graphics/SVG/1.1/DTD/svg11.dtd"><svg t="1583240725043" class="icon" viewBox="0 0 1026 1024" version="1.1" xmlns="http://www.w3.org/2000/svg" p-id="14108" xmlns:xlink="http://www.w3.org/1999/xlink" width="200.390625" height="200"><defs><style type="text/css"></style></defs><path d="M1015.808 790.528q5.12 30.72-12.8 55.296t-48.64 29.696l-122.88 19.456q-29.696 5.12-54.784-12.8t-30.208-48.64l-104.448-661.504q-2.048-15.36 1.536-29.184t11.776-25.6 20.992-19.456 28.16-10.752l121.856-19.456q30.72-5.12 55.296 13.312t29.696 49.152zM500.736 63.488q30.72 0 52.224 21.504t21.504 52.224l0 684.032q0 30.72-21.504 52.224t-52.224 21.504l-106.496 0q-30.72 0-52.224-21.504t-21.504-52.224l0-684.032q0-30.72 16.384-52.224t48.128-21.504l115.712 0zM500.736 579.584q10.24 0 17.408-9.728t7.168-23.04q0-14.336-7.168-23.552t-17.408-9.216l-106.496 0q-10.24 0-17.408 9.216t-7.168 23.552q0 13.312 7.168 23.04t17.408 9.728l106.496 0zM500.736 449.536q10.24 0 17.408-9.728t7.168-24.064-7.168-23.552-17.408-9.216l-106.496 0q-10.24 0-17.408 9.216t-7.168 23.552 7.168 24.064 17.408 9.728l106.496 0zM179.2 63.488q30.72 0 52.736 21.504t22.016 52.224l0 684.032q0 30.72-22.016 52.224t-52.736 21.504l-106.496 0q-30.72 0-52.736-21.504t-22.016-52.224l0-684.032q0-30.72 22.016-52.224t52.736-21.504l106.496 0zM76.8 319.488q-11.264 0-18.432 9.216t-7.168 23.552q0 13.312 7.168 23.04t18.432 9.728l98.304 0q11.264 0 17.92-9.728t6.656-23.04q0-14.336-6.656-23.552t-17.92-9.216l-98.304 0zM179.2 641.024q11.264 0 17.92-9.216t6.656-22.528q0-14.336-6.656-23.04t-17.92-8.704l-102.4 0q-11.264 0-18.432 8.704t-7.168 23.04q0 13.312 7.168 22.528t18.432 9.216l102.4 0zM179.2 515.072q11.264 0 17.92-9.216t6.656-23.552-6.656-23.552-17.92-9.216l-102.4 0q-11.264 0-18.432 9.216t-7.168 23.552 7.168 23.552 18.432 9.216l102.4 0z" p-id="14109"></path></svg>