<?xml version="1.0" standalone="no"?><!DOCTYPE svg PUBLIC "-//W3C//DTD SVG 1.1//EN" "http://www.w3.org/Graphics/SVG/1.1/DTD/svg11.dtd"><svg t="1583406212422" class="icon" viewBox="0 0 1024 1024" version="1.1" xmlns="http://www.w3.org/2000/svg" p-id="9822" xmlns:xlink="http://www.w3.org/1999/xlink" width="200" height="200"><defs><style type="text/css"></style></defs><path d="M170.666667 85.333333h682.666666c47.1296 0 85.333333 38.203733 85.333334 85.333334v682.666666c0 47.1296-38.203733 85.333333-85.333334 85.333334H170.666667c-47.1296 0-85.333333-38.203733-85.333334-85.333334V170.666667c0-47.1296 38.203733-85.333333 85.333334-85.333334z m0 64a21.333333 21.333333 0 0 0-21.333334 21.333334v682.666666a21.333333 21.333333 0 0 0 21.333334 21.333334h682.666666a21.333333 21.333333 0 0 0 21.333334-21.333334V170.666667a21.333333 21.333333 0 0 0-21.333334-21.333334H170.666667z m490.666666 235.025067l-114.6752 66.210133c-9.890133 7.8592-21.943467 13.457067-34.5472 13.457067-12.637867 0-23.1936-5.597867-32.529066-13.333333-0.631467-0.520533-39.6032-23.611733-116.9152-69.269334v313.706667a32 32 0 1 1-64 0v-362.666667c0-9.4464 4.096-17.9328 10.602666-23.790933a39.68 39.68 0 0 1 48.7168-7.150933l156.5568 90.389333 154.568534-89.2416a39.68 39.68 0 0 1 50.645333 9.3568A28.881067 28.881067 0 0 1 725.333333 337.309867v357.819733a32 32 0 1 1-64 0V384.3584z" p-id="9823"></path></svg>