<?xml version="1.0" standalone="no"?><!DOCTYPE svg PUBLIC "-//W3C//DTD SVG 1.1//EN" "http://www.w3.org/Graphics/SVG/1.1/DTD/svg11.dtd"><svg t="1583997107522" class="icon" viewBox="0 0 1074 1024" version="1.1" xmlns="http://www.w3.org/2000/svg" p-id="13390" xmlns:xlink="http://www.w3.org/1999/xlink" width="209.765625" height="200"><defs><style type="text/css"></style></defs><path d="M271.835052 287.670103H15.835052A15.835052 15.835052 0 0 1 0 271.835052V15.835052A15.835052 15.835052 0 0 1 15.835052 0h256a15.835052 15.835052 0 0 1 15.835051 15.835052v256a15.835052 15.835052 0 0 1-15.835051 15.835051zM670.350515 287.670103H414.790378a16.274914 16.274914 0 0 1-16.274914-15.835051V15.835052A16.274914 16.274914 0 0 1 414.790378 0h255.560137a16.274914 16.274914 0 0 1 16.274915 15.835052v256a16.274914 16.274914 0 0 1-16.274915 15.835051zM1057.869416 287.670103h-255.560138a16.274914 16.274914 0 0 1-16.274914-15.835051V15.835052a16.274914 16.274914 0 0 1 16.274914-15.835052h255.560138a16.274914 16.274914 0 0 1 16.274914 15.835052v256a16.274914 16.274914 0 0 1-16.274914 15.835051z" fill="#4E8CEE" p-id="13391"></path><path d="M681.347079 1024H425.786942a16.274914 16.274914 0 0 1-16.274915-15.835052V752.164948a16.274914 16.274914 0 0 1 16.274915-15.835051h255.560137a16.274914 16.274914 0 0 1 16.274914 15.835051v256a16.274914 16.274914 0 0 1-16.274914 15.835052zM816.824742 311.862543v191.780069h-244.123711V311.862543h-48.38488v191.780069H278.43299V311.862543H229.608247v240.604811h292.948454v169.347079h50.14433v-169.347079h292.948454V311.862543h-48.824743z" fill="#A6C5F6" p-id="13392"></path></svg>