<?xml version="1.0" standalone="no"?><!DOCTYPE svg PUBLIC "-//W3C//DTD SVG 1.1//EN" "http://www.w3.org/Graphics/SVG/1.1/DTD/svg11.dtd"><svg t="1583997069485" class="icon" viewBox="0 0 1340 1024" version="1.1" xmlns="http://www.w3.org/2000/svg" p-id="11996" xmlns:xlink="http://www.w3.org/1999/xlink" width="261.71875" height="200"><defs><style type="text/css"></style></defs><path d="M1142.348994 0H64.887147A65.342258 65.342258 0 0 0 0.001828 65.799197v747.095047a65.342258 65.342258 0 0 0 64.885319 65.342258H1142.348994a65.342258 65.342258 0 0 0 64.885319-65.342258V65.799197A65.342258 65.342258 0 0 0 1142.348994 0zM613.213787 253.144132h179.120035a35.641232 35.641232 0 0 1 35.184293 35.641232 35.184293 35.184293 0 0 1-35.184293 35.184292h-179.120035a34.727354 34.727354 0 0 1-35.184293-35.184292 35.184293 35.184293 0 0 1 35.184293-35.641232zM305.236991 191.000446a114.691656 114.691656 0 1 1-114.234717 114.691656 114.691656 114.691656 0 0 1 114.234717-114.691656zM154.904104 688.149933c0-118.804105 67.170013-215.218206 150.332887-215.218206S456.940694 569.345828 456.940694 688.149933z m886.91834 2.741633h-428.608657a35.184293 35.184293 0 0 1 0-70.368585h428.608657a35.184293 35.184293 0 1 1 0 70.368585z m0-182.775546h-428.608657a35.641232 35.641232 0 0 1 0-70.825525h428.608657a35.641232 35.641232 0 1 1 0 70.825525z" fill="#4E8CEE" p-id="11997"></path><path d="M154.447165 945.406515l1184.842481 0 0 78.593485-1184.842481 0 0-78.593485Z" fill="#A6C5F6" p-id="11998"></path><path d="M1262.066977 1024l0-877.779563 78.593485 0 0 877.779563-78.593485 0Z" fill="#A6C5F6" p-id="11999"></path></svg>