<?xml version="1.0" standalone="no"?><!DOCTYPE svg PUBLIC "-//W3C//DTD SVG 1.1//EN" "http://www.w3.org/Graphics/SVG/1.1/DTD/svg11.dtd"><svg t="1583996392009" class="icon" viewBox="0 0 1327 1024" version="1.1" xmlns="http://www.w3.org/2000/svg" p-id="3020" xmlns:xlink="http://www.w3.org/1999/xlink" width="259.1796875" height="200"><defs><style type="text/css"></style></defs><path d="M1092.272916 0H62.026293A62.020044 62.020044 0 0 0 0.006249 62.912418v713.899782a62.466231 62.466231 0 0 0 62.020044 62.466231h1030.246623a62.020044 62.020044 0 0 0 62.020044-62.466231v-713.899782A62.020044 62.020044 0 0 0 1092.272916 0zM586.296445 242.279739H758.524768A33.91024 33.91024 0 0 1 758.524768 312.331155h-172.228323a33.91024 33.91024 0 1 1 0-67.82048zM292.258973 182.490632a109.762092 109.762092 0 1 1-109.762092 109.762091 109.762092 109.762092 0 0 1 109.762092-109.762091zM148.140454 658.126362c0-113.777778 64.25098-206.138562 144.118519-206.138562s143.672331 92.360784 143.672331 206.138562z m847.755991 2.677124h-409.6a33.91024 33.91024 0 0 1 0-67.820479h410.046188a33.91024 33.91024 0 1 1 0 67.820479z m0-175.351634h-409.6a33.91024 33.91024 0 0 1 0-67.820479h410.046188a33.91024 33.91024 0 0 1 0 67.820479z" fill="#4E8CEE" p-id="3021"></path><path d="M147.694267 948.594336l1179.273202 0 0 75.405664-1179.273202 0 0-75.405664Z" fill="#A6C5F6" p-id="3022"></path><path d="M1251.115618 1024l0-883.897168 75.405664 0 0 883.897168-75.405664 0Z" fill="#A6C5F6" p-id="3023"></path></svg>