<?xml version="1.0" standalone="no"?><!DOCTYPE svg PUBLIC "-//W3C//DTD SVG 1.1//EN" "http://www.w3.org/Graphics/SVG/1.1/DTD/svg11.dtd"><svg t="1583996998355" class="icon" viewBox="0 0 1024 1024" version="1.1" xmlns="http://www.w3.org/2000/svg" p-id="9326" xmlns:xlink="http://www.w3.org/1999/xlink" width="200" height="200"><defs><style type="text/css"></style></defs><path d="M209.276545 163.479649a31.740308 31.740308 0 0 0-31.399014-9.214928 31.05772 31.05772 0 0 0-22.866673 22.866673 32.081601 32.081601 0 0 0 9.214928 31.399014L209.276545 253.581167a32.081601 32.081601 0 0 0 31.057721 9.214928 31.399014 31.399014 0 0 0 23.207966-23.890554 32.081601 32.081601 0 0 0-9.897515-30.375133z" fill="#4E8CEE" p-id="9327"></path><path d="M232.484512 280.884657a48.804989 48.804989 0 0 1-34.129363-15.699507L151.256628 220.475685a48.463695 48.463695 0 0 1-13.651745-47.439815 49.146283 49.146283 0 0 1 83.275646-21.501498l45.392052 44.709465a49.146283 49.146283 0 0 1-21.501498 82.934352 50.852751 50.852751 0 0 1-12.286571 1.706468zM185.385991 170.646815h-3.071642a14.675626 14.675626 0 0 0-10.921397 10.921396 14.334332 14.334332 0 0 0 4.436818 14.334332l45.392052 45.733347a15.01692 15.01692 0 0 0 15.01692 4.436817 14.334332 14.334332 0 0 0 10.921396-10.580103 15.699507 15.699507 0 0 0-4.436817-14.675626L196.648681 175.083632A14.675626 14.675626 0 0 0 185.385991 170.646815zM815.755325 163.479649l-45.050759 45.050759a34.129363 34.129363 0 0 0-9.214928 31.399014 31.740308 31.740308 0 0 0 23.207967 22.866673 31.05772 31.05772 0 0 0 31.05772-9.214928l45.050759-45.050759a31.740308 31.740308 0 0 0-45.050759-45.050759z" fill="#4E8CEE" p-id="9328"></path><path d="M792.547358 280.884657a50.170164 50.170164 0 0 1-12.286571 0 48.804989 48.804989 0 0 1-34.129362-34.129363 48.122402 48.122402 0 0 1 13.993038-47.781108l44.709466-45.050759a48.463695 48.463695 0 0 1 34.129363-14.334333 48.804989 48.804989 0 0 1 34.129363 14.334333 49.487576 49.487576 0 0 1 0 68.258726l-45.392053 43.685584a48.122402 48.122402 0 0 1-35.153244 15.01692z m34.129363-105.459731L782.649843 220.475685a15.358213 15.358213 0 0 0-4.436817 15.016919 13.993039 13.993039 0 0 0 10.580102 10.921397 15.01692 15.01692 0 0 0 14.675626-4.436818l45.392053-45.392052a15.01692 15.01692 0 1 0-21.160205-21.160205zM129.413836 416.036934H65.591927a31.740308 31.740308 0 0 0-29.009958 15.358214 32.081601 32.081601 0 0 0 0 34.129363 31.05772 31.05772 0 0 0 29.009958 15.358213h63.821909a32.081601 32.081601 0 0 0 27.644784-16.040801 31.05772 31.05772 0 0 0 0-31.740307 32.081601 32.081601 0 0 0-27.644784-16.040801z" fill="#4E8CEE" p-id="9329"></path><path d="M62.861578 496.923525a48.122402 48.122402 0 0 1-40.955235-23.549261 48.804989 48.804989 0 0 1 44.709465-74.060717h62.798028a49.146283 49.146283 0 0 1 42.32041 24.573141 49.146283 49.146283 0 0 1-42.32041 73.37813H62.861578z m1.706468-63.821909a15.01692 15.01692 0 1 0 0 29.692546h64.84579a14.675626 14.675626 0 0 0 12.969158-7.50846 14.334332 14.334332 0 0 0 0-14.675626 15.358213 15.358213 0 0 0-11.26269-7.50846H64.568046zM959.439943 416.036934h-63.821909a34.129363 34.129363 0 0 0-29.351252 15.358214 34.129363 34.129363 0 0 0 0 34.129363 31.740308 31.740308 0 0 0 29.351252 15.358213h63.821909a32.081601 32.081601 0 0 0 27.644784-16.040801 31.05772 31.05772 0 0 0 0-31.740307 32.081601 32.081601 0 0 0-27.644784-16.040801z" fill="#4E8CEE" p-id="9330"></path><path d="M892.887685 496.923525a48.804989 48.804989 0 0 1-40.955235-74.060718 47.439815 47.439815 0 0 1 44.709465-23.54926h62.798028a49.146283 49.146283 0 0 1 42.32041 24.573141 49.146283 49.146283 0 0 1-42.32041 73.37813h-66.552258z m1.706468-63.821909a15.01692 15.01692 0 0 0-13.651745 22.525379 14.675626 14.675626 0 0 0 13.651745 7.167167h64.84579a14.675626 14.675626 0 0 0 12.969158-7.50846 14.334332 14.334332 0 0 0 0-14.675626 15.358213 15.358213 0 0 0-11.26269-7.50846h-66.552258zM480.604981 48.804989v64.163202a32.081601 32.081601 0 0 0 16.0408 27.644784 34.129363 34.129363 0 0 0 31.740308 0 32.081601 32.081601 0 0 0 16.040801-27.644784V48.804989a32.081601 32.081601 0 0 0-16.040801-27.644784 34.129363 34.129363 0 0 0-31.740308 0 32.081601 32.081601 0 0 0-16.0408 27.644784z" fill="#4E8CEE" p-id="9331"></path><path d="M512.686582 161.77318a48.122402 48.122402 0 0 1-24.573141-6.484579 48.804989 48.804989 0 0 1-24.573142-42.32041V48.804989a48.804989 48.804989 0 0 1 24.573142-42.32041 49.82887 49.82887 0 0 1 48.804989 0 48.804989 48.804989 0 0 1 23.890554 42.32041v64.163202a48.804989 48.804989 0 0 1-24.573142 42.32041 47.781108 47.781108 0 0 1-23.54926 6.484579z m0-127.643817a13.651745 13.651745 0 0 0-7.50846 2.047762 14.334332 14.334332 0 0 0-7.50846 12.627864v64.163202a14.334332 14.334332 0 0 0 7.50846 12.627865 14.334332 14.334332 0 0 0 14.675626 0 14.334332 14.334332 0 0 0 6.825873-12.627865V48.804989a14.334332 14.334332 0 0 0-7.50846-12.627864 13.310452 13.310452 0 0 0-6.484579-2.047762zM225.317346 495.899644a287.369236 287.369236 0 1 0 287.369236-287.369236 287.369236 287.369236 0 0 0-287.369236 287.369236z" fill="#4E8CEE" p-id="9332"></path><path d="M512.686582 800.333561a304.433918 304.433918 0 1 1 304.092624-304.433917 304.775211 304.775211 0 0 1-304.092624 304.433917z m0-574.738472a270.304555 270.304555 0 1 0 269.963261 270.304555 270.645848 270.645848 0 0 0-269.963261-270.304555z" fill="#4E8CEE" p-id="9333"></path><path d="M438.284571 985.314708A36.177125 36.177125 0 0 0 475.485576 1023.880889h74.402012a36.177125 36.177125 0 0 0 34.129363-17.747269 37.201006 37.201006 0 0 0-34.129363-56.313449H475.485576a36.859712 36.859712 0 0 0-37.201005 37.201006zM363.882559 873.711692a37.201006 37.201006 0 0 0 10.580103 26.620903 38.907474 38.907474 0 0 0 26.620903 10.921396h223.206034a37.201006 37.201006 0 0 0 0-74.402011h-223.206034a37.201006 37.201006 0 0 0-37.201006 37.201005z" fill="#A6C5F6" p-id="9334"></path></svg>