<?xml version="1.0" standalone="no"?><!DOCTYPE svg PUBLIC "-//W3C//DTD SVG 1.1//EN" "http://www.w3.org/Graphics/SVG/1.1/DTD/svg11.dtd"><svg t="1583997142449" class="icon" viewBox="0 0 1378 1024" version="1.1" xmlns="http://www.w3.org/2000/svg" p-id="14937" xmlns:xlink="http://www.w3.org/1999/xlink" width="269.140625" height="200"><defs><style type="text/css"></style></defs><path d="M662.690808 547.76077h167.026348V340.048515h214.136345V165.313258a35.974906 35.974906 0 0 0-30.407361-36.831451h-573.885404L403.585831 35.118361A55.67545 55.67545 0 0 0 358.617198 0H160.326943a54.818904 54.818904 0 0 0-44.968632 35.118361L78.955132 128.481807H31.416864a35.974906 35.974906 0 0 0-31.263907 36.831451V985.027185a35.974906 35.974906 0 0 0 31.263907 38.972815h798.300292V920.786282h-167.026348z" fill="#A6C5F6" p-id="14938"></path><path d="M439.560736 128.481807L404.014103 35.118361A56.103722 56.103722 0 0 0 358.617198 0H160.755216a55.67545 55.67545 0 0 0-45.396905 35.118361L78.955132 128.481807zM1176.189762 652.259306v-207.283982h-158.889168v207.283982h-201.288164v164.02844h201.288164v207.283981h158.889168v-207.283981h201.716437v-164.02844z" fill="#4E8CEE" p-id="14939"></path></svg>