<?xml version="1.0" standalone="no"?><!DOCTYPE svg PUBLIC "-//W3C//DTD SVG 1.1//EN" "http://www.w3.org/Graphics/SVG/1.1/DTD/svg11.dtd"><svg t="1583997266529" class="icon" viewBox="0 0 1024 1024" version="1.1" xmlns="http://www.w3.org/2000/svg" p-id="2393" xmlns:xlink="http://www.w3.org/1999/xlink" width="200" height="200"><defs><style type="text/css"></style></defs><path d="M466.45288 774.962705l-436.551043-252.270512 76.481036-52.915278 388.619646 222.736403a34.364166 34.364166 0 0 0 31.549196 2.307352l383.897265-223.197873 83.495386 51.069396-441.18113 254.42404a89.879061 89.879061 0 0 1-86.310356-2.153528z m11.321409 240.73375L29.763396 752.504476l79.157564-56.145571 387.973588 226.889637a31.64149 31.64149 0 0 0 29.87252 0.307647l388.096646-224.120814 79.157564 53.069101-443.873041 261.807567a77.403976 77.403976 0 0 1-72.373948 1.384412zM975.716284 263.038155L528.582185 4.153234a31.533814 31.533814 0 0 0-31.687637 0L50.083478 263.345802c-10.506144 6.152939-10.136967 40.609399 0.353794 46.608515l446.457276 260.576979a31.533814 31.533814 0 0 0 31.687637 0l449.579892-262.115214c10.567673-6.152939 8.091115-39.378812-2.384264-45.377927zM518.414453 468.700151L185.709643 280.266385 517.260777 93.678501l315.73808 187.972295z m-6.322145 461.778094" fill="#EE7ABB" p-id="2394"></path></svg>