<?xml version="1.0" standalone="no"?><!DOCTYPE svg PUBLIC "-//W3C//DTD SVG 1.1//EN" "http://www.w3.org/Graphics/SVG/1.1/DTD/svg11.dtd"><svg t="1583997160092" class="icon" viewBox="0 0 1024 1024" version="1.1" xmlns="http://www.w3.org/2000/svg" p-id="15640" xmlns:xlink="http://www.w3.org/1999/xlink" width="200" height="200"><defs><style type="text/css"></style></defs><path d="M511.999823 0.000353A511.999823 511.999823 0 1 0 1024.706341 512.000177 511.999823 511.999823 0 0 0 511.999823 0.000353m0 972.410983a459.351118 459.351118 0 1 1 459.351119-459.351118 459.351118 459.351118 0 0 1-459.351119 459.351118" fill="#A6C5F6" p-id="15641"></path><path d="M263.950219 484.792457h-67.135932a20.14078 20.14078 0 0 0-20.14078 20.140779v176.673507a373.487794 373.487794 0 0 0 106.004104 129.325008v-305.998515a20.494127 20.494127 0 0 0-20.14078-20.140779zM451.577484 605.637135h-67.135933a20.494127 20.494127 0 0 0-20.14078 20.14078v231.442294a378.434652 378.434652 0 0 0 98.23047 26.854373 20.847474 20.847474 0 0 0 9.187023-16.960656v-241.336011a20.494127 20.494127 0 0 0-20.14078-20.14078zM639.204748 605.637135H572.422163a20.14078 20.14078 0 0 0-20.14078 20.14078v241.336011a19.787433 19.787433 0 0 0 9.187022 16.960656 375.961223 375.961223 0 0 0 97.877123-26.854373v-231.442294a20.14078 20.14078 0 0 0-20.14078-20.14078zM848.032834 680.900049v-176.673507a20.494127 20.494127 0 0 0-20.14078-20.140779h-67.135933a20.494127 20.494127 0 0 0-20.14078 20.140779v305.29182a377.374611 377.374611 0 0 0 106.004105-129.325007zM511.999823 149.819487A195.400899 195.400899 0 1 0 706.694028 345.220386a195.047552 195.047552 0 0 0-195.400899-195.400899z" fill="#4E8CEE" p-id="15642"></path><path d="M565.355222 454.75796h-160.066197q-14.840575 0-14.840574-13.780533v-12.720493a13.427187 13.427187 0 0 1 4.946858-10.247063 184.093794 184.093794 0 0 1 57.595563-33.214619c7.06694-2.473429 14.487228-4.593511 22.967556-6.713594a18.727392 18.727392 0 0 1 11.660451 0 70.669403 70.669403 0 0 0 21.907515 4.946859 75.969608 75.969608 0 0 0 35.334702-5.300206 16.253963 16.253963 0 0 1 11.660451 0 184.447141 184.447141 0 0 1 42.048295 14.840575 192.220776 192.220776 0 0 1 38.161477 25.087638 12.013798 12.013798 0 0 1 4.240164 9.540369v14.133881a12.367145 12.367145 0 0 1-13.780533 12.720492zM515.533293 366.774554a43.108336 43.108336 0 0 1-26.147679-8.833675 64.309157 64.309157 0 0 1-26.501026-43.461683 15.900616 15.900616 0 0 1-9.540369-11.660452 16.253963 16.253963 0 0 1 3.886817-15.547268 63.95581 63.95581 0 0 1 18.727392-63.602463 59.715645 59.715645 0 0 1 41.694948-15.900615 59.362298 59.362298 0 0 1 47.701846 26.147679 66.075892 66.075892 0 0 1 9.893717 53.355399 16.253963 16.253963 0 0 1 3.886817 15.547268 16.960657 16.960657 0 0 1-9.540369 11.660452 68.549321 68.549321 0 0 1-15.193922 32.861272 50.88197 50.88197 0 0 1-30.387843 18.727392z" fill="#FFFFFF" p-id="15643"></path></svg>