<?xml version="1.0" standalone="no"?><!DOCTYPE svg PUBLIC "-//W3C//DTD SVG 1.1//EN" "http://www.w3.org/Graphics/SVG/1.1/DTD/svg11.dtd"><svg t="1583997055459" class="icon" viewBox="0 0 1024 1024" version="1.1" xmlns="http://www.w3.org/2000/svg" p-id="11435" xmlns:xlink="http://www.w3.org/1999/xlink" width="200" height="200"><defs><style type="text/css"></style></defs><path d="M871.472668 167.895477a83.890693 83.890693 0 0 1-79.276704 62.91802H230.967227A83.890693 83.890693 0 0 1 151.271069 167.895477l-28.942289-106.54118A46.559335 46.559335 0 0 1 169.727021 0.114091h684.967509a46.559335 46.559335 0 0 1 47.398241 61.240206z" fill="#4E8CEE" p-id="11436"></path><path d="M935.229595 125.950131l-15.100325 62.91802a136.322376 136.322376 0 0 1-125.836039 96.474297H231.806134a134.225109 134.225109 0 0 1-125.83604-96.474297L89.191956 125.950131A130.030574 130.030574 0 0 0 72.413817 190.545965v705.101275a125.83604 125.83604 0 0 0 125.83604 125.836039h624.985663a128.35276 128.35276 0 0 0 125.83604-125.836039V188.868151a111.155168 111.155168 0 0 0-13.841965-62.91802z" fill="#A6C5F6" p-id="11437"></path><path d="M513.259409 573.926432a95.215937 95.215937 0 1 1 95.215937-95.215937 95.63539 95.63539 0 0 1-95.215937 95.215937z" fill="#4E8CEE" p-id="11438"></path><path d="M513.259409 594.899105a116.18861 116.18861 0 1 1 116.18861-116.18861 116.18861 116.18861 0 0 1-116.18861 116.18861z m0-190.431873a74.243263 74.243263 0 1 0 74.243263 74.243263 74.243263 74.243263 0 0 0-74.243263-74.243263z" fill="#FFFFFF" p-id="11439"></path></svg>