<?xml version="1.0" standalone="no"?><!DOCTYPE svg PUBLIC "-//W3C//DTD SVG 1.1//EN" "http://www.w3.org/Graphics/SVG/1.1/DTD/svg11.dtd"><svg t="1583997080802" class="icon" viewBox="0 0 1024 1024" version="1.1" xmlns="http://www.w3.org/2000/svg" p-id="12414" xmlns:xlink="http://www.w3.org/1999/xlink" width="200" height="200"><defs><style type="text/css"></style></defs><path d="M433.425743 1024c-194.973343 0-416.463062-20.667174-416.463062-113.864433v-66.290936c0-86.958111 132.581874-165.337395 277.642041-194.973344A62.781417 62.781417 0 0 0 328.92003 584.92003a272.962681 272.962681 0 0 1-56.932216-116.984006 88.517898 88.517898 0 0 1-26.906321-18.717441A163.387662 163.387662 0 0 1 218.175171 350.952018c4.289414-35.485149 12.478294-23.006855 14.428028-28.856055a279.201828 279.201828 0 0 1 23.006854-230.068545c74.479817-132.581874 233.968012-93.197258 258.534654-43.674029 153.638995-28.856055 147.399848 209.401371 126.342726 272.962681 0 0 14.428027 0 10.528561 60.05179a146.619954 146.619954 0 0 1-51.862909 97.096725A294.019802 294.019802 0 0 1 545.340442 584.92003a47.573496 47.573496 0 0 0-6.239147 31.195735 291.680122 291.680122 0 0 0-45.623763 159.488195 300.648896 300.648896 0 0 0 116.984006 238.257426c-56.152323 4.289414-116.984006 10.138614-178.205635 10.138614z" fill="#A6C5F6" p-id="12415"></path><path d="M572.246763 806.799695a374.348819 374.348819 0 0 1 6.239147-70.58035l-62.39147-10.138614 136.871287-82.668697 49.52323 62.001523 49.913176 62.001523-81.108911-10.528561a138.431074 138.431074 0 0 0-2.33968 31.195735c0 85.008378 72.530084 155.978675 147.0099 184.054837-99.046458 23.006855-237.867479-40.944402-243.716679-165.337396zM940.746382 878.939832l-68.24067 43.674029-51.862909-60.051789-51.86291-60.05179 80.718965 8.18888a165.727342 165.727342 0 0 0 0-31.195735c0-84.618431-77.989337-155.978675-150.909368-180.155369 99.046458-24.566641 240.207159 35.485149 248.396039 159.488195a263.993907 263.993907 0 0 1-3.899467 70.58035l62.001524 8.188881z" fill="#4E8CEE" p-id="12416"></path></svg>