<?xml version="1.0" standalone="no"?><!DOCTYPE svg PUBLIC "-//W3C//DTD SVG 1.1//EN" "http://www.w3.org/Graphics/SVG/1.1/DTD/svg11.dtd"><svg t="1583997052517" class="icon" viewBox="0 0 1024 1024" version="1.1" xmlns="http://www.w3.org/2000/svg" p-id="11296" xmlns:xlink="http://www.w3.org/1999/xlink" width="200" height="200"><defs><style type="text/css"></style></defs><path d="M320.832008 541.701312c-3.844719 5.553484-20.932361 24.349889-24.34989 29.048991a106.797761 106.797761 0 0 0-14.951686 82.02068c9.398203 31.184946 42.719104 35.029666 64.078656 37.165621a1605.383942 1605.383942 0 0 0 163.61417 0h159.34226a67.496185 67.496185 0 0 0 70.913713-37.592812 75.185624 75.185624 0 0 0-16.660451-85.438209l-26.058654-26.485844a42.719104 42.719104 0 0 1 0-61.515511 598.067461 598.067461 0 0 0 46.991015-61.51551 270.411931 270.411931 0 0 0-59.806746-356.704521 275.538223 275.538223 0 0 0-365.675533 18.369214c-106.37057 106.37057-89.282928 281.946089 5.553483 400.705199a42.719104 42.719104 0 0 1 0 61.08832z" fill="#4E8CEE" p-id="11297"></path><path d="M958.628236 824.928974c0-57.2436-24.777081-85.438209-81.166298-85.438209H144.829298C88.867271 740.772338 64.517382 765.97661 64.517382 821.084254v79.884725h894.110854v-76.040005zM114.498734 941.124938H906.083738v81.593489H114.498734z" fill="#A6C5F6" p-id="11298"></path></svg>