<?xml version="1.0" standalone="no"?><!DOCTYPE svg PUBLIC "-//W3C//DTD SVG 1.1//EN" "http://www.w3.org/Graphics/SVG/1.1/DTD/svg11.dtd"><svg t="1583997278490" class="icon" viewBox="0 0 1024 1024" version="1.1" xmlns="http://www.w3.org/2000/svg" p-id="2531" xmlns:xlink="http://www.w3.org/1999/xlink" width="200" height="200"><defs><style type="text/css"></style></defs><path d="M941.348943 1022.884911a45.677233 45.677233 0 0 1-45.586242-45.646902 379.961178 379.961178 0 0 0-121.896945-279.492497l-19.547793-18.349752-17.818974 20.017911c-62.085854 69.911037-142.036176 108.43035-225.080175 108.43035s-162.979157-38.519313-225.080176-108.43035L268.534829 679.39576l-19.562958 18.349752a379.961178 379.961178 0 0 0-121.896945 279.492497 45.586242 45.586242 0 1 1-91.157319 0 473.256774 473.256774 0 0 1 172.305683-363.20376l14.694967-12.283718-7.324736-17.743149a469.510999 469.510999 0 0 1-36.396201-180.009546c0-222.623432 149.02728-403.846185 332.115338-403.846185s332.191164 181.222753 332.191164 403.846185a469.238027 469.238027 0 0 1-36.396202 180.009546l-7.324735 17.743149 14.694966 12.283718a473.256774 473.256774 0 0 1 172.305684 363.20376 45.662068 45.662068 0 0 1-45.434592 45.646902zM511.418814 91.293805c-132.921961 0-241.049009 140.277026-241.04901 312.704031s108.127048 312.704031 241.04901 312.704031 241.124835-140.277026 241.124834-312.704031-108.218039-312.704031-241.124834-312.704031z" fill="#CAA07D" p-id="2532"></path></svg>