<?xml version="1.0" standalone="no"?><!DOCTYPE svg PUBLIC "-//W3C//DTD SVG 1.1//EN" "http://www.w3.org/Graphics/SVG/1.1/DTD/svg11.dtd"><svg t="1583997048448" class="icon" viewBox="0 0 1024 1024" version="1.1" xmlns="http://www.w3.org/2000/svg" p-id="11155" xmlns:xlink="http://www.w3.org/1999/xlink" width="200" height="200"><defs><style type="text/css"></style></defs><path d="M378.179968 187.543402A86.282989 86.282989 0 0 1 468.695707 106.469952H569.630525a86.282989 86.282989 0 0 1 90.515739 81.07345v197.311288h117.865819V187.543402C778.012083 84.003816 684.565978 0 569.630525 0H468.695707C353.109062 0 259.662957 84.003816 259.662957 187.543402v91.166932h118.517011z" fill="#4E8CEE" p-id="11156"></path><path d="M146.355485 441.834022v297.594913c0 157.262957 141.959936 284.571065 316.805087 284.571065h97.678856c175.170747 0 316.805087-127.308108 316.805087-284.571065v-297.594913z" fill="#A6C5F6" p-id="11157"></path><path d="M565.072178 706.869316v177.449921a39.397138 39.397138 0 0 1-78.794277 0v-177.449921a100.609221 100.609221 0 0 1-63.491256-92.794912 103.21399 103.21399 0 0 1 206.102385 0 100.283625 100.283625 0 0 1-65.119237 92.794912z" fill="#4E8CEE" p-id="11158"></path><path d="M525.67504 939.019396a55.351351 55.351351 0 0 1-55.676948-54.700159V716.311606A115.912242 115.912242 0 0 1 406.832432 614.074404a119.4938 119.4938 0 0 1 238.662004 0 115.586645 115.586645 0 0 1-65.119237 103.21399v167.030843a55.351351 55.351351 0 0 1-54.700159 54.700159z m0-409.274404A85.631797 85.631797 0 0 0 439.392051 614.074404a84.003816 84.003816 0 0 0 53.397774 77.817488l10.093482 4.23275v188.194595a23.117329 23.117329 0 0 0 46.234658 0v-188.194595l10.419078-4.23275a84.329412 84.329412 0 0 0 53.397774-77.817488 85.631797 85.631797 0 0 0-87.259777-84.329412z" fill="#FFFFFF" p-id="11159"></path></svg>