<?xml version="1.0" standalone="no"?><!DOCTYPE svg PUBLIC "-//W3C//DTD SVG 1.1//EN" "http://www.w3.org/Graphics/SVG/1.1/DTD/svg11.dtd"><svg t="1583996985283" class="icon" viewBox="0 0 1281 1024" version="1.1" xmlns="http://www.w3.org/2000/svg" p-id="8767" xmlns:xlink="http://www.w3.org/1999/xlink" width="250.1953125" height="200"><defs><style type="text/css"></style></defs><path d="M438.81842 58.178929A443.436301 443.436301 0 0 0 0.122449 500.753352a444.729119 444.729119 0 0 0 436.110337 455.071656 444.29818 444.29818 0 0 0 439.55785-447.745692A443.86724 443.86724 0 0 0 438.81842 58.178929zM549.138822 517.559976H646.531051v73.690581h-140.055197v43.093906H646.531051v73.690581h-140.055197v91.359083h-133.591111v-92.6519H229.382033v-73.690581h143.50271v-43.093907H229.382033V517.559976h102.132559L215.591983 302.090442h147.812101l75.414336 168.066236L512.93994 302.090442h150.397735z" fill="#4E8CEE" p-id="8768"></path><path d="M1225.28222 837.747704h-387.845161a514.541248 514.541248 0 0 1-313.292703 186.165677H1232.608185a43.093907 43.093907 0 0 0 45.679541-46.541419v-86.187814c0-38.353577-15.944746-55.160201-53.005506-55.160201zM1229.160672 279.68161H905.094493a539.535714 539.535714 0 0 1 47.834236 186.165678h279.248516a43.093907 43.093907 0 0 0 47.834237-48.696115v-86.187814a43.093907 43.093907 0 0 0-49.127054-49.988932zM847.779596 186.598771h201.679484a43.093907 43.093907 0 0 0 46.972359-48.265175V49.560148A43.093907 43.093907 0 0 0 1047.735324 0.433094H589.647094a504.19871 504.19871 0 0 1 215.469535 133.591111 557.204215 557.204215 0 0 1 43.093906 52.574566zM1187.359582 700.70908v-98.685047a43.093907 43.093907 0 0 0-43.093907-43.093907h-193.92258a543.845104 543.845104 0 0 1-54.298323 186.596617h248.651843a43.093907 43.093907 0 0 0 43.093906-43.093907z" fill="#A6C5F6" p-id="8769"></path></svg>