<?xml version="1.0" standalone="no"?><!DOCTYPE svg PUBLIC "-//W3C//DTD SVG 1.1//EN" "http://www.w3.org/Graphics/SVG/1.1/DTD/svg11.dtd"><svg t="1583996408079" class="icon" viewBox="0 0 1024 1024" version="1.1" xmlns="http://www.w3.org/2000/svg" p-id="3583" xmlns:xlink="http://www.w3.org/1999/xlink" width="200" height="200"><defs><style type="text/css"></style></defs><path d="M945.133961 193.809095C945.133961 86.417042 750.066366 0 511.79025 0S78.866039 86.417042 78.866039 193.809095v25.170012a195.487095 195.487095 0 0 0 125.850061 106.972552 5.034002 5.034002 0 0 1 5.034002 5.034003c5.034002 5.453503 15.102007 5.453503 20.13601 10.487505s10.487505 5.034002 20.55551 5.034002 5.034002 0 10.068005 5.034003 15.521508 5.034002 20.55551 5.034002h11.746006c10.068005 5.034002 20.55551 5.034002 35.657517 10.487505s20.55551 5.034002 30.623515 5.034003h5.034003c10.068005 0 20.55551 5.034002 30.623515 5.034002h10.068005a64.603032 64.603032 0 0 1 30.623515 5.034003h76.349037c214.364605 0 392.652192-66.281032 433.343711-158.151578z" fill="#4E8CEE" p-id="3584"></path><path d="M511.79025 587.300287c219.398607 0 397.686194-71.315035 433.343711-163.18558V280.226137c-41.95002 91.870545-218.979107 158.151577-433.343711 158.151577S114.523556 367.062679 78.866039 275.192134v152.698075C120.816059 519.760754 297.845145 587.300287 511.79025 587.300287z" fill="#A6C5F6" p-id="3585"></path><path d="M511.79025 784.465383c219.398607 0 397.686194-71.315035 433.343711-162.766079V474.035231c-35.657517 91.451045-218.979107 162.766079-433.343711 162.76608S120.816059 570.520279 78.866039 479.069234v147.664072c41.95002 91.870545 218.979107 157.732077 432.924211 157.732077z" fill="#A6C5F6" p-id="3586"></path><path d="M511.79025 839.00041C297.845145 839.00041 120.816059 774.397378 78.866039 682.946333v142.63007c0 106.972552 193.809095 198.423597 432.924211 198.423597s433.343712-86.417042 433.343711-198.423597v-148.083572C909.476444 769.363376 731.188857 839.00041 511.79025 839.00041z" fill="#A6C5F6" p-id="3587"></path></svg>