<?xml version="1.0" standalone="no"?><!DOCTYPE svg PUBLIC "-//W3C//DTD SVG 1.1//EN" "http://www.w3.org/Graphics/SVG/1.1/DTD/svg11.dtd"><svg t="1583995955392" class="icon" viewBox="0 0 1024 1024" version="1.1" xmlns="http://www.w3.org/2000/svg" p-id="1424" xmlns:xlink="http://www.w3.org/1999/xlink" width="200" height="200"><defs><style type="text/css"></style></defs><path d="M0 0h1024v1024H0z" fill="#FFFFFF" p-id="1425"></path><path d="M577.58 232L516 172.88 454.42 232H304.248L445.56 96.34a101.712 101.712 0 0 1 140.88 0L727.752 232h-150.172z" fill="#4DBB88" opacity=".5" p-id="1426"></path><path d="M210.12 230h611.76c51.984 0 94.12 42.136 94.12 94.12v451.76c0 51.984-42.136 94.12-94.12 94.12H210.12C158.132 870 116 827.864 116 775.88V324.12C116 272.132 158.136 230 210.12 230z" fill="#4DBB88" p-id="1427"></path><path d="M268 408m36 0l424 0q36 0 36 36l0 0q0 36-36 36l-424 0q-36 0-36-36l0 0q0-36 36-36Z" fill="#FFFFFF" p-id="1428"></path><path d="M268 620m36 0l240 0q36 0 36 36l0 0q0 36-36 36l-240 0q-36 0-36-36l0 0q0-36 36-36Z" fill="#FFFFFF" p-id="1429"></path></svg>