<?xml version="1.0" standalone="no"?><!DOCTYPE svg PUBLIC "-//W3C//DTD SVG 1.1//EN" "http://www.w3.org/Graphics/SVG/1.1/DTD/svg11.dtd"><svg t="1583995848896" class="icon" viewBox="0 0 1210 1024" version="1.1" xmlns="http://www.w3.org/2000/svg" p-id="1643" xmlns:xlink="http://www.w3.org/1999/xlink" width="236.328125" height="200"><defs><style type="text/css"></style></defs><path d="M1023.906909 993.745455v-248.925091h-143.546182v-93.323637H1070.545455c-25.786182-15.778909-38.306909-42.077091-42.775273-71.447272a9967.709091 9967.709091 0 0 1-13.358546-68.00291h-134.004363V418.862545h118.132363L993.559273 372.363636h87.133091c11.170909 103.703273 22.155636 170.216727 32.907636 199.540364 16.104727 43.938909 49.850182 79.592727 96.581818 79.592727v93.323637h-106.402909v248.878545h-79.872zM228.770909 0L223.883636 26.949818h603.229091L822.178909 0h92.253091l32.907636 153.041455c7.307636 48.128 48.221091 83.688727 96.628364 79.592727v93.323636h-112.965818v604.765091H1210.181818V1024H53.201455v-93.277091h40.02909V325.957818H0V232.634182c48.081455 4.096 88.948364-31.464727 96.302545-79.592727L129.210182 0h99.607273z m100.538182 325.818182l-1.396364 0.279273a3.537455 3.537455 0 0 0-2.094545 3.258181v411.880728l0.279273 1.349818a3.490909 3.490909 0 0 0 3.16509 2.141091h365.47491l1.303272-0.279273a3.537455 3.537455 0 0 0 2.141091-3.258182V404.154182l-0.232727-1.396364a3.397818 3.397818 0 0 0-3.165091-2.141091h-30.021818l-1.349818-0.325818a3.537455 3.537455 0 0 1-2.094546-3.258182v-30.254545l-0.279273-1.396364a3.490909 3.490909 0 0 0-3.16509-2.141091h-30.021819l-1.349818-0.279272a3.537455 3.537455 0 0 1-2.094545-3.258182v-30.347637l-0.279273-1.349818A3.490909 3.490909 0 0 0 620.916364 325.818182z m181.108364 122.181818c3.584 0 6.888727 2.327273 8.098909 5.585455l70.981818 191.953454a8.843636 8.843636 0 0 1-0.977455 7.912727 8.610909 8.610909 0 0 1-7.074909 3.630546h-26.112c-3.723636 0-6.981818-2.327273-8.192-5.771637l-11.682909-33.88509H465.082182l-11.682909 33.88509a8.564364 8.564364 0 0 1-8.192 5.771637h-26.112a8.610909 8.610909 0 0 1-8.098909-11.543273l70.935272-191.906909a8.704 8.704 0 0 1 8.098909-5.632z m-9.541819 67.956364l-22.807272 64.418909h45.009454l-22.202182-64.372364z" fill="#F5906C" p-id="1644"></path></svg>