<?xml version="1.0" standalone="no"?><!DOCTYPE svg PUBLIC "-//W3C//DTD SVG 1.1//EN" "http://www.w3.org/Graphics/SVG/1.1/DTD/svg11.dtd"><svg t="1583995964971" class="icon" viewBox="0 0 1024 1024" version="1.1" xmlns="http://www.w3.org/2000/svg" p-id="1719" xmlns:xlink="http://www.w3.org/1999/xlink" width="200" height="200"><defs><style type="text/css"></style></defs><path d="M0 0h1024v1024H0z" fill="#FFFFFF" p-id="1720"></path><path d="M155.3 187.32L498.16 101.72c30.616-7.64 61.64 10.984 69.28 41.6 1.132 4.528 1.704 9.176 1.704 13.84V940H226.28C163.164 940 112 888.832 112 825.716V242.76a57.144 57.144 0 0 1 43.3-55.44z" fill="#4B96F9" p-id="1721"></path><path d="M226.284 312.268m57.068 0l114.436 0q57.068 0 57.068 57.068l0-0.004q0 57.068-57.068 57.068l-114.436 0q-57.068 0-57.068-57.068l0 0.004q0-57.068 57.068-57.068Z" fill="#A5CAFC" p-id="1722"></path><path d="M226.284 597.6m57.068 0l114.436 0q57.068 0 57.068 57.068l0-0.004q0 57.068-57.068 57.068l-114.436 0q-57.068 0-57.068-57.068l0 0.004q0-57.068 57.068-57.068Z" fill="#A5CAFC" p-id="1723"></path><path d="M569.144 255.2l303.76 101.12A57.144 57.144 0 0 1 912 410.536V825.72c0 63.12-51.168 114.284-114.284 114.284h-228.572V255.2z" fill="#93C0FB" p-id="1724"></path><path d="M654.856 483.468m57.068 0l57.292 0q57.068 0 57.068 57.068l0-0.004q0 57.068-57.068 57.068l-57.292 0q-57.068 0-57.068-57.068l0 0.004q0-57.068 57.068-57.068Z" fill="#C9DFFD" p-id="1725"></path></svg>