<?xml version="1.0" standalone="no"?><!DOCTYPE svg PUBLIC "-//W3C//DTD SVG 1.1//EN" "http://www.w3.org/Graphics/SVG/1.1/DTD/svg11.dtd"><svg t="1583995844674" class="icon" viewBox="0 0 1210 1024" version="1.1" xmlns="http://www.w3.org/2000/svg" p-id="1505" xmlns:xlink="http://www.w3.org/1999/xlink" width="236.328125" height="200"><defs><style type="text/css"></style></defs><path d="M1023.906909 993.745455v-248.925091h-143.546182v-93.323637H1070.545455c-25.786182-15.778909-38.306909-42.077091-42.775273-71.447272a9967.709091 9967.709091 0 0 1-13.358546-68.00291h-134.004363V418.862545h118.132363L993.559273 372.363636h87.133091c11.170909 103.703273 22.155636 170.216727 32.907636 199.540364 16.104727 43.938909 49.850182 79.592727 96.581818 79.592727v93.323637h-106.402909v248.878545h-79.872zM228.770909 0L223.883636 26.949818h603.229091L822.178909 0h92.253091l32.907636 153.041455c7.307636 48.128 48.221091 83.688727 96.628364 79.592727v93.323636h-112.965818v604.765091H1210.181818V1024H53.201455v-93.277091h40.02909V325.957818H0V232.634182c48.081455 4.096 88.948364-31.464727 96.302545-79.592727L129.210182 0h99.607273z m411.322182 372.363636c-28.811636 0-55.063273 11.822545-74.007273 30.580364a104.680727 104.680727 0 0 0-30.580363 74.286545c-0.139636 1.629091 0 3.816727 0.139636 6.05091l-32.628364 32.395636-45.474909-45.428364-11.915636-40.354909a17.594182 17.594182 0 0 0-10.146909-11.450182L343.505455 379.205818a17.687273 17.687273 0 0 0-19.549091 3.816727l-16.011637 16.011637-16.244363 16.104727a17.826909 17.826909 0 0 0-3.165091 20.805818l38.725818 90.763637a17.687273 17.687273 0 0 0 11.403636 10.053818l40.401455 12.101818 45.428363 45.428364-124.183272 124.136727c-23.319273 23.365818-25.367273 51.572364-15.453091 74.519273 3.677091 8.797091 9.122909 16.663273 15.732363 23.365818 6.702545 6.609455 14.708364 12.194909 23.598546 15.872 22.993455 9.914182 51.060364 7.912727 74.286545-15.36l111.336728-111.569455 109.195636 109.056a72.610909 72.610909 0 0 0 52.037818 21.550546c18.804364 0 37.329455-7.074909 51.805091-21.317818 14.708364-14.615273 21.829818-33.512727 21.829818-52.317091 0-19.083636-7.447273-37.422545-20.712727-51.153455l-0.884364-1.024-108.916363-108.916364 19.781818-19.54909c2.048 0 4.096 0.139636 6.097454 0.139636a104.261818 104.261818 0 0 0 73.914182-30.626909 105.006545 105.006545 0 0 0 28.672-94.673455h-0.093091a88.948364 88.948364 0 0 0-5.492363-18.292363 18.292364 18.292364 0 0 0-4.282182-7.633455 18.013091 18.013091 0 0 0-25.413818 0c-13.591273 13.730909-27.182545 27.042909-40.634182 40.634182l-8.098909-2.141091-8.378182-2.327273-2.048-8.238545-2.327273-8.098909 40.680728-40.634182a17.92 17.92 0 0 0-5.585455-29.090909 93.277091 93.277091 0 0 0-20.200727-6.050909A88.343273 88.343273 0 0 0 640.093091 372.363636z m-51.525818 304.686546a11.031273 11.031273 0 0 1 15.220363 0l65.396364 65.768727 1.722182 2.280727a10.752 10.752 0 0 1-1.861818 12.939637 10.705455 10.705455 0 0 1-14.987637-0.232728l-65.722182-65.62909-1.722181-2.327273a10.705455 10.705455 0 0 1 1.954909-12.8z" fill="#A98CFF" p-id="1506"></path></svg>