<?xml version="1.0" standalone="no"?><!DOCTYPE svg PUBLIC "-//W3C//DTD SVG 1.1//EN" "http://www.w3.org/Graphics/SVG/1.1/DTD/svg11.dtd"><svg t="1583997133049" class="icon" viewBox="0 0 1117 1024" version="1.1" xmlns="http://www.w3.org/2000/svg" p-id="14512" xmlns:xlink="http://www.w3.org/1999/xlink" width="218.1640625" height="200"><defs><style type="text/css"></style></defs><path d="M151.688958 151.290824h159.253499A293.822706 293.822706 0 0 1 557.387247 298.600311l179.956454 340.404355a112.671851 112.671851 0 0 0 79.62675 48.572317h148.105754a92.765163 92.765163 0 0 1 0 185.132193h-147.70762a293.822706 293.822706 0 0 1-244.454122-147.309487L392.958009 384.995334a110.681182 110.681182 0 0 0-79.626749-48.572317h-159.2535a92.765163 92.765163 0 0 1 0-185.132193z m0 0" fill="#A6C5F6" p-id="14513"></path><path d="M917.698289 786.712286a39.813375 39.813375 0 1 0 39.813375-39.813375 39.813375 39.813375 0 0 0-39.813375 39.813375z" fill="#FFFFFF" p-id="14514"></path><path d="M151.688958 872.709176h159.253499a293.822706 293.822706 0 0 0 246.44479-147.309487l179.160187-340.404355a111.477449 111.477449 0 0 1 79.62675-48.572317h148.105754a92.765163 92.765163 0 0 0 0-185.132193h-146.911353a293.822706 293.822706 0 0 0-244.454122 147.309487l-179.956454 340.404355a112.273717 112.273717 0 0 1-79.626749 48.572317h-159.2535a92.765163 92.765163 0 0 0 0 185.132193z m0 0" fill="#4E8CEE" p-id="14515"></path><path d="M918.892691 245.648523a39.813375 39.813375 0 1 0 39.813374-39.813375 39.813375 39.813375 0 0 0-39.813374 39.813375z" fill="#FFFFFF" p-id="14516"></path></svg>