<?xml version="1.0" standalone="no"?><!DOCTYPE svg PUBLIC "-//W3C//DTD SVG 1.1//EN" "http://www.w3.org/Graphics/SVG/1.1/DTD/svg11.dtd"><svg t="1583997283129" class="icon" viewBox="0 0 1024 1024" version="1.1" xmlns="http://www.w3.org/2000/svg" p-id="2669" xmlns:xlink="http://www.w3.org/1999/xlink" width="200" height="200"><defs><style type="text/css"></style></defs><path d="M830.279082 0H186.086931c-48.103015 0-76.991145 36.850463-76.991146 90.810069v918.135859a12.601542 12.601542 0 0 0 20.94225 11.680281l349.602314-144.111631a44.088946 44.088946 0 0 1 41.933852 0l374.492828 144.111631c11.433514 7.073973 18.606193 1.480599 18.606193-11.680281V90.810069c0-50.998408-32.128997-90.810069-84.39414-90.810069z m-14.575674 882.601484l-189.598921-77.155656a360.723257 360.723257 0 0 0-125.488987-27.308825 281.215094 281.215094 0 0 0-102.490349 29.282957L206.88112 884.411105V99.035619h608.822288v783.565865zM643.427495 576.775546H378.992522c-21.518038 0-38.939752-22.044473-38.939752-49.353298s17.421714-49.188787 38.939752-49.188788h264.484326c21.501587 0 38.923301 22.044473 38.923301 49.188788s-17.471068 49.353298-38.972654 49.353298z m0-214.686848H378.992522c-21.518038 0-38.939752-22.044473-38.939752-49.353298s17.421714-49.188787 38.939752-49.188787h264.484326c21.501587 0 38.923301 22.044473 38.923301 49.188787s-17.471068 49.353298-38.972654 49.353298z" fill="#FF7245" p-id="2670"></path></svg>