<?xml version="1.0" standalone="no"?><!DOCTYPE svg PUBLIC "-//W3C//DTD SVG 1.1//EN" "http://www.w3.org/Graphics/SVG/1.1/DTD/svg11.dtd"><svg t="1583996400722" class="icon" viewBox="0 0 1024 1024" version="1.1" xmlns="http://www.w3.org/2000/svg" p-id="3302" xmlns:xlink="http://www.w3.org/1999/xlink" width="200" height="200"><defs><style type="text/css"></style></defs><path d="M930.926254 408.920354v-5.663717a37.758112 37.758112 0 0 0-15.858407-28.318584l-47.952803-33.227139 29.451328-51.728613a37.758112 37.758112 0 0 0 1.887905-32.471977 425.533923 425.533923 0 0 0-139.705014-176.707964 37.758112 37.758112 0 0 0-32.849558-5.286136l-55.882006 17.368732L648.495575 37.758112a37.758112 37.758112 0 0 0-24.165192-21.899705 412.696165 412.696165 0 0 0-224.660766 0A37.758112 37.758112 0 0 0 375.504425 37.758112l-21.522124 55.126844L298.100295 75.516224a37.758112 37.758112 0 0 0-32.471976 5.286136A423.646018 423.646018 0 0 0 125.545723 257.510324a37.758112 37.758112 0 0 0 1.887905 32.471977l29.451328 51.728613-47.952803 33.227139a37.758112 37.758112 0 0 0-15.480826 27.941003v19.634218a424.778761 424.778761 0 0 0 50.595871 201.628319 37.758112 37.758112 0 0 0 26.808259 18.879056l57.392331 8.684366-5.286136 58.147492a37.758112 37.758112 0 0 0 12.082596 29.828909 415.339233 415.339233 0 0 0 203.516224 98.926254h6.418879A37.758112 37.758112 0 0 0 469.899705 830.678466l41.911504-37.758112 42.289086 37.758112a37.758112 37.758112 0 0 0 30.961652 9.439528 415.339233 415.339233 0 0 0 203.516224-98.926254 34.737463 34.737463 0 0 0 12.082596-29.828908l-4.153392-58.147493 57.769911-11.327433a37.758112 37.758112 0 0 0 26.430679-18.879056 425.156342 425.156342 0 0 0 50.973451-201.628319c-0.377581-3.39823-0.377581-6.041298-0.755162-12.460177z m-419.115045 211.067847a200.873156 200.873156 0 1 1 200.873157-200.495576 200.495575 200.495575 0 0 1-200.873157 200.495576z" fill="#4E8CEE" p-id="3303"></path><path d="M797.262537 782.725664a445.168142 445.168142 0 0 1-203.138643 93.262537 37.758112 37.758112 0 0 1-12.837758 0l31.716814 120.448377a40.778761 40.778761 0 0 0 30.961652 26.80826h7.174041a41.533923 41.533923 0 0 0 30.961652-14.348083L739.115044 943.952802l106.477876 26.053098a37.758112 37.758112 0 0 0 42.666667-13.970502 40.778761 40.778761 0 0 0 0-46.820059zM443.846608 876.743363h-6.796461a447.811209 447.811209 0 0 1-209.557522-98.171092l-92.884955 132.908555a37.758112 37.758112 0 0 0 43.044247 58.902655l106.100295-26.430679 56.637169 65.321534a41.156342 41.156342 0 0 0 30.961651 14.725664h8.306785a40.40118 40.40118 0 0 0 30.20649-28.318584l35.115044-118.182891z" fill="#A6C5F6" p-id="3304"></path></svg>