<?xml version="1.0" standalone="no"?><!DOCTYPE svg PUBLIC "-//W3C//DTD SVG 1.1//EN" "http://www.w3.org/Graphics/SVG/1.1/DTD/svg11.dtd"><svg t="1583997136023" class="icon" viewBox="0 0 1024 1024" version="1.1" xmlns="http://www.w3.org/2000/svg" p-id="14653" xmlns:xlink="http://www.w3.org/1999/xlink" width="200" height="200"><defs><style type="text/css"></style></defs><path d="M800.733718 870.7385H208.141792a94.924181 94.924181 0 0 1-91.611197-97.805035v-78.359263a94.924181 94.924181 0 0 1 91.611197-97.805036h592.591926a94.780138 94.780138 0 0 1 91.611197 97.805036v78.359263a94.924181 94.924181 0 0 1-91.611197 97.805035z" fill="#BAD4FF" p-id="14654"></path><path d="M507.462653 365.292446a182.646223 182.646223 0 1 1 182.646223-182.646223 182.934309 182.934309 0 0 1-182.646223 182.646223z m0-337.492193A154.990013 154.990013 0 1 0 662.884794 182.646223 155.134055 155.134055 0 0 0 507.462653 27.800253z" fill="#4E8CEE" p-id="14655"></path><path d="M507.462653 182.646223m-74.182023 0a74.182023 74.182023 0 1 0 148.364046 0 74.182023 74.182023 0 1 0-148.364046 0Z" fill="#BAD4FF" p-id="14656"></path><path d="M507.462653 267.631453a84.98523 84.98523 0 1 1 84.98523-84.98523 85.129273 85.129273 0 0 1-84.98523 84.98523z m0-148.364045a63.378816 63.378816 0 1 0 63.378816 63.378815 63.522858 63.522858 0 0 0-63.378816-63.378815zM306.811085 610.597271a11.379378 11.379378 0 0 1-4.321283 0 14.404276 14.404276 0 0 1-8.786609-17.573217L389.203545 310.268111a14.404276 14.404276 0 0 1 26.215783 8.930651L320.063019 601.234491a14.404276 14.404276 0 0 1-13.251934 9.36278zM709.986777 610.597271a14.404276 14.404276 0 0 1-13.107891-9.36278l-95.500352-282.035729a14.404276 14.404276 0 0 1 26.215783-8.930651l95.500352 282.035729a14.404276 14.404276 0 0 1-8.642566 17.573217 11.667464 11.667464 0 0 1-4.465326 0.720214z" fill="#4E8CEE" p-id="14657"></path><path d="M821.331833 884.566606H192.441131a93.483753 93.483753 0 0 1-93.33971-93.483753V677.000985a93.483753 93.483753 0 0 1 93.33971-93.483753H821.331833A93.627796 93.627796 0 0 1 914.5275 677.000985v115.23421A93.627796 93.627796 0 0 1 821.331833 884.566606z m-628.602617-273.681249A65.827543 65.827543 0 0 0 126.757631 677.000985v115.23421a65.6835 65.6835 0 0 0 65.6835 65.6835H821.331833A65.6835 65.6835 0 0 0 887.015333 792.235195v-115.23421A65.827543 65.827543 0 0 0 821.331833 610.597271zM981.075257 1024H43.500914a14.404276 14.404276 0 0 1 0-27.65621h937.574343a14.404276 14.404276 0 0 1 0 27.65621z" fill="#4E8CEE" p-id="14658"></path></svg>