<?xml version="1.0" standalone="no"?><!DOCTYPE svg PUBLIC "-//W3C//DTD SVG 1.1//EN" "http://www.w3.org/Graphics/SVG/1.1/DTD/svg11.dtd"><svg t="1583997312407" class="icon" viewBox="0 0 1051 1024" version="1.1" xmlns="http://www.w3.org/2000/svg" p-id="3911" xmlns:xlink="http://www.w3.org/1999/xlink" width="205.2734375" height="200"><defs><style type="text/css"></style></defs><path d="M288.33238 1024a80.696071 80.696071 0 1 1 80.634412-80.618997 80.773145 80.773145 0 0 1-80.634412 80.618997z m490.188168 0a80.696071 80.696071 0 1 1 80.618997-80.618997 80.742315 80.742315 0 0 1-80.634412 80.618997zM263.129309 799.715791A74.252717 74.252717 0 0 1 184.976667 733.124191L116.242421 128.867078l-0.385368-1.541472c-4.624417-16.956194-20.224116-36.841186-37.873973-36.841186H0.215806V0.154147h141.815445c36.872016 0 55.585488 14.489839 60.918982 46.552461 2.759235 16.6479 3.175433 22.813789 3.175433 22.813789a57.142375 57.142375 0 0 0 51.855126 51.176878h742.989613c39.739154 0 57.466085 25.588439 47.631492 66.437453-38.151438 158.15505-131.225531 552.001204-131.225531 552.001205a73.990667 73.990667 0 0 1-79.401234 60.579858h-574.969141z m15.584284-92.642481h552.725696l110.986001-493.733554H229.093602zM587.300918 307.369562a47.030318 47.030318 0 0 0-46.968658 47.014903v129.483667l-74.992624 54.413969a46.907 46.907 0 1 0 66.391208 66.283306l88.742557-67.978925a47.307783 47.307783 0 0 0 13.749932-33.2958v-148.906217a47.014903 47.014903 0 0 0-46.922415-47.014903z" fill="#82C529" p-id="3912"></path></svg>