<?xml version="1.0" standalone="no"?><!DOCTYPE svg PUBLIC "-//W3C//DTD SVG 1.1//EN" "http://www.w3.org/Graphics/SVG/1.1/DTD/svg11.dtd"><svg t="1583997023967" class="icon" viewBox="0 0 1104 1024" version="1.1" xmlns="http://www.w3.org/2000/svg" p-id="10310" xmlns:xlink="http://www.w3.org/1999/xlink" width="215.625" height="200"><defs><style type="text/css"></style></defs><path d="M496.504189 344.686996L871.01242 18.202572A83.654372 83.654372 0 0 0 819.115726 0h-735.848643A82.492506 82.492506 0 0 0 27.110213 22.850037l371.022632 322.224248a77.457752 77.457752 0 0 0 98.371344 0z" fill="#4E8CEE" p-id="10311"></path><path d="M548.400883 464.746511a376.444674 376.444674 0 0 1 118.123072-81.330639A370.635343 370.635343 0 0 1 813.306395 354.369215a381.866717 381.866717 0 0 1 91.787436 11.231374V99.9205h-2.323733a29.046657 29.046657 0 0 1-5.809331 3.485599l-348.559884 303.247098a154.915504 154.915504 0 0 1-196.74269 0L0 105.729831v525.163558a85.978105 85.978105 0 0 0 83.654372 79.394196h355.91837A372.959075 372.959075 0 0 1 548.400883 464.746511z" fill="#A6C5F6" p-id="10312"></path><path d="M964.736299 219.205438z" fill="#CCCCCC" p-id="10313"></path><path d="M511.221162 726.941001a296.66319 296.66319 0 1 0 296.275901-296.275901 296.66319 296.66319 0 0 0-296.275901 296.275901z" fill="#4E8CEE" p-id="10314"></path><path d="M794.329245 602.234021c-5.809331 6.971198-12.780529 15.49155-20.526304 25.561058s-15.49155 21.300882-23.624614 32.144967l-24.011903 32.532256c-8.133064 10.456797-15.104262 19.751727-21.688171 27.497502s-9.682219 15.49155-8.133064 20.913593 6.583909 8.133064 15.878839 8.133064h41.439898q9.29493 0 11.618662 5.809331a38.728876 38.728876 0 0 1 2.323733 14.716973v97.984056a88.689126 88.689126 0 0 0 0 9.682219 19.364438 19.364438 0 0 0 3.485599 9.29493 19.364438 19.364438 0 0 0 7.358486 7.358487 32.144967 32.144967 0 0 0 13.555107 2.711021h38.728876a24.786481 24.786481 0 0 0 20.913593-7.358487 42.214475 42.214475 0 0 0 5.809331-23.237325v-18.202572V779.612273a80.168773 80.168773 0 0 1 2.711021-21.688171 11.618663 11.618663 0 0 1 12.78053-7.745775h34.855988q12.780529 0 16.266128-6.971198c2.323733-4.647465 0-10.456797-5.034754-17.427994s-12.780529-16.653417-20.526304-27.497502-15.878839-21.688171-24.399192-32.919544-16.266128-22.850037-24.399192-33.694123l-21.300882-27.88479a24.011903 24.011903 0 0 0-16.266128-10.844085c-5.034754 0-10.456797 3.09831-16.266128 10.069507z" fill="#FFFFFF" p-id="10315"></path></svg>