<?xml version="1.0" standalone="no"?><!DOCTYPE svg PUBLIC "-//W3C//DTD SVG 1.1//EN" "http://www.w3.org/Graphics/SVG/1.1/DTD/svg11.dtd"><svg t="1583995836654" class="icon" viewBox="0 0 1024 1024" version="1.1" xmlns="http://www.w3.org/2000/svg" p-id="1229" xmlns:xlink="http://www.w3.org/1999/xlink" width="200" height="200"><defs><style type="text/css"></style></defs><path d="M960 0a21.333333 21.333333 0 0 1 21.333333 21.333333v981.333334a21.333333 21.333333 0 0 1-21.333333 21.333333H64a21.333333 21.333333 0 0 1-21.333333-21.333333V21.333333A21.333333 21.333333 0 0 1 64 0h896z m-83.669333 853.333333H147.712a19.968 19.968 0 0 0-19.712 19.712v43.093334c0 10.666667 9.002667 19.712 19.712 19.712h728.618667c10.666667 0 19.669333-9.002667 19.669333-19.712v-43.093334A19.968 19.968 0 0 0 876.373333 853.333333zM490.538667 213.333333a234.666667 234.666667 0 1 0 100.266666 446.890667h0.042667l47.658667 44.032a79.146667 79.146667 0 0 0 111.274666-3.712 68.010667 68.010667 0 0 0-3.712-96.128l-48.853333-45.184A234.666667 234.666667 0 0 0 490.538667 213.333333z" fill="#F56C6C" p-id="1230"></path></svg>