<?xml version="1.0" standalone="no"?><!DOCTYPE svg PUBLIC "-//W3C//DTD SVG 1.1//EN" "http://www.w3.org/Graphics/SVG/1.1/DTD/svg11.dtd"><svg t="1583997077528" class="icon" viewBox="0 0 1104 1024" version="1.1" xmlns="http://www.w3.org/2000/svg" p-id="12275" xmlns:xlink="http://www.w3.org/1999/xlink" width="215.625" height="200"><defs><style type="text/css"></style></defs><path d="M993.432157 576.857613c-43.055566 36.166675-176.527821 191.166713-224.319499 199.347271a1360.125332 1360.125332 0 0 1-265.222287-16.361115c-102.472247-12.91667-62.430571-69.750017-46.069456-75.777796s212.694496-20.666672 278.138957-31.000008 50.805568-88.694466-15.930559-92.138911-368.12509-31.000008-469.736226-21.527783c-83.527798 7.319446-198.916715 134.763922-237.236169 179.54171a43.055566 43.055566 0 0 0-9.041669 34.013897 43.055566 43.055566 0 0 0 8.611113 18.513894l197.625048 239.388947a34.444453 34.444453 0 0 0 31.000008 12.91667 34.013897 34.013897 0 0 0 17.222226-6.888891 334.111193 334.111193 0 0 1 89.555578-48.222234c43.055566-12.486114 288.041737 24.111117 372.000091 7.319446s301.388962-264.791731 348.319529-319.041744c23.250006-26.263895 39.611121-64.152793 34.875009-74.055574-23.250006-48.222234-81.37502-29.277785-109.791694-6.027779z" fill="#4E8CEE" p-id="12276"></path><path d="M111.223608 447.260359c43.055566-36.166675 176.527821-191.166713 224.3195-199.347271a1354.528108 1354.528108 0 0 1 264.791731 16.361115c102.902803 13.347225 62.861126 69.750017 46.500011 76.208352s-212.694496 20.236116-278.569512 30.569452c-58.986126 9.472225-50.375012 89.125022 16.361115 92.138912s368.12509 31.000008 469.736226 21.958338c86.111132-7.750002 202.791716-139.069478 238.527836-181.694488a35.305564 35.305564 0 0 0 8.180557-29.708341v-3.875001a43.055566 43.055566 0 0 0-7.319446-15.930559L894.404355 13.260253A35.73612 35.73612 0 0 0 861.682125 0.343583a34.013897 34.013897 0 0 0-17.222227 6.888891 344.444529 344.444529 0 0 1-89.986133 48.65279c-43.055566 12.486114-287.611181-24.111117-371.569535-7.319447s-301.388962 264.791731-348.319529 318.611189C13.056918 393.440902-3.304197 430.899244 0.570804 441.663136c23.250006 48.222234 81.37502 28.847229 109.791693 5.597223z" fill="#A6C5F6" p-id="12277"></path></svg>