<?xml version="1.0" standalone="no"?><!DOCTYPE svg PUBLIC "-//W3C//DTD SVG 1.1//EN" "http://www.w3.org/Graphics/SVG/1.1/DTD/svg11.dtd"><svg t="1583996056170" class="icon" viewBox="0 0 1024 1024" version="1.1" xmlns="http://www.w3.org/2000/svg" p-id="4067" xmlns:xlink="http://www.w3.org/1999/xlink" width="200" height="200"><defs><style type="text/css"></style></defs><path d="M0 0h1024v1024H0z" fill="#FFFFFF" p-id="4068"></path><path d="M512 223.36C469.5 173.76 409.5 144 342 144 214.5 144 112 253.12 112 389.52c0 37.2 5 71.92 17.5 104.16 0 0 10 29.76 17.504 47.12C244.5 751.6 512 888 512 888s267.5-136.4 365-349.68c0 0 12.5-27.28 17.5-47.12 10-32.24 17.5-66.96 17.5-104.16C912 253.12 809.5 144 682 144c-67.5 0-127.5 29.76-170 79.36z" fill="#F85757" p-id="4069"></path><path d="M319.916 225.12c20.74-11.408 46.8-3.84 58.208 16.896 11.408 20.74 3.84 46.8-16.896 58.208-56.176 30.9-86.032 76.08-92.292 139.6-2.32 23.556-23.3 40.768-46.852 38.448-23.56-2.32-40.772-23.3-38.448-46.852 9.032-91.672 55.368-161.792 136.28-206.3z" fill="#FBABAB" p-id="4070"></path></svg>