<?xml version="1.0" standalone="no"?><!DOCTYPE svg PUBLIC "-//W3C//DTD SVG 1.1//EN" "http://www.w3.org/Graphics/SVG/1.1/DTD/svg11.dtd"><svg t="1583997306240" class="icon" viewBox="0 0 1024 1024" version="1.1" xmlns="http://www.w3.org/2000/svg" p-id="3635" xmlns:xlink="http://www.w3.org/1999/xlink" width="200" height="200"><defs><style type="text/css"></style></defs><path d="M505.045815 792.984651a34.103678 34.103678 0 0 1-29.195714-16.310455l-99.345496-149.907906c-0.563452-0.889661-1.097249-1.927599-1.586563-2.81726l-12.292151-24.910513a163.356617 163.356617 0 1 1 300.260642-38.403707 165.862496 165.862496 0 0 1-15.124239 37.8106l-9.637996 19.572545c-0.474486 0.889661-0.978627 1.779322-1.482769 2.668984l-102.311034 155.987257a34.103678 34.103678 0 0 1-29.210541 16.310455z m-0.133449-348.598899a74.13843 74.13843 0 1 1-73.916015 74.13843 74.034637 74.034637 0 0 1 73.916015-74.13843zM204.681379 1024a114.973878 114.973878 0 0 1-114.914568-114.914567V115.062844A115.077672 115.077672 0 0 1 204.681379 0.148277h462.727599a130.320533 130.320533 0 0 1 76.926035 39.145091c53.498291 49.969302 83.954359 81.25572 146.126846 146.645815 28.572951 30.100203 43.534086 54.714162 43.548914 75.917753v647.228497a114.95905 114.95905 0 0 1-114.870084 114.914567H204.681379z m6.479698-933.254561A32.368839 32.368839 0 0 0 178.881205 123.069794v779.046627a32.265045 32.265045 0 0 0 32.279872 32.324355h602.300608a32.265045 32.265045 0 0 0 32.279873-32.324355V296.998552h-150.64929c-57.338662 0-72.34428-26.393281-72.344281-83.628149V90.745439H211.161077z" fill="#57C87A" p-id="3636"></path></svg>