<?xml version="1.0" standalone="no"?><!DOCTYPE svg PUBLIC "-//W3C//DTD SVG 1.1//EN" "http://www.w3.org/Graphics/SVG/1.1/DTD/svg11.dtd"><svg t="1583996927665" class="icon" viewBox="0 0 1024 1024" version="1.1" xmlns="http://www.w3.org/2000/svg" p-id="6384" xmlns:xlink="http://www.w3.org/1999/xlink" width="200" height="200"><defs><style type="text/css"></style></defs><path d="M156.347995 281.254196h710.051576v387.300859H156.347995z" fill="#4E8CEE" p-id="6385"></path><path d="M985.859252 146.285714H36.469157a36.047483 36.047483 0 0 0-36.466639 36.46664V767.056897a36.047483 36.047483 0 0 0 36.047483 36.46664h950.228407a36.466639 36.466639 0 0 0 36.46664-36.46664V182.752354a36.466639 36.466639 0 0 0-36.885796-36.46664z m-36.46664 584.304544H72.935797V219.218993h876.456815z m-838.313549 293.409742h71.675809L246.885858 838.313549H175.21005zM544.906325 0h-67.065084l-39.819894 109.399918H586.822002z m230.536226 838.313549l62.873516 184.428981h72.933279L847.118359 838.313549z m-300.954564 0h72.933278v109.399918h-72.514122z" fill="#A6C5F6" p-id="6386"></path></svg>