<?xml version="1.0" standalone="no"?><!DOCTYPE svg PUBLIC "-//W3C//DTD SVG 1.1//EN" "http://www.w3.org/Graphics/SVG/1.1/DTD/svg11.dtd"><svg t="1583996903587" class="icon" viewBox="0 0 1034 1024" version="1.1" xmlns="http://www.w3.org/2000/svg" p-id="5545" xmlns:xlink="http://www.w3.org/1999/xlink" width="201.953125" height="200"><defs><style type="text/css"></style></defs><path d="M238.638718 694.030415L101.011097 558.928072l-84.175914 230.642006zM680.141389 261.366215l-141.836416-146.466092L126.263872 521.048911 273.992602 673.407316zM797.14591 149.412248C816.506371 126.263872 787.044801 84.175915 787.044801 84.175915A327.865187 327.865187 0 0 0 718.44143 14.309905a63.131936 63.131936 0 0 0-78.70448 0l-73.233045 71.970407L715.495273 234.429922s62.711056-63.131936 81.650637-84.175915z" fill="#4E8CEE" p-id="5546"></path><path d="M409.515824 765.159063a42.087957 42.087957 0 0 1 42.087957-42.087957h539.988492a42.087957 42.087957 0 0 1 0 86.280312H452.44554a42.087957 42.087957 0 0 1-42.087957-42.087957zM0 980.649404a42.087957 42.087957 0 0 1 42.087957-42.087957h949.504316a42.087957 42.087957 0 0 1 37.037402 21.464858 42.087957 42.087957 0 0 1 0 42.087957 42.087957 42.087957 0 0 1-37.037402 21.885738H42.087957A42.087957 42.087957 0 0 1 12.626387 1010.110974a44.613235 44.613235 0 0 1-12.626387-29.46157z" fill="#A6C5F6" p-id="5547"></path></svg>