<?xml version="1.0" standalone="no"?><!DOCTYPE svg PUBLIC "-//W3C//DTD SVG 1.1//EN" "http://www.w3.org/Graphics/SVG/1.1/DTD/svg11.dtd"><svg t="1583996958254" class="icon" viewBox="0 0 1056 1024" version="1.1" xmlns="http://www.w3.org/2000/svg" p-id="7641" xmlns:xlink="http://www.w3.org/1999/xlink" width="206.25" height="200"><defs><style type="text/css"></style></defs><path d="M273.445283 84.163513v97.598932a84.13701 84.13701 0 0 1-84.13701 84.13701H84.13701a84.13701 84.13701 0 0 1-84.13701-84.13701V84.163513a84.13701 84.13701 0 0 1 84.13701-84.13701h103.067838A84.13701 84.13701 0 0 1 273.445283 84.163513z" fill="#4E8CEE" p-id="7642"></path><path d="M967.575618 0.026503H436.671083a84.13701 84.13701 0 0 0-84.13701 84.13701v98.019617a84.13701 84.13701 0 0 0 84.13701 84.137011H967.575618a84.13701 84.13701 0 0 0 86.240435-84.137011V84.163513A84.13701 84.13701 0 0 0 967.575618 0.026503z" fill="#A6C5F6" p-id="7643"></path><path d="M187.204848 378.643049H84.13701a84.13701 84.13701 0 0 0-84.13701 84.13701v98.440302a84.13701 84.13701 0 0 0 84.13701 84.137011h103.067838a84.13701 84.13701 0 0 0 86.240435-84.137011V462.780059a84.13701 84.13701 0 0 0-84.13701-84.13701z" fill="#4E8CEE" p-id="7644"></path><path d="M967.575618 378.643049H436.671083a84.13701 84.13701 0 0 0-84.13701 84.13701v98.440302a84.13701 84.13701 0 0 0 84.13701 84.137011H967.575618a84.13701 84.13701 0 0 0 86.240435-84.137011V462.780059A84.13701 84.13701 0 0 0 967.575618 378.643049z" fill="#A6C5F6" p-id="7645"></path><path d="M187.204848 757.259595H84.13701a84.13701 84.13701 0 0 0-84.13701 84.13701v98.440302a84.13701 84.13701 0 0 0 84.13701 84.137011h103.067838a84.13701 84.13701 0 0 0 86.240435-84.137011V841.396605a84.13701 84.13701 0 0 0-84.13701-84.13701z" fill="#4E8CEE" p-id="7646"></path><path d="M967.575618 757.259595H436.671083a84.13701 84.13701 0 0 0-84.13701 84.13701v98.440302a84.13701 84.13701 0 0 0 84.13701 84.137011H967.575618a84.13701 84.13701 0 0 0 86.240435-84.137011V841.396605A84.13701 84.13701 0 0 0 967.575618 757.259595z" fill="#A6C5F6" p-id="7647"></path></svg>