<?xml version="1.0" standalone="no"?><!DOCTYPE svg PUBLIC "-//W3C//DTD SVG 1.1//EN" "http://www.w3.org/Graphics/SVG/1.1/DTD/svg11.dtd"><svg t="1583996064390" class="icon" viewBox="0 0 1024 1024" version="1.1" xmlns="http://www.w3.org/2000/svg" p-id="4360" xmlns:xlink="http://www.w3.org/1999/xlink" width="200" height="200"><defs><style type="text/css"></style></defs><path d="M0 0h1024v1024H0z" fill="#FFFFFF" p-id="4361"></path><path d="M409.12 568.572c14.972 42.392 55.38 72.76 102.88 72.76 47.5 0 87.908-30.368 102.88-72.76H912v218.336C912 847.16 863.16 896 802.908 896H221.092C160.84 896 112 847.16 112 786.908v-218.336h297.12z m205.76-72.76c-14.972-42.392-55.38-72.764-102.88-72.764-47.5 0-87.908 30.372-102.88 72.76H112V423c0-60.248 48.84-109.092 109.092-109.092h581.816c60.252 0 109.092 48.84 109.092 109.092v72.812h-297.12z" fill="#FA944A" p-id="4362"></path><path d="M621.092 313.904v-72.76h-218.184v72.76H293.82V204.728C293.82 164.56 326.38 132 366.544 132h290.912c40.164 0 72.724 32.56 72.724 72.728v109.176h-109.088z" fill="#FCBF92" p-id="4363"></path></svg>