<?xml version="1.0" standalone="no"?><!DOCTYPE svg PUBLIC "-//W3C//DTD SVG 1.1//EN" "http://www.w3.org/Graphics/SVG/1.1/DTD/svg11.dtd"><svg t="1583997062345" class="icon" viewBox="0 0 1024 1024" version="1.1" xmlns="http://www.w3.org/2000/svg" p-id="11717" xmlns:xlink="http://www.w3.org/1999/xlink" width="200" height="200"><defs><style type="text/css"></style></defs><path d="M582.415005 361.348281c-2.223663-11.859539-5.188548-26.683962-5.188548-26.683962h91.911424L826.276767 34.099138a22.607245 22.607245 0 0 0-2.594274-22.977856 25.57213 25.57213 0 0 0-21.495414-11.118317H221.81091A25.942741 25.942741 0 0 0 201.797938 11.121282a23.348467 23.348467 0 0 0-4.076716 22.977856L351.895224 333.552488h91.540813s-2.964885 15.565644-5.559159 27.425183A338.36746 338.36746 0 0 0 164.73688 688.968035a341.332345 341.332345 0 0 0 347.262115 333.549523 341.332345 341.332345 0 0 0 347.262114-333.549523 337.626239 337.626239 0 0 0-276.846104-327.619754zM511.998995 963.590475a281.293431 281.293431 0 0 1-286.111369-275.734272 280.92282 280.92282 0 0 1 286.111369-275.363662 280.92282 280.92282 0 0 1 286.111368 275.363662A281.293431 281.293431 0 0 1 511.998995 963.590475z" fill="#A6C5F6" p-id="11718"></path><path d="M287.779593 688.968035a220.142685 220.142685 0 0 1 222.366349-216.065969 220.142685 220.142685 0 0 1 224.219401 216.065969 222.366349 222.366349 0 0 1-224.219401 216.436579 222.366349 222.366349 0 0 1-222.366349-216.436579z" fill="#4E8CEE" p-id="11719"></path></svg>