<?xml version="1.0" standalone="no"?><!DOCTYPE svg PUBLIC "-//W3C//DTD SVG 1.1//EN" "http://www.w3.org/Graphics/SVG/1.1/DTD/svg11.dtd"><svg t="1583997073098" class="icon" viewBox="0 0 1368 1024" version="1.1" xmlns="http://www.w3.org/2000/svg" p-id="12136" xmlns:xlink="http://www.w3.org/1999/xlink" width="267.1875" height="200"><defs><style type="text/css"></style></defs><path d="M1308.738184 325.590292V543.186005l52.795332 60.196547L1260.383581 691.2103l-92.268477-87.827748L1223.870922 543.186005V361.609537c-298.515661 121.873336-379.435609 159.372824-444.072885 188.977683a208.714256 208.714256 0 0 1-179.602811 4.934143C533.090879 531.344062 235.562046 418.352183 80.136537 345.820279c-103.617006-49.341432-110.031393-79.933119 0-121.873336 148.024295-55.755818 374.501466-143.583566 502.789188-191.938169 75.985805-31.578516 115.952364-46.87436 185.523783-12.335358 124.340408 49.341432 394.731453 156.412338 534.367704 214.141813 122.860165 52.795332 40.459974 70.558247 5.920972 91.775063z" fill="#4E8CEE" p-id="12137"></path><path d="M792.626809 641.868868c72.03849-29.604859 169.734525-78.452876 275.818603-123.353579v361.17928A549.663548 549.663548 0 0 1 690.98346 1023.771549a581.242065 581.242065 0 0 1-400.15901-144.570394V543.186005c81.906776 33.058759 174.175254 61.183375 285.193475 98.682863a290.127618 290.127618 0 0 0 218.089127 0z" fill="#A6C5F6" p-id="12138"></path></svg>