<?xml version="1.0" standalone="no"?><!DOCTYPE svg PUBLIC "-//W3C//DTD SVG 1.1//EN" "http://www.w3.org/Graphics/SVG/1.1/DTD/svg11.dtd"><svg t="1583995917989" class="icon" viewBox="0 0 1024 1024" version="1.1" xmlns="http://www.w3.org/2000/svg" p-id="4127" xmlns:xlink="http://www.w3.org/1999/xlink" width="200" height="200"><defs><style type="text/css"></style></defs><path d="M556.697272 0a388.725406 388.725406 0 0 1 361.943919 248.98906 392.585091 392.585091 0 0 1-98.973348 429.764096v239.142925a35.209778 35.209778 0 0 1-27.805485 33.240551l-404.085377 71.994939a22.449188 22.449188 0 0 1-19.810423-3.741531 22.685495 22.685495 0 0 1-8.900906-18.195658v-113.624397l-112.245938 16.817199a82.313688 82.313688 0 0 1-81.72292-82.234919v-144.147415H128.784248c-43.047302 0-62.109419-31.428863-41.983919-69.789404l79.005387-151.47294V391.167248C166.987252 174.827971 341.618301 0.078769 556.697272 0z m202.830379 194.559626a282.702226 282.702226 0 0 0-397.114313-12.484899c-113.663781 105.23549-122.840379 282.584072-20.598115 399.08354l2.914456 2.363072a136.388661 136.388661 0 0 1-58.486041 66.717411 11.145825 11.145825 0 0 0 3.071994 20.991959 161.476613 161.476613 0 0 0 120.792383-33.240551 282.977917 282.977917 0 0 0 345.087336-44.228838l0.196923 0.393845a286.758833 286.758833 0 0 0 4.135377-399.634924z m-174.709818 135.207124c11.421516 0 18.156273 5.11999 18.156273 16.068893-0.393845 9.137213-1.73292 18.195657-3.977839 27.057178l-18.156273 99.564117c-1.969227 10.988287-4.174761 21.937189-5.474451 33.083013-0.472614 5.356297 0 10.712595 1.457228 15.871969a12.209207 12.209207 0 0 0 13.981512 10.082443c5.907681-0.86646 11.736593-2.481226 17.289813-4.76553 4.332299-2.008612 8.349522-5.11999 13.075667-6.774141a7.246755 7.246755 0 0 1 9.255367 0.275692c2.638764 2.363072 3.229532 6.222757 1.457228 9.255367a26.899641 26.899641 0 0 1-6.537834 11.145825c-15.753816 17.211044-37.809158 27.175332-61.046036 27.569177a232.368784 232.368784 0 0 1-33.949473-1.811688 49.466982 49.466982 0 0 1-38.321157-50.254673c2.363072-16.817198 5.080606-33.437474 7.798138-50.254673 4.726145-28.868868 10.003673-58.092196 15.084279-87.157986v-5.631989c0-12.445515-3.8203-16.620276-15.635662-18.274426a80.580768 80.580768 0 0 1-15.241817-2.914456 10.791364 10.791364 0 0 1-8.191984-11.53967c0.393845-5.277528 3.8203-8.388907 10.200596-9.688597 3.544609-0.630153 7.089217-0.945229 10.712594-0.905845z m-17.565505-114.924086a46.828218 46.828218 0 0 1 46.276834 47.261447 46.828218 46.828218 0 0 1-46.867602 46.67068 46.710064 46.710064 0 0 1-33.004244-14.060281 47.261448 47.261448 0 0 1-13.469513-33.476859 46.828218 46.828218 0 0 1 47.064525-46.394987z" fill="#A98CFF" p-id="4128"></path></svg>