<?xml version="1.0" standalone="no"?><!DOCTYPE svg PUBLIC "-//W3C//DTD SVG 1.1//EN" "http://www.w3.org/Graphics/SVG/1.1/DTD/svg11.dtd"><svg t="1583996579035" class="icon" viewBox="0 0 1024 1024" version="1.1" xmlns="http://www.w3.org/2000/svg" p-id="4002" xmlns:xlink="http://www.w3.org/1999/xlink" width="200" height="200"><defs><style type="text/css"></style></defs><path d="M918.423004 144.127128a61.990163 61.990163 0 0 0-45.330306-17.822172h-31.769959a627.262959 627.262959 0 0 1-132.116534-13.560348C644.116534 96.859629 569.3409 24.021188 545.319712 10.073401A68.576617 68.576617 0 0 0 510.062807 0a84.074158 84.074158 0 0 0-38.743851 10.073401 399.836549 399.836549 0 0 1-158.849792 102.671207 631.912221 631.912221 0 0 1-132.116534 13.560348h-31.38252a61.602724 61.602724 0 0 0-43.780553 17.822172A63.539917 63.539917 0 0 0 83.880439 191.394627v160.012108c0 593.555808 398.286795 670.656073 414.171774 672.593265h24.021188c17.434733-3.874385 418.04616-77.487703 418.04616-672.593265V191.394627a62.377601 62.377601 0 0 0-21.696557-47.267499z" fill="#A6C5F6" p-id="4003"></path><path d="M754.92395 420.370791c0 337.458948-227.813848 379.689747-237.499811 382.014377h-13.172909c-9.298524 0-235.17518-45.330306-235.17518-382.014377V329.710178a35.644344 35.644344 0 0 1 12.398032-26.733258 33.707151 33.707151 0 0 1 24.408627-10.073401h17.434733a332.422247 332.422247 0 0 0 74.775634-7.748771 228.976163 228.976163 0 0 0 91.048052-58.115777 58.890655 58.890655 0 0 1 20.921679-5.036701 43.780552 43.780552 0 0 1 19.759365 5.036701 327.772985 327.772985 0 0 0 93.372682 58.115777 332.422247 332.422247 0 0 0 74.775634 7.748771h18.20961a38.743852 38.743852 0 0 1 38.743852 38.743851z" fill="#4E8CEE" p-id="4004"></path><path d="M517.424139 821.369656h-13.172909c-4.261824 0-254.547106-43.005675-254.547106-400.998865V329.710178a57.3409 57.3409 0 0 1 18.597049-41.455921 55.403708 55.403708 0 0 1 38.743852-14.722664h17.434733A316.924707 316.924707 0 0 0 393.831252 266.5577a179.771472 179.771472 0 0 0 77.487704-50.754446l7.74877-5.811578a60.440409 60.440409 0 0 1 59.278093 0 197.593644 197.593644 0 0 1 20.146803 14.722664A200.305713 200.305713 0 0 0 626.294362 266.170261a294.065834 294.065834 0 0 0 70.513811 7.361332h18.20961a54.241392 54.241392 0 0 1 38.743852 15.497541 55.403708 55.403708 0 0 1 18.20961 38.743851v90.660613c0 329.322739-209.991676 391.312902-252.222475 400.611427zM305.882709 312.275445a15.497541 15.497541 0 0 0-10.848278 4.261823 18.20961 18.20961 0 0 0-6.586455 13.17291v90.660613c0 324.286039 215.803254 362.255013 217.740446 362.642452h8.911086c42.230798-10.073401 220.452516-68.189179 220.452516-362.642452V329.710178a17.047295 17.047295 0 0 0-5.811578-12.398033 18.20961 18.20961 0 0 0-13.172909-5.0367h-18.20961a348.694665 348.694665 0 0 1-77.487704-8.136209 232.46311 232.46311 0 0 1-84.849035-48.429815 182.87098 182.87098 0 0 0-15.110102-11.623155 23.246311 23.246311 0 0 0-21.309119 0 218.127885 218.127885 0 0 1-97.247067 60.05297 342.10821 342.10821 0 0 1-77.487704 8.136209z" fill="#FFFFFF" p-id="4005"></path></svg>