<?xml version="1.0" standalone="no"?><!DOCTYPE svg PUBLIC "-//W3C//DTD SVG 1.1//EN" "http://www.w3.org/Graphics/SVG/1.1/DTD/svg11.dtd"><svg t="1583996572801" class="icon" viewBox="0 0 1024 1024" version="1.1" xmlns="http://www.w3.org/2000/svg" p-id="3724" xmlns:xlink="http://www.w3.org/1999/xlink" width="200" height="200"><defs><style type="text/css"></style></defs><path d="M512 231.581538a729.796923 729.796923 0 0 1-109.883077 55.926154A482.067692 482.067692 0 0 1 275.692308 318.621538v239.852308c0 115.396923 167.778462 247.335385 236.307692 247.335385s236.307692-131.938462 236.307692-247.335385V318.621538a476.553846 476.553846 0 0 1-126.030769-31.113846A719.163077 719.163077 0 0 1 512 231.581538z m176.049231 218.584616L496.246154 669.538462l-125.636923-105.944616 39.384615-45.292308 78.769231 68.135385 152.812308-175.261538z" fill="#4E8CEE" p-id="3725"></path><path d="M512 0a512 512 0 1 0 512 512A512 512 0 0 0 512 0z m0 866.461538c-103.581538 0-296.172308-157.538462-296.172308-306.806153V261.513846h29.538462a415.507692 415.507692 0 0 0 134.301538-29.144615 584.467692 584.467692 0 0 0 114.609231-60.652308L512 157.538462l17.723077 12.603076a581.316923 581.316923 0 0 0 115.003077 62.227693 415.901538 415.901538 0 0 0 133.907692 28.750769h29.538462v296.96C808.172308 708.923077 615.581538 866.461538 512 866.461538z" fill="#A6C5F6" p-id="3726"></path></svg>