<?xml version="1.0" standalone="no"?><!DOCTYPE svg PUBLIC "-//W3C//DTD SVG 1.1//EN" "http://www.w3.org/Graphics/SVG/1.1/DTD/svg11.dtd"><svg t="1583996875387" class="icon" viewBox="0 0 1024 1024" version="1.1" xmlns="http://www.w3.org/2000/svg" p-id="4561" xmlns:xlink="http://www.w3.org/1999/xlink" width="200" height="200"><defs><style type="text/css"></style></defs><path d="M110.464685 0h800.988061a110.452038 110.452038 0 0 1 110.452038 110.452038v800.988061a110.873611 110.873611 0 0 1-110.873611 110.87361h-800.988061A110.452038 110.452038 0 0 1 0.012647 913.547962v-800.988061A110.873611 110.873611 0 0 1 110.464685 0z" fill="#A6C5F6" p-id="4562"></path><path d="M804.373289 246.620008a49.324002 49.324002 0 0 0-32.882667-12.64718h-24.029642a472.582956 472.582956 0 0 1-96.961713-10.117744 413.984356 413.984356 0 0 1-119.305064-74.618361 51.853438 51.853438 0 0 0-53.961301 0 306.061754 306.061754 0 0 1-117.1972 75.461507 444.337587 444.337587 0 0 1-96.961713 10.117744h-23.608069a48.480856 48.480856 0 0 0-32.882668 12.64718 47.216138 47.216138 0 0 0-15.598188 34.147385v116.354055c0 432.955126 292.571429 488.181145 304.797036 490.710581h16.862906c12.64718-2.529436 307.326472-58.177028 307.326472-490.710581V280.767394a48.902429 48.902429 0 0 0-15.598189-34.147386z" fill="#4E8CEE" p-id="4563"></path><path d="M505.899844 910.596953a104.550021 104.550021 0 0 1-11.382462 0C459.105278 903.008646 168.641713 835.978592 168.641713 397.964594V281.188967a67.451626 67.451626 0 0 1 22.343351-49.745575 68.716344 68.716344 0 0 1 47.216138-18.127624h23.608069a416.513792 416.513792 0 0 0 92.324414-9.696171 261.375051 261.375051 0 0 0 105.393166-68.294772l5.058872-4.215727a72.932071 72.932071 0 0 1 76.726224 0 221.325648 221.325648 0 0 1 18.97077 14.333471 292.149856 292.149856 0 0 0 94.010704 57.333882 455.720049 455.720049 0 0 0 91.902841 9.696171h24.029642a71.667353 71.667353 0 0 1 47.216138 18.127625A69.981062 69.981062 0 0 1 843.157974 279.924249v118.040345c0 437.592425-291.306711 505.887196-324.189378 511.367641zM242.838501 255.473034a30.774804 30.774804 0 0 0-22.343351 7.166735 25.29436 25.29436 0 0 0-8.431453 18.549198v116.775627c0 404.288184 258.00247 463.72993 287.512557 470.05352h10.117744C538.782511 862.116097 801.000708 800.988061 801.000708 397.964594V280.767394a26.98065 26.98065 0 0 0-8.431453-18.549197 28.666941 28.666941 0 0 0-18.97077-7.166735h-24.029642a505.887196 505.887196 0 0 1-101.599012-10.539317 325.875669 325.875669 0 0 1-112.559901-65.343763L519.811741 168.629065a30.353232 30.353232 0 0 0-31.617949 0 295.100865 295.100865 0 0 1-123.099218 76.304653 455.298477 455.298477 0 0 1-102.020585 10.960889z" fill="#FFFFFF" p-id="4564"></path><path d="M696.450688 413.984356l-203.198024 196.452861a15.176616 15.176616 0 0 1-4.6373 5.902017 31.196377 31.196377 0 0 1-21.500205 8.431454 34.147386 34.147386 0 0 1-21.921779-8.431454 56.490737 56.490737 0 0 1-4.637299-5.902017L332.211906 505.887196a28.245368 28.245368 0 0 1 0-42.157266 30.774804 30.774804 0 0 1 42.157266 0l93.167559 90.21655 187.599835-181.697818a30.774804 30.774804 0 0 1 42.157267 0 28.245368 28.245368 0 0 1 0 42.157266z" fill="#FFFFFF" p-id="4565"></path></svg>