<?xml version="1.0" standalone="no"?><!DOCTYPE svg PUBLIC "-//W3C//DTD SVG 1.1//EN" "http://www.w3.org/Graphics/SVG/1.1/DTD/svg11.dtd"><svg t="1583995944712" class="icon" viewBox="0 0 1024 1024" version="1.1" xmlns="http://www.w3.org/2000/svg" p-id="984" xmlns:xlink="http://www.w3.org/1999/xlink" width="200" height="200"><defs><style type="text/css"></style></defs><path d="M0 0h1024v1024H0z" fill="#FFFFFF" p-id="985"></path><path d="M242 878.224a270 45.776 0 1 0 540 0 270 45.776 0 1 0-540 0Z" fill="#B8E4CF" p-id="986"></path><path d="M531.32 104.012c44.328 19.508 94.26 38.7 149.788 57.584a2368.4 2368.4 0 0 0 157.388 47.56A45 45 0 0 1 872 252.668v176.512a409.76 409.76 0 0 1-172.32 333.96l-161.6 114.892a45 45 0 0 1-52.156 0l-161.6-114.896A409.76 409.76 0 0 1 152.004 429.176V253.324a45 45 0 0 1 34.412-43.736c68.496-16.576 125.416-32.572 170.76-47.992a1105 1105 0 0 0 136-56.696 45 45 0 0 1 38.144-0.888zM482.908 459.52L424.728 400.332a40.648 40.648 0 0 0-58.18 0c-16.064 16.344-16.064 42.84 0 59.188l87.272 88.776a40.648 40.648 0 0 0 58.18 0l145.452-147.96c16.064-16.348 16.064-42.844 0-59.188a40.648 40.648 0 0 0-58.18 0L482.912 459.52z" fill="#4DBB88" p-id="987"></path></svg>