<?xml version="1.0" standalone="no"?><!DOCTYPE svg PUBLIC "-//W3C//DTD SVG 1.1//EN" "http://www.w3.org/Graphics/SVG/1.1/DTD/svg11.dtd"><svg t="1583996044417" class="icon" viewBox="0 0 1024 1024" version="1.1" xmlns="http://www.w3.org/2000/svg" p-id="3628" xmlns:xlink="http://www.w3.org/1999/xlink" width="200" height="200"><defs><style type="text/css"></style></defs><path d="M0 0h1024v1024H0z" fill="#FFFFFF" p-id="3629"></path><path d="M387.78 579.368c21.66 0 39.22-17.56 39.22-39.22v-6.24a42.4 42.4 0 0 0-4.052-18.12c-72.88-34.536-123.448-110.16-123.448-197.892C299.5 197.556 394.64 100 512 100s212.5 97.556 212.5 217.896c0 87.732-50.568 163.36-123.448 197.896a42.4 42.4 0 0 0-4.052 18.112v6.24c0 21.664 17.56 39.224 39.22 39.224h106.832c60.172 0 108.948 48.776 108.948 108.948v66.448c0 23.472-19.028 42.5-42.5 42.5H214.5c-23.472 0-42.5-19.028-42.5-42.5v-66.448c0-60.172 48.776-108.948 108.948-108.948h106.832z" fill="#4B96F9" p-id="3630"></path><path d="M258.08 840.84h507.84c24.068 0 43.58 19.512 43.58 43.58v1.08c0 23.472-19.028 42.5-42.5 42.5H257c-23.472 0-42.5-19.028-42.5-42.5v-1.08c0-24.068 19.512-43.576 43.58-43.576z" fill="#93C0FB" p-id="3631"></path><path d="M389.752 302.252a24.284 24.284 0 1 1-46.932-12.508c14.256-53.492 48.22-93.176 100.412-117.692a24.284 24.284 0 1 1 20.652 43.96c-39.404 18.512-63.62 46.808-74.132 86.24z" fill="#A5CAFC" p-id="3632"></path></svg>