<?xml version="1.0" standalone="no"?><!DOCTYPE svg PUBLIC "-//W3C//DTD SVG 1.1//EN" "http://www.w3.org/Graphics/SVG/1.1/DTD/svg11.dtd"><svg t="1583997302671" class="icon" viewBox="0 0 1307 1024" version="1.1" xmlns="http://www.w3.org/2000/svg" p-id="3497" xmlns:xlink="http://www.w3.org/1999/xlink" width="255.2734375" height="200"><defs><style type="text/css"></style></defs><path d="M457.439798 704.555542h-190.32012V616.72908h190.32012v87.826462z m106.699433-159.041883H267.119678v-87.473036h297.019553v87.473036z m0-158.511743H267.119678v-85.529191h297.019553v85.529191z m480.818955 342.116761a15.321035 15.321035 0 0 1-5.301396 10.956219c-54.781093 46.475573-210.553782 45.415293-210.553782 45.415293s-155.843374 1.060279-210.589125-45.415293a15.321035 15.321035 0 0 1-5.301396-10.956219c-1.413706-20.852158-1.307678-84.999051 50.292578-109.208759 62.079348-28.804252 115.853176-43.294735 115.853176-99.312821v-4.241117c-16.575698-12.900064-20.993529-27.920686-34.105648-61.849621 0 0-47.164754-51.953682-13.182805-53.897527 0 0-15.762818-97.192262 32.161803-96.485409 0 0 9.754569-48.242705 72.346385-48.242704 56.371512 0 69.571988 58.49207 89.522909 70.331855a8.711961 8.711961 0 0 1 4.700572 9.719226 147.537854 147.537854 0 0 0-4.8066 64.677032c33.981949 1.943845-15.197335 53.897527-15.197335 53.897527-13.129791 33.928935-15.497748 48.949557-32.126461 61.849621v4.241117c0 56.018085 53.80917 70.508568 115.888519 99.312821 51.723955 24.209709 51.829983 88.356602 50.398606 109.208759z m122.585949 294.757624H139.886172a133.877923 133.877923 0 0 1-139.603431-132.534903V139.603431a139.868501 139.868501 0 0 1 139.603431-139.603431H1167.544135a139.833158 139.833158 0 0 1 139.603431 139.603431v751.737967a133.860252 133.860252 0 0 1-139.603431 132.534903zM147.043057 103.553937a40.926778 40.926778 0 0 0-40.856093 40.82075V881.798885c0 22.442577 18.325159 33.575509 40.856093 33.575509h1013.344193c22.513262 0 40.838421-11.132932 40.838422-33.575509V144.374687a40.926778 40.926778 0 0 0-40.838422-40.82075H147.043057z" fill="#57C87A" p-id="3498"></path></svg>