<?xml version="1.0" standalone="no"?><!DOCTYPE svg PUBLIC "-//W3C//DTD SVG 1.1//EN" "http://www.w3.org/Graphics/SVG/1.1/DTD/svg11.dtd"><svg t="1583997044296" class="icon" viewBox="0 0 1024 1024" version="1.1" xmlns="http://www.w3.org/2000/svg" p-id="11014" xmlns:xlink="http://www.w3.org/1999/xlink" width="200" height="200"><defs><style type="text/css"></style></defs><path d="M82.630523 510.846847A125.309309 125.309309 0 0 1 205.249141 384.384384h611.93994a125.309309 125.309309 0 0 1 122.618619 127.615616v384.384384a125.309309 125.309309 0 0 1-122.618619 127.615616H205.249141A125.309309 125.309309 0 0 1 82.630523 894.462462z" fill="#A6C5F6" p-id="11015"></path><path d="M444.336228 753.393393v88.792793a66.882883 66.882883 0 1 0 133.765766 0V753.393393a142.606607 142.606607 0 0 0 62.27027-156.828828 132.612613 132.612613 0 0 0-258.306306 0 142.606607 142.606607 0 0 0 62.27027 156.828828z" fill="#4E8CEE" p-id="11016"></path><path d="M511.219111 930.978979a87.63964 87.63964 0 0 1-86.102102-88.792793v-76.876877a161.441441 161.441441 0 0 1-61.501501-171.81982 151.447447 151.447447 0 0 1 295.207207 0 161.441441 161.441441 0 0 1-61.501502 171.81982v76.876877a87.63964 87.63964 0 0 1-86.102102 88.792793z m0-418.21021a115.315315 115.315315 0 0 0-110.318318 88.792793 122.618619 122.618619 0 0 0 53.429429 135.687687l9.225226 5.381382v99.555555a47.663664 47.663664 0 1 0 95.327327 0v-99.555555l9.225225-5.381382A123.387387 123.387387 0 0 0 620.768661 601.561562a115.315315 115.315315 0 0 0-109.54955-88.792793z" fill="#FFFFFF" p-id="11017"></path><path d="M511.219111 0a312.888889 312.888889 0 0 1 307.507508 319.423423h-123.771772a187.963964 187.963964 0 0 0-183.735736-192.192192 187.963964 187.963964 0 0 0-183.735735 192.192192H205.249141a312.888889 312.888889 0 0 1 307.507508-319.423423z" fill="#4E8CEE" p-id="11018"></path></svg>