<?xml version="1.0" standalone="no"?><!DOCTYPE svg PUBLIC "-//W3C//DTD SVG 1.1//EN" "http://www.w3.org/Graphics/SVG/1.1/DTD/svg11.dtd"><svg t="1583997252537" class="icon" viewBox="0 0 1026 1024" version="1.1" xmlns="http://www.w3.org/2000/svg" p-id="1841" xmlns:xlink="http://www.w3.org/1999/xlink" width="200.390625" height="200"><defs><style type="text/css"></style></defs><path d="M928.206026 745.053209v180.485409H747.867089a48.954023 48.954023 0 0 0-49.116769 48.986572 49.68638 49.68638 0 0 0 49.116769 49.47481h229.764924a49.588732 49.588732 0 0 0 48.498333-49.47481v-229.471981a48.970297 48.970297 0 0 0-97.92432 0zM278.442278 925.538618H98.266087V745.053209a49.05167 49.05167 0 0 0-98.087066 0v229.471981a49.653831 49.653831 0 0 0 49.425986 49.47481h228.837271a49.979323 49.979323 0 0 0 49.425987-49.47481 49.230691 49.230691 0 0 0-49.425987-48.986572zM98.266087 278.297434V98.625756h180.176191a49.312064 49.312064 0 1 0 0-98.624129H49.605007A49.067945 49.067945 0 0 0 0.179021 49.150945V278.297434a49.05167 49.05167 0 1 0 98.087066 0zM747.867089 98.625756h180.338937V278.297434a48.970297 48.970297 0 1 0 97.92432 0V49.150945A48.986572 48.986572 0 0 0 977.632013 0.001627H747.867089a49.312064 49.312064 0 0 0 0 98.624129zM588.473572 561.475624a38.684745 38.684745 0 0 1-16.111862-65.586673 189.59919 189.59919 0 0 0 52.078747-132.312568c0-78.931852-49.784028-127.104693-111.2044-127.104693s-111.188126 48.172841-111.188126 127.104693a190.266449 190.266449 0 0 0 51.76953 131.987076h-0.195296a38.652195 38.652195 0 0 1-16.144411 65.912165c-103.376314 20.017769-155.227217 77.141645-155.227217 119.781119 0 52.729732 90.633295 63.63372 230.98552 63.63372s231.018069-10.903988 231.018068-63.63372c0-42.802221-52.143846-99.926097-155.780553-119.781119z" fill="#FF7245" p-id="1842"></path></svg>