<?xml version="1.0" standalone="no"?><!DOCTYPE svg PUBLIC "-//W3C//DTD SVG 1.1//EN" "http://www.w3.org/Graphics/SVG/1.1/DTD/svg11.dtd"><svg t="1583997262977" class="icon" viewBox="0 0 1024 1024" version="1.1" xmlns="http://www.w3.org/2000/svg" p-id="2255" xmlns:xlink="http://www.w3.org/1999/xlink" width="200" height="200"><defs><style type="text/css"></style></defs><path d="M179.502648 1023.994879a125.398231 125.398231 0 0 1-126.527945-125.021661V202.180811a126.648448 126.648448 0 0 1 126.527945-126.527945h127.009957V56.929743a55.265599 55.265599 0 0 1 4.112158-19.943215l1.702102-3.554832a61.848065 61.848065 0 0 1 8.917208-13.646943l2.831816-3.238513a58.232981 58.232981 0 0 1 17.156587-12.05028 56.515816 56.515816 0 0 1 22.157453-4.518856h305.926496a53.337554 53.337554 0 0 1 38.334955 15.469548l3.946467 4.398352a57.027952 57.027952 0 0 1 7.907996 11.794212l1.988297 3.916342a57.238832 57.238832 0 0 1 4.684546 21.29887v18.723124h120.291925a124.840906 124.840906 0 0 1 124.389021 126.527945V898.973218a123.590689 123.590689 0 0 1-124.389021 125.021661H179.487586z m20.621043-857.633527c-45.595249 0-57.389461 11.794212-57.389461 57.374399v653.170391c0 45.610312 11.794212 57.419587 57.389461 57.419587h623.406199c45.580186 0 57.374398-11.809275 57.374398-57.419587V223.735751c0-45.580186-11.794212-57.374398-57.374398-57.374399h-97.351204v12.758235c0 31.345792-25.516469 32.385129-56.862261 32.385129h-305.926496c-31.360855 0-56.877324-1.039337-56.877324-32.385129v-12.758235H200.123691z m151.577466 616.296534a44.043775 44.043775 0 0 1-45.188552-43.682267 45.324118 45.324118 0 0 1 45.188552-45.278929h131.845131a45.309055 45.309055 0 0 1 45.188552 45.278929 44.028712 44.028712 0 0 1-45.188552 43.682267h-131.845131z m256.204026-0.31632a44.043775 44.043775 0 0 1-45.188552-43.682267 45.324118 45.324118 0 0 1 45.188552-45.278929h73.220517a45.324118 45.324118 0 0 1 45.188552 45.278929 44.043775 44.043775 0 0 1-45.188552 43.682267h-73.220517z m-256.505283-179.247922a45.263866 45.263866 0 0 1 0-90.51267h333.89821a45.263866 45.263866 0 1 1 0 90.51267H351.3999z m0.301257-180.754208a45.263866 45.263866 0 1 1 0-90.512669h333.868084a45.263866 45.263866 0 0 1 0 90.512669H351.701157z" fill="#EE7ABB" p-id="2256"></path></svg>