<?xml version="1.0" standalone="no"?><!DOCTYPE svg PUBLIC "-//W3C//DTD SVG 1.1//EN" "http://www.w3.org/Graphics/SVG/1.1/DTD/svg11.dtd"><svg t="1583997066013" class="icon" viewBox="0 0 1025 1024" version="1.1" xmlns="http://www.w3.org/2000/svg" p-id="11856" xmlns:xlink="http://www.w3.org/1999/xlink" width="200.1953125" height="200"><defs><style type="text/css"></style></defs><path d="M1000.155879 357.939312l-433.258646 255.35873a102.994688 102.994688 0 0 1-103.845884 0l-437.089027-255.35873a51.497344 51.497344 0 0 1 0-88.52436l432.833048-255.358731a102.143492 102.143492 0 0 1 103.420286 0l437.940223 255.358731a51.071746 51.071746 0 0 1 0 88.52436z" fill="#4E8CEE" p-id="11857"></path><path d="M1000.155879 468.169164l-46.39017-27.663863-46.390169 27.663863 69.798053 42.559788a5.107175 5.107175 0 0 1 0 8.511958l-433.684244 255.35873a56.178921 56.178921 0 0 1-56.604519 0l-438.36582-255.35873a5.107175 5.107175 0 0 1 0-8.511958l69.798053-42.559788-46.390169-26.812667L25.536724 468.169164a51.071746 51.071746 0 0 0-25.535873 42.559788 51.497344 51.497344 0 0 0 25.535873 42.559788l436.663429 255.358731a102.994688 102.994688 0 0 0 103.845884 0l434.109842-255.358731a51.497344 51.497344 0 0 0 25.535873-42.559788 51.071746 51.071746 0 0 0-25.535873-42.559788z" fill="#A6C5F6" p-id="11858"></path><path d="M1000.155879 665.646582L953.765709 638.408317l-46.390169 27.238265 69.798053 42.559788a5.532772 5.532772 0 0 1 0 8.511958l-433.684244 255.35873a56.178921 56.178921 0 0 1-56.604519 0l-438.36582-255.35873a5.532772 5.532772 0 0 1 0-8.511958l69.798053-42.559788L71.926894 638.408317l-46.39017 26.812667a51.497344 51.497344 0 0 0 0 88.949958l436.663429 255.35873a102.994688 102.994688 0 0 0 103.845884 0l434.109842-255.35873a51.497344 51.497344 0 0 0 0-88.949958z" fill="#A6C5F6" p-id="11859"></path></svg>