<?xml version="1.0" standalone="no"?><!DOCTYPE svg PUBLIC "-//W3C//DTD SVG 1.1//EN" "http://www.w3.org/Graphics/SVG/1.1/DTD/svg11.dtd"><svg t="1583996961385" class="icon" viewBox="0 0 1024 1024" version="1.1" xmlns="http://www.w3.org/2000/svg" p-id="7784" xmlns:xlink="http://www.w3.org/1999/xlink" width="200" height="200"><defs><style type="text/css"></style></defs><path d="M389.744866 656.876714v-94.882192a24.815343 24.815343 0 0 0-24.815343-24.450411H177.354728a24.815343 24.815343 0 0 1-24.815342-24.815343v-69.336986a24.450411 24.450411 0 0 1 24.815342-24.450411h187.574795a25.180274 25.180274 0 0 0 24.815343-24.815343V299.243836l162.029589 162.02959a24.815343 24.815343 0 0 1 0 34.668493z" fill="#4E8CEE" p-id="7785"></path><path d="M928.01884 992.248769a31.749041 31.749041 0 0 1-32.113973 31.749041h-249.978083a36.493151 36.493151 0 0 1-36.493151-36.49315V934.22466a36.493151 36.493151 0 0 1 36.493151-36.493151h116.04822a36.493151 36.493151 0 0 0 36.49315-36.493151v-437.917809a36.493151 36.493151 0 0 0-36.49315-36.493151h-186.115069a31.019178 31.019178 0 0 1-31.749041-31.749041V166.043836a36.493151 36.493151 0 0 0-36.493151-36.493151H262.018838a36.493151 36.493151 0 0 0-36.493151 36.493151v116.048219a36.493151 36.493151 0 0 1-36.49315 36.493151H132.468153a36.493151 36.493151 0 0 1-36.493151-36.493151V70.066849A70.066849 70.066849 0 0 1 166.041852 0H592.281853a39.047671 39.047671 0 0 1 27.004931 10.947945l297.78411 298.149042a36.493151 36.493151 0 0 1 10.947946 26.64z" fill="#A6C5F6" p-id="7786"></path><path d="M476.233633 837.152879H303.985961a32.478904 32.478904 0 0 0-32.478904 32.478904v87.21863L114.951441 800.294796a32.113973 32.113973 0 0 1 0-45.616438l156.555616-156.555617v87.21863a32.113973 32.113973 0 0 0 32.478904 32.113973h172.247672a32.478904 32.478904 0 0 1 32.478904 32.478904v55.104658a32.113973 32.113973 0 0 1-32.478904 32.113973z" fill="#4E8CEE" p-id="7787"></path></svg>