<?xml version="1.0" standalone="no"?><!DOCTYPE svg PUBLIC "-//W3C//DTD SVG 1.1//EN" "http://www.w3.org/Graphics/SVG/1.1/DTD/svg11.dtd"><svg t="1583997059561" class="icon" viewBox="0 0 1201 1024" version="1.1" xmlns="http://www.w3.org/2000/svg" p-id="11576" xmlns:xlink="http://www.w3.org/1999/xlink" width="234.5703125" height="200"><defs><style type="text/css"></style></defs><path d="M197.38868 737.500742c-19.572295 0-35.813136 26.235204-35.813136 45.8075s16.240841 45.8075 35.813136 45.807499h124.929544c19.572295 0 35.813136-26.235204 35.813136-45.807499s-16.240841-45.8075-35.813136-45.8075zM760.820924 550.93929c0-19.572295-15.824409-45.8075-35.813136-45.8075H197.38868c-19.572295 0-35.813136 26.235204-35.813136 45.8075s16.240841 45.8075 35.813136 45.807499h527.619108c19.988727 0 35.813136-26.235204 35.813136-45.807499zM197.38868 349.386292h528.451971c19.572295 0 35.813136-26.235204 35.813136-45.8075s-16.240841-45.8075-35.813136-45.807499H197.38868c-19.572295 0-35.813136 26.235204-35.813136 45.807499s16.240841 45.8075 35.813136 45.8075z" fill="#4E8CEE" p-id="11577"></path><path d="M918.648581 534.698449V95.362885A97.028613 97.028613 0 0 0 822.452832 0H112.020158A124.929544 124.929544 0 0 0 0 111.187294v801.631242a124.929544 124.929544 0 0 0 112.020158 110.770862h550.522858a41.643181 41.643181 0 0 0 47.473226-41.643181c0-28.733795-20.405159-55.801863-41.643181-55.801863H139.088226c-27.900932 0-41.643181-12.492954-41.643182-41.643182v-749.577264c0-24.569477 9.994364-34.563841 34.563841-34.563841H782.89181c24.985909 0 35.396704 9.577932 35.396704 34.563841v400.607405c0 19.572295 27.068068 36.646 57.051159 36.645999a38.311727 38.311727 0 0 0 41.643181-36.645999z" fill="#A6C5F6" p-id="11578"></path><path d="M816.622787 921.980036l-182.397135-181.980703a32.481681 32.481681 0 0 1 0-45.807499 32.06525 32.06525 0 0 1 45.391068 0L816.622787 832.863628a32.06525 32.06525 0 0 0 45.391067 0l273.595702-273.595702a32.06525 32.06525 0 0 1 45.391068 0 32.481681 32.481681 0 0 1 0 45.807499l-318.98677 316.904611a31.648818 31.648818 0 0 1-45.391067 0z" fill="#4E8CEE" p-id="11579"></path><path d="M839.110105 941.968763a41.643181 41.643181 0 0 1-29.983091-12.492955l-182.397134-182.397134a41.643181 41.643181 0 0 1 0-59.966181 41.643181 41.643181 0 0 1 60.382613 0l136.589635 136.589635a22.070886 22.070886 0 0 0 30.815954 0l273.595701-273.595702a41.643181 41.643181 0 0 1 29.983091-12.492954 41.643181 41.643181 0 0 1 30.399522 12.492954 44.141772 44.141772 0 0 1 12.492955 30.399522 41.643181 41.643181 0 0 1-12.492955 29.983091l-318.986769 318.986769a41.643181 41.643181 0 0 1-30.399522 12.492955z m-181.980703-246.527634a21.238023 21.238023 0 0 0-15.407977 6.246477 21.238023 21.238023 0 0 0 0 30.815954L823.702128 916.14999a22.070886 22.070886 0 0 0 30.815954 0l318.986769-318.986769a22.070886 22.070886 0 0 0-15.407977-37.478863 21.654454 21.654454 0 0 0-15.407977 6.662909l-273.17927 273.17927a41.643181 41.643181 0 0 1-30.399522 12.492954 41.643181 41.643181 0 0 1-29.983091-12.492954l-136.589635-136.589635a22.90375 22.90375 0 0 0-15.407977-7.495773z" fill="#4E8CEE" p-id="11580"></path></svg>