<?xml version="1.0" standalone="no"?><!DOCTYPE svg PUBLIC "-//W3C//DTD SVG 1.1//EN" "http://www.w3.org/Graphics/SVG/1.1/DTD/svg11.dtd"><svg t="1583996992657" class="icon" viewBox="0 0 1070 1024" version="1.1" xmlns="http://www.w3.org/2000/svg" p-id="9045" xmlns:xlink="http://www.w3.org/1999/xlink" width="208.984375" height="200"><defs><style type="text/css"></style></defs><path d="M1025.339756 458.673167l-153.820888-28.691979A358.64974 358.64974 0 0 1 876.699364 581.809578a368.213733 368.213733 0 1 1-296.085285-427.59019 373.394229 373.394229 0 0 1 76.113444 22.714484l30.285979-146.647894a520.042123 520.042123 0 0 0-79.699943-21.518984 511.673629 511.673629 0 1 0 411.650202 597.749566 505.696133 505.696133 0 0 0 5.578996-150.632891z" fill="#A6C5F6" p-id="9046"></path><path d="M518.049624 538.771609L330.75476 348.687247l74.519446-75.714945 186.896364 190.084362z" fill="#4E8CEE" p-id="9047"></path><path d="M518.049624 569.057587L301.265781 348.687247l104.008425-106.000923 216.385343 220.37034zM358.64974 348.687247l157.008886 159.399884 45.428967-45.827466-157.407386-159.399885z" fill="#4E8CEE" p-id="9048"></path><path d="M592.17057 614.885054L518.049624 538.771609 965.963299 82.88794 1040.482745 159.399884z" fill="#4E8CEE" p-id="9049"></path><path d="M592.17057 644.772532l-104.406924-106.000923 478.199653-486.169647L1069.971724 159.399884z m-45.428967-106.000923l45.428967 46.225967L1010.993766 159.399884l-45.030467-46.624466z" fill="#4E8CEE" p-id="9050"></path></svg>