<?xml version="1.0" standalone="no"?><!DOCTYPE svg PUBLIC "-//W3C//DTD SVG 1.1//EN" "http://www.w3.org/Graphics/SVG/1.1/DTD/svg11.dtd"><svg t="1583996930715" class="icon" viewBox="0 0 1024 1024" version="1.1" xmlns="http://www.w3.org/2000/svg" p-id="6523" xmlns:xlink="http://www.w3.org/1999/xlink" width="200" height="200"><defs><style type="text/css"></style></defs><path d="M916.684008 0.04982h-138.061211a15.621605 15.621605 0 0 0-13.088372 25.754538l70.508325 75.152586a15.621605 15.621605 0 0 1 4.222055 10.132933v790.368766a13.088372 13.088372 0 0 1-3.79985 9.288521l-74.308174 87.818752a15.621605 15.621605 0 0 0 13.932783 25.332332h140.172238a16.04381 16.04381 0 0 0 12.666166-6.333083l90.774191-106.818001a14.777194 14.777194 0 0 0 3.377644-9.288521V111.089877a13.932783 13.932783 0 0 0-4.222055-10.132933L928.927968 5.538492a17.732633 17.732633 0 0 0-12.24396-5.488672z" fill="#4E8CEE" p-id="6524"></path><path d="M737.66886 80.691078L691.226251 31.29303A101.751535 101.751535 0 0 0 616.918076 0.04982H136.448174a102.17374 102.17374 0 0 0-77.685818 35.04306l-38.84291 46.442609A84.441107 84.441107 0 0 0 0.075786 135.155592v741.392924A84.441107 84.441107 0 0 0 20.341652 928.902003l49.398048 58.686569a101.751535 101.751535 0 0 0 77.685818 34.620854h464.426092a100.907123 100.907123 0 0 0 77.263613-34.620854L741.046504 928.902003a84.441107 84.441107 0 0 0 18.999249-52.353487V138.111031a84.441107 84.441107 0 0 0-22.376893-57.419953z m-202.658658 755.747912H217.933843a46.864815 46.864815 0 0 1 0-93.729629h317.076359a46.864815 46.864815 0 0 1 0 93.729629z m0-282.033299H217.933843a46.864815 46.864815 0 1 1 0-93.729629h317.076359a46.864815 46.864815 0 0 1 0 93.729629z m0-282.455505H217.933843a46.864815 46.864815 0 0 1 0-93.729629h317.076359a46.864815 46.864815 0 0 1 0 93.729629z" fill="#A6C5F6" p-id="6525"></path></svg>