<?xml version="1.0" standalone="no"?><!DOCTYPE svg PUBLIC "-//W3C//DTD SVG 1.1//EN" "http://www.w3.org/Graphics/SVG/1.1/DTD/svg11.dtd"><svg t="1583997008409" class="icon" viewBox="0 0 1024 1024" version="1.1" xmlns="http://www.w3.org/2000/svg" p-id="9751" xmlns:xlink="http://www.w3.org/1999/xlink" width="200" height="200"><defs><style type="text/css"></style></defs><path d="M235.283133 0h161.132967v246.533438h-161.132967zM627.239074 0h161.132966v246.533438h-161.132966zM235.283133 381.079465h161.132967v161.535799h-161.132967zM434.282347 381.079465h161.132966v161.535799h-161.132966zM633.684392 381.079465h161.132966v161.535799h-161.132966zM235.283133 616.333596h161.132967v161.535798h-161.132967zM434.282347 616.333596h161.132966v161.535798h-161.132966zM633.684392 616.333596h161.132966v161.535798h-161.132966z" fill="#4E8CEE" p-id="9752"></path><path d="M454.423967 36.254917h111.987412v91.442959h-111.987412z" fill="#A6C5F6" p-id="9753"></path><path d="M835.906265 36.65775v91.845791a84.191975 84.191975 0 0 1 51.159717 24.572777 87.817467 87.817467 0 0 1 25.378442 61.230527V845.948072a86.608969 86.608969 0 0 1-86.206137 86.206137H196.208389A86.608969 86.608969 0 0 1 110.002252 845.948072V214.306845A85.803304 85.803304 0 0 1 135.380694 153.076318a84.191975 84.191975 0 0 1 51.159717-24.572777V36.65775A177.649095 177.649095 0 0 0 18.559294 214.306845V845.948072a178.45476 178.45476 0 0 0 177.649095 178.051928h630.029898A178.45476 178.45476 0 0 0 1003.887382 845.948072V214.306845A177.649095 177.649095 0 0 0 835.906265 36.65775z" fill="#A6C5F6" p-id="9754"></path></svg>