<?xml version="1.0" standalone="no"?><!DOCTYPE svg PUBLIC "-//W3C//DTD SVG 1.1//EN" "http://www.w3.org/Graphics/SVG/1.1/DTD/svg11.dtd"><svg t="1583995818948" class="icon" viewBox="0 0 1117 1024" version="1.1" xmlns="http://www.w3.org/2000/svg" p-id="815" xmlns:xlink="http://www.w3.org/1999/xlink" width="218.1640625" height="200"><defs><style type="text/css"></style></defs><path d="M46.592 0C20.852364 0 0 20.852364 0 46.592V1024h93.230545v-139.962182h930.629819V1024H1117.090909l-0.139636-745.332364a46.545455 46.545455 0 0 0-93.090909 0v418.909091H93.230545V46.545455C93.230545 20.852364 72.378182 0 46.545455 0z m139.357091 370.315636a46.545455 46.545455 0 0 0-46.545455 46.545455v186.181818a46.545455 46.545455 0 0 0 46.545455 46.545455h744.727273a46.545455 46.545455 0 0 0 46.545454-46.545455v-186.181818a46.545455 46.545455 0 0 0-46.545454-46.545455z m0-137.588363a46.545455 46.545455 0 1 0 0 93.090909h279.226182a46.545455 46.545455 0 1 0 0-93.090909z" fill="#F56C6C" p-id="816"></path></svg>