<?xml version="1.0" standalone="no"?><!DOCTYPE svg PUBLIC "-//W3C//DTD SVG 1.1//EN" "http://www.w3.org/Graphics/SVG/1.1/DTD/svg11.dtd"><svg t="1583997309430" class="icon" viewBox="0 0 1024 1024" version="1.1" xmlns="http://www.w3.org/2000/svg" p-id="3773" xmlns:xlink="http://www.w3.org/1999/xlink" width="200" height="200"><defs><style type="text/css"></style></defs><path d="M253.331274 476.914226a45.966306 45.966306 0 0 1-45.430165-48.142413V164.406418l-88.684222 88.57384A48.095106 48.095106 0 1 1 51.205677 184.969047L222.014263 14.160461a45.020173 45.020173 0 0 1 32.799286-14.097385 50.602359 50.602359 0 0 1 35.211925 14.097385l170.792818 170.824355a48.095106 48.095106 0 1 1-67.995442 68.011211l-91.459546-88.57384v264.349626a48.173951 48.173951 0 0 1-48.03203 48.142413z m100.163971 546.928085H154.113435a113.141766 113.141766 0 0 1-113.047153-113.015615V711.444886a113.189073 113.189073 0 0 1 113.047153-113.062922h199.38181a113.189073 113.189073 0 0 1 113.062922 113.062922v199.38181a113.157535 113.157535 0 0 1-113.062922 113.015615zM154.113435 691.938772a19.537651 19.537651 0 0 0-19.506114 19.506114v199.38181a19.537651 19.537651 0 0 0 19.506114 19.521883h199.38181a19.537651 19.537651 0 0 0 19.521883-19.521883V711.444886a19.537651 19.537651 0 0 0-19.521883-19.506114H154.113435z m719.755089-188.422433H674.486714a113.189073 113.189073 0 0 1-113.047153-113.062922V191.071607a113.189073 113.189073 0 0 1 113.047153-113.062922h199.38181a113.189073 113.189073 0 0 1 113.062922 113.062922v199.38181a113.189073 113.189073 0 0 1-113.062922 113.062922zM674.486714 171.565493a19.537651 19.537651 0 0 0-19.506113 19.506114v199.38181a19.537651 19.537651 0 0 0 19.506113 19.521883h199.38181a19.537651 19.537651 0 0 0 19.521883-19.521883V191.071607a19.537651 19.537651 0 0 0-19.521883-19.506114H674.486714z m199.38181 852.276818H674.486714a113.141766 113.141766 0 0 1-113.047153-113.015615V711.444886a113.189073 113.189073 0 0 1 113.047153-113.062922h199.38181a113.189073 113.189073 0 0 1 113.062922 113.062922v199.38181a113.157535 113.157535 0 0 1-113.062922 113.015615zM674.486714 691.938772a19.537651 19.537651 0 0 0-19.506113 19.506114v199.38181a19.537651 19.537651 0 0 0 19.506113 19.521883h199.38181a19.537651 19.537651 0 0 0 19.521883-19.521883V711.444886a19.537651 19.537651 0 0 0-19.521883-19.506114H674.486714z" fill="#32A0F0" p-id="3774"></path></svg>