<?xml version="1.0" standalone="no"?><!DOCTYPE svg PUBLIC "-//W3C//DTD SVG 1.1//EN" "http://www.w3.org/Graphics/SVG/1.1/DTD/svg11.dtd"><svg t="1583997293039" class="icon" viewBox="0 0 1024 1024" version="1.1" xmlns="http://www.w3.org/2000/svg" p-id="3083" xmlns:xlink="http://www.w3.org/1999/xlink" width="200" height="200"><defs><style type="text/css"></style></defs><path d="M256.290258 794.085037h320.444935V252.371774a45.096942 45.096942 0 0 1 23.083157-38.650157l17.72102-11.915858 187.995584-109.381471H256.290258a46.13576 46.13576 0 1 1 0-92.271521h715.913949a47.800925 47.800925 0 0 1 17.950172 3.513651 46.257974 46.257974 0 0 1 28.200865 42.62211v725.339698a43.553991 43.553991 0 0 1-6.324571 21.234671l-1.695719 2.444279a43.813695 43.813695 0 0 1-15.017037 14.818439l-17.690467 12.068626-311.645531 183.473669-0.61107-0.916605-19.340355 11.610324a44.0734 44.0734 0 0 1-23.144264 7.485604A46.151037 46.151037 0 0 1 576.735193 977.711472v-91.202148H256.290258a46.212144 46.212144 0 0 1 0-92.424287zM666.684649 886.051022l260.529554-150.781441V145.892884l-260.529554 145.129046V886.051022zM440.008354 410.638818l-142.226465-142.226465a46.13576 46.13576 0 1 0-65.277518 65.231687L295.918126 397.195286H51.795793a46.13576 46.13576 0 1 0 0 92.27152H295.887573l-63.398479 63.398478a46.151037 46.151037 0 1 0 65.292795 65.231688l142.226465-142.226466a46.105207 46.105207 0 0 0 0-65.231688z" fill="#2D9EF0" p-id="3084"></path></svg>