<?xml version="1.0" standalone="no"?><!DOCTYPE svg PUBLIC "-//W3C//DTD SVG 1.1//EN" "http://www.w3.org/Graphics/SVG/1.1/DTD/svg11.dtd"><svg t="1583997246441" class="icon" viewBox="0 0 1024 1024" version="1.1" xmlns="http://www.w3.org/2000/svg" p-id="1565" xmlns:xlink="http://www.w3.org/1999/xlink" width="200" height="200"><defs><style type="text/css"></style></defs><path d="M623.152508 682.369984H269.135993v89.153122h354.016515V682.369984z m0-193.585398H269.135993v89.301464h354.016515v-89.301464z m-133.507171-191.360278H269.135993v89.153122h220.509344v-89.153122z m60.152397-178.899609H120.14199v816.173838h652.019354V519.639577h89.18279v428.112994a76.232595 76.232595 0 0 1-76.202926 76.099088h-677.919745a76.21776 76.21776 0 0 1-76.188092-76.099088V105.470665a76.21776 76.21776 0 0 1 76.188092-76.099087h442.635608v89.153121z m437.39916 21.212806L853.838065 5.785311a14.166594 14.166594 0 0 0-25.218022 5.488628l-18.171809 48.952629a72.30155 72.30155 0 0 1-29.66826 33.525134l-169.109083 87.521368a16.480719 16.480719 0 0 0-4.450239 27.888164l60.523251 60.819934-99.180994 142.704331 146.442532-95.235115 69.557236 69.868753a17.266927 17.266927 0 0 0 28.704042-3.856874L906.158041 219.841808a92.965493 92.965493 0 0 1 33.287788-31.448356l43.182153-21.212806a16.065363 16.065363 0 0 0 4.568912-27.443141z" fill="#56AAE7" p-id="1566"></path></svg>