<?xml version="1.0" standalone="no"?><!DOCTYPE svg PUBLIC "-//W3C//DTD SVG 1.1//EN" "http://www.w3.org/Graphics/SVG/1.1/DTD/svg11.dtd"><svg t="1583996943552" class="icon" viewBox="0 0 1029 1024" version="1.1" xmlns="http://www.w3.org/2000/svg" p-id="7081" xmlns:xlink="http://www.w3.org/1999/xlink" width="200.9765625" height="200"><defs><style type="text/css"></style></defs><path d="M1007.585162 365.475938h-156.632545a365.896994 365.896994 0 0 1-336.844183 514.52949 366.318049 366.318049 0 1 1 0-732.636098 372.633877 372.633877 0 0 1 78.737328 8.421105l3.368442-149.474607A551.161294 551.161294 0 0 0 514.108434 0a512.003158 512.003158 0 1 0 514.529489 511.582103 512.424213 512.424213 0 0 0-21.894872-149.053551z" fill="#A6C5F6" p-id="7082"></path><path d="M505.266274 390.739252l-42.105523 181.053748L646.319776 505.266274a17.68432 17.68432 0 0 0 15.579043-5.473718l288.001777-341.47579a18.947485 18.947485 0 0 0 4.210552-11.789546 17.68432 17.68432 0 0 0-6.736884-13.894823l-126.316568-102.737476a20.210651 20.210651 0 0 0-11.789547-4.210552 18.947485 18.947485 0 0 0-9.263215 5.052663l-291.370218 343.581066a15.579043 15.579043 0 0 0-2.105276 16.421154z" fill="#4E8CEE" p-id="7083"></path></svg>