<?xml version="1.0" standalone="no"?><!DOCTYPE svg PUBLIC "-//W3C//DTD SVG 1.1//EN" "http://www.w3.org/Graphics/SVG/1.1/DTD/svg11.dtd"><svg t="1583996384458" class="icon" viewBox="0 0 1113 1024" version="1.1" xmlns="http://www.w3.org/2000/svg" p-id="2741" xmlns:xlink="http://www.w3.org/1999/xlink" width="217.3828125" height="200"><defs><style type="text/css"></style></defs><path d="M1070.788042 682.272355a86.339688 86.339688 0 0 1-74.235993-43.976757 87.953514 87.953514 0 0 1 0-86.339688 274.753868 274.753868 0 0 0-121.036947-70.201429 88.356971 88.356971 0 0 1-150.892726 0 279.998802 279.998802 0 0 0-121.036946 70.201429A87.953514 87.953514 0 0 1 524.507958 682.272355a282.419541 282.419541 0 0 0 0 140.806314 87.953514 87.953514 0 0 1 75.042907 130.316446 282.419541 282.419541 0 0 0 121.036946 70.604885 87.953514 87.953514 0 0 1 150.892727 0 279.191889 279.191889 0 0 0 121.036946-70.604885 87.953514 87.953514 0 0 1 0-86.339689 86.339688 86.339688 0 0 1 74.235993-43.976757 282.419541 282.419541 0 0 0 0-140.806314z m-272.333129 183.169245a112.967816 112.967816 0 1 1 112.56436-112.967816 112.56436 112.56436 0 0 1-112.56436 112.967816zM1062.315456 0.027435H556.784477a47.607866 47.607866 0 0 0-46.397496 50.835517c0 9.279499 0 14.120977 4.438022 18.558999l14.120977 40.345649a44.380214 44.380214 0 0 0 40.345649 27.838497h488.182349a51.64243 51.64243 0 0 0 51.238974-51.238974v-35.504171A45.187127 45.187127 0 0 0 1062.315456 0.027435z" fill="#4E8CEE" p-id="2742"></path><path d="M788.368501 371.207403a378.442185 378.442185 0 0 1 324.782472 190.028006v-322.76519a51.238974 51.238974 0 0 0-50.835517-52.8528H556.784477a45.99404 45.99404 0 0 1-46.397496-32.679975l-14.120977-27.838498-37.117997-87.953514s0-4.841478-4.438021-4.841478a44.78367 44.78367 0 0 0-40.345649-27.838498h-363.110838A51.64243 51.64243 0 0 0 0.014525 55.70443v779.074477A51.64243 51.64243 0 0 0 50.850042 887.631707H443.816661a340.517275 340.517275 0 0 1-27.838498-139.192488 373.197251 373.197251 0 0 1 372.390338-377.231816z" fill="#A6C5F6" p-id="2743"></path></svg>