<?xml version="1.0" standalone="no"?><!DOCTYPE svg PUBLIC "-//W3C//DTD SVG 1.1//EN" "http://www.w3.org/Graphics/SVG/1.1/DTD/svg11.dtd"><svg t="1583995961372" class="icon" viewBox="0 0 1024 1024" version="1.1" xmlns="http://www.w3.org/2000/svg" p-id="1572" xmlns:xlink="http://www.w3.org/1999/xlink" width="200" height="200"><defs><style type="text/css"></style></defs><path d="M0 0h1024v1024H0z" fill="#FFFFFF" p-id="1573"></path><path d="M351.923732 595.93691m40.070327 40.070328l-0.002828-0.002829q40.070327 40.070327 0 80.140654l-79.866297 79.866297q-40.070327 40.070327-80.140654 0l0.002828 0.002828q-40.070327-40.070327 0-80.140654l79.866297-79.866296q40.070327-40.070327 80.140654 0Z" fill="#8CC8FE" p-id="1574"></path><path d="M668.136228 520.14072C741.021966 630.152393 728.998323 779.835585 632.073782 876.760126l-39.663034 39.663034L111.578137 435.590548l39.663034-39.663033c96.927369-96.927369 246.607733-108.948184 356.619405-36.062446L591.86769 275.857955l-20.138401-20.138401c-33.137852-33.137852-33.137852-86.866654 0.002829-120.007335C604.872798 102.571539 658.6016 102.571539 691.74228 135.712219l200.546797 200.546797c33.140681 33.140681 33.140681 86.869482 0.002829 120.007335-33.140681 33.140681-86.869482 33.140681-120.010163 0l-20.135573-20.135573L668.139056 520.137892z" fill="#4B96F9" p-id="1575"></path><path d="M284.994661 467.212364a28.332 28.332 0 1 1-30.162347-47.970124c61.687996-38.78905 126.232703-41.362918 189.490475-7.396337a28.332 28.332 0 0 1-26.807832 49.921738c-45.192609-24.262248-87.983883-22.556706-132.523125 5.447551z" fill="#A5CAFC" p-id="1576"></path></svg>