<?xml version="1.0" standalone="no"?><!DOCTYPE svg PUBLIC "-//W3C//DTD SVG 1.1//EN" "http://www.w3.org/Graphics/SVG/1.1/DTD/svg11.dtd"><svg t="1583997030877" class="icon" viewBox="0 0 1025 1024" version="1.1" xmlns="http://www.w3.org/2000/svg" p-id="10593" xmlns:xlink="http://www.w3.org/1999/xlink" width="200.1953125" height="200"><defs><style type="text/css"></style></defs><path d="M198.937626 716.175455c-19.495887 0-35.808773 26.259767-35.808772 45.755654s16.312885 45.755654 35.808772 45.755654h123.341329c19.893763 0 35.808773-25.861891 35.808773-45.755654S342.172717 716.175455 322.278955 716.175455zM761.135359 512.463326c0-19.893763-16.312885-45.755654-35.808773-45.755654H198.937626c-19.495887 0-35.808773 25.861891-35.808772 45.755654S177.850238 557.025354 198.937626 557.025354h526.38896c19.495887 0 35.808773-26.259767 35.808773-45.755654zM198.937626 310.740573h526.786835c19.893763 0 35.808773-25.861891 35.808773-45.755655s-15.91501-45.755654-35.808773-45.755654H198.937626c-19.495887 0-35.808773 26.259767-35.808772 45.755654s16.312885 45.755654 35.808772 45.755655z" fill="#4E8CEE" p-id="10594"></path><path d="M918.693959 534.74434V95.490061A96.683686 96.683686 0 0 0 822.408148 0H111.802946A126.52433 126.52433 0 0 0 0 111.007196v801.718634a126.126455 126.126455 0 0 0 111.802946 111.007196h550.65935a42.970527 42.970527 0 0 0 47.74503-43.368403c0-28.647018-20.689513-55.702535-39.787525-56.100411H140.84784c-28.249143 0-39.787525-12.732008-39.787526-39.787525V134.08396c0-24.668266 9.946881-34.615147 34.615147-34.615147h647.343037c25.066141 0 35.013022 9.946881 35.013022 34.615147v400.66038c0 19.495887 26.657642 36.604523 56.896161 36.604523a39.787525 39.787525 0 0 0 43.368403-36.604523z" fill="#A6C5F6" p-id="10595"></path><path d="M460.739543 767.899238a70.42392 70.42392 0 1 0 70.42392-71.617545 71.21967 71.21967 0 0 0-70.42392 71.617545zM742.435222 696.281693a71.617546 71.617546 0 1 0 70.42392 71.617545 70.821795 70.821795 0 0 0-70.42392-71.617545zM954.900607 696.281693a71.617546 71.617546 0 1 0 70.42392 71.617545A71.21967 71.21967 0 0 0 954.900607 696.281693z" fill="#4E8CEE" p-id="10596"></path></svg>