<?xml version="1.0" standalone="no"?><!DOCTYPE svg PUBLIC "-//W3C//DTD SVG 1.1//EN" "http://www.w3.org/Graphics/SVG/1.1/DTD/svg11.dtd"><svg t="1583995856533" class="icon" viewBox="0 0 1117 1024" version="1.1" xmlns="http://www.w3.org/2000/svg" p-id="1919" xmlns:xlink="http://www.w3.org/1999/xlink" width="218.1640625" height="200"><defs><style type="text/css"></style></defs><path d="M79.769772 0h957.423422C1081.220151 0 1116.962966 37.325179 1116.962966 83.399901v711.59849c0 46.074722-35.742815 83.399901-79.769772 83.399902h-319.125627L618.052841 995.958645a77.396226 77.396226 0 0 1-119.235796 0L398.848859 878.398293H79.769772C35.742815 878.398293 0 841.073113 0 795.044931V83.399901C0 37.325179 35.742815 0 79.769772 0z m413.927859 186.160494l-2.327006 0.04654c-15.590941 0.884262-27.179432 9.773426-25.876309 20.012254l48.401729 381.815174c1.210043 9.587265 13.496636 16.987145 28.203315 16.987145h32.764247c14.753219 0 26.993272-7.39988 28.203314-16.987145l48.401729-381.815174A12.007352 12.007352 0 0 0 651.56173 204.683464c0-10.238827-12.658914-18.522969-28.296395-18.52297h-129.567704z m49.285991 465.401236c-17.173306 0-31.042262 9.540725-31.042263 21.268837v50.542574c0 11.728111 13.868957 21.268836 31.042263 21.268836h30.995722c17.173306 0 31.042262-9.540725 31.042263-21.268836v-50.542574c0-11.728111-13.868957-21.268836-31.042263-21.268837h-30.995722z" fill="#F5906C" p-id="1920"></path></svg>