<?xml version="1.0" standalone="no"?><!DOCTYPE svg PUBLIC "-//W3C//DTD SVG 1.1//EN" "http://www.w3.org/Graphics/SVG/1.1/DTD/svg11.dtd"><svg t="1583996894399" class="icon" viewBox="0 0 1024 1024" version="1.1" xmlns="http://www.w3.org/2000/svg" p-id="5265" xmlns:xlink="http://www.w3.org/1999/xlink" width="200" height="200"><defs><style type="text/css"></style></defs><path d="M629.972756 165.563444a73.669839 73.669839 0 0 0 13.244016 18.210522 27.315783 27.315783 0 0 0 19.452148 7.449759h154.375561v-16.55502a64.150702 64.150702 0 0 0-2.069377-15.313394 54.631566 54.631566 0 0 0-11.174639-19.866024 271.088452 271.088452 0 0 0-25.660281-28.557409c-11.174638-11.174638-26.074156-25.246405-45.112429-41.38755S701.159342 41.400794 690.812454 33.123284s-21.521526-16.141144-29.38516-21.521526a72.842088 72.842088 0 0 0-20.693775-9.519136 82.7751 82.7751 0 0 0-17.796647 0h-2.069377V124.175894a65.392329 65.392329 0 0 0 2.897128 17.796646 77.808594 77.808594 0 0 0 7.449759 20.693775z" fill="#4E8CEE" p-id="5266"></path><path d="M663.496671 255.374427a91.880361 91.880361 0 0 1-50.078935-12.83014 109.263132 109.263132 0 0 1-34.351667-31.454538 140.303794 140.303794 0 0 1-19.452148-41.38755 162.239196 162.239196 0 0 1-6.208133-41.38755V0.013244H152.774305a88.983232 88.983232 0 0 0-47.595683 12.83014 168.447328 168.447328 0 0 0-39.318172 31.454538 153.54781 153.54781 0 0 0-27.315783 41.38755A115.471264 115.471264 0 0 0 28.611655 131.625653V827.764243a97.260742 97.260742 0 0 0 13.657891 49.251184 179.208091 179.208091 0 0 0 33.937791 41.38755 191.624356 191.624356 0 0 0 44.284679 29.385161 102.641124 102.641124 0 0 0 41.38755 11.174638h289.712849l203.626746-206.937749a59.598072 59.598072 0 0 1-38.490421 12.416265H224.788642a62.4952 62.4952 0 0 1-45.940181-18.624398A59.184196 59.184196 0 0 1 159.810188 703.601593a60.839698 60.839698 0 0 1 19.038273-45.526305 61.253574 61.253574 0 0 1 45.940181-19.038273h393.5956a63.736827 63.736827 0 0 1 46.767931 19.038273 61.253574 61.253574 0 0 1 19.452149 45.526305 60.011947 60.011947 0 0 1-11.588514 35.593293l144.028673-145.2703V255.374427z m0 237.150661a66.22008 66.22008 0 0 1-46.767931 18.210522H224.788642a63.736827 63.736827 0 0 1-45.940181-18.210522 60.011947 60.011947 0 0 1-19.038273-45.112429 61.667449 61.667449 0 0 1 19.038273-45.526305 62.4952 62.4952 0 0 1 45.940181-18.624397h393.5956a64.978453 64.978453 0 0 1 46.767931 18.624397 61.253574 61.253574 0 0 1 19.452149 45.526305 60.425823 60.425823 0 0 1-19.452149 45.112429z" fill="#A6C5F6" p-id="5267"></path><path d="M993.355444 691.599204a86.913855 86.913855 0 0 0-4.138755-20.693775 87.32773 87.32773 0 0 0-18.624397-26.901908 73.669839 73.669839 0 0 0-22.349277-17.796646 56.700943 56.700943 0 0 0-24.418655-6.622008 33.11004 33.11004 0 0 0-26.901907 9.519136l-13.244016 11.174639a168.447328 168.447328 0 0 1-14.071767 12.416265l88.983232 86.086104a49.251184 49.251184 0 0 0 7.449759-6.208133l7.449759-7.863634 9.519137-9.519137a30.212911 30.212911 0 0 0 10.346887-23.590903zM732.200004 786.376693l-37.66267 37.248795-34.765542 34.351666-26.074157 25.660281-13.657891 13.244016a77.808594 77.808594 0 0 0-16.968896 23.177028 160.997569 160.997569 0 0 0-5.794257 15.727269l-7.863634 24.004779-7.449759 24.83253c-2.069377 8.27751-3.311004 14.485642-4.138755 18.210522a21.935401 21.935401 0 0 0 2.069377 17.382771c2.897128 3.311004 8.27751 4.55263 16.968896 3.311004a190.38273 190.38273 0 0 0 18.624397-4.55263 228.873151 228.873151 0 0 0 26.488032-7.035884c9.105261-2.483253 17.796646-5.794257 26.901908-8.691385L690.812454 993.314443l12.416265-7.449759 11.588514-8.691386 11.174639-11.174638 24.418654-24.418655 34.765542-33.937791 37.66267-36.834919 101.813373-98.916244-88.155481-86.086104L732.200004 786.376693z" fill="#4E8CEE" p-id="5268"></path></svg>