<?xml version="1.0" standalone="no"?><!DOCTYPE svg PUBLIC "-//W3C//DTD SVG 1.1//EN" "http://www.w3.org/Graphics/SVG/1.1/DTD/svg11.dtd"><svg t="1583996052632" class="icon" viewBox="0 0 1024 1024" version="1.1" xmlns="http://www.w3.org/2000/svg" p-id="3921" xmlns:xlink="http://www.w3.org/1999/xlink" width="200" height="200"><defs><style type="text/css"></style></defs><path d="M0 0h1024v1024H0z" fill="#FFFFFF" p-id="3922"></path><path d="M280.616 124h270.536a104.616 104.616 0 0 1 73.944 30.612l200.232 200.076a104.616 104.616 0 0 1 30.672 74v374.696C856 861.164 809.16 908 751.384 908H280.616C222.836 908 176 861.16 176 803.384V228.616C176 170.836 222.84 124 280.616 124z" fill="#4DBB88" p-id="3923"></path><path d="M475.32 475.348v-101.6c0-22.468 18.212-40.68 40.68-40.68s40.68 18.212 40.68 40.68v101.6h101.744c22.452 0 40.652 18.2 40.652 40.652s-18.2 40.652-40.652 40.652h-101.74v101.6c0 22.468-18.216 40.68-40.684 40.68-22.468 0-40.68-18.212-40.68-40.68v-101.6H373.572c-22.452 0-40.652-18.2-40.652-40.652s18.2-40.652 40.652-40.652h101.74z" fill="#B7E3CF" p-id="3924"></path></svg>