<?xml version="1.0" standalone="no"?><!DOCTYPE svg PUBLIC "-//W3C//DTD SVG 1.1//EN" "http://www.w3.org/Graphics/SVG/1.1/DTD/svg11.dtd"><svg t="1583995903308" class="icon" viewBox="0 0 1109 1024" version="1.1" xmlns="http://www.w3.org/2000/svg" p-id="3575" xmlns:xlink="http://www.w3.org/1999/xlink" width="216.6015625" height="200"><defs><style type="text/css"></style></defs><path d="M834.653612 0c59.178346 0 124.713991 41.386442 151.252514 95.40215l108.372747 220.96947c27.093187 55.2957 16.767909 132.99128-23.765205 178.900364L637.876012 985.423996c-45.48242 51.455721-120.959345 51.413055-166.399099 0L38.839256 495.271984C-1.693857 449.362899-12.019135 371.624654 15.074052 316.37162l108.33008-220.926804C149.899988 41.258443 215.392967 0 274.613979 0zM682.675769 213.332178h-255.998613a19.199896 19.199896 0 0 0-19.199896 19.199896v118.100693L358.410859 337.064841c-9.386616 0-17.066574 7.765291-17.066575 17.322573v268.286547c0 9.557282 7.679958 17.322573 17.066575 17.322572h392.531207c9.386616 0 17.066574-7.765291 17.066574-17.322572V354.387414a17.23724 17.23724 0 0 0-17.066574-17.322573l-49.066401 13.439927V232.532074A19.199896 19.199896 0 0 0 682.675769 213.332178z m-19.199896 38.399792v109.311408l-109.866072 30.122503-107.732749-29.866505V251.73197h217.598821z m-42.666436 45.866418h-132.26595a6.399965 6.399965 0 0 0-6.399965 6.399965v21.333218c0 3.498648 2.901318 6.399965 6.399965 6.399965h132.26595a6.399965 6.399965 0 0 0 6.399966-6.399965v-21.333218a6.399965 6.399965 0 0 0-6.399966-6.399965z" fill="#8AD96A" p-id="3576"></path></svg>