<?xml version="1.0" standalone="no"?><!DOCTYPE svg PUBLIC "-//W3C//DTD SVG 1.1//EN" "http://www.w3.org/Graphics/SVG/1.1/DTD/svg11.dtd"><svg t="1583995892543" class="icon" viewBox="0 0 1109 1024" version="1.1" xmlns="http://www.w3.org/2000/svg" p-id="3161" xmlns:xlink="http://www.w3.org/1999/xlink" width="216.6015625" height="200"><defs><style type="text/css"></style></defs><path d="M834.653612 0c59.178346 0 124.713991 41.386442 151.252514 95.40215l108.372747 220.96947c27.093187 55.2957 16.767909 132.99128-23.765205 178.900364L637.876012 985.423996c-45.48242 51.455721-120.959345 51.413055-166.399099 0L38.839256 495.271984C-1.693857 449.362899-12.019135 371.624654 15.074052 316.37162l108.33008-220.926804C149.899988 41.258443 215.392967 0 274.613979 0z m-224.724116 255.998613h-109.226075a6.357299 6.357299 0 0 0-2.98665 0.72533c-0.127999 0.042666-1.450659 0.682663-3.413315 1.79199-6.613298 3.498648-18.986564 10.666609-24.149203 18.133235l-0.938661 1.19466c-3.839979 2.98665-20.053225 9.471949-32.042493 14.25059-33.109154 13.311928-57.173024 23.594539-64.767649 34.517146a62.292996 62.292996 0 0 0-3.029317 4.821307l-0.213333 0.341332c-17.151907 28.757178-67.498301 131.583287-69.844955 136.233929a6.399965 6.399965 0 0 0 2.943984 8.575953l97.620805 49.1944v141.353901a6.399965 6.399965 0 0 0 5.802635 6.399966c0.853329 0 83.583547 9.130617 146.857871 9.130617h4.394643c63.231657 0 146.047209-9.045284 146.857872-9.173284a6.399965 6.399965 0 0 0 5.802635-6.399965v-141.311235l97.492805-49.1944a6.399965 6.399965 0 0 0 2.943984-8.533287c-2.303988-4.735974-52.693048-107.519418-69.802289-136.276595l-0.170665-0.341332a109.994071 109.994071 0 0 0-3.071984-4.821307c-7.594626-10.922608-31.615829-21.162552-64.724982-34.517146-12.373266-4.949307-29.269175-11.73327-32.383825-14.549255-5.759969-9.685281-24.5332-19.114563-28.287847-20.94922l-0.59733-0.255998-0.639996-0.213332-0.426665-0.128z m182.18568 204.969557l3.413315 7.039962-85.802202 43.221099c-0.085333-2.98665-0.085333-6.655964-0.085333-10.922608l82.431554-39.338453z m-474.792095-0.042667l82.431554 39.338454-0.042667 10.879941-85.844868-43.178433 3.455981-7.039962z m417.405739-112.596723c13.653259 24.831865 37.290465 72.148943 51.583721 101.034119l-76.671585 36.565136c0.298665-31.146498 1.834657-76.159587 8.191956-95.828815 5.930635-18.346567 12.501266-32.810489 16.895908-41.77044z m-360.104716 0c4.394643 8.917285 10.965274 23.423873 16.895909 41.813107 6.271966 19.62656 7.850624 64.596983 8.191955 95.786148l-76.671584-36.565136c14.293256-28.885177 37.973128-76.202254 51.58372-101.034119z m180.564355 25.685194c8.106623 0 14.762587 6.570631 14.762587 14.634587a14.71992 14.71992 0 0 1-29.482507 0c0-8.106623 6.613298-14.634587 14.71992-14.634587z m-57.343689-102.82611c9.386616 17.749237 37.418464 70.570284 47.487743 89.343516a381.437934 381.437934 0 0 1-28.586512 9.258617 1153.700417 1153.700417 0 0 1-19.669227-37.205132c-17.877236-35.583807-18.773232-43.434431-18.773231-44.543759a6.399965 6.399965 0 0 1 0.639996-1.621324l0.938662-1.066661 0.725329-1.109327 0.213332-0.341332c3.498648-3.925312 10.154612-8.746619 17.023908-12.671931z m113.535385 0c7.210628 4.223977 14.165257 9.301283 17.535905 13.311928a12.117268 12.117268 0 0 0 1.19466 1.535992 5.973301 5.973301 0 0 1 0.853329 2.005322c0 1.109327-0.853329 8.959951-18.773232 44.543759-7.893291 15.786581-15.999913 30.847833-19.62656 37.205132a371.496654 371.496654 0 0 1-28.671845-9.258617l47.487743-89.300849z m-13.439927-2.303987c-14.037257 26.45319-33.706484 63.572989-43.349099 81.578225l-43.306432-81.578225h86.612864z" fill="#8AD96A" p-id="3162"></path></svg>