<?xml version="1.0" standalone="no"?><!DOCTYPE svg PUBLIC "-//W3C//DTD SVG 1.1//EN" "http://www.w3.org/Graphics/SVG/1.1/DTD/svg11.dtd"><svg t="1583995910782" class="icon" viewBox="0 0 1109 1024" version="1.1" xmlns="http://www.w3.org/2000/svg" p-id="3851" xmlns:xlink="http://www.w3.org/1999/xlink" width="216.6015625" height="200"><defs><style type="text/css"></style></defs><path d="M834.653612 0c59.178346 0 124.713991 41.386442 151.252514 95.40215l108.372747 220.96947c27.093187 55.2957 16.767909 132.99128-23.765205 178.900364L637.876012 985.423996c-45.48242 51.455721-120.959345 51.413055-166.399099 0L38.839256 495.271984C-1.693857 449.362899-12.019135 371.624654 15.074052 316.37162l108.33008-220.926804C149.899988 41.258443 215.392967 0 274.613979 0z m-257.491938 179.753693a42.666436 42.666436 0 0 0-58.069019 16.341245L459.103647 303.102358a42.666436 42.666436 0 0 1-31.743828 21.418551l-123.391332 15.957247a42.666436 42.666436 0 0 0-23.46654 73.642268L363.445498 490.664009a42.666436 42.666436 0 0 1 12.970596 39.38112l-21.034552 109.652739a42.666436 42.666436 0 0 0 59.861009 46.719747l118.186026-54.741037a42.666436 42.666436 0 0 1 36.650468 0.341332l116.9487 56.959691a42.666436 42.666436 0 0 0 60.757005-45.525086l-18.773232-109.994071a42.666436 42.666436 0 0 1 13.781259-39.125122l84.692874-75.007593a42.666436 42.666436 0 0 0-22.015881-74.111599l-122.708668-18.218568a42.666436 42.666436 0 0 1-31.402497-22.186546l-57.386356-107.818083a42.666436 42.666436 0 0 0-16.810575-17.194574z" fill="#F5906C" p-id="3852"></path></svg>