<?xml version="1.0" standalone="no"?><!DOCTYPE svg PUBLIC "-//W3C//DTD SVG 1.1//EN" "http://www.w3.org/Graphics/SVG/1.1/DTD/svg11.dtd"><svg t="1583997027238" class="icon" viewBox="0 0 1120 1024" version="1.1" xmlns="http://www.w3.org/2000/svg" p-id="10452" xmlns:xlink="http://www.w3.org/1999/xlink" width="218.75" height="200"><defs><style type="text/css"></style></defs><path d="M371.615794 673.445161a424.051613 424.051613 0 0 1 31.793548-162.270967H161.035148a7.019355 7.019355 0 0 1-7.019354-6.606452v-82.580645a7.019355 7.019355 0 0 1 7.019354-7.019355h266.322581a6.606452 6.606452 0 0 1 6.606452 7.019355v24.36129a412.903226 412.903226 0 0 1 127.174193-129.23871H161.035148a7.432258 7.432258 0 0 1-7.019354-7.019354v-82.580646a7.432258 7.432258 0 0 1 7.019354-4.541935h483.922581a7.019355 7.019355 0 0 1 6.606452 7.019355v44.593548a403.819355 403.819355 0 0 1 126.76129-20.645161h28.077419V30.967742A30.554839 30.554839 0 0 0 776.260955 0H30.144826A30.554839 30.554839 0 0 0 0.00289 30.967742V990.967742a30.554839 30.554839 0 0 0 30.141936 30.967742h521.496774A421.987097 421.987097 0 0 1 371.615794 673.445161m-59.045162 23.535484a7.019355 7.019355 0 0 1-6.606451 7.019355H161.035148a7.432258 7.432258 0 0 1-7.019354-7.019355v-82.580645a7.432258 7.432258 0 0 1 7.019354-7.019355h142.864517a7.019355 7.019355 0 0 1 6.606451 7.019355v82.580645" fill="#A6C5F6" p-id="10453"></path><path d="M778.325471 322.890323a346.012903 346.012903 0 0 0-341.470968 350.554838 346.012903 346.012903 0 0 0 341.470968 350.554839 346.012903 346.012903 0 0 0 341.883871-350.554839 346.012903 346.012903 0 0 0-341.883871-350.554838" fill="#4E8CEE" p-id="10454"></path><path d="M914.170632 653.625806v45.419355h-107.767742v62.348387h107.767742v45.832258h-107.767742v91.251613h-55.741935v-91.251613h-111.896774v-45.832258h111.896774v-62.348387h-111.896774v-45.419355h93.316129l-102.812904-193.238709h62.348388c5.780645 10.322581 84.645161 177.135484 85.883871 179.612903L867.099665 460.387097h59.045161l-104.464516 193.238709h92.490322" fill="#FFFFFF" p-id="10455"></path><path d="M810.531923 902.606452h-64v-90.83871h-111.896775v-54.503226h111.896775V701.935484h-111.896775v-53.677419h90.425807l-102.812903-193.23871h71.845161c5.367742 9.909677 66.477419 139.148387 82.580645 172.593548L867.099665 456.258065h68.541935l-3.303226 6.193548-102.812903 187.045161h89.6V701.935484h-108.593548v54.090322h107.767742v54.503226h-107.767742z m-55.741936-8.258065h47.483871v-91.251613H908.389987v-37.574193h-106.116129v-70.606452H908.389987v-37.16129h-93.729032l3.303226-5.780645 102.812903-187.458065h-49.548387l-94.141936 185.393548-3.303226-8.258064s-73.496774-154.83871-82.580645-177.135484h-54.916129l102.812904 193.23871h-96.206452v37.16129h111.896774v70.606452h-111.896774v37.574193h111.896774z" fill="#FFFFFF" p-id="10456"></path></svg>