<?xml version="1.0" standalone="no"?><!DOCTYPE svg PUBLIC "-//W3C//DTD SVG 1.1//EN" "http://www.w3.org/Graphics/SVG/1.1/DTD/svg11.dtd"><svg t="1583996933761" class="icon" viewBox="0 0 1083 1024" version="1.1" xmlns="http://www.w3.org/2000/svg" p-id="6662" xmlns:xlink="http://www.w3.org/1999/xlink" width="211.5234375" height="200"><defs><style type="text/css"></style></defs><path d="M112.472447 141.551492c14.146447-17.575889 28.721574-33.865737 42.868021-49.298224a420.96397 420.96397 0 0 1 35.151778-38.152539l27.864214-26.149493A183.046451 183.046451 0 0 1 246.649354 8.660626a79.73452 79.73452 0 0 1 39.86726-8.573604h516.559657a112.314216 112.314216 0 0 1 36.009138 6.858883 99.025129 99.025129 0 0 1 39.009899 26.578174c6.430203 8.144924 15.003807 18.004569 25.292133 30.007615s19.71929 22.720051 29.578934 34.723097 22.291371 27.864214 33.865737 42.868021z" fill="#4E8CEE" p-id="6663"></path><path d="M1083.00445 328.027385a101.597211 101.597211 0 0 0-21.862691-65.588072A91.308885 91.308885 0 0 0 986.122722 235.003779H105.184883a96.881728 96.881728 0 0 0-77.591118 27.435534 96.024368 96.024368 0 0 0-24.006092 65.588072v171.472086a88.308124 88.308124 0 0 0 26.578173 64.302032 100.31117 100.31117 0 0 0 72.446956 26.149493H986.122722a94.738327 94.738327 0 0 0 72.018276-26.149493 90.880205 90.880205 0 0 0 24.863452-64.302032z m-478.835798 114.886297h-120.88782a30.007615 30.007615 0 0 1-21.434011-7.287563 32.579696 32.579696 0 0 1-9.002285-22.720051 28.292894 28.292894 0 0 1 8.573605-20.576651 30.436295 30.436295 0 0 1 21.862691-8.573604h120.030459a26.149493 26.149493 0 0 1 29.150255 29.150255c-0.42868 20.14797-10.288325 29.578935-28.292894 30.007614z" fill="#A6C5F6" p-id="6664"></path><path d="M1055.568916 695.835008a96.453048 96.453048 0 0 0-74.590357-27.006853H102.612802a101.16853 101.16853 0 0 0-78.019799 27.006853A93.880967 93.880967 0 0 0 0.158231 761.851761v160.3264a94.309647 94.309647 0 0 0 30.007615 74.590357 104.597972 104.597972 0 0 0 69.017514 27.006854h877.079717a99.453809 99.453809 0 0 0 74.590357-26.578174 85.736043 85.736043 0 0 0 29.150255-65.588072v-171.472086a90.880205 90.880205 0 0 0-24.434773-64.302032z m-433.824375 171.472086a27.864214 27.864214 0 0 1-21.005331 8.573604h-120.88782a29.150255 29.150255 0 0 1-21.862691-8.573604 28.292894 28.292894 0 0 1-8.573604-20.576651 29.578935 29.578935 0 0 1 8.573604-20.57665 30.436295 30.436295 0 0 1 21.862691-8.573604H600.31053a26.578173 26.578173 0 0 1 21.00533 8.573604 31.293656 31.293656 0 0 1 8.144924 20.57665 28.721574 28.721574 0 0 1-7.716243 20.576651z" fill="#4E8CEE" p-id="6665"></path></svg>