<?xml version="1.0" standalone="no"?><!DOCTYPE svg PUBLIC "-//W3C//DTD SVG 1.1//EN" "http://www.w3.org/Graphics/SVG/1.1/DTD/svg11.dtd"><svg t="1583996922756" class="icon" viewBox="0 0 1326 1024" version="1.1" xmlns="http://www.w3.org/2000/svg" p-id="6244" xmlns:xlink="http://www.w3.org/1999/xlink" width="258.984375" height="200"><defs><style type="text/css"></style></defs><path d="M340.297694 221.322814l230.551688-175.253312A228.850199 228.850199 0 0 1 791.192139 15.442709l366.670765 139.947427A208.85771 208.85771 0 0 0 1233.579141 170.27816h60.402841a31.477537 31.477537 0 0 1 32.32828 31.052165v448.767584a32.753653 32.753653 0 0 1-32.32828 32.328281h-80.820703a51.044654 51.044654 0 0 0-31.052164 11.059675l-17.440257 14.462652a10.208931 10.208931 0 0 1-14.888024 0L723.1326 186.442301a35.305886 35.305886 0 0 0-42.537212-8.082071l-197.798035 109.320635a149.305613 149.305613 0 0 1-127.611635 6.805953 45.089444 45.089444 0 0 1-23.395466-58.27598 20.843234 20.843234 0 0 1 8.507442-14.888024z" fill="#A6C5F6" p-id="6245"></path><path d="M39.134235 680.724701h68.910283l48.492421-59.126724a122.932542 122.932542 0 0 1 173.551824-16.164141 127.611635 127.611635 0 0 1 42.537212 61.678957 122.081798 122.081798 0 0 1 85.074423 85.074424A120.380309 120.380309 0 0 1 528.31217 808.336336a123.783286 123.783286 0 0 1 68.910283 35.305886 127.611635 127.611635 0 0 1 17.440257 153.559335l-6.805954 11.910419a71.462516 71.462516 0 0 0 98.686331-17.440257 70.611772 70.611772 0 0 0 10.634303-53.596887l5.529838 5.529838a72.738632 72.738632 0 0 0 91.455005 9.358186 70.186399 70.186399 0 0 0 28.499932-71.462515l5.529837 5.529837a73.164004 73.164004 0 0 0 91.455006 9.358187 71.462516 71.462516 0 0 0 29.776048-71.462516l5.529837 5.104465a71.462516 71.462516 0 0 0 85.074424 11.059675 70.611772 70.611772 0 0 0 24.246211-96.984842c-2.977605-4.253721-5.529838-8.08207-8.082071-11.059675L1037.907967 680.724701 688.677458 255.352584a12.335791 12.335791 0 0 0-14.462652-2.552233l-167.171242 91.455005a209.283082 209.283082 0 0 1-175.253312 13.186536 112.298239 112.298239 0 0 1-68.910283-67.208795 119.529565 119.529565 0 0 1 11.910419-95.708726 15.738768 15.738768 0 0 0-6.380582-21.693978 18.716373 18.716373 0 0 0-8.08207 0H32.328281a31.902909 31.902909 0 0 0-32.328281 29.776048v448.767584a45.514817 45.514817 0 0 0 39.134235 29.776048z" fill="#4E8CEE" p-id="6246"></path><path d="M281.596342 648.821792a60.402841 60.402841 0 0 0-77.843098 16.164141L156.536939 723.261913a59.552096 59.552096 0 0 0 8.08207 85.074423l6.805954 5.104466a61.678957 61.678957 0 0 0 65.932679 5.529837h3.828349v2.977605a60.402841 60.402841 0 0 0 21.693978 57.850608l5.529837 3.828349a62.104329 62.104329 0 0 0 64.656562 6.805954A2.552233 2.552233 0 0 1 340.297694 893.41076a60.828213 60.828213 0 0 0 22.970094 53.596887l4.253722 2.977605a56.14912 56.14912 0 0 0 64.656561 5.104465 2.552233 2.552233 0 0 1 3.828349 0 63.380446 63.380446 0 0 0 22.970095 37.432746h2.977605a59.977469 59.977469 0 0 0 85.074423-11.059675 47.641677 47.641677 0 0 1 5.529838-6.805954l8.08207-14.462652a60.828213 60.828213 0 0 0-76.992353-87.626656h-2.552233a62.104329 62.104329 0 0 0-56.574492-63.380445 69.335655 69.335655 0 0 0-24.24621 4.253721c-9.358187 0-6.805954-6.805954-6.805954-6.805954a59.977469 59.977469 0 0 0-32.328281-78.26847 60.828213 60.828213 0 0 0-51.044654 2.552233c-6.805954 0-5.529838-5.104465-5.529838-5.104465a55.298375 55.298375 0 0 0-20.417861-78.26847z" fill="#A6C5F6" p-id="6247"></path></svg>