<?xml version="1.0" standalone="no"?><!DOCTYPE svg PUBLIC "-//W3C//DTD SVG 1.1//EN" "http://www.w3.org/Graphics/SVG/1.1/DTD/svg11.dtd"><svg t="1583996914830" class="icon" viewBox="0 0 1024 1024" version="1.1" xmlns="http://www.w3.org/2000/svg" p-id="5965" xmlns:xlink="http://www.w3.org/1999/xlink" width="200" height="200"><defs><style type="text/css"></style></defs><path d="M663.561617 192.336589h107.70849V38.467318a38.467318 38.467318 0 0 0-10.770849-26.927123 35.005259 35.005259 0 0 0-25.38843-11.540195h-145.021788v115.401953a80.396694 80.396694 0 0 0 21.157025 54.238919A71.549211 71.549211 0 0 0 663.561617 192.336589z" fill="#4E8CEE" p-id="5966"></path><path d="M630.864397 255.807663A76.934636 76.934636 0 0 1 586.626981 242.728775a102.707739 102.707739 0 0 1-31.5432-31.5432 156.561983 156.561983 0 0 1-17.694967-41.16003 171.179564 171.179564 0 0 1-5.770097-41.929377V0H84.243811a35.005259 35.005259 0 0 0-25.38843 11.540195A38.467318 38.467318 0 0 0 48.084532 38.467318v882.44027a40.390684 40.390684 0 0 0 10.386176 27.311796 38.467318 38.467318 0 0 0 25.773103 11.155522H513.539077a288.504884 288.504884 0 0 1-35.774605-76.934636 307.738542 307.738542 0 0 1-12.309542-87.320811v-15.386927-14.232908H228.880926a57.316304 57.316304 0 0 1-42.698723-18.464312 61.932382 61.932382 0 0 1-17.694966-44.622089 63.855748 63.855748 0 0 1 17.694966-45.776108 55.777611 55.777611 0 0 1 42.698723-18.079639H509.692346a278.503381 278.503381 0 0 1 96.552967-96.168295 258.500376 258.500376 0 0 1 132.327574-35.774605h33.851239V255.807663z m0 236.189332a56.546957 56.546957 0 0 1-42.698723 18.848985H228.880926a56.546957 56.546957 0 0 1-42.698723-18.848985 63.471074 63.471074 0 0 1-17.694966-45.391435 61.932382 61.932382 0 0 1 17.694966-45.006762A56.546957 56.546957 0 0 1 228.880926 384.673178h360.438767a56.93163 56.93163 0 0 1 42.698723 18.079639 61.932382 61.932382 0 0 1 17.694966 45.006762 63.471074 63.471074 0 0 1-17.694966 44.237416z" fill="#A6C5F6" p-id="5967"></path><path d="M750.113082 572.009016a225.803156 225.803156 0 1 0 225.803155 225.803155 225.803156 225.803156 0 0 0-225.803155-225.803155zM894.365524 715.492111l-195.413975 220.802404a6.539444 6.539444 0 0 1-5.385424 2.308039 7.30879 7.30879 0 0 1-5.385425 0l-88.090158-85.782118a7.693464 7.693464 0 0 1-1.923365-6.539444 9.616829 9.616829 0 0 1 0-5.770098l27.311795-27.696469a8.46281 8.46281 0 0 1 10.770849 0l50.007513 50.392187a7.693464 7.693464 0 0 0 5.770098 2.308039 10.386176 10.386176 0 0 0 5.385424-2.692713L855.898206 677.79414a8.078137 8.078137 0 0 1 5.385424-2.692713 7.693464 7.693464 0 0 1 5.770098 2.30804l27.311796 27.696468a6.539444 6.539444 0 0 1 2.308039 5.385425 5.000751 5.000751 0 0 1-2.308039 5.000751z" fill="#4E8CEE" p-id="5968"></path></svg>