<?xml version="1.0" standalone="no"?><!DOCTYPE svg PUBLIC "-//W3C//DTD SVG 1.1//EN" "http://www.w3.org/Graphics/SVG/1.1/DTD/svg11.dtd"><svg t="1583997171370" class="icon" viewBox="0 0 1051 1024" version="1.1" xmlns="http://www.w3.org/2000/svg" p-id="16059" xmlns:xlink="http://www.w3.org/1999/xlink" width="205.2734375" height="200"><defs><style type="text/css"></style></defs><path d="M448.264723 0a448.251638 448.251638 0 1 0 448.251639 447.916121A447.916121 447.916121 0 0 0 448.264723 0z m292.571429 301.965924l-155.009174 268.414155-107.365662-138.904325-123.806029 165.74574-78.846658-139.239843-96.293578 131.522936a26.17038 26.17038 0 0 1-36.906946 5.703801 26.505898 26.505898 0 0 1-5.703801-36.906946l144.608126-197.955439L360.694606 503.27654l117.095674-156.686763 100.655308 131.858454 115.753605-201.310616a26.17038 26.17038 0 0 1 46.636959 24.828309z" fill="#A6C5F6" p-id="16060"></path><path d="M950.870228 664.996068a137.226737 137.226737 0 1 0-274.453473 0 140.917431 140.917431 0 0 0 57.373525 113.40498 232.513761 232.513761 0 0 0-126.154652 189.903015c0 13.08519 6.710354 23.486239 19.124508 23.486238h372.760158c12.749672 0 19.460026-10.401048 19.460026-23.486238a234.862385 234.862385 0 0 0-125.483618-189.903015 130.516383 130.516383 0 0 0 57.373526-113.40498z" fill="#FFFFFF" p-id="16061"></path><path d="M999.520294 1024H626.760136a52.005242 52.005242 0 0 1-51.334207-55.695937A257.342071 257.342071 0 0 1 682.120556 771.690695a174.469201 174.469201 0 0 1-37.9135-108.372215 169.436435 169.436435 0 1 1 338.872871 0A172.456094 172.456094 0 0 1 945.837463 771.690695a263.716907 263.716907 0 0 1 105.352555 194.600262 52.005242 52.005242 0 0 1-51.669724 57.709043zM640.180844 959.580603h346.25426a206.343381 206.343381 0 0 0-107.70118-152.660551l-54.018349-27.51245 53.347314-29.19004a100.655308 100.655308 0 0 0 40.59764-85.557012 105.017038 105.017038 0 1 0-210.034076 0 107.70118 107.70118 0 0 0 44.288336 87.570118l42.275229 31.203146-46.972477 23.486238a206.007864 206.007864 0 0 0-108.036697 152.660551z" fill="#FFFFFF" p-id="16062"></path><path d="M950.870228 663.31848a137.226737 137.226737 0 1 0-274.453473 0 140.917431 140.917431 0 0 0 57.373525 113.40498 232.513761 232.513761 0 0 0-126.154652 189.903014c0 13.08519 6.710354 23.486239 19.124508 23.486239h372.760158c12.749672 0 19.460026-10.401048 19.460026-23.486239a234.862385 234.862385 0 0 0-125.483618-189.903014 130.516383 130.516383 0 0 0 57.373526-113.40498z" fill="#4E8CEE" p-id="16063"></path></svg>