<?xml version="1.0" standalone="no"?><!DOCTYPE svg PUBLIC "-//W3C//DTD SVG 1.1//EN" "http://www.w3.org/Graphics/SVG/1.1/DTD/svg11.dtd"><svg t="1583996951668" class="icon" viewBox="0 0 1120 1024" version="1.1" xmlns="http://www.w3.org/2000/svg" p-id="7360" xmlns:xlink="http://www.w3.org/1999/xlink" width="218.75" height="200"><defs><style type="text/css"></style></defs><path d="M355.447225 567.89844a52.369967 52.369967 0 1 1 61.655423-40.484584 51.998549 51.998549 0 0 1-61.655423 40.484584zM408.560029 371.418208a52.369967 52.369967 0 1 1 102.511425 21.170838 51.998549 51.998549 0 0 1-61.655422 40.484585A52.369967 52.369967 0 0 1 408.560029 371.418208zM499.928908 232.879217a52.369967 52.369967 0 0 1 102.511426 21.170837 52.369967 52.369967 0 0 1-62.026841 40.484585 51.998549 51.998549 0 0 1-40.484585-61.655422z" fill="#4E8CEE" p-id="7361"></path><path d="M1048.142184 426.388103l-246.621691 377.3609c-15.599565 24.142184-106.597026 157.109902-171.96663 193.508886a190.166123 190.166123 0 0 1-193.880305 0L50.141458 727.60827C0 679.323903-10.028292 606.154516 10.028292 532.242292l14.856728-46.798694 108.825535 74.283642s125.167936 87.654697 168.623866 111.425462c49.398622 29.342038 168.995285 88.397534 168.995285 88.397534a121.082336 121.082336 0 0 0-21.170838 102.511425 78.74066 78.74066 0 0 0 20.428002 30.827712 88.397534 88.397534 0 0 0 45.684439 34.170475c71.683714 25.256438 173.080885-128.882118 173.080885-128.882119l328.705115-484.700761-486.557853-234.36489-277.077983 422.673921a34.913312 34.913312 0 0 1-41.59884 18.199492c-40.856003-18.57091-12.256801-60.541168-2.971345-74.283641L493.986217 18.199492a82.454842 82.454842 0 0 1 66.483859-16.342401L1039.970983 210.594124c135.196228 59.426913 74.283642 117.739572 8.914037 215.793979z" fill="#A6C5F6" p-id="7362"></path><path d="M820.462822 422.302503l-136.681901-63.512514A47.170112 47.170112 0 0 1 661.124411 297.134567a46.427276 46.427276 0 0 1 61.655422-22.656511L860.575988 334.276387a46.427276 46.427276 0 0 1 22.656511 61.655423v2.228509a47.170112 47.170112 0 0 1-62.026841 22.656511zM721.29416 568.641277l-133.710555-68.712369a46.427276 46.427276 0 0 1-20.056583-62.769677 46.798694 46.798694 0 0 1 63.883932-22.285092L765.121509 482.843671a46.427276 46.427276 0 0 1 20.056583 62.769677 46.427276 46.427276 0 0 1-62.769677 20.056583zM621.754081 716.094305l-131.853464-74.283641a46.427276 46.427276 0 0 1-18.570911-63.141096v-1.857091a46.427276 46.427276 0 0 1 63.141096-18.57091L668.552775 631.410954a46.427276 46.427276 0 0 1 18.199492 63.141095v2.22851a46.798694 46.798694 0 0 1-63.512514 18.199492z" fill="#4E8CEE" p-id="7363"></path></svg>