<?xml version="1.0" standalone="no"?><!DOCTYPE svg PUBLIC "-//W3C//DTD SVG 1.1//EN" "http://www.w3.org/Graphics/SVG/1.1/DTD/svg11.dtd"><svg t="1583996919292" class="icon" viewBox="0 0 1024 1024" version="1.1" xmlns="http://www.w3.org/2000/svg" p-id="6105" xmlns:xlink="http://www.w3.org/1999/xlink" width="200" height="200"><defs><style type="text/css"></style></defs><path d="M629.755542 186.495769a24.711655 24.711655 0 0 1-17.375382-7.336273 55.215103 55.215103 0 0 1-12.355827-16.989263 72.204366 72.204366 0 0 1-7.722392-20.464338 67.184811 67.184811 0 0 1-2.316718-17.375383V0a61.393017 61.393017 0 0 1 16.603143 2.316718 112.746924 112.746924 0 0 1 19.6921 9.65299 286.500746 286.500746 0 0 1 28.186731 20.464339c10.811349 9.26687 24.711655 20.850459 41.314798 35.523003a576.862688 576.862688 0 0 1 42.859276 41.314798 347.507643 347.507643 0 0 1 23.939415 28.57285 56.759582 56.759582 0 0 1 10.425229 19.305981 50.195548 50.195548 0 0 1 1.930598 14.286425v15.058665zM980.738262 686.134536a247.888785 247.888785 0 0 0-52.126146-77.223921 238.235795 238.235795 0 0 0-77.223921-51.740027A241.710872 241.710872 0 0 0 758.33337 540.567445a236.691317 236.691317 0 0 0-93.827063 18.533741 239.394154 239.394154 0 0 0-77.223921 52.126146 256.383417 256.383417 0 0 0-52.512266 77.223921 238.621915 238.621915 0 0 0-19.30598 94.985423 241.324752 241.324752 0 0 0 19.30598 94.985422 253.29446 253.29446 0 0 0 52.512266 77.223921A242.483111 242.483111 0 0 0 758.33337 1023.989189a233.98848 233.98848 0 0 0 93.054825-20.07822 242.096991 242.096991 0 0 0 129.350067-128.963947 252.522221 252.522221 0 0 0 0-189.970845z m-93.440944 121.241555a20.078219 20.078219 0 0 1-16.217023 10.03911h-136.30022a19.30598 19.30598 0 0 1-15.830904-10.03911 42.473156 42.473156 0 0 1-5.019555-35.909123v-110.430207a16.989263 16.989263 0 0 1 7.336273-13.900305 34.364645 34.364645 0 0 1 22.394937-6.177914 38.61196 38.61196 0 0 1 23.553295 6.177914 16.217023 16.217023 0 0 1 8.494632 13.900305v88.03527h95.371542a20.078219 20.078219 0 0 1 16.217023 10.03911 44.789874 44.789874 0 0 1 6.950153 24.325535 41.314798 41.314798 0 0 1-6.950153 23.939415z" fill="#4E8CEE" p-id="6106"></path><path d="M460.635156 752.160988zM630.527782 250.591623a88.807509 88.807509 0 0 1-47.106592-12.355828 100.391097 100.391097 0 0 1-32.820166-30.889568 129.736187 129.736187 0 0 1-18.919861-38.61196A151.358885 151.358885 0 0 1 526.661608 125.102752V0H140.542005a88.807509 88.807509 0 0 0-42.859276 12.355827 152.131124 152.131124 0 0 0-38.611961 31.661808 179.159496 179.159496 0 0 0-24.325535 41.700917A108.499609 108.499609 0 0 0 24.706124 129.350067V810.851167a95.757662 95.757662 0 0 0 13.128066 48.264951 164.873071 164.873071 0 0 0 32.434047 40.928678 178.001137 178.001137 0 0 0 42.087037 28.95897 95.757662 95.757662 0 0 0 41.700917 10.811349h354.457796a311.2124 311.2124 0 0 1-35.909123-74.907203 274.917158 274.917158 0 0 1-13.128067-84.946313v-15.058664a85.718552 85.718552 0 0 1 0-14.286426H213.13249A58.30406 58.30406 0 0 1 168.728736 733.627247a62.165256 62.165256 0 0 1 0-88.421389 61.393017 61.393017 0 0 1 44.403754-18.147622h291.520301A285.342387 285.342387 0 0 1 603.885529 532.845053a272.98656 272.98656 0 0 1 137.458579-35.136884H758.33337a60.234658 60.234658 0 0 1 16.989263 2.316718V250.591623z m2.316717 231.671762a59.848539 59.848539 0 0 1-44.017635 18.147621H213.13249a61.393017 61.393017 0 0 1-44.403754-18.147621 62.165256 62.165256 0 0 1 0-88.421389 59.848539 59.848539 0 0 1 44.403754-18.533741h375.694374a59.076299 59.076299 0 0 1 44.017635 18.533741 61.006897 61.006897 0 0 1 17.761502 44.403754 59.848539 59.848539 0 0 1-17.761502 44.403754z" fill="#A6C5F6" p-id="6107"></path></svg>