<?xml version="1.0" standalone="no"?><!DOCTYPE svg PUBLIC "-//W3C//DTD SVG 1.1//EN" "http://www.w3.org/Graphics/SVG/1.1/DTD/svg11.dtd"><svg t="1583996011407" class="icon" viewBox="0 0 1024 1024" version="1.1" xmlns="http://www.w3.org/2000/svg" p-id="2454" xmlns:xlink="http://www.w3.org/1999/xlink" width="200" height="200"><defs><style type="text/css"></style></defs><path d="M0 0h1024v1024H0z" fill="#FFFFFF" p-id="2455"></path><path d="M512 972c41.176 0 400-199.068 400-508.888C912 238.272 732.912 56 512 56S112 238.268 112 463.112C112 769.248 470.824 972 512 972z" fill="#4DBB88" p-id="2456"></path><path d="M212 463.112a305.332 300 90 1 0 600 0 305.332 300 90 1 0-600 0Z" fill="#FFFFFF" p-id="2457"></path><path d="M542 429.184h80c22.092 0 40 17.908 40 40v4.816c0 22.092-17.908 40-40 40h-120c-22.092 0-40-17.908-40-40V299.556c0-22.092 17.908-40 40-40s40 17.908 40 40v129.628z" fill="#4DBB88" p-id="2458"></path></svg>