<?xml version="1.0" standalone="no"?><!DOCTYPE svg PUBLIC "-//W3C//DTD SVG 1.1//EN" "http://www.w3.org/Graphics/SVG/1.1/DTD/svg11.dtd"><svg t="1583996018643" class="icon" viewBox="0 0 1024 1024" version="1.1" xmlns="http://www.w3.org/2000/svg" p-id="2747" xmlns:xlink="http://www.w3.org/1999/xlink" width="200" height="200"><defs><style type="text/css"></style></defs><path d="M0 0h1024v1024H0z" fill="#FFFFFF" p-id="2748"></path><path d="M454.856 659.076h114.284v171.692H454.856z" fill="#FF8E2B" p-id="2749"></path><path d="M340.572 773.54m57.144 0l228.568 0q57.144 0 57.144 57.144l0 0.172q0 57.144-57.144 57.144l-228.568 0q-57.144 0-57.144-57.144l0-0.172q0-57.144 57.144-57.144Z" fill="#FF8E2B" p-id="2750"></path><path d="M740.572 258.46h114.284c31.56 0 57.144 25.584 57.144 57.144v114.724c0 63.12-51.168 114.288-114.284 114.288h-57.144V258.46zM169.144 258.46h114.284v286.156H226.284C163.164 544.616 112 493.448 112 430.328v-114.72c0-31.56 25.584-57.148 57.144-57.148z" fill="#FFC695" p-id="2751"></path><path d="M340.572 144h342.856c63.12 0 114.288 51.168 114.288 114.284v172.308c0 157.8-127.92 285.716-285.716 285.716s-285.716-127.92-285.716-285.716V258.284C226.284 195.164 277.452 144 340.572 144z" fill="#FF8E2B" p-id="2752"></path><path d="M539.136 278.696l0.048 0.048a28.572 28.572 0 0 1 0 40.372L458.32 400.1a28.548 28.548 0 0 1-40.408 0l-0.044-0.048a28.572 28.572 0 0 1 0-40.372l80.856-80.984a28.548 28.548 0 0 1 40.408 0zM636.684 393.16l0.048 0.044a28.572 28.572 0 0 1 0 40.376l-121.264 121.452a28.548 28.548 0 0 1-40.408 0l-0.048-0.048a28.572 28.572 0 0 1 0-40.376L596.28 393.16a28.548 28.548 0 0 1 40.404 0z" fill="#FFFFFF" opacity=".5" p-id="2753"></path></svg>