<?xml version="1.0" standalone="no"?><!DOCTYPE svg PUBLIC "-//W3C//DTD SVG 1.1//EN" "http://www.w3.org/Graphics/SVG/1.1/DTD/svg11.dtd"><svg t="1583997035022" class="icon" viewBox="0 0 1104 1024" version="1.1" xmlns="http://www.w3.org/2000/svg" p-id="10733" xmlns:xlink="http://www.w3.org/1999/xlink" width="215.625" height="200"><defs><style type="text/css"></style></defs><path d="M496.609393 345.105747L871.695547 18.317291A84.131474 84.131474 0 0 0 817.944883 0.010906H84.131474A81.404991 81.404991 0 0 0 27.264829 22.991262l371.191178 322.503983a77.899513 77.899513 0 0 0 98.153386 0z" fill="#4E8CEE" p-id="10734"></path><path d="M548.802067 463.513006a375.086154 375.086154 0 0 1 262.910855-109.059317 384.044597 384.044597 0 0 1 92.310923 11.295429V100.11178l-2.336986 1.947488a50.245186 50.245186 0 0 1-6.231961 3.505478l-350.547807 303.029104a155.799025 155.799025 0 0 1-197.085767 0L0 105.954243v523.874223a86.078962 86.078962 0 0 0 83.741976 77.899513h356.390271a370.022685 370.022685 0 0 1 29.212317-129.313191 364.569719 364.569719 0 0 1 77.899513-116.849269z" fill="#A6C5F6" p-id="10735"></path><path d="M965.56446 219.298034z" fill="#CCCCCC" p-id="10736"></path><path d="M1104.61509 727.592354a296.407646 296.407646 0 1 0-296.407646 296.407646 296.018148 296.018148 0 0 0 296.407646-296.407646z" fill="#4E8CEE" p-id="10737"></path><path d="M791.069551 879.496404c-6.621459-7.789951-14.021912-17.137893-22.590858-28.82282l-26.096337-35.444278-26.875332-36.223273c-8.958444-12.074424-16.748395-22.201361-23.759351-30.770308s-11.295429-17.137893-9.347942-23.369854 7.400454-8.958444 17.52739-8.958444h45.960713c7.010956 0 11.295429-1.947488 13.242917-6.231961a49.466191 49.466191 0 0 0 2.336985-16.748395v-53.750664-28.433322-26.096336a102.827357 102.827357 0 0 1 0-10.905932 30.770308 30.770308 0 0 1 3.894976-10.516434 22.590859 22.590859 0 0 1 8.179449-7.789952 28.043825 28.043825 0 0 1 14.800907-3.11598h41.286742a27.264829 27.264829 0 0 1 23.369854 8.179449 47.518703 47.518703 0 0 1 6.621458 25.706839v97.763888a80.625996 80.625996 0 0 0 3.115981 24.148849 12.074424 12.074424 0 0 0 14.021912 8.568947h38.560259c9.347942 0 15.579903 2.336985 18.306385 7.400453s0 11.684927-5.842463 19.474878l-22.590859 30.38081c-8.958444 11.684927-17.916888 24.148849-26.875332 36.612771s-18.306385 25.317342-27.264829 37.002269-16.748395 22.590859-23.759351 31.159805a26.096337 26.096337 0 0 1-17.916888 12.463922 25.317342 25.317342 0 0 1-17.916888-11.295429z" fill="#FFFFFF" p-id="10738"></path></svg>