<?xml version="1.0" standalone="no"?><!DOCTYPE svg PUBLIC "-//W3C//DTD SVG 1.1//EN" "http://www.w3.org/Graphics/SVG/1.1/DTD/svg11.dtd"><svg t="1583996039258" class="icon" viewBox="0 0 1024 1024" version="1.1" xmlns="http://www.w3.org/2000/svg" p-id="3483" xmlns:xlink="http://www.w3.org/1999/xlink" width="200" height="200"><defs><style type="text/css"></style></defs><path d="M0 0h1024v1024H0z" fill="#FFFFFF" p-id="3484"></path><path d="M645.332 200.888v-22.22C645.332 141.848 675.18 112 712 112c36.82 0 66.668 29.848 66.668 66.668v22.22c73.64 0 133.332 59.696 133.332 133.336H112c0-73.64 59.696-133.336 133.332-133.336v-22.22C245.332 141.848 275.18 112 312 112c36.82 0 66.668 29.848 66.668 66.668v22.22h266.664zM112 423.112h800v311.112C912 832.408 832.408 912 734.224 912H289.776C191.592 912 112 832.408 112 734.224v-311.112z m379.36 251.416l-62.856-62.856c-17.36-17.356-45.5-17.356-62.856 0-17.356 17.36-17.356 45.5 0 62.856l94.28 94.28a44.304 44.304 0 0 0 31.428 13.016c11.376 0 22.748-4.336 31.428-13.016l157.136-157.136c17.356-17.356 17.356-45.496 0-62.852-17.36-17.36-45.5-17.36-62.856 0l-125.708 125.708z" fill="#4B96F9" p-id="3485"></path></svg>