<?xml version="1.0" standalone="no"?><!DOCTYPE svg PUBLIC "-//W3C//DTD SVG 1.1//EN" "http://www.w3.org/Graphics/SVG/1.1/DTD/svg11.dtd"><svg t="1583997129859" class="icon" viewBox="0 0 1117 1024" version="1.1" xmlns="http://www.w3.org/2000/svg" p-id="14373" xmlns:xlink="http://www.w3.org/1999/xlink" width="218.1640625" height="200"><defs><style type="text/css"></style></defs><path d="M1074.96112 722.612753l-7.962675-7.166408a106.699844 106.699844 0 0 1-31.8507-72.858476 104.709176 104.709176 0 0 1 28.267496-73.654743l7.564541-7.166407a43.396579 43.396579 0 0 0 10.351478-44.192847 370.264386 370.264386 0 0 0-21.101089-39.813374 287.8507 287.8507 0 0 0-25.082426-37.822706 42.600311 42.600311 0 0 0-42.600311-11.944013l-10.351478 3.18507A107.097978 107.097978 0 0 1 854.793157 358.320373l-2.388802-10.351477A44.192846 44.192846 0 0 0 820.155521 318.506998a276.304821 276.304821 0 0 0-45.785381 0 306.164852 306.164852 0 0 0-45.387247 0 44.192846 44.192846 0 0 0-31.8507 30.656299l-2.388803 10.749611a105.505443 105.505443 0 0 1-47.776049 62.108865 108.292379 108.292379 0 0 1-79.62675 12.342146l-9.953344-1.990669a43.794712 43.794712 0 0 0-42.202177 12.74028 341.200622 341.200622 0 0 0-24.684292 39.813375 320.497667 320.497667 0 0 0-20.304822 39.813375 44.192846 44.192846 0 0 0 11.147745 42.998445l7.962675 7.166407a106.699844 106.699844 0 0 1 0 146.513219l-7.564541 7.166408a42.998445 42.998445 0 0 0-9.953344 42.998445 275.906687 275.906687 0 0 0 21.101089 39.813375 284.66563 284.66563 0 0 0 25.48056 39.813374 44.192846 44.192846 0 0 0 42.600311 11.944013l9.55521-3.18507a106.699844 106.699844 0 0 1 127.800933 72.062208l2.786936 10.351478a44.192846 44.192846 0 0 0 32.248834 30.258165 320.895801 320.895801 0 0 0 45.785381 0 245.648523 245.648523 0 0 0 45.387247-2.786937 42.600311 42.600311 0 0 0 31.452566-30.656298l2.388803-10.351478a106.699844 106.699844 0 0 1 48.174183-62.506998 105.505443 105.505443 0 0 1 77.636081-11.944013l9.953344 2.786937a42.998445 42.998445 0 0 0 42.202177-12.74028 295.415241 295.415241 0 0 0 24.684293-39.813375 250.824261 250.824261 0 0 0 19.906687-39.813375 42.998445 42.998445 0 0 0-5.972006-42.202177z m-227.33437 37.424572a133.374806 133.374806 0 1 1 46.183514-182.345257 132.976672 132.976672 0 0 1-47.776049 182.345257z" fill="#4E8CEE" p-id="14374"></path><path d="M378.227061 812.192846a57.729393 57.729393 0 0 1 13.138413-55.738725l10.351478-9.55521A142.133748 142.133748 0 0 0 437.947123 648.958009a131.782271 131.782271 0 0 0-5.573873-39.813374H168.410575a79.62675 79.62675 0 0 1-76.839813-79.62675v-358.320373a79.62675 79.62675 0 0 1 76.839813-79.62675h780.74028a79.62675 79.62675 0 0 1 76.839814 79.62675v193.094867a159.253499 159.253499 0 0 0 19.906687-3.583203l13.536548-3.981338a55.738725 55.738725 0 0 1 42.600311 5.175739V93.959565a74.849145 74.849145 0 0 0-74.849145-79.62675H88.783826a79.62675 79.62675 0 0 0-76.839814 79.62675v676.827371a79.62675 79.62675 0 0 0 76.839814 79.62675H398.133748a337.219285 337.219285 0 0 1-18.712286-37.424572z m234.102644 129.393468a140.143079 140.143079 0 0 0-103.514775-14.332815l-12.74028 4.379471a57.729393 57.729393 0 0 1-56.136858-15.925349 318.506998 318.506998 0 0 1-28.66563-42.202178 506.824261 506.824261 0 0 0-68.479005 55.738725c-32.646967 0-59.720062 17.517885-59.720062 39.813375s27.073095 39.813375 59.720062 39.813375h329.654743a139.744946 139.744946 0 0 0-60.118195-66.88647z m0 0" fill="#A6C5F6" p-id="14375"></path></svg>