<?xml version="1.0" standalone="no"?><!DOCTYPE svg PUBLIC "-//W3C//DTD SVG 1.1//EN" "http://www.w3.org/Graphics/SVG/1.1/DTD/svg11.dtd"><svg t="1583995832498" class="icon" viewBox="0 0 1024 1024" version="1.1" xmlns="http://www.w3.org/2000/svg" p-id="1091" xmlns:xlink="http://www.w3.org/1999/xlink" width="200" height="200"><defs><style type="text/css"></style></defs><path d="M491.698087 0c271.538087 0 491.653565 220.115478 491.653565 491.698087v7.034435c0 81.563826-19.856696 158.497391-55.028869 226.214956l50.265043 46.525218a142.024348 142.024348 0 0 1 0.133565 208.317217 165.264696 165.264696 0 0 1-224.701217 0.133565l-43.853913-40.603826a489.650087 489.650087 0 0 1-218.468174 51.110957C220.115478 990.430609 0 770.226087 0 498.732522v-7.034435C0 220.115478 220.115478 0 491.698087 0z m28.894609 282.35687a40.247652 40.247652 0 0 0-57.789218 0l-182.450087 183.696695a40.96 40.96 0 0 0 0 58.189913l182.450087 183.741218c15.226435 16.428522 41.583304 16.428522 57.789218 0l182.450087-183.741218a40.96 40.96 0 0 0 0-58.189913z m-28.939131 278.349913c3.606261 0 6.277565 1.068522 8.904348 2.003478 2.671304 1.068522 5.342609 3.072 7.212522 5.164522 1.78087 2.003478 3.561739 4.140522 4.496695 7.168 0.934957 3.072 1.78087 6.144 1.78087 9.171478 0 3.116522-0.934957 6.144-1.78087 9.171478a18.031304 18.031304 0 0 1-4.452173 7.212522 22.706087 22.706087 0 0 1-16.11687 7.168c-3.606261 0-6.233043-1.068522-8.904348-2.003478-2.671304-1.068522-4.541217-3.072-7.212522-5.164522-1.78087-2.003478-3.561739-4.140522-4.496695-7.212522-0.845913-2.938435-1.78087-5.030957-1.78087-9.171478 0-3.027478 0.934957-6.099478 1.78087-9.171478a18.031304 18.031304 0 0 1 4.496695-7.123479 22.706087 22.706087 0 0 1 16.11687-7.168z m-0.979478-178.086957a47.682783 47.682783 0 0 1 45.412174 62.19687l-24.486957 77.06713-1.558261 3.739826a21.949217 21.949217 0 0 1-40.247652-3.739826L445.217391 444.772174l-1.29113-5.030957a47.638261 47.638261 0 0 1 46.747826-57.076869z" fill="#F5906C" p-id="1092"></path></svg>