<?xml version="1.0" standalone="no"?><!DOCTYPE svg PUBLIC "-//W3C//DTD SVG 1.1//EN" "http://www.w3.org/Graphics/SVG/1.1/DTD/svg11.dtd"><svg t="1583997286641" class="icon" viewBox="0 0 1024 1024" version="1.1" xmlns="http://www.w3.org/2000/svg" p-id="2807" xmlns:xlink="http://www.w3.org/1999/xlink" width="200" height="200"><defs><style type="text/css"></style></defs><path d="M217.696757 1023.696211a17.240029 17.240029 0 0 1-17.072945-14.278086L28.269091 59.165957A48.454355 48.454355 0 0 1 78.272769 0.078985h806.195398a17.255218 17.255218 0 0 1 15.022369 25.82207l-142.11252 269.308999a66.833592 66.833592 0 0 0 8.88583 78.83326l226.322847 234.221362a17.270408 17.270408 0 0 1-12.728762 29.011855H314.21054a67.046245 67.046245 0 0 0-65.922225 78.681366l49.456858 287.536342a17.361545 17.361545 0 0 1-3.797363 14.126191 17.148892 17.148892 0 0 1-13.245203 6.075781h-63.00585z m6.075781-459.177159a95.389764 95.389764 0 0 1 58.84394-18.531132h519.874213s-49.350532-53.922558-138.224021-147.337693c-28.85996-30.227011-19.1539-88.706404-3.812553-122.578884 52.342854-115.439841 90.817738-185.463219 90.817739-185.463219h-613.653894z" fill="#F47558" p-id="2808"></path></svg>