<?xml version="1.0" standalone="no"?><!DOCTYPE svg PUBLIC "-//W3C//DTD SVG 1.1//EN" "http://www.w3.org/Graphics/SVG/1.1/DTD/svg11.dtd"><svg t="1583996007361" class="icon" viewBox="0 0 1024 1024" version="1.1" xmlns="http://www.w3.org/2000/svg" p-id="2308" xmlns:xlink="http://www.w3.org/1999/xlink" width="200" height="200"><defs><style type="text/css"></style></defs><path d="M0 0h1024v1024H0z" fill="#FFFFFF" p-id="2309"></path><path d="M549.804 882.932h162.236a28.532 28.532 0 0 1 0 57.068H311.96a28.532 28.532 0 1 1 0-57.068h172.732L138.04 282.504C242.32 125.876 367.624 74.28 513.944 127.716c115.5 42.18 217.64 35.52 306.412-19.984 26.76-16.728 62.012-8.6 78.744 18.16a57.144 57.144 0 0 1 8.424 24.78c15.2 156.84-56.06 266.692-213.776 329.548-139.396 55.556-213.676 143.62-222.84 264.2l76.02 131.572a28.6 28.6 0 0 1 2.876 6.94z" fill="#F85757" p-id="2310"></path><path d="M304.076 273.2a28.572 28.572 0 0 1-41.296-39.5C304.048 190.56 365.3 169.56 444.804 169.56a28.572 28.572 0 0 1 0 57.144c-65.116 0-111.448 15.88-140.728 46.496z" fill="#FBABAB" p-id="2311"></path></svg>