<?xml version="1.0" standalone="no"?><!DOCTYPE svg PUBLIC "-//W3C//DTD SVG 1.1//EN" "http://www.w3.org/Graphics/SVG/1.1/DTD/svg11.dtd"><svg t="1583996967342" class="icon" viewBox="0 0 1024 1024" version="1.1" xmlns="http://www.w3.org/2000/svg" p-id="8065" xmlns:xlink="http://www.w3.org/1999/xlink" width="200" height="200"><defs><style type="text/css"></style></defs><path d="M811.161121 425.294953h-149.676261v99.911776h149.676261a99.528972 99.528972 0 0 1 99.911776 99.528972v199.823551a99.528972 99.528972 0 0 1-99.911776 99.528972H212.456075a99.146168 99.146168 0 0 1-99.528972-99.528972v-199.823551a99.146168 99.146168 0 0 1 99.528972-99.528972h149.676261v-99.911776H212.456075A199.440748 199.440748 0 0 0 13.015327 624.735701v199.823551a199.440748 199.440748 0 0 0 199.440748 199.440748h598.705046a199.823551 199.823551 0 0 0 199.823552-199.440748v-199.823551a199.823551 199.823551 0 0 0-199.823552-199.440748z" fill="#A6C5F6" p-id="8066"></path><path d="M510.660187 0L213.221682 298.96972h199.057944v299.352523h199.440748V298.96972h199.057944z" fill="#4E8CEE" p-id="8067"></path></svg>