<?xml version="1.0" standalone="no"?><!DOCTYPE svg PUBLIC "-//W3C//DTD SVG 1.1//EN" "http://www.w3.org/Graphics/SVG/1.1/DTD/svg11.dtd"><svg t="1583996988595" class="icon" viewBox="0 0 1024 1024" version="1.1" xmlns="http://www.w3.org/2000/svg" p-id="8906" xmlns:xlink="http://www.w3.org/1999/xlink" width="200" height="200"><defs><style type="text/css"></style></defs><path d="M667.093104 468.289169a302.226625 302.226625 0 0 1-4.32267-50.791364 302.94707 302.94707 0 0 0-45.388027-170.024991 213.972128 213.972128 0 0 0-117.072292-87.173829 112.3894 112.3894 0 0 0 15.489565-56.194701 97.620281 97.620281 0 0 0-8.285116-39.624468 110.948511 110.948511 0 0 0-21.973569-33.140464 99.06117 99.06117 0 0 0-32.059797-22.333791 105.545174 105.545174 0 0 0-112.749623 20.892901 97.980503 97.980503 0 0 0-30.258684 72.044488 108.066731 108.066731 0 0 0 17.650899 57.275367 213.611905 213.611905 0 0 0-112.3894 87.534053A301.145958 301.145958 0 0 0 172.86792 416.056915a381.475561 381.475561 0 0 1-14.408898 105.905397 587.162573 587.162573 0 0 1-36.022244 95.458946 864.53385 864.53385 0 0 1-44.667582 83.571605c-15.849787 25.575793-29.53824 49.350474-41.42558 72.044488a31.699574 31.699574 0 0 0-4.322669 30.979129 23.054236 23.054236 0 0 0 21.973568 11.887341H425.023626a130.760745 130.760745 0 0 1 0-36.022244 108.066731 108.066731 0 0 1 8.285116-28.09735 36.022244 36.022244 0 0 1 9.365783-10.086228 17.290677 17.290677 0 0 1 12.968008-3.242002 36.022244 36.022244 0 0 0 36.022244-17.290677 316.995745 316.995745 0 0 0 20.532679-41.425581c2.881779-7.204449 5.403337-12.968008 7.204448-16.930454a16.21001 16.21001 0 0 0 0-10.446451 23.054236 23.054236 0 0 0-5.403336-9.365783l-12.247563-13.688453a32.780242 32.780242 0 0 1-2.161335-33.140464 76.006934 76.006934 0 0 1 10.446451-17.290677 149.492312 149.492312 0 0 1 16.21001-17.6509 131.48119 131.48119 0 0 1 18.011122-14.408897 47.549362 47.549362 0 0 1 18.371344-7.204449 15.489565 15.489565 0 0 1 12.247563 0 59.796925 59.796925 0 0 1 9.726006 8.285116 21.613346 21.613346 0 0 0 15.489564 8.645339 37.823356 37.823356 0 0 0 16.570232-4.32267 134.362969 134.362969 0 0 0 18.731567-11.166895 113.109845 113.109845 0 0 1 21.973569-10.806673 28.09735 28.09735 0 0 0 10.806673-5.763559l8.285116-7.564671a452.079159 452.079159 0 0 1-9.365783-48.630029z m-229.10147-342.931761a36.022244 36.022244 0 0 1-22.694014 10.446451h-2.161335a37.823356 37.823356 0 0 1-24.134903-10.446451 32.059797 32.059797 0 0 1-9.365783-22.694013 33.860909 33.860909 0 0 1 9.365783-24.134904 32.420019 32.420019 0 0 1 24.855348-10.086228 31.699574 31.699574 0 0 1 23.414459 10.086228 32.420019 32.420019 0 0 1 9.726005 24.134904 32.059797 32.059797 0 0 1-9.00556 22.694013z" fill="#A6C5F6" p-id="8907"></path><path d="M499.229448 883.985861a6.484004 6.484004 0 0 1 2.161335 3.602225 63.759371 63.759371 0 0 1 1.801112 44.667582 66.280928 66.280928 0 0 1-22.694014 33.500687 3.242002 3.242002 0 0 0 0 1.801112h-2.161334a119.233627 119.233627 0 0 1-59.796925 16.570232 108.066731 108.066731 0 0 1-55.114033-15.849787A279.532611 279.532611 0 0 1 316.956895 936.578337a226.940136 226.940136 0 0 1-30.618908-36.022244c-7.564671-10.806673-9.726006-16.21001-6.844226-16.210009zM990.572852 756.467118a14.048675 14.048675 0 0 0-6.844226-7.564671 10.806673 10.806673 0 0 0-8.645338 0 76.367157 76.367157 0 0 1-32.780242-6.844226 45.027805 45.027805 0 0 1-21.253124-22.694014 52.952698 52.952698 0 0 1-1.801112-31.699574 48.630029 48.630029 0 0 1 15.849787-25.936016 9.726006 9.726006 0 0 0 4.682892-4.682891 16.21001 16.21001 0 0 0 2.161334-7.204449 51.511809 51.511809 0 0 0-15.489564-29.898462 85.372718 85.372718 0 0 0-25.575793-18.731567 12.968008 12.968008 0 0 0-10.446451 0 25.575793 25.575793 0 0 0-9.365784 5.403337 44.667582 44.667582 0 0 1-25.21557 14.408897 51.511809 51.511809 0 0 1-30.97913-3.242002 44.667582 44.667582 0 0 1-23.054236-20.532679 46.828917 46.828917 0 0 1-6.844226-28.09735 36.022244 36.022244 0 0 0 0-10.086228 11.527118 11.527118 0 0 0-7.204449-7.564671 92.937389 92.937389 0 0 0-30.258685-6.123782 47.189139 47.189139 0 0 0-33.860909 8.285116 10.806673 10.806673 0 0 0-2.881779 6.123782 42.506248 42.506248 0 0 1 0 7.204448 110.948511 110.948511 0 0 1-9.005561 23.774681 45.027805 45.027805 0 0 1-23.054236 23.774681 53.673143 53.673143 0 0 1-30.97913 0 56.1947 56.1947 0 0 1-26.296238-14.76912 16.570232 16.570232 0 0 0-14.408897-6.844226 39.624468 39.624468 0 0 0-24.495126 14.048675 81.770493 81.770493 0 0 0-16.570232 23.774681 36.022244 36.022244 0 0 0-2.161335 12.607785 10.806673 10.806673 0 0 0 3.242002 9.365783 64.840039 64.840039 0 0 1 16.570232 27.737128 40.344913 40.344913 0 0 1 0 31.699575 41.785803 41.785803 0 0 1-22.333791 22.694013 81.410271 81.410271 0 0 1-32.780241 7.204449 8.285116 8.285116 0 0 0-7.204449 1.801112 17.290677 17.290677 0 0 0-6.123782 7.204449 67.361596 67.361596 0 0 0-7.204448 32.420019 44.667582 44.667582 0 0 0 7.204448 30.258685 29.898462 29.898462 0 0 0 12.247563 5.763559 88.61472 88.61472 0 0 1 36.022244 14.048675 30.258685 30.258685 0 0 1 11.166896 15.489565 44.30736 44.30736 0 0 1 0 28.817795A50.070919 50.070919 0 0 1 569.112601 900.556093a28.457573 28.457573 0 0 0-9.365784 10.086229 11.166896 11.166896 0 0 0 0 7.564671 61.958259 61.958259 0 0 0 15.849788 27.737127 90.415832 90.415832 0 0 0 24.855348 20.892902 19.812234 19.812234 0 0 0 23.054236-3.242002 50.070919 50.070919 0 0 1 27.016683-16.570232 50.791364 50.791364 0 0 1 32.780241 2.161334 45.74825 45.74825 0 0 1 23.054236 21.973569 61.237814 61.237814 0 0 1 6.844227 30.97913 14.408897 14.408897 0 0 0 8.645338 15.489565 82.851161 82.851161 0 0 0 30.97913 6.123781 50.070919 50.070919 0 0 0 27.376905-5.043114 19.812234 19.812234 0 0 0 9.005561-18.731567 62.318482 62.318482 0 0 1 7.204449-29.178017 38.183578 38.183578 0 0 1 22.694013-19.452012 44.667582 44.667582 0 0 1 31.339352 0 54.393588 54.393588 0 0 1 22.694014 13.688453 28.457573 28.457573 0 0 0 8.285116 6.123781A36.022244 36.022244 0 0 0 893.312794 972.600581a47.909584 47.909584 0 0 0 27.016683-16.21001 52.952698 52.952698 0 0 0 17.290677-27.016683 21.973569 21.973569 0 0 0-3.602224-12.247562 27.376905 27.376905 0 0 1-3.242002-6.484004 45.388027 45.388027 0 0 1-14.76912-25.936016 54.75381 54.75381 0 0 1 2.881779-30.258685 47.189139 47.189139 0 0 1 21.253124-23.77468 57.275368 57.275368 0 0 1 32.780242-7.204449 20.172456 20.172456 0 0 0 9.365783-2.88178 16.570232 16.570232 0 0 0 7.204449-10.44645 100.50206 100.50206 0 0 0 4.322669-29.178018 61.598037 61.598037 0 0 0-3.242002-24.495126z m-166.782988 60.51737a83.211383 83.211383 0 0 1-41.785803 43.226692 72.044487 72.044487 0 0 1-60.877592 0A72.044487 72.044487 0 0 1 677.179332 815.543598a76.727379 76.727379 0 0 1 45.388027-99.781615 76.367157 76.367157 0 0 1 59.07648 0 69.883153 69.883153 0 0 1 24.134903 17.650899 96.539613 96.539613 0 0 1 15.849787 24.134904 64.840039 64.840039 0 0 1 6.123782 28.817795 82.490938 82.490938 0 0 1-3.962447 30.258684z" fill="#4E8CEE" p-id="8908"></path></svg>