<?xml version="1.0" standalone="no"?><!DOCTYPE svg PUBLIC "-//W3C//DTD SVG 1.1//EN" "http://www.w3.org/Graphics/SVG/1.1/DTD/svg11.dtd"><svg t="1583996373162" class="icon" viewBox="0 0 1024 1024" version="1.1" xmlns="http://www.w3.org/2000/svg" p-id="2318" xmlns:xlink="http://www.w3.org/1999/xlink" width="200" height="200"><defs><style type="text/css"></style></defs><path d="M277.924467 84.262575A1376.918493 1376.918493 0 0 0 409.797287 4.15645a18.515095 18.515095 0 0 1 29.850867 15.492222v387.683418a18.892954 18.892954 0 0 1-18.515095 18.892954H47.430428a18.892954 18.892954 0 0 1-18.892954-17.381518 2172.311859 2172.311859 0 0 1 0-281.127156A18.892954 18.892954 0 0 1 53.854032 113.357724a264.501357 264.501357 0 0 0 224.070435-27.205853zM704.149511 84.262575A1527.306407 1527.306407 0 0 1 572.276692 3.400732a18.892954 18.892954 0 0 0-29.473009 15.492222v388.816995a18.515095 18.515095 0 0 0 18.515095 18.515095h373.324773a18.892954 18.892954 0 0 0 18.515095-17.381518 2098.629338 2098.629338 0 0 0 0-280.749297 18.892954 18.892954 0 0 0-25.316559-14.736505A264.501357 264.501357 0 0 1 704.149511 84.262575z" fill="#A6C5F6" p-id="2319"></path><path d="M106.376444 734.935913a677.123474 677.123474 0 0 0 306.065856 282.638593 18.515095 18.515095 0 0 0 26.450136-16.625799v-453.430898a18.515095 18.515095 0 0 0-18.515095-18.892954H64.811945a18.892954 18.892954 0 0 0-18.515095 22.293686 612.131712 612.131712 0 0 0 60.079594 182.883795z" fill="#4E8CEE" p-id="2320"></path><path d="M644.825635 768.943231a46.476667 46.476667 0 0 1 46.476667-46.476667v-21.915827a146.609324 146.609324 0 0 1 215.379677-129.227806 18.515095 18.515095 0 0 0 27.205854-13.225068v-3.400731a18.892954 18.892954 0 0 0-18.515095-22.293686h-355.187537a18.892954 18.892954 0 0 0-18.892954 18.892954v453.430898a18.892954 18.892954 0 0 0 26.450136 17.003658 689.970683 689.970683 0 0 0 66.125339-35.140894 18.892954 18.892954 0 0 0 9.068618-16.247941v-201.39889z" fill="#A6C5F6" p-id="2321"></path><path d="M965.627996 755.718163H715.485284a34.763035 34.763035 0 0 0-34.763036 34.385176v199.887454a34.385176 34.385176 0 0 0 34.763036 34.007318h250.142712a34.007317 34.007317 0 0 0 34.385176-34.007318v-199.509595a34.007317 34.007317 0 0 0-34.385176-34.007317z m-103.533389 139.80786V944.647704a19.648672 19.648672 0 0 1-19.648672 19.648672h-3.778591A19.648672 19.648672 0 0 1 817.507236 944.647704v-37.785909a18.892954 18.892954 0 0 0-6.423605-13.980786 41.942358 41.942358 0 0 1-14.736504-32.495881 42.698076 42.698076 0 0 1 21.160109-37.785908 43.831653 43.831653 0 0 1 43.075935 0 42.698076 42.698076 0 0 1 21.160108 37.785908 41.942358 41.942358 0 0 1-21.160108 37.785909z m-98.62122-172.6816a18.892954 18.892954 0 0 0 18.892954-18.892954 58.190299 58.190299 0 0 1 116.380597 0 18.515095 18.515095 0 0 0 18.515095 18.892954h7.179323a18.515095 18.515095 0 0 0 18.515095-18.515095 102.77767 102.77767 0 1 0-205.177482 0 18.515095 18.515095 0 0 0 18.515095 18.515095z" fill="#4E8CEE" p-id="2322"></path></svg>