<?xml version="1.0" standalone="no"?><!DOCTYPE svg PUBLIC "-//W3C//DTD SVG 1.1//EN" "http://www.w3.org/Graphics/SVG/1.1/DTD/svg11.dtd"><svg t="1583997013064" class="icon" viewBox="0 0 1024 1024" version="1.1" xmlns="http://www.w3.org/2000/svg" p-id="9891" xmlns:xlink="http://www.w3.org/1999/xlink" width="200" height="200"><defs><style type="text/css"></style></defs><path d="M371.852635 334.016395a19.669854 19.669854 0 0 0 18.927596 20.040984 111.338798 111.338798 0 0 0 96.493625 105.771858 111.338798 111.338798 0 0 0 96.493625-105.771858 19.669854 19.669854 0 0 0 19.669854-20.040984 20.783242 20.783242 0 0 0-11.133879-18.556466 126.183971 126.183971 0 0 0 5.938069-37.112933 114.307833 114.307833 0 0 0-111.338798-117.276868 114.307833 114.307833 0 0 0-111.338799 117.276868 126.183971 126.183971 0 0 0 5.938069 37.112933 20.040984 20.040984 0 0 0-11.133879 18.556466zM537.747444 648.734065H252.720121a10.391621 10.391621 0 0 1-10.020492-10.391621v-37.112933A10.391621 10.391621 0 0 1 246.410922 593.806924a352.943991 352.943991 0 0 1 163.668034-90.555556h5.938069a12.247268 12.247268 0 0 1 5.195811 0 145.853826 145.853826 0 0 0 67.174408 14.845173 145.853826 145.853826 0 0 0 67.174408-14.845173 12.247268 12.247268 0 0 1 4.824681 0h5.56694a10.391621 10.391621 0 0 1 4.824682 0 348.861568 348.861568 0 0 1 82.39071 32.288252" fill="#4E8CEE" p-id="9892"></path><path d="M742.239704 18.556466H200.019756A120.245902 120.245902 0 0 0 79.402725 139.173498V801.639348a120.245902 120.245902 0 0 0 120.617031 120.617031h270.924409v-60.122951h-270.924409a60.49408 60.49408 0 0 1-60.49408-60.49408V139.173498a60.49408 60.49408 0 0 1 60.49408-60.494081h542.219948A60.49408 60.49408 0 0 1 803.104914 139.173498v361.479965h59.380692V139.173498A120.245902 120.245902 0 0 0 742.239704 18.556466z" fill="#A6C5F6" p-id="9893"></path><path d="M489.500632 940.812846h-289.480876A139.173498 139.173498 0 0 1 60.846258 801.639348V139.173498A139.173498 139.173498 0 0 1 200.019756 0h542.219948a139.173498 139.173498 0 0 1 138.802369 139.173498V519.581059h-97.235884V139.173498a41.937614 41.937614 0 0 0-41.566485-41.937614H200.019756a42.308743 42.308743 0 0 0-41.937614 41.937614V801.639348a42.308743 42.308743 0 0 0 41.937614 41.937614h289.480876zM200.019756 37.112933A102.060565 102.060565 0 0 0 97.959191 139.173498V801.639348a102.060565 102.060565 0 0 0 102.060565 102.060565h252.367943v-23.010018h-252.367943a79.421676 79.421676 0 0 1-79.050547-79.050547V139.173498a79.421676 79.421676 0 0 1 79.050547-79.050547h542.219948a79.050547 79.050547 0 0 1 78.679417 79.050547V482.468126h23.010019V139.173498A102.060565 102.060565 0 0 0 742.239704 37.112933z" fill="#A6C5F6" p-id="9894"></path><path d="M938.938248 853.597454a37.112933 37.112933 0 0 0-15.216303-2.597906h-309.15073a34.886157 34.886157 0 0 0 0 69.401185H840.217847l-43.051003 42.679872a37.112933 37.112933 0 0 0 0 50.844718 37.112933 37.112933 0 0 0 50.844718 0L951.556645 910.75137a37.112933 37.112933 0 0 0 10.020492-32.288251 37.112933 37.112933 0 0 0-21.525501-26.350183zM926.319851 711.083792h-225.275502L743.724221 668.03279a37.112933 37.112933 0 0 0-51.958106-50.473589l-101.689435 101.689436A37.112933 37.112933 0 0 0 602.695077 779.371588a37.112933 37.112933 0 0 0 14.845173 0h308.408471a34.515027 34.515027 0 0 0 0-69.030055z" fill="#4E8CEE" p-id="9895"></path></svg>