<?xml version="1.0" standalone="no"?><!DOCTYPE svg PUBLIC "-//W3C//DTD SVG 1.1//EN" "http://www.w3.org/Graphics/SVG/1.1/DTD/svg11.dtd"><svg t="1583995826035" class="icon" viewBox="0 0 1024 1024" version="1.1" xmlns="http://www.w3.org/2000/svg" p-id="953" xmlns:xlink="http://www.w3.org/1999/xlink" width="200" height="200"><defs><style type="text/css"></style></defs><path d="M786.602667 0c4.778667 0 8.704 3.84 8.704 8.533333v74.282667c0 4.693333 3.925333 8.533333 8.746666 8.533333h75.605334c4.821333 0 8.746667 3.882667 8.746666 8.618667V174.08c0 4.693333 3.925333 8.533333 8.704 8.533333l75.648 0.170667c4.778667 0 8.704 3.84 8.533334 8.533333V1015.466667c0 4.693333-3.882667 8.576-8.704 8.576H51.413333A8.661333 8.661333 0 0 1 42.666667 1015.466667V8.533333C42.666667 3.84 46.592 0 51.413333 0zM725.333333 725.333333H298.666667v85.333334h426.666666v-85.333334z m0-128H298.666667v85.333334h426.666666v-85.333334z m0-128H298.666667v85.333334h426.666666v-85.333334z m0-128h-128v85.333334h128V341.333333z m-256-128L405.333333 277.333333 341.290667 213.333333 298.666667 256l64 64L298.666667 384l42.666666 42.666667 63.957334-64.042667L469.376 426.666667 512 384 447.957333 320 512 256l-42.666667-42.666667z" fill="#F56C6C" p-id="954"></path></svg>