<?xml version="1.0" standalone="no"?><!DOCTYPE svg PUBLIC "-//W3C//DTD SVG 1.1//EN" "http://www.w3.org/Graphics/SVG/1.1/DTD/svg11.dtd"><svg t="1583997103997" class="icon" viewBox="0 0 1024 1024" version="1.1" xmlns="http://www.w3.org/2000/svg" p-id="13251" xmlns:xlink="http://www.w3.org/1999/xlink" width="200" height="200"><defs><style type="text/css"></style></defs><path d="M144.327633 688.32753c78.367114-29.169981 120.598281-43.537285 135.83633-48.326387a133.224093 133.224093 0 0 0 39.61893-17.850287 87.074571 87.074571 0 0 0 18.721032-15.23805v-2.612237a63.564437 63.564437 0 0 1-4.353728-20.027151 43.537285 43.537285 0 0 1 0-10.884322l-17.414914-16.108795a117.550671 117.550671 0 0 1-28.299236-40.054303c-4.353729-10.448948-8.707457-20.462524-12.19044-31.346845v-7.836712a150.639007 150.639007 0 0 1-22.204015-24.816252 144.543787 144.543787 0 0 1-20.897897-46.584896A154.992736 154.992736 0 0 1 225.742356 342.641484 167.618549 167.618549 0 0 1 234.449813 304.764045a130.611856 130.611856 0 0 1 7.401339-17.850287A551.182033 551.182033 0 0 1 246.640253 217.689475a519.835188 519.835188 0 0 1 13.061186-70.530403h-8.707457a174.149142 174.149142 0 0 0-32.652964 3.482983 145.414533 145.414533 0 0 0-33.088337 10.013576 179.373616 179.373616 0 0 0-32.652964 20.462524 130.611856 130.611856 0 0 0-29.169981 33.088337 177.632124 177.632124 0 0 0-21.33327 48.326387 339.155453 339.155453 0 0 0-10.013576 50.938623 410.556601 410.556601 0 0 0-2.612237 56.598471 63.99981 63.99981 0 0 0-12.19044 33.088337 66.612047 66.612047 0 0 0 0 22.639389 68.788911 68.788911 0 0 0 8.707457 19.156405 78.367114 78.367114 0 0 0 8.707457 10.448949 36.57132 36.57132 0 0 0 10.013576 5.224474l6.530593 22.639388c2.612237 6.530593 4.789101 12.625813 7.836711 19.156406a43.537285 43.537285 0 0 0 9.578203 14.367304 227.26463 227.26463 0 0 1 20.897897 20.027151 39.61893 39.61893 0 0 1 10.448948 27.42849v20.462524a54.421607 54.421607 0 0 1-3.04761 18.721033 57.90459 57.90459 0 0 1-10.884321 17.850287 105.360231 105.360231 0 0 1-22.639388 18.721033 155.863482 155.863482 0 0 1-43.537286 19.156405c-11.319694 3.04761-50.503251 17.414914-77.060995 26.993117V870.748755h3.918356c0-10.884321 2.612237-23.074761 4.789101-39.183556V827.21147a151.509753 151.509753 0 0 1 50.067878-96.652774A236.842833 236.842833 0 0 1 138.667786 690.069021h5.659847z m834.174388-29.169982a378.33901 378.33901 0 0 1-37.442066-12.625812 110.149332 110.149332 0 0 1-29.605354-18.721033 66.176674 66.176674 0 0 1-16.108795-21.768643 70.965775 70.965775 0 0 1-5.224475-23.074761 90.992926 90.992926 0 0 1 5.224475-37.442065 38.748184 38.748184 0 0 1 6.965965-10.884322 46.149523 46.149523 0 0 1 10.013576-8.272084l11.319694-10.013576a43.537285 43.537285 0 0 0 10.013576-14.802677 141.496178 141.496178 0 0 0 7.836711-18.721032c0-7.401339 4.353729-15.23805 6.09522-23.074762a37.877438 37.877438 0 0 0 13.496559-7.836711 57.90459 57.90459 0 0 0 9.578202-14.802677 78.367114 78.367114 0 0 0 6.530593-24.816253 77.060995 77.060995 0 0 0 0-20.027151 79.237859 79.237859 0 0 0-4.789101-13.061186 16.979541 16.979541 0 0 0-6.530593-9.14283 386.175721 386.175721 0 0 0-3.482983-59.210708 379.209756 379.209756 0 0 0-11.755067-53.550861A187.210327 187.210327 0 0 0 922.338923 205.499035a99.265011 99.265011 0 0 0-20.027152-20.462524 187.6457 187.6457 0 0 0-62.258318-31.782219 139.319313 139.319313 0 0 0-37.877438-5.224474h-17.414914a441.468074 441.468074 0 0 1 13.496558 65.741301 557.277253 557.277253 0 0 1 5.224474 66.176674 142.366923 142.366923 0 0 1 15.673423 43.537285 164.135566 164.135566 0 0 1 0 48.76176 191.128683 191.128683 0 0 1-14.367304 53.550861 127.128873 127.128873 0 0 1-33.52371 43.537285l-3.04761 9.578203v2.612237q-6.09522 15.673423-13.061185 31.346846a130.611856 130.611856 0 0 1-40.489676 53.115488v19.156405a53.986234 53.986234 0 0 1-5.659847 24.38088 98.829638 98.829638 0 0 0 23.510134 13.931931 283.427728 283.427728 0 0 0 43.537286 14.802677 312.162336 312.162336 0 0 1 43.537285 16.979542l43.537285 20.027151 24.816253 10.884321a234.665968 234.665968 0 0 1 60.081454 35.265202 158.911092 158.911092 0 0 1 46.149522 71.401148 261.223712 261.223712 0 0 1 9.578203 51.809369 80.108605 80.108605 0 0 1 2.612237 21.768643h2.612238v-189.822564a460.624479 460.624479 0 0 0-43.537286-17.414915z" fill="#A6C5F6" p-id="13252"></path><path d="M959.780988 819.810132a95.782028 95.782028 0 0 0-28.734608-43.537286 203.754496 203.754496 0 0 0-46.149523-26.993117c-16.979541-6.965966-91.863672-43.537285-110.584705-46.584895a455.400005 455.400005 0 0 1-51.809369-17.850287 141.93155 141.93155 0 0 1-40.489676-25.686999 87.074571 87.074571 0 0 1-21.768642-30.040726 87.074571 87.074571 0 0 1-7.401339-31.346846 124.081263 124.081263 0 0 1 8.272084-52.244742 48.326387 48.326387 0 0 1 9.578203-14.802677 84.026961 84.026961 0 0 1 13.061186-11.319695 123.210518 123.210518 0 0 0 16.108795-13.931931 70.965775 70.965775 0 0 0 13.931932-19.591778c3.918356-8.707457 7.401339-17.414914 10.884321-26.122372s5.659847-20.897897 8.272084-31.346845a43.537285 43.537285 0 0 0 15.23805-11.319694 71.836521 71.836521 0 0 0 13.931931-20.027152 112.326196 112.326196 0 0 0 8.707457-33.959082 82.720842 82.720842 0 0 0 0-27.42849 75.319504 75.319504 0 0 0-6.09522-18.28566 23.945507 23.945507 0 0 0-9.142829-12.625813 508.080121 508.080121 0 0 0-4.789102-81.414723 391.835569 391.835569 0 0 0-16.544168-73.578013 235.101341 235.101341 0 0 0-35.265201-71.836521 140.625432 140.625432 0 0 0-27.863863-27.863862 201.142259 201.142259 0 0 0-38.312811-25.251626 309.114726 309.114726 0 0 0-47.020268-17.850287 191.564056 191.564056 0 0 0-52.244743-6.965965 265.142068 265.142068 0 0 0-43.537285 4.353728 191.128683 191.128683 0 0 0-43.537286 13.931931A202.88375 202.88375 0 0 0 356.354213 91.86672a229.441494 229.441494 0 0 0-28.734609 66.176674A522.447425 522.447425 0 0 0 312.816927 304.764045a77.060995 77.060995 0 0 0-11.319694 21.33327 111.890823 111.890823 0 0 0-6.965966 22.204016 79.237859 79.237859 0 0 0 3.482983 30.911472 80.543978 80.543978 0 0 0 11.319694 26.557744 114.503061 114.503061 0 0 0 12.19044 14.367305 40.054303 40.054303 0 0 0 13.496559 6.965965l9.578202 31.782219c3.04761 8.707457 6.530593 17.414914 10.013576 25.686998a59.646081 59.646081 0 0 0 13.496559 20.027151q15.23805 13.061186 28.734608 27.42849a57.90459 57.90459 0 0 1 14.802677 37.442066v28.734608a87.074571 87.074571 0 0 1-4.353729 25.686998 87.074571 87.074571 0 0 1-15.238049 24.38088 142.802296 142.802296 0 0 1-30.4761 25.251626 181.115107 181.115107 0 0 1-57.033844 26.557744c-22.204016 6.09522-117.115298 41.360421-137.577822 49.197132a171.101532 171.101532 0 0 0-53.550861 30.040727 94.911282 94.911282 0 0 0-28.299235 57.033844 229.876867 229.876867 0 0 0-3.918356 78.367114 83.591588 83.591588 0 0 0 15.23805 49.632505 190.257937 190.257937 0 0 0 49.197132 16.979541 1984.429468 1984.429468 0 0 0 396.62467 40.925049 1312.213782 1312.213782 0 0 0 386.175722-53.115489 66.176674 66.176674 0 0 0 26.993116-14.802677 97.523519 97.523519 0 0 0 9.578203-32.652964 314.339201 314.339201 0 0 0 3.04761-45.714149c0-15.673423 0-3.04761-2.176864-18.721033a194.176293 194.176293 0 0 0-6.965966-39.183557z m-369.631553 97.523519a157.1696 157.1696 0 0 1-16.544168 18.28566 130.611856 130.611856 0 0 1-19.156406 15.673422 28.299236 28.299236 0 0 1-14.802677 6.530593 33.52371 33.52371 0 0 1-13.931931-6.09522 171.536904 171.536904 0 0 1-19.591779-15.673422 140.190059 140.190059 0 0 1-16.979541-18.721033 25.251626 25.251626 0 0 1-6.965966-13.931932 141.496178 141.496178 0 0 1 3.04761-25.251625c0-10.884321 4.789101-23.074761 7.401339-35.265201s5.659847-24.38088 9.14283-36.135947 4.789101-17.850287 7.401338-26.557744a103.618739 103.618739 0 0 1-16.979541-19.591779 28.299236 28.299236 0 0 1-5.224474-16.108795 34.394455 34.394455 0 0 1 4.789101-16.544169 68.353538 68.353538 0 0 1 10.448949-13.931931 135.400958 135.400958 0 0 1 16.108795-14.802677h47.020268l16.108796 14.802677a50.503251 50.503251 0 0 1 11.755067 14.802677 27.863863 27.863863 0 0 1 5.224474 16.544168 37.877438 37.877438 0 0 1-6.530593 20.027152A119.292162 119.292162 0 0 1 574.040639 783.674185c0 7.836711 4.353729 16.979541 6.530593 29.169981l7.836712 36.135947c0 11.755067 4.789101 23.074761 6.530592 33.523709a141.93155 141.93155 0 0 1 2.612238 21.33327 26.122371 26.122371 0 0 1-6.965966 14.367305z" fill="#4E8CEE" p-id="13253"></path></svg>