<?xml version="1.0" standalone="no"?><!DOCTYPE svg PUBLIC "-//W3C//DTD SVG 1.1//EN" "http://www.w3.org/Graphics/SVG/1.1/DTD/svg11.dtd"><svg t="1583997111020" class="icon" viewBox="0 0 1099 1024" version="1.1" xmlns="http://www.w3.org/2000/svg" p-id="13529" xmlns:xlink="http://www.w3.org/1999/xlink" width="214.6484375" height="200"><defs><style type="text/css"></style></defs><path d="M409.760063 887.546698H0c0-129.650645 266.103947-252.498632 334.530676-266.103947 20.407972-6.802657 20.407972-68.426729 20.407972-68.426729A343.334115 343.334115 0 0 1 280.109418 396.154748c-40.015631 6.802657-61.624072-88.834701-27.610786-123.248144C252.498632 240.093787 204.880031 0 443.773349 0s191.274717 240.093787 191.274717 272.906604c40.015631 34.413443 13.605315 130.050801-20.407972 130.050801a404.55803 404.55803 0 0 1-80.031262 156.861274s0 61.624072 20.407971 68.426729a400.156311 400.156311 0 0 1 88.834701 27.21063z" fill="#A6C5F6" p-id="13530"></path><path d="M920.359515 409.760063a168.465807 168.465807 0 0 0-170.466588 170.466588 182.871434 182.871434 0 0 0 20.407972 82.032044l-225.288003 225.288003-68.42673 136.453302 136.853459-68.026573 68.026573-68.426729 68.426729 68.426729v-68.426729l-34.413443-34.013287 34.413443-34.413442 68.026573 68.426729v-68.426729l-34.013287-34.013287L840.328253 730.685424a181.270809 181.270809 0 0 0 80.031262 20.407972 170.866745 170.866745 0 1 0 0-341.333333z m34.413443 204.880031a64.825322 64.825322 0 0 1-68.426729-68.426729 68.426729 68.426729 0 1 1 136.453302 0 64.425166 64.425166 0 0 1-68.026573 68.426729z" fill="#4E8CEE" p-id="13531"></path></svg>