<?xml version="1.0" standalone="no"?><!DOCTYPE svg PUBLIC "-//W3C//DTD SVG 1.1//EN" "http://www.w3.org/Graphics/SVG/1.1/DTD/svg11.dtd"><svg t="1583996376357" class="icon" viewBox="0 0 1119 1024" version="1.1" xmlns="http://www.w3.org/2000/svg" p-id="2459" xmlns:xlink="http://www.w3.org/1999/xlink" width="218.5546875" height="200"><defs><style type="text/css"></style></defs><path d="M694.05449 64.681518a30.523862 30.523862 0 0 1 30.523862 30.523862v763.09656a30.523862 30.523862 0 0 1-30.523862 30.523862H95.20538a30.887242 30.887242 0 0 1-30.523862-30.523862v-763.09656a30.887242 30.887242 0 0 1 30.523862-30.523862H694.05449m0-61.047725H95.20538A91.571587 91.571587 0 0 0 3.633793 95.20538v763.09656a91.571587 91.571587 0 0 0 91.571587 91.571587H694.05449a91.571587 91.571587 0 0 0 91.571587-91.571587v-763.09656A91.571587 91.571587 0 0 0 694.05449 3.633793z" fill="#A6C5F6" p-id="2460"></path><path d="M694.05449 953.50732H95.20538A95.56876 95.56876 0 0 1 0 858.30194v-763.09656A95.56876 95.56876 0 0 1 95.20538 0H694.05449a95.20538 95.20538 0 0 1 95.20538 95.20538v763.09656a95.20538 95.20538 0 0 1-95.20538 95.20538zM95.20538 7.267586A88.301173 88.301173 0 0 0 7.267586 95.20538v763.09656A88.301173 88.301173 0 0 0 95.20538 944.786217H694.05449a87.937794 87.937794 0 0 0 87.937794-87.937794v-763.09656A87.937794 87.937794 0 0 0 694.05449 7.267586zM694.05449 892.459595H95.20538a34.157656 34.157656 0 0 1-34.157655-34.157655v-763.09656a34.157656 34.157656 0 0 1 34.157655-34.157655H694.05449a34.157656 34.157656 0 0 1 34.157655 34.157655v763.09656a34.157656 34.157656 0 0 1-34.157655 34.157655zM95.20538 68.315311a26.890069 26.890069 0 0 0-26.890069 26.890069v763.09656a26.890069 26.890069 0 0 0 26.890069 26.890069H694.05449a26.890069 26.890069 0 0 0 26.890069-26.890069v-763.09656a26.890069 26.890069 0 0 0-26.890069-26.890069z" fill="#A6C5F6" p-id="2461"></path><path d="M522.539454 276.531658H128.272898a3.270414 3.270414 0 0 0-2.907035 3.270414v66.498414a3.270414 3.270414 0 0 0 2.907035 3.270414h394.266556a3.270414 3.270414 0 0 0 2.907034-3.270414V279.802072a3.270414 3.270414 0 0 0-2.907034-3.270414z m-125.365864 145.351726h-268.900692a2.907035 2.907035 0 0 0-3.270414 2.907034v67.225173a2.907035 2.907035 0 0 0 3.270414 2.907035h268.900692a2.907035 2.907035 0 0 0 2.907035-2.907035V425.153797a2.907035 2.907035 0 0 0-2.907035-2.907034z m-111.19407 163.520691H128.272898a3.270414 3.270414 0 0 0-2.907035 3.270414V654.082765a3.270414 3.270414 0 0 0 2.907035 3.270414h157.706622A2.907035 2.907035 0 0 0 290.703451 654.082765v-65.044897a2.907035 2.907035 0 0 0-2.907034-3.270414z" fill="#A6C5F6" p-id="2462"></path><path d="M756.919111 965.862217a302.331589 302.331589 0 1 1 303.785107-301.96821 303.421727 303.421727 0 0 1-303.785107 301.96821z" fill="#FFFFFF" p-id="2463"></path><path d="M756.919111 371.373659a293.247106 293.247106 0 0 1 207.852968 85.757518 292.520348 292.520348 0 0 1-207.852968 498.919798A293.247106 293.247106 0 0 1 549.066144 872.110354a292.520348 292.520348 0 0 1 207.852967-498.919798m0-65.771656a358.292004 358.292004 0 1 0 359.745521 358.292003 359.018762 359.018762 0 0 0-359.745521-358.292003z" fill="#4E8CEE" p-id="2464"></path><path d="M978.943872 599.939248h-53.05338a175.875588 175.875588 0 0 0-52.69-109.013795h-211.486761c-58.50407 14.898552-70.495587 109.013794-70.495587 109.013795h-52.690001v25.436552h36.337932a145.351726 145.351726 0 0 0-17.442207 34.157655v161.340415c8.721104 39.244966 61.774483 16.715448 61.774483 16.715449v-42.51538h281.618969v34.157656c34.157656 42.51538 70.495587-8.357724 70.495586-8.357725v-127.546139l-17.442207-67.951931h26.52669zM654.082765 523.266212h218.027589a98.475794 98.475794 0 0 1 27.253448 58.140691 51.236483 51.236483 0 0 1-26.16331 50.873103H654.082765c-20.349242 0-36.337931-33.794276-36.337931-33.794276-3.997172-27.980207 36.337931-76.673035 36.337931-76.673035z m-26.52669 229.655727a34.157656 34.157656 0 1 1 36.337932-34.157656 34.521035 34.521035 0 0 1-36.337932 34.157656z m203.129037-10.538a2.180276 2.180276 0 0 1-2.180276 2.180276h-129.363036a2.180276 2.180276 0 0 1-2.180276-2.180276v-46.875932a2.180276 2.180276 0 0 1 2.180276-1.816896h128.272898a2.180276 2.180276 0 0 1 2.180276 1.816896z m69.768828 10.538a34.157656 34.157656 0 1 1 36.337932-34.157656 36.337931 36.337931 0 0 1-36.337932 34.157656z" fill="#4E8CEE" p-id="2465"></path></svg>