<?xml version="1.0" standalone="no"?><!DOCTYPE svg PUBLIC "-//W3C//DTD SVG 1.1//EN" "http://www.w3.org/Graphics/SVG/1.1/DTD/svg11.dtd"><svg t="1583995867783" class="icon" viewBox="0 0 1024 1024" version="1.1" xmlns="http://www.w3.org/2000/svg" p-id="2333" xmlns:xlink="http://www.w3.org/1999/xlink" width="200" height="200"><defs><style type="text/css"></style></defs><path d="M847.556923 0C923.175385 0 984.615385 61.124923 984.615385 136.388923v619.559385c0 75.224615-61.44 136.388923-137.058462 136.388923H512v94.050461c0 23.512615-18.904615 37.612308-37.809231 37.612308-9.452308 0-14.178462-4.726154-23.630769-9.412923l-137.058462-126.976H176.443077c-75.618462 0-137.058462-61.124923-137.058462-136.349539V136.388923C39.384615 61.164308 100.824615 0 176.443077 0zM630.153846 236.307692H393.846154a17.723077 17.723077 0 0 0-17.723077 17.723077v109.016616L330.830769 350.523077c-8.664615 0-15.753846 7.168-15.753846 15.990154v247.650461c0 8.822154 7.089231 15.990154 15.753846 15.990154h362.338462c8.664615 0 15.753846-7.168 15.753846-15.990154V366.513231a15.911385 15.911385 0 0 0-15.753846-15.990154l-45.292308 12.406154V254.030769A17.723077 17.723077 0 0 0 630.153846 236.307692z m-17.723077 35.446154v100.903385l-101.415384 27.805538-99.446154-27.569231V271.753846h200.861538z m-39.384615 42.338462h-122.092308a5.907692 5.907692 0 0 0-5.907692 5.907692v19.692308c0 3.229538 2.678154 5.907692 5.907692 5.907692h122.092308a5.907692 5.907692 0 0 0 5.907692-5.907692v-19.692308a5.907692 5.907692 0 0 0-5.907692-5.907692z" fill="#F3C65C" p-id="2334"></path></svg>