<?xml version="1.0" standalone="no"?><!DOCTYPE svg PUBLIC "-//W3C//DTD SVG 1.1//EN" "http://www.w3.org/Graphics/SVG/1.1/DTD/svg11.dtd"><svg t="1583995883187" class="icon" viewBox="0 0 1024 1024" version="1.1" xmlns="http://www.w3.org/2000/svg" p-id="2885" xmlns:xlink="http://www.w3.org/1999/xlink" width="200" height="200"><defs><style type="text/css"></style></defs><path d="M847.556923 0C923.175385 0 984.615385 61.124923 984.615385 136.388923v619.559385c0 75.224615-61.44 136.388923-137.058462 136.388923H512v94.050461c0 23.512615-18.904615 37.612308-37.809231 37.612308-9.452308 0-14.178462-4.726154-23.630769-9.412923l-137.058462-126.976H176.443077c-75.618462 0-137.058462-61.124923-137.058462-136.349539V136.388923C39.384615 61.164308 100.824615 0 176.443077 0z m-284.553846 236.307692h-100.824615a5.868308 5.868308 0 0 0-2.756924 0.669539c-0.118154 0.039385-1.339077 0.630154-3.150769 1.654154-6.104615 3.229538-17.526154 9.846154-22.291692 16.738461l-0.866462 1.102769c-3.544615 2.756923-18.510769 8.743385-29.577846 13.154462-30.562462 12.288-52.775385 21.779692-59.785846 31.862154a57.501538 57.501538 0 0 0-2.796308 4.450461l-0.196923 0.315077c-15.832615 26.545231-62.306462 121.462154-64.472615 125.755077a5.907692 5.907692 0 0 0 2.717538 7.916308l90.112 45.410461v130.481231a5.907692 5.907692 0 0 0 5.356308 5.907692c0.787692 0 77.154462 8.428308 135.561846 8.428308h4.056616c58.368 0 134.813538-8.349538 135.561846-8.467692a5.907692 5.907692 0 0 0 5.356307-5.907692v-130.441847l89.993847-45.410461a5.907692 5.907692 0 0 0 2.717538-7.876923c-2.126769-4.371692-48.64-99.249231-64.433231-125.794462l-0.157538-0.315077a101.533538 101.533538 0 0 0-2.835692-4.450461c-7.010462-10.082462-29.184-19.534769-59.746462-31.862154-11.421538-4.568615-27.017846-10.830769-29.892923-13.430154-5.316923-8.940308-22.646154-17.644308-26.112-19.337846l-0.551385-0.236308-0.590769-0.196923-0.393846-0.118154z m168.172308 189.203693l3.150769 6.498461-79.202462 39.896616c-0.078769-2.756923-0.078769-6.144-0.078769-10.082462l76.091077-36.312615z m-438.272-0.039385l76.091077 36.312615-0.039385 10.043077-79.241846-39.85723 3.190154-6.498462z m385.299692-103.936c12.603077 22.921846 34.422154 66.599385 47.616 93.262769l-70.774154 33.752616c0.275692-28.750769 1.693538-70.301538 7.561846-88.457847 5.474462-16.935385 11.539692-30.286769 15.596308-38.557538z m-332.406154 0c4.056615 8.231385 10.121846 21.622154 15.596308 38.596923 5.789538 18.116923 7.246769 59.628308 7.561846 88.418462l-70.774154-33.752616c13.193846-26.663385 35.052308-70.340923 47.616-93.262769z m166.675692 23.709538c7.483077 0 13.627077 6.065231 13.627077 13.508924a13.587692 13.587692 0 0 1-27.214769 0c0-7.483077 6.104615-13.508923 13.587692-13.508924z m-52.932923-94.916923c8.664615 16.384 34.540308 65.142154 43.835077 82.471385a352.098462 352.098462 0 0 1-26.387692 8.546462 1064.96 1064.96 0 0 1-18.156308-34.343385c-16.502154-32.846769-17.329231-40.093538-17.329231-41.117539a5.907692 5.907692 0 0 1 0.59077-1.496615l0.866461-0.984615 0.669539-1.024 0.196923-0.315077c3.229538-3.623385 9.373538-8.073846 15.714461-11.697231z m104.802462 0c6.656 3.899077 13.075692 8.585846 16.187077 12.288a11.185231 11.185231 0 0 0 1.102769 1.417847 5.513846 5.513846 0 0 1 0.787692 1.851076c0 1.024-0.787692 8.270769-17.32923 41.117539-7.286154 14.572308-14.769231 28.475077-18.116924 34.343385a342.921846 342.921846 0 0 1-26.466461-8.546462l43.835077-82.432z m-12.406154-2.126769c-12.957538 24.418462-31.113846 58.683077-40.014769 75.303385l-39.975385-75.303385h79.950769z" fill="#F3C65C" p-id="2886"></path></svg>