<?xml version="1.0" standalone="no"?><!DOCTYPE svg PUBLIC "-//W3C//DTD SVG 1.1//EN" "http://www.w3.org/Graphics/SVG/1.1/DTD/svg11.dtd"><svg t="1583995879040" class="icon" viewBox="0 0 1024 1024" version="1.1" xmlns="http://www.w3.org/2000/svg" p-id="2747" xmlns:xlink="http://www.w3.org/1999/xlink" width="200" height="200"><defs><style type="text/css"></style></defs><path d="M847.556923 0C923.175385 0 984.615385 61.124923 984.615385 136.388923v619.559385c0 75.224615-61.44 136.388923-137.058462 136.388923H512v94.050461c0 23.512615-18.904615 37.612308-37.809231 37.612308-9.452308 0-14.178462-4.726154-23.630769-9.412923l-137.058462-126.976H176.443077c-75.618462 0-137.058462-61.124923-137.058462-136.349539V136.388923C39.384615 61.164308 100.824615 0 176.443077 0z m-237.292308 196.923077H412.987077a39.384615 39.384615 0 0 0-37.612308 51.003077l37.139693 120.398769-86.055385 233.511385a39.384615 39.384615 0 0 0 17.014154 47.576615l148.598154 87.197539a39.384615 39.384615 0 0 0 39.85723 0l148.598154-87.197539a39.384615 39.384615 0 0 0 17.014154-47.576615l-86.055385-233.55077 36.470154-120.595692A39.384615 39.384615 0 0 0 610.264615 196.923077z m-118.272 192.905846V535.630769h41.472V389.828923h42.06277l83.652923 226.264615L512 702.267077l-147.180308-86.173539 83.613539-226.264615h43.559384z" fill="#A1BCFF" p-id="2748"></path></svg>