<?xml version="1.0" standalone="no"?><!DOCTYPE svg PUBLIC "-//W3C//DTD SVG 1.1//EN" "http://www.w3.org/Graphics/SVG/1.1/DTD/svg11.dtd"><svg t="1583995899813" class="icon" viewBox="0 0 1024 1024" version="1.1" xmlns="http://www.w3.org/2000/svg" p-id="3437" xmlns:xlink="http://www.w3.org/1999/xlink" width="200" height="200"><defs><style type="text/css"></style></defs><path d="M847.556923 0C923.175385 0 984.615385 61.124923 984.615385 136.388923v619.559385c0 75.224615-61.44 136.388923-137.058462 136.388923H512v94.050461c0 23.512615-18.904615 37.612308-37.809231 37.612308-9.452308 0-14.178462-4.726154-23.630769-9.412923l-137.058462-126.976H176.443077c-75.618462 0-137.058462-61.124923-137.058462-136.349539V136.388923C39.384615 61.164308 100.824615 0 176.443077 0z m-314.801231 205.312a39.384615 39.384615 0 0 0-53.602461 15.084308L423.778462 319.172923a39.384615 39.384615 0 0 1-29.302154 19.771077l-113.900308 14.729846a39.384615 39.384615 0 0 0-21.661538 67.977846L335.478154 492.307692a39.384615 39.384615 0 0 1 11.972923 36.352l-19.416615 101.218462a39.384615 39.384615 0 0 0 55.256615 43.126154l109.095385-50.530462a39.384615 39.384615 0 0 1 33.831384 0.315077l107.953231 52.578462a39.384615 39.384615 0 0 0 56.083692-42.023385l-17.329231-101.533538a39.384615 39.384615 0 0 1 12.721231-36.115693l78.178462-69.238154a39.384615 39.384615 0 0 0-20.322462-68.411077l-113.270154-16.81723a39.384615 39.384615 0 0 1-28.987077-20.48l-52.972307-99.524923a39.384615 39.384615 0 0 0-15.517539-15.872z" fill="#F56C6C" p-id="3438"></path></svg>