<?xml version="1.0" standalone="no"?><!DOCTYPE svg PUBLIC "-//W3C//DTD SVG 1.1//EN" "http://www.w3.org/Graphics/SVG/1.1/DTD/svg11.dtd"><svg t="1583997114988" class="icon" viewBox="0 0 1031 1024" version="1.1" xmlns="http://www.w3.org/2000/svg" p-id="13668" xmlns:xlink="http://www.w3.org/1999/xlink" width="201.3671875" height="200"><defs><style type="text/css"></style></defs><path d="M1027.6121 892.434545a78.182667 78.182667 0 0 1-2.522022 50.020093 116.433326 116.433326 0 0 1-29.003247 42.033692 139.551857 139.551857 0 0 1-48.338746 28.162573 170.236452 170.236452 0 0 1-60.948853 10.508423H144.484235A158.467018 158.467018 0 0 1 75.128643 1009.288208a141.653541 141.653541 0 0 1-47.918408-34.887964 108.867262 108.867262 0 0 1-24.379542-44.976051A75.660645 75.660645 0 0 1 4.512041 883.187132c4.623706-10.088086 8.827075-20.596509 13.030445-31.525268s8.406738-20.596509 13.450781-32.365943 10.508423-24.379541 16.39314-36.569312l42.033692-100.88086h126.101075L168.443439 821.397605h702.803327l-47.077735-137.870509h119.375685l42.033692 100.880861c5.044043 13.030444 10.088086 25.640552 15.552466 38.250659l13.450781 33.206617c4.203369 10.088086 7.145728 18.494824 10.088086 25.220215s3.783032 10.92876 3.783033 11.349097z" fill="#A6C5F6" p-id="13669"></path><path d="M477.391074 689.83215c-14.711792-16.813477-29.843921-35.728638-47.498072-58.847168L374.408529 555.324336l-56.325147-75.240308c-18.494824-24.799878-35.308301-46.657398-49.599756-64.731885S244.944758 378.782831 248.72779 366.59306s15.972803-18.915161 36.989649-18.915161h96.257155c13.030444 0 23.959204-4.203369 27.742236-13.030445a99.61985 99.61985 0 0 0 5.46438-34.887964V246.376702 187.109196 126.58068 71.936881a144.5959 144.5959 0 0 1 0-22.698194A61.36919 61.36919 0 0 1 420.64559 24.859146a52.121778 52.121778 0 0 1 17.654151-16.813477 64.731885 64.731885 0 0 1 32.365942-7.566065h86.589405a58.006495 58.006495 0 0 1 48.759083 16.813477 94.575807 94.575807 0 0 1 13.450781 54.223463v204.704079a153.422975 153.422975 0 0 0 6.725391 50.860767 26.060889 26.060889 0 0 0 29.423584 18.074487h84.067384c19.755835 0 32.365943 5.46438 37.830322 15.972803s0 24.379541-11.769433 42.033692-29.843921 38.670996-47.918409 63.470875-36.989649 50.44043-56.325147 76.921656-38.670996 52.542115-57.165821 77.762329-35.308301 47.077735-49.599756 65.152223a55.064136 55.064136 0 0 1-37.830323 25.640552 50.44043 50.44043 0 0 1-37.830322-23.538868z" fill="#4E8CEE" p-id="13670"></path></svg>