<?xml version="1.0" standalone="no"?><!DOCTYPE svg PUBLIC "-//W3C//DTD SVG 1.1//EN" "http://www.w3.org/Graphics/SVG/1.1/DTD/svg11.dtd"><svg t="1583996031625" class="icon" viewBox="0 0 1024 1024" version="1.1" xmlns="http://www.w3.org/2000/svg" p-id="3188" xmlns:xlink="http://www.w3.org/1999/xlink" width="200" height="200"><defs><style type="text/css"></style></defs><path d="M0 0h1024v1024H0z" fill="#FFFFFF" p-id="3189"></path><path d="M619.232 554.316c-65.98 45.44-109.232 121.512-109.232 207.684 0 45.9 12.272 88.936 33.712 126H160.344c-15.652 0-28.344-13.492-28.344-30.116v-37.748c0-2.84 0.444-5.732 1.392-8.732 8.412-25.488 25.928-48.072 52.048-67.18 20.3-14.86 46-27.748 76.38-38.364 47.192-16.464 96.092-23.072 112.528-25.036 0.9-0.112-0.748-42.568-0.228-43.38 0.104-0.18 0-15.664-9.132-25.88a2.8 2.8 0 0 0-0.676-0.744c-27.044-22.716-50.064-55.072-66.848-93.936a3.352 3.352 0 0 0-2.564-2.048c-23.52-3.44-45.252-28.768-52.968-62.76-8.448-37.244 1.132-72.28 22.848-86.292a3.616 3.616 0 0 0 1.588-3.1c-1.144-71.224 15.992-127.736 50.98-167.984C362.36 142.88 424.124 132 468 132c43.88 0 105.64 10.88 150.668 62.7 34.988 40.264 52.12 96.76 50.976 167.984a3.628 3.628 0 0 0 1.592 3.1c21.72 14.012 31.292 49.028 22.848 86.288-7.732 34-29.464 59.324-52.984 62.764a3.352 3.352 0 0 0-2.564 2.048 300.82 300.82 0 0 1-19.304 37.432z" fill="#4B96F9" p-id="3190"></path><path d="M762 951c-104.38 0-189-84.62-189-189s84.62-189 189-189 189 84.62 189 189-84.62 189-189 189z m-78.752-215.252a26.248 26.248 0 1 0 0 52.5h157.5a26.248 26.248 0 1 0 0-52.5h-157.5z" fill="#81B5FA" p-id="3191"></path></svg>