<?xml version="1.0" standalone="no"?><!DOCTYPE svg PUBLIC "-//W3C//DTD SVG 1.1//EN" "http://www.w3.org/Graphics/SVG/1.1/DTD/svg11.dtd"><svg t="1583997084528" class="icon" viewBox="0 0 1024 1024" version="1.1" xmlns="http://www.w3.org/2000/svg" p-id="12553" xmlns:xlink="http://www.w3.org/1999/xlink" width="200" height="200"><defs><style type="text/css"></style></defs><path d="M485.523907 771.981337a289.045101 289.045101 0 0 1 45.785381-159.253499 49.368585 49.368585 0 0 1 6.37014-31.452566 311.340591 311.340591 0 0 0 53.349922-107.496112 144.920684 144.920684 0 0 0 51.757387-96.746501c3.18507-56.136858-10.749611-58.525661-10.749611-58.525661 20.702955-63.303266 27.073095-300.59098-124.615863-271.925349-25.082426-49.766719-184.335925-88.783826-258.786936 43.794712a278.693624 278.693624 0 0 0-21.897357 230.121306c0 5.175739-9.953344-5.573872-13.138413 28.267496a171.595645 171.595645 0 0 0 27.869362 101.524106 63.303266 63.303266 0 0 0 25.878694 19.11042 270.332815 270.332815 0 0 0 54.942457 113.468118 62.905132 62.905132 0 0 1-33.045101 66.88647C145.119552 676.827372 13.337281 756.454121 13.337281 843.645412v66.88647c0 93.561431 218.177294 113.468118 414.457232 113.468118a1225.85381 1225.85381 0 0 0 176.373251-13.934681 299.396579 299.396579 0 0 1-119.440125-238.880249z" fill="#A6C5F6" p-id="12554"></path><path d="M776.161543 1003.695179a234.898911 234.898911 0 1 1 234.500777-234.500778 234.898911 234.898911 0 0 1-234.500777 234.500778z m117.051322-263.962675h-234.500778a29.461897 29.461897 0 1 0 0 58.525661h234.500778a29.461897 29.461897 0 1 0 0-58.525661z" fill="#4E8CEE" p-id="12555"></path></svg>