<?xml version="1.0" standalone="no"?><!DOCTYPE svg PUBLIC "-//W3C//DTD SVG 1.1//EN" "http://www.w3.org/Graphics/SVG/1.1/DTD/svg11.dtd"><svg t="1583997296045" class="icon" viewBox="0 0 1086 1024" version="1.1" xmlns="http://www.w3.org/2000/svg" p-id="3221" xmlns:xlink="http://www.w3.org/1999/xlink" width="212.109375" height="200"><defs><style type="text/css"></style></defs><path d="M655.505197 1023.836813h206.333434a117.070235 117.070235 0 0 0 117.004961-117.00496V700.563693a117.184466 117.184466 0 0 0-117.004961-117.00496H655.505197a117.184466 117.184466 0 0 0-117.00496 117.00496v206.26816a117.070235 117.070235 0 0 0 117.00496 117.00496z m206.333434-343.508287a20.284124 20.284124 0 0 1 20.20253 20.235167v206.26816a20.186211 20.186211 0 0 1-20.20253 20.235167H655.505197a20.186211 20.186211 0 0 1-20.20253-20.235167V700.563693a20.284124 20.284124 0 0 1 20.20253-20.235167h206.333434zM116.988642 485.320258h206.333434a117.070235 117.070235 0 0 0 117.004961-117.004961V162.047138a117.184466 117.184466 0 0 0-117.004961-117.004961H116.988642a117.184466 117.184466 0 0 0-117.004961 117.004961v206.268159a117.070235 117.070235 0 0 0 117.004961 117.004961zM323.322076 141.811971a20.267805 20.267805 0 0 1 20.186212 20.235167v206.268159a20.169893 20.169893 0 0 1-20.186212 20.235168H116.988642a20.186211 20.186211 0 0 1-20.20253-20.235168V162.047138a20.284124 20.284124 0 0 1 20.20253-20.235167h206.333434zM116.988642 1023.836813h206.333434a117.070235 117.070235 0 0 0 117.004961-117.00496V700.563693a117.184466 117.184466 0 0 0-117.004961-117.00496H116.988642a117.184466 117.184466 0 0 0-117.004961 117.00496v206.26816a117.070235 117.070235 0 0 0 117.004961 117.00496z m206.333434-343.508287a20.267805 20.267805 0 0 1 20.186212 20.235167v206.26816a20.169893 20.169893 0 0 1-20.186212 20.235167H116.988642a20.186211 20.186211 0 0 1-20.20253-20.235167V700.563693a20.284124 20.284124 0 0 1 20.20253-20.235167h206.333434z m305.436799-283.292346l178.689584 103.13408a117.119191 117.119191 0 0 0 159.825186-42.754951l103.183036-178.689584a117.249741 117.249741 0 0 0-42.836544-159.923098L848.930553 15.668547a117.119191 117.119191 0 0 0-159.825186 42.754951l-103.166718 178.689584a117.249741 117.249741 0 0 0 42.869182 159.923098z m350.460047-194.35552a20.20253 20.20253 0 0 1 7.392363 27.578575l-103.166717 178.689584a20.235168 20.235168 0 0 1-27.594894 7.343408l-178.689584-103.13408a20.218849 20.218849 0 0 1-7.392363-27.578575l103.166717-178.689584a20.251486 20.251486 0 0 1 27.594893-7.343408z" fill="#30C4E9" p-id="3222"></path></svg>