<?xml version="1.0" standalone="no"?><!DOCTYPE svg PUBLIC "-//W3C//DTD SVG 1.1//EN" "http://www.w3.org/Graphics/SVG/1.1/DTD/svg11.dtd"><svg t="1583996886687" class="icon" viewBox="0 0 1027 1024" version="1.1" xmlns="http://www.w3.org/2000/svg" p-id="4983" xmlns:xlink="http://www.w3.org/1999/xlink" width="200.5859375" height="200"><defs><style type="text/css"></style></defs><path d="M511.842709 0a30.204015 30.204015 0 0 0-30.204015 30.204015v59.988529a30.204015 30.204015 0 0 0 60.40803 0V33.140516A33.140516 33.140516 0 0 0 511.842709 0z" fill="#4E8CEE" p-id="4984"></path><path d="M391.44615 603.241295H30.256474a30.204015 30.204015 0 0 0-30.204015 30.204014v360.350676a29.784515 29.784515 0 0 0 30.204015 29.784515h361.189676a30.623515 30.623515 0 0 0 30.204015-29.784515V633.445309a30.623515 30.623515 0 0 0-30.204015-30.204014z" fill="#A6C5F6" p-id="4985"></path><path d="M511.842709 603.241295a30.204015 30.204015 0 0 0-30.204015 30.204014v360.350676a30.204015 30.204015 0 0 0 60.40803 0V633.445309a30.623515 30.623515 0 0 0-30.204015-30.204014zM33.192975 483.264236a30.204015 30.204015 0 1 0 0 62.08603h57.052028a28.945514 28.945514 0 0 0 21.394511-8.809504 29.784515 29.784515 0 0 0-21.394511-51.179025z" fill="#4E8CEE" p-id="4986"></path><path d="M632.239268 423.275707h361.189676a30.204015 30.204015 0 0 0 30.204015-30.204015V33.140516a30.204015 30.204015 0 0 0-30.204015-30.204015h-361.189676a30.204015 30.204015 0 0 0-30.204015 30.204015v359.931176a28.526014 28.526014 0 0 0 30.204015 30.204015z" fill="#A6C5F6" p-id="4987"></path><path d="M511.842709 183.32159a29.784515 29.784515 0 0 0-30.204015 29.784514v270.158132H209.802561a30.623515 30.623515 0 0 0-30.204014 30.204015A29.784515 29.784515 0 0 0 209.802561 545.350266h302.040148a29.365014 29.365014 0 0 0 21.39451-8.390004 31.462515 31.462515 0 0 0 8.809505-21.39451V213.106104a30.623515 30.623515 0 0 0-30.204015-29.784514zM632.239268 545.350266h361.189676a30.204015 30.204015 0 1 0 0-59.988529h-361.189676a31.043015 31.043015 0 0 0-21.394511 8.809504 31.462515 31.462515 0 0 0-8.809504 21.394511 28.106514 28.106514 0 0 0 30.204015 29.784514z" fill="#4E8CEE" p-id="4988"></path><path d="M30.256474 423.275707h361.189676a30.204015 30.204015 0 0 0 30.204015-30.204015V33.140516a30.204015 30.204015 0 0 0-30.204015-30.204015H30.256474A30.204015 30.204015 0 0 0 0.052459 33.140516v359.931176a28.526014 28.526014 0 0 0 30.204015 30.204015zM993.428944 603.241295h-361.189676a31.043015 31.043015 0 0 0-21.394511 8.809504 29.784515 29.784515 0 0 0-8.809504 21.39451v360.350676a29.784515 29.784515 0 0 0 30.204015 29.784515h361.189676a30.623515 30.623515 0 0 0 30.204015-29.784515V633.445309a28.526014 28.526014 0 0 0-30.204015-30.204014z" fill="#A6C5F6" p-id="4989"></path></svg>