<?xml version="1.0" standalone="no"?><!DOCTYPE svg PUBLIC "-//W3C//DTD SVG 1.1//EN" "http://www.w3.org/Graphics/SVG/1.1/DTD/svg11.dtd"><svg t="1583996067805" class="icon" viewBox="0 0 1024 1024" version="1.1" xmlns="http://www.w3.org/2000/svg" p-id="4506" xmlns:xlink="http://www.w3.org/1999/xlink" width="200" height="200"><defs><style type="text/css"></style></defs><path d="M0 0h1024v1024H0z" fill="#FFFFFF" p-id="4507"></path><path d="M815.188 706.188l24.172 40.284a30 30 0 0 1-4.512 36.648l-51.728 51.728a30 30 0 0 1-36.648 4.512l-40.284-24.172a357.928 357.928 0 0 1-117.12 48.544l-11.388 45.544a30 30 0 0 1-29.104 22.724H475.424a30 30 0 0 1-29.104-22.724l-11.388-45.544a357.928 357.928 0 0 1-117.12-48.544l-40.284 24.172a30 30 0 0 1-36.648-4.512L189.152 783.12a30 30 0 0 1-4.512-36.648l24.172-40.284a357.928 357.928 0 0 1-48.544-117.12L114.724 577.68A30 30 0 0 1 92 548.576V475.424a30 30 0 0 1 22.724-29.104l45.544-11.388a357.928 357.928 0 0 1 48.544-117.12L184.64 277.528a30 30 0 0 1 4.512-36.648L240.88 189.152a30 30 0 0 1 36.648-4.512l40.284 24.172a357.928 357.928 0 0 1 117.12-48.544L446.32 114.724A30 30 0 0 1 475.424 92h73.152a30 30 0 0 1 29.104 22.724l11.388 45.544a357.928 357.928 0 0 1 117.12 48.544l40.284-24.172a30 30 0 0 1 36.648 4.512l51.728 51.728a30 30 0 0 1 4.512 36.648l-24.172 40.284a357.928 357.928 0 0 1 48.544 117.12l45.544 11.388A30 30 0 0 1 932 475.424v73.152a30 30 0 0 1-22.724 29.104l-45.544 11.388a357.928 357.928 0 0 1-48.544 117.12zM512 752c132.548 0 240-107.452 240-240s-107.452-240-240-240-240 107.452-240 240 107.452 240 240 240z" fill="#FA944A" p-id="4508"></path><path d="M512 512m-120 0a120 120 0 1 0 240 0 120 120 0 1 0-240 0Z" fill="#FCBF92" p-id="4509"></path></svg>