<?xml version="1.0" standalone="no"?><!DOCTYPE svg PUBLIC "-//W3C//DTD SVG 1.1//EN" "http://www.w3.org/Graphics/SVG/1.1/DTD/svg11.dtd"><svg t="1583997212328" class="icon" viewBox="0 0 1024 1024" version="1.1" xmlns="http://www.w3.org/2000/svg" p-id="17249" xmlns:xlink="http://www.w3.org/1999/xlink" width="200" height="200"><defs><style type="text/css"></style></defs><path d="M264.62226 755.3024H26.23506a14.7456 14.7456 0 0 0-14.7456 14.7456v238.3872a14.7456 14.7456 0 0 0 14.7456 15.5648h238.3872a14.7456 14.7456 0 0 0 14.7456-14.7456V770.048a14.7456 14.7456 0 0 0-14.7456-14.7456zM635.71986 755.3024H397.74226a15.1552 15.1552 0 0 0-15.1552 14.7456v238.3872a15.1552 15.1552 0 0 0 15.1552 14.7456h237.9776a15.1552 15.1552 0 0 0 15.1552-14.7456V770.048a15.1552 15.1552 0 0 0-15.1552-14.7456zM996.57746 755.3024h-237.9776a15.1552 15.1552 0 0 0-15.1552 14.7456v238.3872a15.1552 15.1552 0 0 0 15.1552 14.7456h237.9776a15.1552 15.1552 0 0 0 15.1552-14.7456V770.048a15.1552 15.1552 0 0 0-15.1552-14.7456z" fill="#A6C5F6" p-id="17250"></path><path d="M673.40306 0h-323.584C339.16946 0 329.74866 6.5536 329.74866 14.7456v238.3872c0 8.192 9.0112 14.7456 20.0704 14.7456h323.584c11.0592 0 20.0704-6.5536 20.0704-14.7456V14.7456c0-8.192-9.0112-14.7456-20.0704-14.7456zM762.28626 698.368v-178.9952h-227.328v178.5856h-45.4656v-178.5856H260.93586v178.9952H215.47026v-224.0512h272.7936V316.6208h46.2848v157.696h273.2032v224.0512h-45.4656z" fill="#4E8CEE" p-id="17251"></path></svg>