<?xml version="1.0" standalone="no"?><!DOCTYPE svg PUBLIC "-//W3C//DTD SVG 1.1//EN" "http://www.w3.org/Graphics/SVG/1.1/DTD/svg11.dtd"><svg t="1583997289431" class="icon" viewBox="0 0 1024 1024" version="1.1" xmlns="http://www.w3.org/2000/svg" p-id="2945" xmlns:xlink="http://www.w3.org/1999/xlink" width="200" height="200"><defs><style type="text/css"></style></defs><path d="M767.702104 794.085037h-322.339252V252.371774a45.081665 45.081665 0 0 0-23.098433-38.650157l-17.705744-11.915858L218.472684 92.424288h549.244696a46.13576 46.13576 0 1 0 0-92.271521H51.742324a47.862032 47.862032 0 0 0-17.950171 3.513651A46.257974 46.257974 0 0 0 5.606564 46.288528v725.339698A43.553991 43.553991 0 0 0 11.931135 792.862897l1.695719 2.444279a43.813695 43.813695 0 0 0 15.017037 14.818439l17.690467 12.068626 309.735939 183.473669 0.61107-0.916605 19.340355 11.610324a44.0734 44.0734 0 0 0 23.144263 7.485604A46.151037 46.151037 0 0 0 445.317022 977.711472v-91.202148h322.339251a46.212144 46.212144 0 0 0 0.045831-92.424287zM355.39812 886.051022L94.868566 735.269581V145.892884l260.529554 145.129046V886.051022z m649.414292-475.412204l-142.226465-142.226465a46.13576 46.13576 0 1 0-65.277518 65.231687L860.722184 397.195286H616.584574a46.13576 46.13576 0 1 0 0 92.27152h244.09178l-63.398478 63.398478a46.151037 46.151037 0 1 0 65.308071 65.231688l142.226465-142.226466a46.105207 46.105207 0 0 0 0-65.231688z" fill="#57C887" p-id="2946"></path></svg>