<?xml version="1.0" standalone="no"?><!DOCTYPE svg PUBLIC "-//W3C//DTD SVG 1.1//EN" "http://www.w3.org/Graphics/SVG/1.1/DTD/svg11.dtd"><svg t="1583996060469" class="icon" viewBox="0 0 1024 1024" version="1.1" xmlns="http://www.w3.org/2000/svg" p-id="4213" xmlns:xlink="http://www.w3.org/1999/xlink" width="200" height="200"><defs><style type="text/css"></style></defs><path d="M0 0h1024v1024H0z" fill="#FFFFFF" p-id="4214"></path><path d="M466.588 194.824v370.588h370.588c0 204.668-165.92 370.588-370.588 370.588C261.92 936 96 770.08 96 565.412c0-204.672 165.92-370.588 370.588-370.588z" fill="#4B96F9" p-id="4215"></path><path d="M540.704 120.704c204.672 0 370.592 165.92 370.592 370.592h-370.592V120.704z" fill="#4B96F9" p-id="4216"></path><path d="M219.348 589.32a24.704 24.704 0 0 1-49.052 5.952c-8.988-74.12 6.944-138.46 47.932-191.56a24.704 24.704 0 1 1 39.116 30.196c-32.764 42.44-45.472 93.76-37.996 155.412z" fill="#A5CAFC" p-id="4217"></path></svg>