<?xml version="1.0" standalone="no"?><!DOCTYPE svg PUBLIC "-//W3C//DTD SVG 1.1//EN" "http://www.w3.org/Graphics/SVG/1.1/DTD/svg11.dtd"><svg t="1583997299275" class="icon" viewBox="0 0 1024 1024" version="1.1" xmlns="http://www.w3.org/2000/svg" p-id="3359" xmlns:xlink="http://www.w3.org/1999/xlink" width="200" height="200"><defs><style type="text/css"></style></defs><path d="M774.829721 224.689935a49.302518 49.302518 0 0 0 49.302519-49.334585v-124.25838a49.334585 49.334585 0 1 0-98.653137 0v124.25838a49.302518 49.302518 0 0 0 49.350618 49.334585m-528.041997 0a49.302518 49.302518 0 0 0 49.302518-49.334585v-124.25838a49.334585 49.334585 0 1 0-98.653137 0v124.25838a49.318552 49.318552 0 0 0 49.350619 49.334585m720.538269-98.685204h-93.875202v49.350619a98.66917 98.66917 0 1 1-197.33834 0V126.004731H345.472927v49.350619a98.685204 98.685204 0 1 1-197.354373 0V126.004731H54.980886a49.446818 49.446818 0 0 0-49.398719 49.446819v799.085598a49.430785 49.430785 0 0 0 49.398719 49.462852h912.184774a49.430785 49.430785 0 0 0 49.398718-49.462852V175.195016a49.286485 49.286485 0 0 0-49.238385-49.254418m-49.430785 789.641961a12.201371 12.201371 0 0 1-12.201371 12.185338H114.961608a12.201371 12.201371 0 0 1-12.201371-12.185338V377.583858a12.233438 12.233438 0 0 1 12.201371-12.249471h790.732229a12.233438 12.233438 0 0 1 12.201371 12.249471v538.062835z m-224.819484-347.923463l-155.234791 209.219045a42.744883 42.744883 0 0 1-6.942436 9.379503l-1.426967 1.907968a47.779351 47.779351 0 0 1-66.794892 0l-105.82004-103.719672A46.496684 46.496684 0 1 1 422.64139 618.773382l68.237892 66.923158 136.283384-183.726035a46.560817 46.560817 0 0 1 65.913058 65.800825z" fill="#FF7245" p-id="3360"></path></svg>