<?xml version="1.0" standalone="no"?><!DOCTYPE svg PUBLIC "-//W3C//DTD SVG 1.1//EN" "http://www.w3.org/Graphics/SVG/1.1/DTD/svg11.dtd"><svg t="1583997097673" class="icon" viewBox="0 0 1024 1024" version="1.1" xmlns="http://www.w3.org/2000/svg" p-id="12973" xmlns:xlink="http://www.w3.org/1999/xlink" width="200" height="200"><defs><style type="text/css"></style></defs><path d="M778.784983 269.122021c-8.679956-2.367261-16.176281-5.523608-24.461693-7.496325a168.86459 168.86459 0 0 0-42.216147-4.734521c-3.945434 0-4.734521 0-4.734521-4.339978v-39.454343c0-3.945434 0-4.734521-5.129065-4.734521H593.34957a21.699889 21.699889 0 0 1-24.856237-24.461693V78.952086c0-4.339978 0-5.523608-5.523608-5.523608H102.142995c-4.734521 0-5.918152 0-5.918152 5.918152V946.94764c0 5.129065 0 5.918152 6.312695 5.918152h599.311476c4.339978 0 6.312695 0 5.918151-5.918152s0-18.938085 0-28.80167c0-3.156347 0-3.945434 4.339978-3.945435H774.839549c3.156347 0 3.550891 0 3.550891 3.945435v70.623274a35.508909 35.508909 0 0 1-35.114366 35.114366H64.661369a36.692539 36.692539 0 0 1-35.508909-19.727172 24.461693 24.461693 0 0 1-3.945435-14.598107 58.392428 58.392428 0 0 1 0-8.285412V39.497743A39.454343 39.454343 0 0 1 38.226959 9.512442 36.692539 36.692539 0 0 1 64.661369 0.0434h535.789982a45.372495 45.372495 0 0 1 33.930736 13.80902c43.399778 43.005234 87.194099 86.405012 130.98842 129.015703a41.821604 41.821604 0 0 1 13.414476 32.352561v93.901337z" fill="#A6C5F6" p-id="12974"></path><path d="M714.474404 862.515345h-265.527731c-13.414477 0-16.965368-3.550891-16.965368-16.965367v-34.719822a17.754455 17.754455 0 0 1 5.918152-13.414477 422.161474 422.161474 0 0 1 132.17205-85.221382 410.719714 410.719714 0 0 1 52.86882-16.570824 24.067149 24.067149 0 0 1 16.570824 0 164.130068 164.130068 0 0 0 57.997885 15.387194 177.544545 177.544545 0 0 0 94.690424-16.176281 25.25078 25.25078 0 0 1 16.176281 0 425.712365 425.712365 0 0 1 96.663141 39.454344 420.188757 420.188757 0 0 1 87.983186 65.099666 14.203564 14.203564 0 0 1 4.734521 11.047216v37.481626c0 12.62539-4.339978 14.99265-15.387194 14.992651h-267.894991zM719.208925 306.603648a121.124834 121.124834 0 0 1 98.241315 55.23608 138.090202 138.090202 0 0 1 19.332628 118.36303 6.707238 6.707238 0 0 0 2.367261 7.890869 21.305345 21.305345 0 0 1 8.285412 24.067149 20.121715 20.121715 0 0 1-16.965368 16.570825c-4.339978 0-4.339978 3.156347-4.734521 5.918151a148.742874 148.742874 0 0 1-33.141649 76.541426 105.73764 105.73764 0 0 1-62.337862 39.454344 85.615925 85.615925 0 0 1-68.650558-16.176281 137.301115 137.301115 0 0 1-57.208797-98.635859c0-3.945434 0-5.523608-5.918152-6.312694a20.910802 20.910802 0 0 1-16.570824-16.965368 22.094432 22.094432 0 0 1 8.679955-24.06715c3.156347 0 3.156347-3.945434 2.367261-7.101781a137.695658 137.695658 0 0 1 39.454343-141.24655 121.519378 121.519378 0 0 1 87.983186-33.141648zM335.712707 380.777813h133.750224a14.203564 14.203564 0 1 1 3.945435 28.012584H202.75157c-9.863586 0-16.176281-5.129065-16.570824-13.414477a13.80902 13.80902 0 0 1 13.414477-14.99265h136.117484zM335.712707 508.609886h134.144768a14.203564 14.203564 0 0 1 15.781737 13.019933 14.99265 14.99265 0 0 1-12.62539 15.387194H202.75157c-9.863586 0-16.570824-5.129065-16.965367-13.80902a14.598107 14.598107 0 0 1 13.414476-14.598107h136.512028zM335.712707 636.441958h132.172051a29.590758 29.590758 0 0 1 8.285412 0 15.387194 15.387194 0 0 1 9.469042 15.781737 14.99265 14.99265 0 0 1-13.414477 11.836303H202.75157c-9.863586 0-16.570824-5.129065-16.965367-13.414476a14.598107 14.598107 0 0 1 13.80902-14.598107h136.117484z" fill="#4E8CEE" p-id="12975"></path></svg>