<?xml version="1.0" standalone="no"?><!DOCTYPE svg PUBLIC "-//W3C//DTD SVG 1.1//EN" "http://www.w3.org/Graphics/SVG/1.1/DTD/svg11.dtd"><svg t="1583995852746" class="icon" viewBox="0 0 1024 1024" version="1.1" xmlns="http://www.w3.org/2000/svg" p-id="1781" xmlns:xlink="http://www.w3.org/1999/xlink" width="200" height="200"><defs><style type="text/css"></style></defs><path d="M183.677092 555.698081a278.182262 278.182262 0 0 1-51.583183-195.666235c0.981318-8.874526 2.559959-18.858368 4.693259-28.586214-1.27998 0.85332-117.331476 58.879068-117.331476 58.879068A274.043661 274.043661 0 0 1 0.42666 288.950305c0-31.359503 5.162585-61.524359 14.719767-89.683913C63.614993 52.239386 225.703093-29.295323 376.65537 19.130577a286.416798 286.416798 0 0 1 136.445839 93.609185 285.435481 285.435481 0 0 1 171.175957-102.825039c115.539504-39.423376 276.859616 41.727339 325.626844 190.034324 8.959858 26.068921 14.079777 56.105778 14.079777 87.294618 0 36.266092-6.954557 70.910877-19.626356 102.739707L886.769959 328.544345c-5.717243-25.172935-11.17849-122.878054 5.375915 32.767481a279.462242 279.462242 0 0 1-56.959098 201.511476l-92.457203-77.69477a484.898989 484.898989 0 0 1 37.546073 188.541015c0 115.624836-39.039382 232.01766-104.873007 317.434974L26.410249 989.867207v-51.327187h233.937629c139.432459-55.508454 235.558937-204.071436 233.980295-368.548832 1.322646-77.780102-22.698307-151.97626-58.53774-221.351161l-252.113341 207.058054zM42.665991 938.668018h938.225145a42.665991 42.665991 0 0 1 0 85.331982H42.665991a42.665991 42.665991 0 1 1 0-85.331982z" fill="#F3C65C" p-id="1782"></path></svg>