<?xml version="1.0" standalone="no"?><!DOCTYPE svg PUBLIC "-//W3C//DTD SVG 1.1//EN" "http://www.w3.org/Graphics/SVG/1.1/DTD/svg11.dtd"><svg t="1583997100440" class="icon" viewBox="0 0 1024 1024" version="1.1" xmlns="http://www.w3.org/2000/svg" p-id="13112" xmlns:xlink="http://www.w3.org/1999/xlink" width="200" height="200"><defs><style type="text/css"></style></defs><path d="M1010.01934 316.081916l-242.301991 242.301991a41.278022 41.278022 0 0 1-61.091473 0l-241.476431-242.301991a41.278022 41.278022 0 0 1 0-60.678693L707.451436 13.514012a41.278022 41.278022 0 0 1 61.091473 0l241.476431 242.714771a41.278022 41.278022 0 0 1 0 59.853133z" fill="#4E8CEE" p-id="13113"></path><path d="M386.308422 1022.761659H42.049715a41.278022 41.278022 0 0 1-41.278022-41.278022v-344.258707a41.278022 41.278022 0 0 1 41.278022-41.278022h342.607586a41.278022 41.278022 0 0 1 41.278022 41.278022v343.020366a41.278022 41.278022 0 0 1-41.278022 41.278023zM386.308422 508.850281H42.049715a41.278022 41.278022 0 0 1-41.278022-41.278023V124.139112a41.278022 41.278022 0 0 1 41.278022-41.278023h342.607586a41.278022 41.278022 0 0 1 41.278022 41.278023v342.607586a41.278022 41.278022 0 0 1-41.278022 41.278022zM557.612215 594.708567h342.607586a41.278022 41.278022 0 0 1 41.278022 41.278022v343.020367a41.278022 41.278022 0 0 1-41.278022 41.278022h-342.607586a41.278022 41.278022 0 0 1-41.278023-41.278022v-341.782026a41.278022 41.278022 0 0 1 41.278023-41.278022z" fill="#A6C5F6" p-id="13114"></path></svg>