<?xml version="1.0" standalone="no"?><!DOCTYPE svg PUBLIC "-//W3C//DTD SVG 1.1//EN" "http://www.w3.org/Graphics/SVG/1.1/DTD/svg11.dtd"><svg t="1583997209057" class="icon" viewBox="0 0 1024 1024" version="1.1" xmlns="http://www.w3.org/2000/svg" p-id="17107" xmlns:xlink="http://www.w3.org/1999/xlink" width="200" height="200"><defs><style type="text/css"></style></defs><path d="M472.361426 844.101247A422.045083 422.045083 0 1 0 51.294054 424.011585a421.393276 421.393276 0 0 0 421.067372 420.089662z" fill="#A6C5F6" p-id="17108"></path><path d="M858.883024 619.553708a155.130085 155.130085 0 1 0-309.934266 0 159.040927 159.040927 0 0 0 65.180708 128.405995 263.004156 263.004156 0 0 0-142.419847 214.444528c0 14.665659 7.495781 26.398187 21.835537 26.398187h420.415566c14.339756 0 21.835537-11.732527 21.835537-26.398187a263.655963 263.655963 0 0 0-141.76804-214.444528A146.982496 146.982496 0 0 0 858.883024 619.553708z" fill="#FFFFFF" p-id="17109"></path><path d="M913.960722 1024H493.219253a58.662637 58.662637 0 0 1-58.01083-62.573479 293.313185 293.313185 0 0 1 120.258406-220.9626A195.542123 195.542123 0 0 1 512.773465 619.553708a191.305377 191.305377 0 1 1 382.610755 0 195.542123 195.542123 0 0 1-42.041557 122.213827 293.313185 293.313185 0 0 1 118.954792 219.984889 58.662637 58.662637 0 0 1-58.336733 62.247576zM507.559009 951.323511h391.084246a231.391513 231.391513 0 0 0-121.236116-172.077069l-61.269865-32.590354 60.292154-32.590354a113.740335 113.740335 0 0 0 45.952399-97.771061 118.628888 118.628888 0 1 0-237.257776 0 123.191538 123.191538 0 0 0 49.863241 97.771061l47.907821 34.871679-52.796374 26.72409A231.717416 231.717416 0 0 0 507.559009 951.323511z" fill="#FFFFFF" p-id="17110"></path><path d="M858.883024 616.620576a155.130085 155.130085 0 1 0-309.934266 0 159.040927 159.040927 0 0 0 65.180708 128.405995 263.004156 263.004156 0 0 0-142.419847 214.444528c0 14.665659 7.495781 26.398187 21.835537 26.398187h420.415566c14.339756 0 21.835537-11.732527 21.835537-26.398187a263.655963 263.655963 0 0 0-141.76804-214.444528 146.982496 146.982496 0 0 0 64.854805-128.405995z" fill="#4E8CEE" p-id="17111"></path><path d="M354.710249 204.026696a101.356001 101.356001 0 1 0 101.030097 101.356001 101.030097 101.030097 0 0 0-101.030097-101.356001z m0 150.893339a50.515049 50.515049 0 1 1 50.515048-50.515049 50.515049 50.515049 0 0 1-50.515048 50.515049zM354.710249 438.351341a101.356001 101.356001 0 1 0 101.030097 101.030097 101.030097 101.030097 0 0 0-101.030097-101.030097zM601.093324 203.374889A101.030097 101.030097 0 1 0 703.101132 304.404986a101.030097 101.030097 0 0 0-102.007808-101.030097z m0 150.567435a50.515049 50.515049 0 1 1 50.515049-50.515049 50.189145 50.189145 0 0 1-50.515049 50.515049z" fill="#FFFFFF" p-id="17112"></path></svg>