<?xml version="1.0" standalone="no"?><!DOCTYPE svg PUBLIC "-//W3C//DTD SVG 1.1//EN" "http://www.w3.org/Graphics/SVG/1.1/DTD/svg11.dtd"><svg t="1583997150546" class="icon" viewBox="0 0 1024 1024" version="1.1" xmlns="http://www.w3.org/2000/svg" p-id="15219" xmlns:xlink="http://www.w3.org/1999/xlink" width="200" height="200"><defs><style type="text/css"></style></defs><path d="M545.092644 641.835098a133.009455 133.009455 0 0 1 21.738387-66.688951 299.179161 299.179161 0 0 0 52.319509-106.112806 142.589083 142.589083 0 0 0 51.214167-95.427836c3.316025-56.740875-10.68497-59.688453-10.68497-59.688454 20.633046-61.899137 26.896649-294.757795-122.692932-267.861146-23.580624-49.371931-180.539149-87.690444-253.860151 43.108328a276.335432 276.335432 0 0 0-21.36994 226.963502c0 5.158261-9.948076-5.158261-13.264101 28.00199a168.38039 168.38039 0 0 0 27.633544 100.21765 62.636031 62.636031 0 0 0 25.422859 18.79081 270.808724 270.808724 0 0 0 54.161745 110.534173 61.899137 61.899137 0 0 1-32.423357 65.952056C181.066768 668.731746 51.004891 747.211009 51.004891 832.322322v65.952057c16.580126 119.00846 339.708358 110.534173 557.829126 105.744359a20.264598 20.264598 0 0 0 6.263603-26.528202 117.166223 117.166223 0 0 0-55.635533-42.371433c0-1.842236-6.63205-2.947578-7.368945-4.789814a97.638519 97.638519 0 0 1-8.474287-58.951559s0.736894-226.226607 1.473789-229.542632z" fill="#A6C5F6" p-id="15220"></path><path d="M913.539887 578.462172h-242.806733a57.47777 57.47777 0 0 0-58.951559 55.267086v253.860151a69.268082 69.268082 0 0 0 14.73789 33.160252l140.009952 95.796283a39.792302 39.792302 0 0 0 25.791307 7.368945 32.791805 32.791805 0 0 0 25.42286-11.053418l136.32548-92.11181a36.844724 36.844724 0 0 0 18.422362-29.47578V637.413731a52.687956 52.687956 0 0 0-58.951559-58.951559z m2.579131 145.168214L864.167957 773.739211l12.895653 69.636529a11.790312 11.790312 0 0 1-4.789814 12.158759 11.421865 11.421865 0 0 1-7.368945 2.57913 15.474784 15.474784 0 0 1-5.895156 0l-65.215162-32.05491-65.583609 32.05491a15.474784 15.474784 0 0 1-5.526709 0 11.421865 11.421865 0 0 1-7.737392-2.57913 12.527206 12.527206 0 0 1-4.789814-12.158759l13.632548-69.636529-51.951061-48.266589a12.158759 12.158759 0 0 1-3.316026-12.895654 12.895654 12.895654 0 0 1 10.316523-8.474286l72.21566-14.369443 31.318016-63.372926a12.895654 12.895654 0 0 1 22.843729 0l32.05491 64.846715 71.847212 12.527206a12.895654 12.895654 0 0 1 9.948076 8.474287 12.527206 12.527206 0 0 1-2.947578 11.421865z" fill="#4E8CEE" p-id="15221"></path></svg>