<?xml version="1.0" standalone="no"?><!DOCTYPE svg PUBLIC "-//W3C//DTD SVG 1.1//EN" "http://www.w3.org/Graphics/SVG/1.1/DTD/svg11.dtd"><svg t="1583996977354" class="icon" viewBox="0 0 1120 1024" version="1.1" xmlns="http://www.w3.org/2000/svg" p-id="8487" xmlns:xlink="http://www.w3.org/1999/xlink" width="218.75" height="200"><defs><style type="text/css"></style></defs><path d="M439.848671 869.47781a113.232418 113.232418 0 1 0-226.464836 0V899.318844H77.668446V77.668446h964.315069V572.29381h78.077227V40.878129a40.878129 40.878129 0 0 0-38.834222-40.878129H40.878129a40.878129 40.878129 0 0 0-40.878129 40.878129v899.318845a40.878129 40.878129 0 0 0 40.878129 40.878129h211.339929a40.878129 40.878129 0 0 0 40.878129-40.878129v-70.719164a35.155191 35.155191 0 0 1 70.310382 0V940.196974a40.878129 40.878129 0 0 0 40.87813 40.878129h237.501931v-81.756259h-201.937959z" fill="#A6C5F6" p-id="8488"></path><path d="M275.927373 362.180225a17.168814 17.168814 0 0 0 16.351251 17.577596 96.881166 96.881166 0 0 0 85.026509 92.793354 96.881166 96.881166 0 0 0 84.617728-92.793354 17.168814 17.168814 0 0 0 16.760033-17.577596 17.986377 17.986377 0 0 0-9.810751-16.351251 112.006074 112.006074 0 0 0 4.905375-33.111285 99.742635 99.742635 0 0 0-96.063603-103.012886 99.742635 99.742635 0 0 0-97.289948 103.012886 100.151417 100.151417 0 0 0 5.722938 33.111285 17.986377 17.986377 0 0 0-9.810751 16.351251zM163.512517 596.411906v32.293722a8.993188 8.993188 0 0 0 8.993189 8.993189h412.869105a8.993188 8.993188 0 0 0 8.993189-8.993189v-32.293722a9.810751 9.810751 0 0 0-2.861469-6.5405A307.812313 307.812313 0 0 0 449.659422 511.385397a8.175626 8.175626 0 0 0-4.496594 0h-4.496594a9.40197 9.40197 0 0 0-4.496595 0 131.627576 131.627576 0 0 1-58.864506 13.081002 126.722201 126.722201 0 0 1-59.273287-13.489783H308.629876A312.308908 312.308908 0 0 0 163.512517 589.871406a9.40197 9.40197 0 0 0-2.452688 6.5405z" fill="#4E8CEE" p-id="8489"></path><path d="M613.171939 367.903164h289.417156a15.94247 15.94247 0 0 0 0-31.47616H613.171939A15.94247 15.94247 0 0 0 613.171939 367.903164zM613.171939 214.201397A15.533689 15.533689 0 1 0 613.171939 245.268776h289.417156a15.533689 15.533689 0 1 0 0-31.067379z" fill="#A6C5F6" p-id="8490"></path><path d="M1085.723114 749.29611h-37.199098a174.549612 174.549612 0 0 0-15.533689-37.199098l26.979565-26.570784a30.658597 30.658597 0 0 0 0-43.330817l-22.07419-21.665408a30.249816 30.249816 0 0 0-43.330817 0l-26.979565 26.979565a171.279362 171.279362 0 0 0-34.74641-13.898564v-37.199098a30.249816 30.249816 0 0 0-30.658597-30.249815h-30.249815a30.249816 30.249816 0 0 0-30.658597 30.249815v37.199098a184.769144 184.769144 0 0 0-35.972754 14.716126l-28.614691-27.797127a30.249816 30.249816 0 0 0-43.330817 0l-21.665408 21.665408a30.249816 30.249816 0 0 0 0 43.330817l27.797128 27.797128a184.769144 184.769144 0 0 0-14.716127 35.972754h-37.199097a30.249816 30.249816 0 0 0-30.249816 30.658597v30.249815a30.249816 30.249816 0 0 0 30.249816 30.658597h37.199097a171.279362 171.279362 0 0 0 13.898564 34.74641l-26.979565 26.979566a30.249816 30.249816 0 0 0 0 43.330817l21.665408 22.074189a30.658597 30.658597 0 0 0 43.330817 0l26.570784-26.979565a174.549612 174.549612 0 0 0 37.199098 15.533689v37.199098a30.249816 30.249816 0 0 0 30.658597 30.249816h30.249816a30.249816 30.249816 0 0 0 30.658597-30.249816v-37.199098a184.769144 184.769144 0 0 0 36.790316-16.351251l25.753221 26.162002a30.658597 30.658597 0 0 0 43.330817 0l22.07419-22.07419a30.658597 30.658597 0 0 0 0-43.330817l-26.162002-25.753221a184.769144 184.769144 0 0 0 14.716126-35.972754h37.199098a30.249816 30.249816 0 0 0 30.249815-30.658597v-30.249815a30.249816 30.249816 0 0 0-30.249815-30.658597z m-198.667709 137.350514a91.56701 91.56701 0 1 1 91.56701-91.567009 91.56701 91.56701 0 0 1-91.56701 91.567009z m0-137.350514a45.783505 45.783505 0 1 0 45.783505 45.783505 45.783505 45.783505 0 0 0-45.783505-45.783505z" fill="#4E8CEE" p-id="8491"></path></svg>