<?xml version="1.0" standalone="no"?><!DOCTYPE svg PUBLIC "-//W3C//DTD SVG 1.1//EN" "http://www.w3.org/Graphics/SVG/1.1/DTD/svg11.dtd"><svg t="1583997001850" class="icon" viewBox="0 0 1024 1024" version="1.1" xmlns="http://www.w3.org/2000/svg" p-id="9471" xmlns:xlink="http://www.w3.org/1999/xlink" width="200" height="200"><defs><style type="text/css"></style></defs><path d="M851.862069 94.032984h-54.50075a61.025487 61.025487 0 0 1 8.05997 30.704647v62.176912A61.409295 61.409295 0 0 1 745.931034 248.707646H246.98051a61.793103 61.793103 0 0 1-60.257871-61.793103V124.737631a57.955022 57.955022 0 0 1 8.443778-30.704647H140.665667A123.970015 123.970015 0 0 0 16.695652 217.61919V836.701649A123.970015 123.970015 0 0 0 140.665667 959.52024h417.967017A278.644678 278.644678 0 0 1 976.215892 597.973013V217.61919a123.970015 123.970015 0 0 0-124.353823-123.586206z m-369.223388 621.001499H186.722639v-95.952024h295.916042z m140.473763-207.64018H186.722639v-96.335832H623.112444z" fill="#A6C5F6" p-id="9472"></path><path d="M383.232384 187.682159H630.788606a62.176912 62.176912 0 0 0 62.176911-61.793104V64.095952A61.793103 61.793103 0 0 0 630.788606 2.302849H383.232384a61.793103 61.793103 0 0 0-62.176912 61.793103v61.793103a62.176912 62.176912 0 0 0 62.176912 61.793104zM790.068966 589.145427A216.467766 216.467766 0 1 0 1006.536732 805.997001a216.083958 216.083958 0 0 0-216.467766-216.851574z m123.586206 278.26087h-185.37931v-172.329835h61.793104v103.628186h123.586206z" fill="#4E8CEE" p-id="9473"></path></svg>