<?xml version="1.0" standalone="no"?><!DOCTYPE svg PUBLIC "-//W3C//DTD SVG 1.1//EN" "http://www.w3.org/Graphics/SVG/1.1/DTD/svg11.dtd"><svg t="1583995793797" class="icon" viewBox="0 0 1024 1024" version="1.1" xmlns="http://www.w3.org/2000/svg" p-id="2262" xmlns:xlink="http://www.w3.org/1999/xlink" width="200" height="200"><defs><style type="text/css"></style></defs><path d="M967.085038 0C998.486396 0 1023.957335 25.470939 1023.957335 56.872297v910.212741c0 31.401358-25.470939 56.872297-56.872297 56.872297h-11.946169c-16.041998 0-31.316028-6.698388-42.110245-18.559227l-113.6166-124.581475-101.713095 111.526019a56.872297 56.872297 0 0 1-84.007166 0L511.978668 880.816633 410.265572 992.385317a56.872297 56.872297 0 0 1-84.049831 0l-101.67043-111.526019-113.6166 124.581475a56.872297 56.872297 0 0 1-42.110245 18.559227h-11.946169A56.872297 56.872297 0 0 1 0 967.085038V56.872297C0 25.470939 25.470939 0 56.872297 0h910.212741z m-217.249614 327.111704a56.872297 56.872297 0 0 0-80.167327-6.997042l-191.266697 160.462647-103.803675-96.849298a56.872297 56.872297 0 1 0-77.607433 83.196534l124.837465 116.389817a56.744302 56.744302 0 0 0 43.262198 15.146035 56.872297 56.872297 0 0 0 59.858839-8.362318l217.889588-182.861714a56.872297 56.872297 0 0 0 6.997042-80.124661z" fill="#8AD96A" p-id="2263"></path></svg>