<?xml version="1.0" standalone="no"?><!DOCTYPE svg PUBLIC "-//W3C//DTD SVG 1.1//EN" "http://www.w3.org/Graphics/SVG/1.1/DTD/svg11.dtd"><svg t="1583996035208" class="icon" viewBox="0 0 1024 1024" version="1.1" xmlns="http://www.w3.org/2000/svg" p-id="3334" xmlns:xlink="http://www.w3.org/1999/xlink" width="200" height="200"><defs><style type="text/css"></style></defs><path d="M0 0h1024v1024H0z" fill="#FFFFFF" p-id="3335"></path><path d="M836.36 447.604c-32-12.98-66.984-20.124-103.632-20.124-152.632 0-276.364 123.96-276.364 276.868 0 82.692 36.188 156.92 93.56 207.652H318.18C241.868 912 180 850.132 180 773.82V254.18C180 177.868 241.868 116 318.18 116h380c76.32 0 138.184 61.868 138.184 138.18v193.424z" fill="#4DBB88" p-id="3336"></path><path d="M318.18 254.436m34.544 0l310.912 0q34.544 0 34.544 34.544l0 0.128q0 34.544-34.544 34.544l-310.912 0q-34.544 0-34.544-34.544l0-0.128q0-34.544 34.544-34.544Z" fill="#94D6B7" p-id="3337"></path><path d="M318.18 462.088m34.544 0l69.092 0q34.544 0 34.544 34.544l0 0.128q0 34.544-34.544 34.544l-69.092 0q-34.544 0-34.544-34.544l0-0.128q0-34.544 34.544-34.544Z" fill="#94D6B7" p-id="3338"></path><path d="M318.18 669.74m34.544 0l0.004 0q34.544 0 34.544 34.544l0 0.128q0 34.544-34.544 34.544l-0.004 0q-34.544 0-34.544-34.544l0-0.128q0-34.544 34.544-34.544Z" fill="#94D6B7" p-id="3339"></path><path d="M732.728 912c-114.476 0-207.272-92.968-207.272-207.652 0-114.68 92.8-207.652 207.272-207.652S940 589.664 940 704.348c0 114.68-92.8 207.652-207.272 207.652z m138.18-323.016c0-3.12-1.14-5.824-3.416-8.108-2.28-2.284-4.98-3.428-8.096-3.428-3.12 0-5.82 1.144-8.1 3.428l-23.388 23.252a139.36 139.36 0 0 0-44.08-28.212c-16.556-6.668-33.588-10-51.1-10-32.988 0-61.776 10-86.364 30.008s-40.784 46.12-48.58 78.32v1.264c0 1.56 0.572 2.912 1.708 4.056 1.14 1.14 2.488 1.712 4.052 1.712h35.8c2.64 0 4.44-1.384 5.4-4.144 5.04-12.02 8.216-19.048 9.536-21.092 8.4-13.7 19.552-24.456 33.468-32.264 13.912-7.812 28.904-11.72 44.98-11.72 24.108 0 45.04 8.232 62.792 24.696l-24.828 24.876c-2.28 2.28-3.42 4.984-3.42 8.112 0 3.12 1.14 5.828 3.42 8.108 2.28 2.284 4.976 3.424 8.096 3.424h80.608c3.12 0 5.816-1.14 8.096-3.424 2.28-2.28 3.416-4.984 3.416-8.108v-80.756z m-4.496 144.2c0-1.56-0.572-2.912-1.712-4.052a5.528 5.528 0 0 0-4.048-1.712h-34.544c-2.64 0-4.44 1.384-5.4 4.144-5.036 12.02-8.216 19.048-9.536 21.092-8.396 13.7-19.552 24.452-33.464 32.264-13.912 7.812-28.908 11.72-44.98 11.72a89.64 89.64 0 0 1-33.648-6.492 92.796 92.796 0 0 1-28.968-18.384l24.652-24.696c2.28-2.28 3.416-4.988 3.416-8.112 0-3.124-1.14-5.828-3.42-8.112-2.28-2.28-4.976-3.424-8.096-3.424h-80.604c-3.12 0-5.82 1.14-8.096 3.424-2.28 2.284-3.42 4.988-3.42 8.112v80.756c0 3.12 1.14 5.828 3.42 8.108 2.28 2.284 4.976 3.424 8.096 3.424s5.816-1.14 8.096-3.424l23.208-23.252a137.316 137.316 0 0 0 43.812 28.3 134.592 134.592 0 0 0 50.832 9.916c32.864 0 61.532-10.004 86-30.012 24.472-20.008 40.548-46.12 48.224-78.32 0.12-0.24 0.18-0.664 0.18-1.264z" fill="#82CFAB" p-id="3340"></path></svg>