<?xml version="1.0" standalone="no"?><!DOCTYPE svg PUBLIC "-//W3C//DTD SVG 1.1//EN" "http://www.w3.org/Graphics/SVG/1.1/DTD/svg11.dtd"><svg t="1583995864264" class="icon" viewBox="0 0 1024 1024" version="1.1" xmlns="http://www.w3.org/2000/svg" p-id="2195" xmlns:xlink="http://www.w3.org/1999/xlink" width="200" height="200"><defs><style type="text/css"></style></defs><path d="M786.602667 0c4.778667 0 8.704 3.84 8.704 8.533333v74.282667c0 4.693333 3.925333 8.533333 8.746666 8.533333h75.605334c4.821333 0 8.746667 3.882667 8.746666 8.618667V174.08c0 4.693333 3.925333 8.533333 8.704 8.533333l75.648 0.170667c4.778667 0 8.704 3.84 8.533334 8.533333V1015.466667c0 4.693333-3.882667 8.576-8.704 8.576H51.413333A8.661333 8.661333 0 0 1 42.666667 1015.466667V8.533333C42.666667 3.84 46.592 0 51.413333 0z m-20.650667 436.992l-2.56-0.128-1.152 0.64-178.773333 151.978667-104.277334-71.210667-1.28-0.554667a3.413333 3.413333 0 0 0-2.730666 0.64l-217.770667 155.221334-0.768 0.725333A3.328 3.328 0 0 0 256 676.266667v88.405333l0.256 1.28A3.413333 3.413333 0 0 0 259.413333 768H764.586667l1.365333-0.256c1.237333-0.512 2.090667-1.706667 2.090667-3.072v-324.693333l-0.256-1.237334a3.328 3.328 0 0 0-1.792-1.749333l-1.28-0.298667zM667.221333 256l-3.114666 0.298667a15.445333 15.445333 0 0 0-12.458667 15.104c0 8.533333 6.954667 15.36 15.573333 15.36h51.370667l-0.085333 0.128h-0.085334l-144.213333 120.746666-78.933333-57.045333-2.858667-1.621333a15.829333 15.829333 0 0 0-15.445333 1.578666l-215.210667 154.154667-2.432 2.474667a15.232 15.232 0 0 0-0.341333 18.517333c4.864 6.656 14.08 8.362667 21.077333 3.925333l205.994667-147.541333 79.616 57.472 3.029333 1.706667a15.701333 15.701333 0 0 0 16.213333-2.346667l151.893334-127.146667v48.512l0.341333 3.072a15.530667 15.530667 0 0 0 15.274667 12.288 15.488 15.488 0 0 0 15.573333-15.36V271.36l-0.298667-3.114667A15.530667 15.530667 0 0 0 752.512 256z" fill="#F56C6C" p-id="2196"></path></svg>