<?xml version="1.0" standalone="no"?><!DOCTYPE svg PUBLIC "-//W3C//DTD SVG 1.1//EN" "http://www.w3.org/Graphics/SVG/1.1/DTD/svg11.dtd"><svg t="1583995974617" class="icon" viewBox="0 0 1024 1024" version="1.1" xmlns="http://www.w3.org/2000/svg" p-id="2016" xmlns:xlink="http://www.w3.org/1999/xlink" width="200" height="200"><defs><style type="text/css"></style></defs><path d="M0 0h1024v1024H0z" fill="#FFFFFF" p-id="2017"></path><path d="M269.144 148h388.572C765.016 148 852 234.984 852 342.284v339.432C852 789.016 765.016 876 657.716 876H269.144C215.492 876 172 832.508 172 778.856V245.144C172 191.492 215.492 148 269.144 148z" fill="#4DBB88" p-id="2018"></path><path d="M317.716 245.068H512c26.824 0 48.572 21.744 48.572 48.572v293.508a24.284 24.284 0 0 1-38.052 20.012l-89.712-61.72a24.284 24.284 0 0 0-26.94-0.392l-99.264 64.096a24.284 24.284 0 0 1-37.46-20.4V293.64c0-26.828 21.744-48.572 48.572-48.572z" fill="#B7E3CF" p-id="2019"></path></svg>