<?xml version="1.0" standalone="no"?><!DOCTYPE svg PUBLIC "-//W3C//DTD SVG 1.1//EN" "http://www.w3.org/Graphics/SVG/1.1/DTD/svg11.dtd"><svg t="1583997255734" class="icon" viewBox="0 0 1053 1024" version="1.1" xmlns="http://www.w3.org/2000/svg" p-id="1979" xmlns:xlink="http://www.w3.org/1999/xlink" width="205.6640625" height="200"><defs><style type="text/css"></style></defs><path d="M372.244431 1024a85.384157 85.384157 0 0 1-74.878856-45.589041L76.479809 612.631328a116.869565 116.869565 0 0 1-4.940083-8.995831l-24.807147-50.01072a373.189756 373.189756 0 1 1 653.127814 0.457415l-18.510065 37.50804c-1.768672 3.354378-3.293389 6.25134-4.940084 8.995831L448.724241 979.478261a91.483026 91.483026 0 0 1-76.47981 44.521739z m1.265515-935.108993A284.801906 284.801906 0 0 0 89.058725 373.403216a287.805599 287.805599 0 0 0 36.37975 138.901727L151.1757 564.145325c0.365932 0.762359 0.8081 1.524717 1.250268 2.287075l220.962001 365.932103 226.938892-377.824896c0.655628-1.067302 1.128291-1.982132 1.524717-2.896963l19.226683-38.880285a293.614771 293.614771 0 0 0 27.353425-67.849911A283.597379 283.597379 0 0 0 373.509946 88.891007zM372.869565 548.898154a177.172126 177.172126 0 1 1 176.7757-177.172127A177.141632 177.141632 0 0 1 372.869565 548.898154z m-0.503156-261.488982a84.77427 84.77427 0 1 0 84.393091 84.774271 84.743776 84.743776 0 0 0-84.393091-84.774271z m227.396307 708.536033c-23.007981 0-30.662061-17.83919-32.461227-41.014889a44.582728 44.582728 0 0 1 40.892912-47.876117c112.051459-8.538416 183.713163-43.149494 217.302681-94.837403a101.469923 101.469923 0 0 0 8.446932-93.465158c-25.920191-73.18642-8.294461-112.37165 11.115188-141.493746 22.428588-33.696248 58.04598-73.18642 161.970697-78.980346a44.521739 44.521739 0 0 1 4.909589 88.891007c-52.435021 2.896962-77.074449 15.704586-92.870518 39.337701-11.877546 17.83919-12.319714 35.220965-1.356999 66.172722a183.514949 183.514949 0 0 1-17.686718 168.023823c-49.47707 76.083383-154.880762 124.111971-296.801429 135.089935-1.158785 0-2.31757 0.152472-3.461108 0.152471z" fill="#57C87A" p-id="1980"></path></svg>