<?xml version="1.0" standalone="no"?><!DOCTYPE svg PUBLIC "-//W3C//DTD SVG 1.1//EN" "http://www.w3.org/Graphics/SVG/1.1/DTD/svg11.dtd"><svg t="1583995871740" class="icon" viewBox="0 0 1024 1024" version="1.1" xmlns="http://www.w3.org/2000/svg" p-id="2471" xmlns:xlink="http://www.w3.org/1999/xlink" width="200" height="200"><defs><style type="text/css"></style></defs><path d="M786.602667 0c4.778667 0 8.704 3.84 8.704 8.533333v74.282667c0 4.693333 3.925333 8.533333 8.746666 8.533333h75.605334c4.821333 0 8.746667 3.882667 8.746666 8.618667V174.08c0 4.693333 3.925333 8.533333 8.704 8.533333l75.648 0.170667c4.778667 0 8.704 3.84 8.533334 8.533333V1015.466667c0 4.693333-3.882667 8.576-8.704 8.576H51.413333A8.661333 8.661333 0 0 1 42.666667 1015.466667V8.533333C42.666667 3.84 46.592 0 51.413333 0z m-247.04 310.272a38.613333 38.613333 0 0 0-55.125334 0l-174.165333 174.08a38.570667 38.570667 0 0 0 0 55.168l174.165333 174.122667c14.549333 15.573333 39.68 15.573333 55.125334 0l174.165333-174.08a38.570667 38.570667 0 0 0 0-55.168zM512 574.08c3.413333 0 5.973333 1.024 8.533333 1.877333 2.56 1.024 5.077333 2.901333 6.826667 4.906667 1.664 1.92 3.413333 3.925333 4.309333 6.826667 0.853333 2.901333 1.664 5.802667 1.664 8.704 0 2.858667-0.853333 5.76-1.664 8.661333a17.066667 17.066667 0 0 1-4.309333 6.826667 21.802667 21.802667 0 0 1-15.36 6.826666c-3.413333-0.042667-5.973333-1.066667-8.533333-1.92-2.56-1.024-4.266667-2.901333-6.826667-4.906666-1.706667-1.92-3.413333-3.925333-4.309333-6.826667-0.768-2.773333-1.664-4.778667-1.664-8.661333 0-2.901333 0.853333-5.802667 1.664-8.704a17.066667 17.066667 0 0 1 4.266666-6.826667 21.802667 21.802667 0 0 1 15.36-6.826667zM511.018667 405.333333a45.44 45.44 0 0 1 43.264 59.306667l-23.210667 72.533333-1.536 3.584a20.992 20.992 0 0 1-38.442667-3.541333l-23.296-72.618667-1.28-4.778666A45.397333 45.397333 0 0 1 511.018667 405.333333z" fill="#A1BCFF" p-id="2472"></path></svg>