<?xml version="1.0" standalone="no"?><!DOCTYPE svg PUBLIC "-//W3C//DTD SVG 1.1//EN" "http://www.w3.org/Graphics/SVG/1.1/DTD/svg11.dtd"><svg t="1583995906982" class="icon" viewBox="0 0 1117 1024" version="1.1" xmlns="http://www.w3.org/2000/svg" p-id="3713" xmlns:xlink="http://www.w3.org/1999/xlink" width="218.1640625" height="200"><defs><style type="text/css"></style></defs><path d="M821.992354 0c58.181792 0 102.120681 42.682162 102.12068 100.3985v401.268181h128.465397c0.465454 0 0.837818-0.139636 1.256726-0.139636 0.465454 0 0.837818 0.139636 1.256727 0.139636h1.489454c33.652348 1.62909 60.509063 28.858169 60.509063 62.557063 0 15.359993-5.771634 29.183987-14.941084 40.029072l-444.60198 385.116916A158.161383 158.161383 0 0 1 558.545201 1023.999535a158.254474 158.254474 0 0 1-98.303956-34.117803l-444.508889-384.604916A61.905426 61.905426 0 0 1 0 564.223744c0-26.670533 16.942538-49.245069 40.680709-58.274883l5.585452-1.861817s6.376724-2.420363 15.732356-2.420363h130.932304V100.3985C192.930821 42.682162 236.916256 0 295.098048 0h526.894306z m-233.378803 245.387525a42.123617 42.123617 0 0 0-60.1367 0l-189.998459 189.905368a42.077072 42.077072 0 0 0 0 60.183245l189.998459 189.951914c15.871993 16.989083 43.287253 16.989083 60.1367 0l189.998459-189.905368a42.077072 42.077072 0 0 0 0-60.183246zM558.545201 533.177939c3.723635 0 6.516361 1.11709 9.309086 2.048 2.792726 1.11709 5.538907 3.165089 7.44727 5.352724 1.861817 2.094545 3.723635 4.28218 4.701088 7.44727 0.930909 3.165089 1.815272 6.330179 1.815272 9.495268 0 3.118544-0.930909 6.283634-1.815272 9.448723a18.618173 18.618173 0 0 1-4.654543 7.447269 23.784716 23.784716 0 0 1-16.756356 7.44727c-3.77018-0.046545-6.516361-1.163636-9.309087-2.094545-2.792726-1.11709-4.701089-3.165089-7.493814-5.352725a19.8749 19.8749 0 0 1-4.701089-7.447269c-0.837818-3.025453-1.815272-5.213089-1.815272-9.448723 0-3.165089 0.930909-6.330179 1.815272-9.495268a18.618173 18.618173 0 0 1 4.654543-7.44727 23.784716 23.784716 0 0 1 16.756356-7.447269zM557.474656 349.09075a49.570887 49.570887 0 0 1 47.197069 64.698153l-25.320716 79.127237-1.675635 3.909816a22.900353 22.900353 0 0 1-41.937436-3.863271l-25.413806-79.220328-1.396363-5.213088A49.524341 49.524341 0 0 1 557.474656 349.09075z" fill="#F56C6C" p-id="3714"></path></svg>