<?xml version="1.0" standalone="no"?><!DOCTYPE svg PUBLIC "-//W3C//DTD SVG 1.1//EN" "http://www.w3.org/Graphics/SVG/1.1/DTD/svg11.dtd"><svg t="1583996890996" class="icon" viewBox="0 0 1024 1024" version="1.1" xmlns="http://www.w3.org/2000/svg" p-id="5126" xmlns:xlink="http://www.w3.org/1999/xlink" width="200" height="200"><defs><style type="text/css"></style></defs><path d="M618.862811 90.612898A94.176722 94.176722 0 0 0 521.868836 0.058357a94.176722 94.176722 0 0 0-97.396439 90.554541v13.281332A367.047737 367.047737 0 0 0 185.005946 442.769444v120.739387s0 181.511546-45.478503 181.511546A49.905613 49.905613 0 0 0 87.609507 790.498879a44.271109 44.271109 0 0 0 45.478502 45.478503H892.538755a45.478503 45.478503 0 0 0 0-90.554541c-45.478503 0-45.478503-181.511546-45.478503-181.511545v-129.593609a334.045638 334.045638 0 0 0-226.587583-330.825921v-12.878868z" fill="#A6C5F6" p-id="5127"></path><path d="M664.743778 887.895318a138.447831 138.447831 0 0 1-142.472477 136.033043 138.447831 138.447831 0 0 1-142.874942-136.033043z" fill="#4E8CEE" p-id="5128"></path></svg>