<?xml version="1.0" standalone="no"?><!DOCTYPE svg PUBLIC "-//W3C//DTD SVG 1.1//EN" "http://www.w3.org/Graphics/SVG/1.1/DTD/svg11.dtd"><svg t="1583996899850" class="icon" viewBox="0 0 1302 1024" version="1.1" xmlns="http://www.w3.org/2000/svg" p-id="5405" xmlns:xlink="http://www.w3.org/1999/xlink" width="254.296875" height="200"><defs><style type="text/css"></style></defs><path d="M71.559055 39.307087A186.96063 186.96063 0 0 0 0 185.952756v651.590551a185.952756 185.952756 0 0 0 40.314961 115.905512l365.35433-365.354331A741.795276 741.795276 0 0 1 71.559055 39.307087z" fill="#A6C5F6" p-id="5406"></path><path d="M1179.716535 11.086614A185.952756 185.952756 0 0 0 1116.724409 0H185.952756a184.944882 184.944882 0 0 0-55.433071 8.566929C164.283465 328.062992 386.519685 574.992126 655.11811 574.992126S1144.944882 329.070866 1179.716535 11.086614z" fill="#4E8CEE" p-id="5407"></path><path d="M1253.795276 60.472441C1216.503937 302.362205 1084.976378 498.897638 907.086614 596.15748l352.755906 352.755906a185.952756 185.952756 0 0 0 38.803149-113.889764V185.952756a185.952756 185.952756 0 0 0-50.3937-125.480315zM664.188976 659.653543a499.905512 499.905512 0 0 1-215.181102-50.3937l-375.433071 376.944881a186.456693 186.456693 0 0 0 112.377953 37.795276h930.771653a185.448819 185.448819 0 0 0 114.393701-39.811024l-366.362204-366.362204a503.937008 503.937008 0 0 1-201.574804 41.826771z" fill="#A6C5F6" p-id="5408"></path></svg>