<?xml version="1.0" standalone="no"?><!DOCTYPE svg PUBLIC "-//W3C//DTD SVG 1.1//EN" "http://www.w3.org/Graphics/SVG/1.1/DTD/svg11.dtd"><svg t="1583996911312" class="icon" viewBox="0 0 1024 1024" version="1.1" xmlns="http://www.w3.org/2000/svg" p-id="5825" xmlns:xlink="http://www.w3.org/1999/xlink" width="200" height="200"><defs><style type="text/css"></style></defs><path d="M754.041577 397.312l-30.533818-30.533818a19.362909 19.362909 0 0 0-25.693091 0l-237.568 209.640727a18.990545 18.990545 0 0 1-24.203637 0l-114.688-89.367273a18.618182 18.618182 0 0 0-24.948363 0L266.245213 521.309091a18.618182 18.618182 0 0 0 0 25.693091L436.043031 744.727273a18.990545 18.990545 0 0 0 28.299637 0l291.560727-319.860364a18.618182 18.618182 0 0 0-1.861818-27.554909z" fill="#4E8CEE" p-id="5826"></path><path d="M816.598668 138.519273V878.778182a15.639273 15.639273 0 0 1-15.266909 16.011636H221.189213a15.639273 15.639273 0 0 1-15.266909-16.011636V138.891636a15.639273 15.639273 0 0 0-15.266909-16.011636H99.05394a15.639273 15.639273 0 0 0-15.266909 16.011636v740.258909a141.125818 141.125818 0 0 0 137.402182 144.849455h580.514909A141.498182 141.498182 0 0 0 940.223395 879.150545V138.891636a15.639273 15.639273 0 0 0-15.266909-16.011636h-93.090909a15.639273 15.639273 0 0 0-15.266909 15.639273z" fill="#A6C5F6" p-id="5827"></path><path d="M741.008849 122.135273h-93.090909a14.149818 14.149818 0 0 1-14.522181-14.522182V74.472727a74.472727 74.472727 0 0 0-74.472728-74.472727h-94.208a74.472727 74.472727 0 0 0-74.472727 74.472727v32.023273a14.149818 14.149818 0 0 1-14.522182 14.522182H281.139759a14.894545 14.894545 0 0 0-14.522182 14.894545v93.835637a14.522182 14.522182 0 0 0 14.522182 14.522181h459.86909a14.522182 14.522182 0 0 0 13.032728-14.522181V137.029818a14.894545 14.894545 0 0 0-13.032728-14.894545z m-183.575272 0h-92.718546a14.522182 14.522182 0 0 1-14.894545-14.522182V74.472727a14.894545 14.894545 0 0 1 14.894545-14.522182h92.718546a14.894545 14.894545 0 0 1 14.894545 14.522182v32.023273a14.522182 14.522182 0 0 1-14.894545 15.639273z" fill="#4E8CEE" p-id="5828"></path></svg>