<?xml version="1.0" standalone="no"?><!DOCTYPE svg PUBLIC "-//W3C//DTD SVG 1.1//EN" "http://www.w3.org/Graphics/SVG/1.1/DTD/svg11.dtd"><svg t="1583997205463" class="icon" viewBox="0 0 1024 1024" version="1.1" xmlns="http://www.w3.org/2000/svg" p-id="16965" xmlns:xlink="http://www.w3.org/1999/xlink" width="200" height="200"><defs><style type="text/css"></style></defs><path d="M269.845372 297.350272c25.646461 77.311071 97.010526 77.311071 122.2853 0a43.115789 43.115789 0 0 0 18.584392-28.619963c0-11.150635 0-26.389837-10.778948-26.389837a65.045372 65.045372 0 0 0-68.018875-66.903811A64.673684 64.673684 0 0 0 263.898367 242.71216c-11.522323 0-12.265699 15.239201-10.778948 26.389836a42.744102 42.744102 0 0 0 16.725953 28.248276z" fill="#4E8CEE" p-id="16966"></path><path d="M434.131397 743.375681v-26.761525A53.894737 53.894737 0 0 0 486.911071 661.976044l209.260254-209.260255a14.495826 14.495826 0 0 0-20.442831-20.442831L486.911071 619.231942v-178.038476a83.258076 83.258076 0 0 0-66.532124-80.656261l-28.991651-5.947005-60.21343 119.683484-60.21343-119.683484-28.991652 5.947005a83.258076 83.258076 0 0 0-67.647187 80.656261v220.782578A53.523049 53.523049 0 0 0 226.729583 715.87078V743.375681z" fill="#4E8CEE" p-id="16967"></path><path d="M3.716878 557.53176a148.675136 148.675136 0 0 0 148.675137 148.675137h1.858439a85.116515 85.116515 0 0 1-12.637387-44.230853v-20.442832a86.231579 86.231579 0 0 1-74.337568-84.744827V148.675136A86.231579 86.231579 0 0 1 152.392015 64.301996h714.755716A86.231579 86.231579 0 0 1 953.007623 148.675136v408.856624a86.231579 86.231579 0 0 1-85.859892 85.859892h-316.306352l-31.965154 31.965154a86.974955 86.974955 0 0 1-12.637387 31.593466h360.908893a148.675136 148.675136 0 0 0 148.675137-148.675136V148.675136a148.675136 148.675136 0 0 0-148.675137-148.675136H152.392015a148.675136 148.675136 0 0 0-148.675137 148.675136z" fill="#A6C5F6" p-id="16968"></path><path d="M212.977132 795.411978h-111.506352A97.753902 97.753902 0 0 0 3.716878 892.050817v129.347368h307.385844V892.050817a98.12559 98.12559 0 0 0-98.12559-96.638839zM567.567332 795.411978h-111.506352A97.753902 97.753902 0 0 0 358.307078 892.050817v129.347368h307.385844V892.050817a98.12559 98.12559 0 0 0-98.12559-97.753902zM922.157532 795.411978h-111.506352a97.753902 97.753902 0 0 0-97.753902 96.638839v129.347368h307.385844V892.050817a98.12559 98.12559 0 0 0-98.12559-97.753902z" fill="#4E8CEE" p-id="16969"></path><path d="M836.669328 251.26098H572.399274a27.133212 27.133212 0 1 1 0-53.894737h264.270054a27.133212 27.133212 0 0 1 0 53.894737zM836.669328 393.245735H765.676951a27.133212 27.133212 0 0 1 0-53.894737h70.992377a27.133212 27.133212 0 0 1 0 53.894737z" fill="#A6C5F6" p-id="16970"></path></svg>