<?xml version="1.0" standalone="no"?><!DOCTYPE svg PUBLIC "-//W3C//DTD SVG 1.1//EN" "http://www.w3.org/Graphics/SVG/1.1/DTD/svg11.dtd"><svg t="1583997038497" class="icon" viewBox="0 0 1096 1024" version="1.1" xmlns="http://www.w3.org/2000/svg" p-id="10875" xmlns:xlink="http://www.w3.org/1999/xlink" width="214.0625" height="200"><defs><style type="text/css"></style></defs><path d="M401.908857 146.111733A146.516475 146.516475 0 1 0 548.425331 0a146.516475 146.516475 0 0 0-146.516474 146.111733zM219.370376 548.424927h658.109911a36.426748 36.426748 0 0 1 36.426748 36.426747v36.426748a36.426748 36.426748 0 0 0 36.426748 36.83149 36.426748 36.426748 0 0 0 36.426748-36.83149v-109.684985a36.426748 36.426748 0 0 0-36.426748-36.426748h-329.054956a36.426748 36.426748 0 0 1-36.426748-36.426748v-36.831489a36.426748 36.426748 0 0 0-36.426748-36.426748 36.83149 36.83149 0 0 0-36.831489 36.426748v36.831489a36.426748 36.426748 0 0 1-36.426748 36.426748H146.112138a36.426748 36.426748 0 0 0-36.426748 36.426748v109.684985a36.426748 36.426748 0 0 0 36.426748 36.83149 36.83149 36.83149 0 0 0 36.83149-36.83149v-36.426748a36.426748 36.426748 0 0 1 36.426748-36.426747z" fill="#4E8CEE" p-id="10876"></path><path d="M0.000405 877.479882a146.516475 146.516475 0 1 0 146.111733-146.516474A146.111733 146.111733 0 0 0 0.000405 877.479882zM804.22205 877.479882a146.111733 146.111733 0 1 0 146.111733-146.516474 146.111733 146.111733 0 0 0-146.111733 146.516474zM401.908857 877.479882a146.516475 146.516475 0 1 0 146.516474-146.516474 146.516475 146.516475 0 0 0-146.516474 146.516474z" fill="#A6C5F6" p-id="10877"></path></svg>