<?xml version="1.0" standalone="no"?><!DOCTYPE svg PUBLIC "-//W3C//DTD SVG 1.1//EN" "http://www.w3.org/Graphics/SVG/1.1/DTD/svg11.dtd"><svg t="1583996907463" class="icon" viewBox="0 0 1024 1024" version="1.1" xmlns="http://www.w3.org/2000/svg" p-id="5684" xmlns:xlink="http://www.w3.org/1999/xlink" width="200" height="200"><defs><style type="text/css"></style></defs><path d="M210.016864 301.382595A120.715669 120.715669 0 0 0 89.720347 422.098263v481.60522h180.654352v-361.308703A240.173882 240.173882 0 0 1 325.702713 390.24274a119.877365 119.877365 0 0 0-115.685849-88.860145zM812.337753 301.382595a119.877365 119.877365 0 0 0-115.685849 88.860145 240.173882 240.173882 0 0 1 55.328014 152.15204v361.308703h180.654352V422.098263a120.296517 120.296517 0 0 0-120.296517-120.715668z" fill="#A6C5F6" p-id="5685"></path><path d="M511.386884 361.740429a120.715669 120.715669 0 1 0-120.715668-120.296517 120.715669 120.715669 0 0 0 120.715668 120.296517z" fill="#4E8CEE" p-id="5686"></path><path d="M210.016864 0.431726a120.715669 120.715669 0 0 0 0 241.012186 115.685849 115.685849 0 0 0 62.034441-18.02352 238.497276 238.497276 0 0 1 53.651408-134.128521A119.877365 119.877365 0 0 0 210.016864 0.431726zM812.337753 241.443912a120.715669 120.715669 0 1 0-115.685849-152.152041 238.497276 238.497276 0 0 1 53.651408 134.128521 116.524152 116.524152 0 0 0 62.034441 18.02352z" fill="#A6C5F6" p-id="5687"></path><path d="M511.386884 422.098263a180.654351 180.654351 0 0 0-180.654351 180.654352v421.247385h361.308703V602.752615a180.654351 180.654351 0 0 0-180.654352-180.654352z" fill="#4E8CEE" p-id="5688"></path></svg>