<?xml version="1.0" standalone="no"?><!DOCTYPE svg PUBLIC "-//W3C//DTD SVG 1.1//EN" "http://www.w3.org/Graphics/SVG/1.1/DTD/svg11.dtd"><svg t="1583997005144" class="icon" viewBox="0 0 1024 1024" version="1.1" xmlns="http://www.w3.org/2000/svg" p-id="9610" xmlns:xlink="http://www.w3.org/1999/xlink" width="200" height="200"><defs><style type="text/css"></style></defs><path d="M512 1016.123077A504.910769 504.910769 0 0 1 7.876923 512a65.772308 65.772308 0 0 1 63.015385-63.015385A64.984615 64.984615 0 0 1 133.907692 512a378.88 378.88 0 0 0 378.092308 378.486154A374.547692 374.547692 0 0 0 891.273846 512a376.516923 376.516923 0 0 0-315.076923-374.941538V236.307692a63.015385 63.015385 0 1 1-126.030769 0V70.892308A64.984615 64.984615 0 0 1 512 7.876923a504.123077 504.123077 0 0 1 0 1008.246154z" fill="#A6C5F6" p-id="9611"></path><path d="M512 1024A512 512 0 0 1 0 512a73.649231 73.649231 0 0 1 70.892308-70.892308A72.861538 72.861538 0 0 1 141.784615 512a371.003077 371.003077 0 0 0 370.215385 370.609231A366.670769 366.670769 0 0 0 883.396923 512a369.033846 369.033846 0 0 0-300.110769-365.489231V236.307692A73.649231 73.649231 0 0 1 512 308.775385 73.649231 73.649231 0 0 1 441.501538 236.307692V70.892308a71.286154 71.286154 0 0 1 20.873847-49.23077A70.104615 70.104615 0 0 1 512 0a512 512 0 0 1 0 1024zM70.892308 456.861538A57.501538 57.501538 0 0 0 15.753846 512 496.246154 496.246154 0 1 0 512 15.753846a56.713846 56.713846 0 0 0-54.744615 55.138462V236.307692a55.138462 55.138462 0 0 0 110.276923 0V127.606154h9.452307A384.787692 384.787692 0 0 1 899.150769 512 382.424615 382.424615 0 0 1 512 898.363077 386.756923 386.756923 0 0 1 126.030769 512a57.501538 57.501538 0 0 0-55.138461-55.138462z" fill="#A6C5F6" p-id="9612"></path><path d="M480.886154 562.412308a84.283077 84.283077 0 0 0 39.384615 12.603077 95.310769 95.310769 0 0 0 39.384616-12.603077 50.018462 50.018462 0 0 0 0-69.71077c-12.603077-12.603077-315.076923-264.664615-327.68-275.692307-13.784615-6.695385-27.569231 3.544615-20.873847 17.723077s260.332308 310.744615 272.935385 329.255384z" fill="#4E8CEE" p-id="9613"></path><path d="M518.695385 594.707692a102.793846 102.793846 0 0 1-46.08-14.966154l-4.726154-1.96923-2.756923-4.332308c-12.209231-18.116923-260.332308-315.076923-270.572308-326.498462l-3.938462-5.513846a33.870769 33.870769 0 0 1 6.301539-39.384615A35.446154 35.446154 0 0 1 236.307692 196.923077l5.12 3.544615c6.695385 6.301538 89.403077 76.012308 162.264616 137.058462 98.461538 83.101538 157.538462 133.907692 165.415384 140.209231A68.529231 68.529231 0 0 1 590.769231 527.753846a67.741538 67.741538 0 0 1-20.086154 48.443077l-5.513846 3.938462a107.126154 107.126154 0 0 1-46.473846 14.572307z m-24.812308-47.655384a63.409231 63.409231 0 0 0 24.812308 8.270769 74.043077 74.043077 0 0 0 26.387692-9.452308 28.750769 28.750769 0 0 0 6.301538-18.116923 29.538462 29.538462 0 0 0-8.664615-20.873846c-6.695385-6.695385-89.796923-76.406154-163.052308-137.846154L272.147692 278.843077c72.073846 85.858462 198.104615 237.489231 221.735385 268.209231z" fill="#4E8CEE" p-id="9614"></path></svg>