<?xml version="1.0" standalone="no"?><!DOCTYPE svg PUBLIC "-//W3C//DTD SVG 1.1//EN" "http://www.w3.org/Graphics/SVG/1.1/DTD/svg11.dtd"><svg t="1583997020419" class="icon" viewBox="0 0 1125 1024" version="1.1" xmlns="http://www.w3.org/2000/svg" p-id="10171" xmlns:xlink="http://www.w3.org/1999/xlink" width="219.7265625" height="200"><defs><style type="text/css"></style></defs><path d="M1029.022496 0H95.412361A95.829996 95.829996 0 0 0 0.000837 96.248468v659.092766a95.829996 95.829996 0 0 0 95.411524 95.829996h302.554966v92.900695H327.664098a39.33633 39.33633 0 1 0 0 78.67266H795.096873a39.33633 39.33633 0 1 0 0-78.67266h-68.210871v-91.64528h302.136494a95.829996 95.829996 0 0 0 95.411524-95.411524V96.248468A95.411524 95.411524 0 0 0 1029.022496 0z m12.554148 757.433592a14.228034 14.228034 0 0 1-14.228034 14.228034H95.412361a14.228034 14.228034 0 0 1-11.717204-13.391091V93.319166a15.064978 15.064978 0 0 1 13.809562-13.809562h929.843891a13.809563 13.809563 0 0 1 14.228034 13.809562z" fill="#A6C5F6" p-id="10172"></path><path d="M150.232141 159.437679v544.013077h822.296689v-544.013077z m513.046179 389.597057l-12.554148 11.298734a24.689824 24.689824 0 0 1-35.151615 0l-94.156109-105.454843L460.319595 508.02452c-10.043318 10.043318-18.41275 5.858602-19.668165-8.369432l-12.554148-167.388639a17.575807 17.575807 0 0 1 22.178994-20.92358l167.388639 29.293012c14.228034 2.929301 16.738864 12.554148 7.114018 21.342051L573.306926 408.42828l91.64528 105.454842a24.689824 24.689824 0 0 1-1.673886 35.151614z" fill="#4E8CEE" p-id="10173"></path></svg>