<?xml version="1.0" standalone="no"?><!DOCTYPE svg PUBLIC "-//W3C//DTD SVG 1.1//EN" "http://www.w3.org/Graphics/SVG/1.1/DTD/svg11.dtd"><svg t="1583996883031" class="icon" viewBox="0 0 1065 1024" version="1.1" xmlns="http://www.w3.org/2000/svg" p-id="4842" xmlns:xlink="http://www.w3.org/1999/xlink" width="208.0078125" height="200"><defs><style type="text/css"></style></defs><path d="M877.834636 914.481283V109.518717A109.939942 109.939942 0 0 0 767.894694 0H109.518717A109.939942 109.939942 0 0 0 0 109.518717v804.962566a109.939942 109.939942 0 0 0 109.518717 109.518717h768.315919a308.758536 308.758536 0 0 0 100.672974-18.112711H968.819416a90.563554 90.563554 0 0 1-91.406006-91.406006z" fill="#A6C5F6" p-id="4843"></path><path d="M219.458659 146.165364h109.518717a73.293295 73.293295 0 0 1 73.293295 73.293295v109.518717a73.293295 73.293295 0 0 1-73.293295 73.293295h-109.518717a73.293295 73.293295 0 0 1-73.293295-73.293295v-109.518717a73.293295 73.293295 0 0 1 73.293295-73.293295z" fill="#4E8CEE" p-id="4844"></path><path d="M328.977376 423.331962h-109.518717A94.354587 94.354587 0 0 1 126.36775 328.977376v-109.518717A94.775812 94.775812 0 0 1 219.458659 126.36775h109.518717a94.354587 94.354587 0 0 1 94.354586 94.354586v109.518717a94.354587 94.354587 0 0 1-94.354586 93.090909zM219.458659 168.490333A52.653229 52.653229 0 0 0 168.490333 219.458659v109.518717a52.232003 52.232003 0 0 0 50.968326 52.232003h109.518717a51.810777 51.810777 0 0 0 52.232003-52.232003v-109.518717A52.232003 52.232003 0 0 0 328.977376 168.490333zM695.022624 842.451666H182.812012a36.646647 36.646647 0 1 1 0-73.293295H695.022624a36.646647 36.646647 0 1 1 0 73.293295zM695.022624 621.729329H182.812012a36.646647 36.646647 0 0 1 0-73.293294H695.022624a36.646647 36.646647 0 1 1 0 73.293294z" fill="#FFFFFF" p-id="4845"></path><path d="M955.340189 358.463184l109.939943 0 0 565.285068-109.939943 0 0-565.285068Z" fill="#4E8CEE" p-id="4846"></path></svg>