<?xml version="1.0" standalone="no"?><!DOCTYPE svg PUBLIC "-//W3C//DTD SVG 1.1//EN" "http://www.w3.org/Graphics/SVG/1.1/DTD/svg11.dtd"><svg t="1583995875412" class="icon" viewBox="0 0 1024 1024" version="1.1" xmlns="http://www.w3.org/2000/svg" p-id="2609" xmlns:xlink="http://www.w3.org/1999/xlink" width="200" height="200"><defs><style type="text/css"></style></defs><path d="M59.56352 1024A60.202667 60.202667 0 0 1 0.000853 963.498667V60.501333C0.000853 27.221333 26.79552 0 59.56352 0h691.541333C783.872853 0 810.66752 27.221333 810.66752 60.501333V341.333333h153.002667c31.232 0 57.130667 24.021333 60.032 54.442667l0.298666 5.802667v562.176c0 33.152-27.136 60.245333-60.330666 60.245333zM810.66752 943.658667h132.864V421.674667H810.66752v522.026666zM256.000853 426.666667H128.000853c-23.466667 0-42.666667 19.2-42.666666 42.666666s19.2 42.666667 42.666666 42.666667h128c23.466667 0 42.666667-19.2 42.666667-42.666667s-19.2-42.666667-42.666667-42.666666z m172.928-128H125.73952C103.552853 298.666667 85.334187 317.866667 85.334187 341.333333s18.176 42.666667 40.405333 42.666667h303.189333c22.186667 0 40.405333-19.2 40.405334-42.666667s-18.176-42.666667-40.405334-42.666666z m169.984-170.666667H126.422187C103.808853 128 85.334187 147.2 85.334187 170.666667s18.474667 42.666667 41.088 42.666666h472.490666c22.613333 0 41.088-19.2 41.088-42.666666s-18.474667-42.666667-41.088-42.666667z" fill="#6CD4F5" p-id="2610"></path></svg>