<?xml version="1.0" standalone="no"?><!DOCTYPE svg PUBLIC "-//W3C//DTD SVG 1.1//EN" "http://www.w3.org/Graphics/SVG/1.1/DTD/svg11.dtd"><svg t="1583241467282" class="icon" viewBox="0 0 1024 1024" version="1.1" xmlns="http://www.w3.org/2000/svg" p-id="24847" xmlns:xlink="http://www.w3.org/1999/xlink" width="200" height="200"><defs><style type="text/css"></style></defs><path d="M924 467.1H768.2c-10.8 0-19.5 8.7-19.5 19.5s8.7 19.5 19.5 19.5h136.3v331.1H690.3V175c0-21.5-17.4-38.9-38.9-38.9H378.7c-21.5 0-38.9 17.4-38.9 38.9v662.1H125.6V408.7h136.3c10.8 0 19.5-8.7 19.5-19.5s-8.7-19.5-19.5-19.5H106.1c-10.8 0-19.5 8.7-19.5 19.5v467.4c0 10.8 8.7 19.5 19.5 19.5H924c10.8 0 19.5-8.7 19.5-19.5v-370c0-10.8-8.8-19.5-19.5-19.5z m-272.6 370H378.7V213.9c0-21.5 17.4-38.9 38.9-38.9h194.7c21.5 0 38.9 17.4 38.9 38.9v623.2zM456.6 311.3v19.5H515v97.4h39V252.9h-39l-58.4 58.4z" p-id="24848"></path></svg>