<?xml version="1.0" standalone="no"?><!DOCTYPE svg PUBLIC "-//W3C//DTD SVG 1.1//EN" "http://www.w3.org/Graphics/SVG/1.1/DTD/svg11.dtd"><svg t="1583241237941" class="icon" viewBox="0 0 1024 1024" version="1.1" xmlns="http://www.w3.org/2000/svg" p-id="21179" xmlns:xlink="http://www.w3.org/1999/xlink" width="200" height="200"><defs><style type="text/css"></style></defs><path d="M512 947.106726c-239.915162 0-435.106726-195.191564-435.106726-435.106726S272.084838 76.893274 512 76.893274s435.106726 195.191564 435.106726 435.106726S751.915162 947.106726 512 947.106726zM512 111.019513c-221.1027 0-400.980487 179.877787-400.980487 400.980487s179.877787 400.980487 400.980487 400.980487 400.980487-179.877787 400.980487-400.980487S733.1027 111.019513 512 111.019513z" p-id="21180"></path><path d="M292.347325 767.394714c-2.724041 0-5.523807-0.666172-8.173147-2.015913-8.390088-4.282536-11.322883-15.179724-7.040347-23.577998 7.064906-13.829983 28.202319-23.644513 78.366835-44.340881 21.779026-8.997931 57.69605-23.828708 65.652256-31.426757 2.224668-11.180644-2.241041-27.293623-4.948709-34.82618-6.090718-7.281847-21.469987-27.544333-25.110911-50.339502-10.663874-5.765307-24.711821-18.062378-32.901341-44.090171-8.864902-28.127617 0.541329-48.622394 11.039427-60.170404-21.620413-106.477057 3.974521-139.869584 15.08865-154.383136l1.583055-2.116197c20.562315-29.5275 80.557734-90.231047 202.006783-29.777187 27.343765 7.615445 47.690162 23.461341 60.486606 47.089481 25.736151 47.539736 12.214183 113.342418 5.398964 138.903583 9.772574 11.314697 18.329461 29.827329 11.68104 53.088102-6.257517 21.912056-18.712177 34.275641-27.735691 40.674375-3.216251 24.844851-19.212574 53.638641-24.694425 62.920028-2.124384 10.697643-2.982938 22.895453-1.983167 27.894304 5.057179 3.282766 18.587334 9.647731 29.68509 14.879895 32.118512 15.130605 76.108399 35.858696 102.753245 61.486376 6.79066 6.531763 6.998391 17.32969 0.466628 24.128537-6.531763 6.798846-17.321504 6.998391-24.119327 0.466628-22.611997-21.728884-63.670112-41.074487-93.646843-55.204299-28.127617-13.264095-38.125319-18.246573-43.357484-25.911136-10.5728-15.529695-5.298679-45.606711-2.549056-57.820893l0.62524-2.78237 1.500167-2.416026c8.806573-14.314007 22.49534-42.374086 21.745257-56.837496l-0.641613-12.297071 11.480472-4.482081c0.183172-0.100284 12.413727-5.698792 17.663288-24.060999 4.457522-15.59621-7.839549-24.428366-7.965415-24.511253l-10.397814-7.281847 3.990894-12.081153c0.257873-0.750083 24.927739-76.733639 0.058328-122.55729-8.523117-15.712867-21.903869-25.76071-40.891316-30.759561l-3.357468-1.266853c-70.459748-35.542494-127.238916-29.377074-159.824055 17.496489-1.116427 1.583055-1.933025 2.665713-2.866281 3.882424-7.831362 10.214642-28.618804 37.358863-6.748704 136.204102l2.665713 12.047384-10.606569 6.29845c-1.816369 1.216711-12.1886 9.315156-5.990434 29.027104 7.090489 22.49534 19.146059 25.478278 19.653619 25.594935l14.171768 3.216251-0.082888 14.680351c-0.8913 13.81361 12.57234 33.459043 19.237133 40.807405l1.974981 2.182712 1.1328 2.733251c1.466398 3.51608 14.097066 35.142381 6.765077 61.286832-4.857635 17.313318-28.41005 28.560476-85.065398 51.955302-22.303982 9.198499-56.004525 23.11137-61.787228 29.560246C303.803237 764.312516 298.245661 767.394714 292.347325 767.394714z" p-id="21181"></path></svg>