<?xml version="1.0" standalone="no"?><!DOCTYPE svg PUBLIC "-//W3C//DTD SVG 1.1//EN" "http://www.w3.org/Graphics/SVG/1.1/DTD/svg11.dtd"><svg t="1583241414030" class="icon" viewBox="0 0 1024 1024" version="1.1" xmlns="http://www.w3.org/2000/svg" p-id="23446" xmlns:xlink="http://www.w3.org/1999/xlink" width="200" height="200"><defs><style type="text/css"></style></defs><path d="M631.906 149.604H0.4v639.484h468.976l170.524 85.308-0.03-85.308h127.928V277.504z" fill="#FFCE54" p-id="23447"></path><path d="M966.644 671.868h-56.642l-56.958 177.642 85.31 56.862 85.246-56.862z" fill="#E6E9ED" p-id="23448"></path><path d="M938.354 117.628c-47.12 0-85.308 38.172-85.308 85.276v554.208H1023.6V202.906c0-47.104-38.156-85.278-85.246-85.278zM639.9 621.156H128.3c-11.774 0-21.312-9.554-21.312-21.294 0-11.804 9.54-21.328 21.312-21.328h511.6c11.772 0 21.294 9.524 21.294 21.328 0.002 11.74-9.522 21.294-21.294 21.294zM639.9 493.272H128.3c-11.774 0-21.312-9.556-21.312-21.328s9.54-21.312 21.312-21.312h511.6c11.772 0 21.294 9.54 21.294 21.312s-9.522 21.328-21.294 21.328zM405.412 365.374H128.3c-11.774 0-21.312-9.556-21.312-21.328s9.54-21.31 21.312-21.31h277.112c11.772 0 21.326 9.54 21.326 21.31 0 11.772-9.554 21.328-21.326 21.328z" fill="#656D78" p-id="23449"></path><path d="M631.906 149.604v127.9h135.892z" fill="#F6BB42" p-id="23450"></path></svg>