<?xml version="1.0" standalone="no"?><!DOCTYPE svg PUBLIC "-//W3C//DTD SVG 1.1//EN" "http://www.w3.org/Graphics/SVG/1.1/DTD/svg11.dtd"><svg t="1583240730340" class="icon" viewBox="0 0 1024 1024" version="1.1" xmlns="http://www.w3.org/2000/svg" p-id="14250" xmlns:xlink="http://www.w3.org/1999/xlink" width="200" height="200"><defs><style type="text/css"></style></defs><path d="M671.723452 814.996267c-53.625231 0-235.965751-8.877164-350.315897-123.731799C106.781788 475.708518 177.228093 226.867554 180.332798 216.362314l5.70185-19.241188 19.971828-1.263781c11.753672-0.701987 289.133565-9.127873 479.84369 170.837558 113.676812 107.214646 171.315441 260.3296 171.315441 461.699485h-57.27331c0-201.368861-51.458896-323.557517-152.946108-419.481025-143.786513-135.979726-350.255522-152.159188-416.28013-152.580789-11.150945 59.436575-27.59749 236.426238 131.231595 395.942983 90.054859 90.446784 236.061942 103.8183 295.583451 105.728808-2.950186-57.694911-34.12924-203.196482-260.934373-305.441963l23.439805-52.696071c324.064052 146.063365 295.105568 380.326338 293.700572 390.213503l-3.313459 23.566694-23.682328 1.094936c-1.29141 0.028653-6.54096 0.254803-14.96787 0.254803z" p-id="14251"></path></svg>