<?xml version="1.0" standalone="no"?><!DOCTYPE svg PUBLIC "-//W3C//DTD SVG 1.1//EN" "http://www.w3.org/Graphics/SVG/1.1/DTD/svg11.dtd"><svg t="1583406439431" class="icon" viewBox="0 0 1024 1024" version="1.1" xmlns="http://www.w3.org/2000/svg" p-id="12687" xmlns:xlink="http://www.w3.org/1999/xlink" width="200" height="200"><defs><style type="text/css"></style></defs><path d="M1008.241778 940.714667c0 20.992-18.432 38.115556-40.049778 38.115555H62.179556A38.912 38.912 0 0 1 22.755556 940.714667C22.755556 919.665778 40.561778 902.542222 62.179556 902.542222H968.248889c21.617778 0 40.049778 17.180444 40.049778 38.115556" fill="#060101" p-id="12688"></path><path d="M896.341333 190.407111c22.243556 0 40.049778 17.180444 40.049778 38.115556v578.56c0 21.048889-17.806222 38.229333-40.049778 38.229333h-166.570666a38.968889 38.968889 0 0 1-39.424-38.172444V228.579556c0-21.048889 17.806222-38.172444 39.424-38.172445h166.570666z m-127.146666 578.56h87.722666v-502.328889h-87.722666v502.328889zM598.812444 323.925333c21.617778 0 39.424 17.180444 39.424 38.115556v445.098667a38.968889 38.968889 0 0 1-39.424 38.115555h-167.253333a38.968889 38.968889 0 0 1-39.367111-38.115555V362.097778c0-21.048889 17.806222-38.172444 39.367111-38.172445h167.253333z m-127.146666 445.098667h87.096889V400.270222H471.665778v368.753778zM300.600889 56.888889c21.617778 0 40.049778 17.180444 40.049778 38.115555v712.135112c0 20.992-18.432 38.115556-40.049778 38.115555H133.404444a38.968889 38.968889 0 0 1-39.424-38.115555V95.004444c0-21.048889 17.806222-38.172444 39.424-38.172444h167.196445zM173.454222 769.024H260.551111V133.12H173.454222v635.847111z" fill="#060101" p-id="12689"></path></svg>