<?xml version="1.0" standalone="no"?><!DOCTYPE svg PUBLIC "-//W3C//DTD SVG 1.1//EN" "http://www.w3.org/Graphics/SVG/1.1/DTD/svg11.dtd"><svg t="1583241470453" class="icon" viewBox="0 0 1024 1024" version="1.1" xmlns="http://www.w3.org/2000/svg" p-id="24990" xmlns:xlink="http://www.w3.org/1999/xlink" width="200" height="200"><defs><style type="text/css"></style></defs><path d="M898.133 481.711l-184.035 12.714c-4.434 0.306-8.869 0.613-13.15 3.136l5.315-310.041c-2.297-33.26-30.743-58.028-61.785-55.884l-298.486 65.179c-31.042 2.145-55.811 30.59-53.514 63.85l17.447 123.555c-4.434 0.306-9.022-1.604-13.457-1.298l-176.537 56.754c-33.26 2.299-58.028 30.744-55.731 64.002l80.78 330.828c2.298 33.259 30.59 55.811 61.633 53.666l654.099-45.189c31.042-2.144 55.811-30.59 53.666-61.632l45.541-243.756c-2.298-33.259-30.743-58.028-61.786-55.884zM373.666 823.162l-170.73 11.795c-2.218 0.153-2.37-2.065-2.37-2.065l-80.781-330.827c-0.153-2.217 2.064-2.37 2.064-2.37l187.623-57.52c2.217-0.153 2.37 2.064 2.37 2.064l61.824 378.923z m274.944-18.994l-219.512 15.164-83.407-562.343c-0.153-2.218 2.064-2.37 2.064-2.37l300.703-65.332c2.218-0.153 2.37 2.063 2.37 2.063l-2.218 612.818z m208.425-14.399l-152.993 10.569 0.888-245.127c-0.152-2.217 2.064-2.37 2.064-2.37l192.904-13.327c2.217-0.153 2.37 2.064 2.37 2.064L856.881 787.55c2.218-0.151 2.37 2.065 0.154 2.219z" p-id="24991"></path><path d="M566.113 377.896l-40.273 146.69-46.34 3.201 40.251-150.664-40.464 2.796 14.74-33.596 49.91-3.45c6.642-0.458 12.086 1.09 16.349 4.64 4.543 3.788 7.045 9.13 7.522 16.025 0.305 4.343-0.263 9.131-1.695 14.358zM301.071 609.96c3.534 15.665-1.16 32.015-14.073 49.062-10.886 14.388-24.395 25.821-40.531 34.294l59.73-13.482-3.259 27.445-91.174 20.576 1.889-26.582c11.846-8.241 23.271-19.843 34.268-34.805 13.202-17.967 18.559-32.458 16.074-43.456-2.573-11.415-8.259-16.131-17.047-14.144l-1.133 0.257c0.662 1.565 1.084 2.783 1.284 3.654 1.342 5.943 0.054 11.491-3.858 16.661-3.663 4.92-8.579 8.081-14.748 9.472-6.055 1.37-11.793 0.614-17.216-2.262-5.694-3.001-9.21-7.469-10.553-13.407-2.191-9.722 0.867-17.296 9.188-22.72 5.588-3.711 15.568-7.188 29.952-10.437 15.021-3.391 26.427-4.645 34.21-3.775 14.804 1.623 23.801 9.505 26.997 23.649zM843.891 614.556l-31.156 39.643c5.508 3.387 10.086 8.059 13.719 14.029 3.938 6.369 5.716 12.597 5.325 18.691-0.837 12.945-6.37 23.031-16.59 30.25-8.539 6.009-19.709 9.637-33.507 10.895-8.767 0.804-18.724 0.604-29.885-0.609-5.796-0.653-10.717-2.956-14.763-6.909-4.249-4.178-6.187-9.103-5.822-14.757 0.373-5.699 2.929-10.33 7.672-13.878 4.517-3.347 9.628-4.831 15.337-4.472 5.814 0.383 10.748 2.521 14.789 6.419 4.254 4.125 6.201 9.051 5.828 14.758-0.169 2.632-0.818 5.018-1.951 7.139 6.165 0.072 11.389-2.24 15.656-6.921 4.147-4.525 6.441-10.131 6.872-16.83 0.503-7.788-2.524-14.655-9.086-20.59-5.525-4.925-11.611-7.907-18.265-8.948l25.755-27.6-44.941-2.899 10.566-22.879 84.447 5.468z" p-id="24992"></path></svg>