<?xml version="1.0" standalone="no"?><!DOCTYPE svg PUBLIC "-//W3C//DTD SVG 1.1//EN" "http://www.w3.org/Graphics/SVG/1.1/DTD/svg11.dtd"><svg t="1583241543375" class="icon" viewBox="0 0 1024 1024" version="1.1" xmlns="http://www.w3.org/2000/svg" p-id="27035" xmlns:xlink="http://www.w3.org/1999/xlink" width="200" height="200"><defs><style type="text/css"></style></defs><path d="M888.40937 95.233991 464.708416 95.233991c-38.937824 0-70.616314 31.677467-70.616314 70.616314l0 141.233652c0 12.987802 10.552334 23.538089 23.539112 23.538089 12.986779 0 23.537066-10.550287 23.537066-23.538089L441.16828 165.850305c0-12.987802 10.552334-23.538089 23.539112-23.538089l356.12079 0L639.964952 219.850174c-32.275077 13.837146-57.560974 52.15587-57.560974 87.234807L582.403978 754.323001 464.708416 754.323001c-12.987802 0-23.539112-10.570753-23.539112-23.538089L441.169303 589.550237c0-12.963243-10.550287-23.539112-23.537066-23.539112-12.987802 0-23.539112 10.57587-23.539112 23.539112l0 141.234675c0 38.941917 31.67849 70.617337 70.616314 70.617337l117.695562 0 0 70.616314c0 20.412912 8.459672 37.70167 23.308869 47.445592 8.182356 5.377474 17.702174 8.091282 27.723412 8.091282 8.138354 0 16.642029-1.743714 25.055652-5.331425l242.974847-104.177688c32.269961-13.794168 57.557904-52.135404 57.557904-87.261413L959.025685 165.850305C959.025685 126.911458 927.347195 95.233991 888.40937 95.233991zM911.949506 730.784912c0 16.549931-13.836123 37.470403-29.014824 43.952025L639.964952 878.915647c-4.551666 1.928932-7.54279 1.747807-8.368598 1.24127s-2.115174-3.2623-2.115174-8.138354L629.48118 307.08498c0-16.527418 13.83817-37.468356 29.011754-43.973514L909.559063 155.509796c1.565658 3.099594 2.390443 6.619768 2.390443 10.341532L911.949506 730.784912z" p-id="27036"></path><path d="M457.835891 431.653067 316.601216 290.418392c-9.169847-9.17087-24.111141-9.17087-33.283034 0-9.169847 9.174963-9.169847 24.116257 0 33.288151l101.029998 101.028974L88.085686 424.735517c-12.986779 0-23.538089 10.552334-23.538089 23.540136 0 12.986779 10.55131 23.538089 23.538089 23.538089l296.262494 0-101.029998 101.005438c-9.169847 9.194406-9.169847 24.1357 0 33.283034 4.620227 4.643764 10.643408 6.89606 16.667611 6.89606 6.021134 0 12.045337-2.296299 16.664541-6.89606L457.88194 464.892099c9.171893-9.17087 9.171893-24.112164 0-33.283034L457.835891 431.653067z" p-id="27037"></path></svg>