<?xml version="1.0" standalone="no"?><!DOCTYPE svg PUBLIC "-//W3C//DTD SVG 1.1//EN" "http://www.w3.org/Graphics/SVG/1.1/DTD/svg11.dtd"><svg t="1583995952077" class="icon" viewBox="0 0 1024 1024" version="1.1" xmlns="http://www.w3.org/2000/svg" p-id="1276" xmlns:xlink="http://www.w3.org/1999/xlink" width="200" height="200"><defs><style type="text/css"></style></defs><path d="M0 0h1024v1024H0z" fill="#FFFFFF" p-id="1277"></path><path d="M621.092 875.332H402.908C402.88 915.472 370.328 948 330.18 948c-40.144 0-72.692-32.528-72.724-72.668h-36.364C160.84 875.332 112 826.492 112 766.244V366.756c0-60.248 48.84-109.088 109.092-109.088h581.816c60.252 0 109.092 48.84 109.092 109.088v399.488c0 60.248-48.84 109.088-109.092 109.088h-36.36C766.508 915.472 733.96 948 693.816 948c-40.148 0-72.696-32.528-72.728-72.668z" fill="#4B96F9" p-id="1278"></path><path d="M293.82 439.332m54.544 0l0.004 0q54.544 0 54.544 54.544l0 145.244q0 54.544-54.544 54.544l-0.004 0q-54.544 0-54.544-54.544l0-145.244q0-54.544 54.544-54.544Z" fill="#A5CAFC" p-id="1279"></path><path d="M621.092 439.332m54.544 0l0.004 0q54.544 0 54.544 54.544l0 145.244q0 54.544-54.544 54.544l-0.004 0q-54.544 0-54.544-54.544l0-145.244q0-54.544 54.544-54.544Z" fill="#A5CAFC" p-id="1280"></path><path d="M621.092 257.668V185H402.908v72.668H293.82V148.728C293.82 108.56 326.38 76 366.544 76h290.912c40.164 0 72.724 32.56 72.724 72.728v108.94h-109.088z" fill="#93C0FB" p-id="1281"></path></svg>