<?xml version="1.0" standalone="no"?><!DOCTYPE svg PUBLIC "-//W3C//DTD SVG 1.1//EN" "http://www.w3.org/Graphics/SVG/1.1/DTD/svg11.dtd"><svg t="1583996936944" class="icon" viewBox="0 0 1072 1024" version="1.1" xmlns="http://www.w3.org/2000/svg" p-id="6802" xmlns:xlink="http://www.w3.org/1999/xlink" width="209.375" height="200"><defs><style type="text/css"></style></defs><path d="M692.627766 0.003368H106.953188A106.103518 106.103518 0 0 0 0.007579 106.948978v810.091939a105.682472 105.682472 0 0 0 106.945609 106.94561h585.674578A105.682472 105.682472 0 0 0 799.994421 917.040917V106.948978A108.629792 108.629792 0 0 0 692.627766 0.003368zM715.78528 917.040917a20.210194 20.210194 0 0 1-21.473331 21.473331H106.953188a20.210194 20.210194 0 0 1-22.736468-21.473331V106.948978A20.210194 20.210194 0 0 1 106.953188 84.21251h585.674578a20.210194 20.210194 0 0 1 21.473331 21.473331z" fill="#A6C5F6" p-id="6803"></path><path d="M564.629871 194.526485H235.372129a42.104571 42.104571 0 1 0 0 84.209141h329.257742a42.104571 42.104571 0 0 0 0-84.209141zM564.629871 428.627898H235.372129a42.104571 42.104571 0 0 0 0 84.209141h329.257742a42.104571 42.104571 0 0 0 0-84.209141zM564.629871 684.202641H235.372129a42.104571 42.104571 0 1 0 0 84.209142h329.257742a42.104571 42.104571 0 0 0 0-84.209142z" fill="#A6C5F6" p-id="6804"></path><path d="M1060.621714 806.305896h-183.575928l96.840512 213.470173zM1066.516353 218.105044l-194.10207-2.94732-3.789412 550.306739 202.522985 3.368365zM1069.884719 64.423361c0-27.789017-51.367576-38.315159-51.367576-38.315159a308.626503 308.626503 0 0 0-92.630055 0 59.78849 59.78849 0 0 0-53.472805 51.788622V176.842565h199.575665s0-84.209141-2.105229-111.998158z" fill="#4E8CEE" p-id="6805"></path></svg>