<?xml version="1.0" standalone="no"?><!DOCTYPE svg PUBLIC "-//W3C//DTD SVG 1.1//EN" "http://www.w3.org/Graphics/SVG/1.1/DTD/svg11.dtd"><svg t="1583996940243" class="icon" viewBox="0 0 1026 1024" version="1.1" xmlns="http://www.w3.org/2000/svg" p-id="6942" xmlns:xlink="http://www.w3.org/1999/xlink" width="200.390625" height="200"><defs><style type="text/css"></style></defs><path d="M970.750447 248.218841h-101.990237v437.8617h-655.358951v95.027048a49.97112 49.97112 0 0 0 51.199918 51.199918H819.198689L1023.998362 1024V299.418759a49.97112 49.97112 0 0 0-53.247915-51.199918z" fill="#4E8CEE" p-id="6943"></path><path d="M715.160456 0.001638H81.919869a81.919869 81.919869 0 0 0-81.919869 72.908684v686.078902l160.562943-153.190155h554.597513a81.919869 81.919869 0 0 0 81.919869-72.908683V72.910322a81.919869 81.919869 0 0 0-81.919869-72.908684zM277.298756 343.245889h-81.919869V269.927607h81.919869z m160.562943 0h-81.919869V269.927607h81.919869z m160.562944 0h-81.919869V269.927607h81.919869z" fill="#A6C5F6" p-id="6944"></path></svg>