<?xml version="1.0" standalone="no"?><!DOCTYPE svg PUBLIC "-//W3C//DTD SVG 1.1//EN" "http://www.w3.org/Graphics/SVG/1.1/DTD/svg11.dtd"><svg t="1583995914309" class="icon" viewBox="0 0 1109 1024" version="1.1" xmlns="http://www.w3.org/2000/svg" p-id="3989" xmlns:xlink="http://www.w3.org/1999/xlink" width="216.6015625" height="200"><defs><style type="text/css"></style></defs><path d="M834.653612 0c59.178346 0 124.713991 41.386442 151.252514 95.40215l108.372747 220.96947c27.093187 55.2957 16.767909 132.99128-23.765205 178.900364L637.876012 985.423996c-45.48242 51.455721-120.959345 51.413055-166.399099 0L38.839256 495.271984C-1.693857 449.362899-12.019135 371.624654 15.074052 316.37162l108.33008-220.926804C149.899988 41.258443 215.392967 0 274.613979 0z m-173.524393 170.665742h-213.716176a42.666436 42.666436 0 0 0-40.746446 55.253034l40.234449 130.431294-93.226162 252.969296a42.666436 42.666436 0 0 0 18.4319 51.541054l160.980462 94.463489a42.666436 42.666436 0 0 0 43.178433 0l160.980461-94.463489a42.666436 42.666436 0 0 0 18.4319-51.541054l-93.226162-253.011963 39.50912-130.644625A42.666436 42.666436 0 0 0 661.129219 170.665742z m-128.127306 208.980202V537.597088h44.927757V379.645944h45.567753l90.623509 245.118672L554.676462 718.118777l-159.444469-93.354161 90.580842-245.118672h47.189078z" fill="#6CD4F5" p-id="3990"></path></svg>