<?xml version="1.0" standalone="no"?><!DOCTYPE svg PUBLIC "-//W3C//DTD SVG 1.1//EN" "http://www.w3.org/Graphics/SVG/1.1/DTD/svg11.dtd"><svg t="1583997243726" class="icon" viewBox="0 0 1024 1024" version="1.1" xmlns="http://www.w3.org/2000/svg" p-id="1427" xmlns:xlink="http://www.w3.org/1999/xlink" width="200" height="200"><defs><style type="text/css"></style></defs><path d="M778.323343 225.1841a49.8268 49.8268 0 0 0 49.794413-49.87538V49.810606a49.810606 49.810606 0 1 0-99.621212 0v125.498114a49.8268 49.8268 0 0 0 49.826799 49.87538m-533.310308 0a49.810606 49.810606 0 0 0 49.794413-49.87538V49.810606a49.810606 49.810606 0 1 0-99.621213 0v125.498114a49.859186 49.859186 0 0 0 49.8268 49.87538m727.727129-99.750759h-94.811801v49.875379a99.653599 99.653599 0 0 1-199.291006 0V125.433341H344.699021v49.875379a99.669793 99.669793 0 0 1-199.323392 0V125.433341H51.341106a49.907766 49.907766 0 0 0-49.907766 49.875379v798.815739a49.794413 49.794413 0 0 0 49.907766 49.875379h921.237125a49.810606 49.810606 0 0 0 49.907766-49.875379V175.146787a49.810606 49.810606 0 0 0-49.745833-49.713446m-49.92396 789.261688a12.323105 12.323105 0 0 1-12.323105 12.306912H111.871681a12.339298 12.339298 0 0 1-12.339299-12.306912V379.506297a12.339298 12.339298 0 0 1 12.339299-12.306912H910.493099a12.323105 12.323105 0 0 1 12.323105 12.306912v535.188732z m-710.303132-372.446016a65.485726 65.485726 0 0 0 19.431966 46.312852 65.793398 65.793398 0 0 0 112.219604-46.312852 65.16186 65.16186 0 0 0-19.431966-46.15092 65.178053 65.178053 0 0 0-92.852412 0 65.11328 65.11328 0 0 0-19.431966 46.15092m0 0v225.734672a64.77322 64.77322 0 0 0 19.431966 46.15092 65.178053 65.178053 0 0 0 92.852412 0 64.87038 64.87038 0 0 0 0-92.463772 65.566692 65.566692 0 0 0-92.852412 0 65.485726 65.485726 0 0 0-19.431966 46.312852m0 0L450.829942 540.953548a65.550499 65.550499 0 0 0 19.431966 46.312853 65.809592 65.809592 0 0 0 112.235797-46.312853 65.485726 65.485726 0 0 0-19.431966-46.312852 65.566692 65.566692 0 0 0-92.852411 0 65.550499 65.550499 0 0 0-19.431966 46.312852m0 0v225.57274a65.809592 65.809592 0 1 0 112.219604-46.15092 65.178053 65.178053 0 0 0-92.852411 0 65.453339 65.453339 0 0 0-19.431966 46.15092m0 0L681.827438 540.953548a65.550499 65.550499 0 0 0 19.431967 46.312853 65.809592 65.809592 0 0 0 112.235797-46.312853 65.485726 65.485726 0 0 0-19.431966-46.312852 65.566692 65.566692 0 0 0-92.852411 0 65.550499 65.550499 0 0 0-19.431966 46.312852m0 0v225.57274a65.809592 65.809592 0 1 0 112.219604-46.15092 65.178053 65.178053 0 0 0-92.852412 0 65.453339 65.453339 0 0 0-19.431966 46.15092m0 0" fill="#32A0F0" p-id="1428"></path></svg>