<?xml version="1.0" standalone="no"?><!DOCTYPE svg PUBLIC "-//W3C//DTD SVG 1.1//EN" "http://www.w3.org/Graphics/SVG/1.1/DTD/svg11.dtd"><svg t="1583997121557" class="icon" viewBox="0 0 1024 1024" version="1.1" xmlns="http://www.w3.org/2000/svg" p-id="13949" xmlns:xlink="http://www.w3.org/1999/xlink" width="200" height="200"><defs><style type="text/css"></style></defs><path d="M394.836769 987.615861H163.337688A113.950325 113.950325 0 0 1 46.188758 876.864142V110.798099A113.950325 113.950325 0 0 1 163.337688 0.04638h566.952844A113.950325 113.950325 0 0 1 845.840159 110.798099v338.652369a39.98257 39.98257 0 0 1-77.966011 0V110.798099a39.98257 39.98257 0 0 0-39.98257-36.783965H163.337688a39.98257 39.98257 0 0 0-39.98257 36.783965v766.066043a39.98257 39.98257 0 0 0 39.98257 37.18379h231.499081a36.783964 36.783964 0 1 1 0 73.567929z" fill="#A6C5F6" p-id="13950"></path><path d="M632.333235 285.921756H262.494462a36.783964 36.783964 0 1 1 0-73.567929h369.838773a36.783964 36.783964 0 1 1 0 73.567929zM632.333235 473.44001H262.494462a36.783964 36.783964 0 1 1 0-73.567929h369.838773a36.783964 36.783964 0 1 1 0 73.567929zM976.982989 746.520964c0-21.190762-13.9939-31.986056-37.18379-33.985185a47.979084 47.979084 0 0 1-47.179433-58.774378c8.796165-39.98257 6.797037-45.58013-30.786578-66.371066l-23.989543-13.194249a51.17769 51.17769 0 0 0-71.5688 5.997386c-27.587973 21.590588-39.98257 21.190762-66.371066 0a51.17769 51.17769 0 0 0-71.568801-6.797037l-39.98257 21.990414a37.583616 37.583616 0 0 0-19.591459 47.579258c12.394597 39.98257-5.59756 65.571415-48.778736 69.969498-17.992157 1.999129-29.986928 11.594945-30.786579 27.587973a749.673189 749.673189 0 0 0 0 94.758691c0 20.391111 13.594074 30.786579 35.984313 32.785708a49.178561 49.178561 0 0 1 48.778736 57.574901c-7.996514 41.981699-7.996514 46.379781 31.986056 67.970369 8.39634 4.797908 16.792679 9.995643 25.588845 14.393725a48.778736 48.778736 0 0 0 64.371938-8.39634c30.786579-26.388496 39.98257-25.988671 72.368451 0a388.230756 388.230756 0 0 0 39.982571 23.189891c29.187276-18.391982 57.974727-34.38501 83.963397-53.576644a35.584487 35.584487 0 0 0 3.598431-31.58623c-14.793551-35.984313 8.796165-67.570543 50.378038-71.568801 17.192505 0 28.78745-10.795294 29.587102-25.98867a831.237632 831.237632 0 0 0 1.199477-93.559214z m-245.093154 139.139343a96.357994 96.357994 0 1 1 96.357994-96.357993 95.958168 95.958168 0 0 1-96.357994 96.357993z" fill="#4E8CEE" p-id="13951"></path><path d="M223.311543 587.390335l260.286531 0 0 73.967754-260.286531 0 0-73.967754Z" fill="#4E8CEE" p-id="13952"></path></svg>