<?xml version="1.0" standalone="no"?><!DOCTYPE svg PUBLIC "-//W3C//DTD SVG 1.1//EN" "http://www.w3.org/Graphics/SVG/1.1/DTD/svg11.dtd"><svg t="1583997238106" class="icon" viewBox="0 0 1297 1024" version="1.1" xmlns="http://www.w3.org/2000/svg" p-id="1289" xmlns:xlink="http://www.w3.org/1999/xlink" width="253.3203125" height="200"><defs><style type="text/css"></style></defs><path d="M1287.926378 191.342357a45.040094 45.040094 0 0 0-29.464269-17.685051l-119.301084-17.360555-21.757481-119.25241A45.040094 45.040094 0 0 0 1065.240755 0.70075l-436.934339 81.286336L288.44516 32.501392a44.780497 44.780497 0 0 0-50.75123 38.29057l-12.282186 85.991534-188.69463 35.045606a44.553349 44.553349 0 0 0-28.831501 18.820788 45.753986 45.753986 0 0 0-7.13892 33.909869l135.412329 742.285409a45.299691 45.299691 0 0 0 18.642315 29.042423 43.904357 43.904357 0 0 0 25.440514 8.112409 45.543063 45.543063 0 0 0 8.112409-0.811241l601.08082-111.788994 356.118523 51.919417a44.08283 44.08283 0 0 0 6.489927 0.486744 44.92652 44.92652 0 0 0 44.293752-38.777314l13.109653-91.507971 7.463416-1.460234a45.234792 45.234792 0 0 0 35.970421-52.730657l-20.03765-109.679768 63.601285-444.722252a45.591738 45.591738 0 0 0-8.518029-33.585373z m-105.866935 200.052002l-40.0753 280.040353-12.071264 84.855797-13.515273 94.428438-2.401273 16.711563-48.804252-7.13892-277.444382-40.399796-554.888764-80.799592 72.200438-505.078574 13.499049-94.590687 1.622481-11.032876 32.546985 4.705197 277.444382 40.399796 432.650988 63.114541 93.633422 13.628847 44.95897 6.489927zM1037.398968 97.887408l8.112409 44.780496-139.776804-20.281022zM96.992312 272.628694l114.920383-21.416759-52.195238 365.220645z m119.203735 653.373407l-18.334044-100.593869 314.063796 45.753986z m298.131025-497.128413a82.032678 82.032678 0 1 0-68.906801-92.968205 81.497259 81.497259 0 0 0 68.906801 92.968205z m495.359908 77.067884l-81.708182 85.504789-102.978918-204.919447L629.26368 613.512113s-233.134405-132.719008-303.90706 48.512205l716.260801 109.193023z" fill="#EE7ABB" p-id="1290"></path></svg>