<?xml version="1.0" standalone="no"?><!DOCTYPE svg PUBLIC "-//W3C//DTD SVG 1.1//EN" "http://www.w3.org/Graphics/SVG/1.1/DTD/svg11.dtd"><svg t="1583997145287" class="icon" viewBox="0 0 1025 1024" version="1.1" xmlns="http://www.w3.org/2000/svg" p-id="15076" xmlns:xlink="http://www.w3.org/1999/xlink" width="200.1953125" height="200"><defs><style type="text/css"></style></defs><path d="M0 704.122844a85.17211 85.17211 0 0 0 85.17211 85.17211h363.041302V847.874867a95.577753 95.577753 0 0 0-26.592197 26.206803H159.938578a53.569789 53.569789 0 0 0 0 106.754184h261.682637a95.963147 95.963147 0 0 0 159.553183 0h282.879316a53.569789 53.569789 0 1 0 0-106.754184h-282.879316a90.567628 90.567628 0 0 0-26.592197-26.206803v-58.579913h385.394163a85.17211 85.17211 0 0 0 85.172111-85.17211V85.179818A85.17211 85.17211 0 0 0 938.820182 0.007708H85.17211A85.17211 85.17211 0 0 0 0 85.179818z" fill="#A6C5F6" p-id="15077"></path><path d="M154.157665 447.835726h716.833144a47.403482 47.403482 0 0 1 47.018088 47.018088v141.054263a47.018088 47.018088 0 0 1-47.018088 46.632694H154.157665a46.632694 46.632694 0 0 1-47.403482-46.632694v-141.054263A47.018088 47.018088 0 0 1 154.157665 447.835726z" fill="#4E8CEE" p-id="15078"></path><path d="M870.605415 702.195874H154.157665a66.67319 66.67319 0 0 1-66.67319-66.287797v-141.054263A66.287796 66.287796 0 0 1 154.157665 428.566018h716.833144a67.058584 67.058584 0 0 1 47.018088 19.269708 67.829373 67.829373 0 0 1 19.269708 47.018088v141.054263a66.67319 66.67319 0 0 1-66.67319 66.287797zM154.157665 467.490828a27.362986 27.362986 0 0 0-27.748379 27.362986v141.054263a27.362986 27.362986 0 0 0 27.748379 27.362986h716.833144a27.362986 27.362986 0 0 0 27.362986-27.362986v-141.054263a26.977591 26.977591 0 0 0-7.707883-19.269708 27.362986 27.362986 0 0 0-19.655103-8.093278H154.157665z" fill="#FFFFFF" p-id="15079"></path><path d="M154.157665 106.761891h716.833144a46.632694 46.632694 0 0 1 33.143898 13.488796 47.403482 47.403482 0 0 1 13.87419 33.529292v140.66887a47.403482 47.403482 0 0 1-47.018088 47.018088H154.157665a47.403482 47.403482 0 0 1-33.529292-13.87419 48.17427 48.17427 0 0 1-13.488796-33.143898V154.165373a48.559665 48.559665 0 0 1 13.488796-33.529292A47.018088 47.018088 0 0 1 154.157665 106.761891z" fill="#4E8CEE" p-id="15080"></path><path d="M154.157665 360.736645a65.902402 65.902402 0 0 1-66.67319-66.287796V154.165373a64.746219 64.746219 0 0 1 19.269708-47.018088A70.141738 70.141738 0 0 1 154.157665 87.106789h716.833144a71.683314 71.683314 0 0 1 47.018088 19.655102A66.287796 66.287796 0 0 1 936.893211 154.165373v140.283476a65.902402 65.902402 0 0 1-66.287796 66.287796H154.157665z m0-234.705046a25.821409 25.821409 0 0 0-19.269708 8.093278 28.133774 28.133774 0 0 0-8.093277 19.269708v141.054264a28.904562 28.904562 0 0 0 8.093277 19.655102 20.811285 20.811285 0 0 0 19.269708 7.707883h716.44775a26.206803 26.206803 0 0 0 27.362986-27.362985V154.165373a28.133774 28.133774 0 0 0-7.707884-19.655102 28.904562 28.904562 0 0 0-19.655102-8.093278H154.157665z" fill="#FFFFFF" p-id="15081"></path><path d="M704.885925 217.370016a53.569789 53.569789 0 1 0 53.184394-53.569789 53.184395 53.184395 0 0 0-53.184394 53.569789zM704.885925 558.443851a53.569789 53.569789 0 1 0 53.184394-53.184395 53.184395 53.184395 0 0 0-53.184394 53.184395z" fill="#FFFFFF" p-id="15082"></path></svg>