<?xml version="1.0" standalone="no"?><!DOCTYPE svg PUBLIC "-//W3C//DTD SVG 1.1//EN" "http://www.w3.org/Graphics/SVG/1.1/DTD/svg11.dtd"><svg t="1583995948017" class="icon" viewBox="0 0 1024 1024" version="1.1" xmlns="http://www.w3.org/2000/svg" p-id="1130" xmlns:xlink="http://www.w3.org/1999/xlink" width="200" height="200"><defs><style type="text/css"></style></defs><path d="M0 0h1024v1024H0z" fill="#FFFFFF" p-id="1131"></path><path d="M765.668 209.468h0.132c70.8 0 128.2 57.4 128.2 128.2H124c0-70.8 57.4-128.2 128.2-128.2h0.132v-21.3c0-35.44 28.728-64.168 64.168-64.168 35.44 0 64.168 28.728 64.168 64.168v21.3h256.664v-21.3c0-35.44 28.728-64.168 64.168-64.168 35.44 0 64.168 28.728 64.168 64.168v21.3zM613.68 423.136c-83.516 48.408-139.68 138.704-139.68 242.104 0 94.048 46.464 177.256 117.712 227.96h-296.6C200.608 893.2 124 816.596 124 722.096v-298.96h489.68z" fill="#ED5D4A" p-id="1132"></path><path d="M754 875.02c-115.98 0-210-93.92-210-209.78s94.02-209.784 210-209.784 210 93.92 210 209.784c0 115.86-94.02 209.78-210 209.78z m-30-239.748h-45.032a29.968 29.968 0 1 0 0 59.936H724v44.92a30 30 0 0 0 60 0v-44.92h45.032a29.968 29.968 0 0 0 0-59.936H784v-44.924a30 30 0 1 0-60 0v44.92z" fill="#F28D80" p-id="1133"></path></svg>