<?xml version="1.0" standalone="no"?><!DOCTYPE svg PUBLIC "-//W3C//DTD SVG 1.1//EN" "http://www.w3.org/Graphics/SVG/1.1/DTD/svg11.dtd"><svg t="1583997249438" class="icon" viewBox="0 0 1060 1024" version="1.1" xmlns="http://www.w3.org/2000/svg" p-id="1703" xmlns:xlink="http://www.w3.org/1999/xlink" width="207.03125" height="200"><defs><style type="text/css"></style></defs><path d="M737.932625 375.570258L581.551199 563.743854a43.073263 43.073263 0 0 1-61.08261 0c-0.512777-0.466161-0.854628-1.087709-1.336328-1.553869l-99.447648-96.650683a43.197572 43.197572 0 0 1 61.08261-61.067071l67.173779 65.262519 128.971168-155.231563a43.182033 43.182033 0 1 1 61.020455 61.067071zM290.65129 1024a81.345068 81.345068 0 1 1 81.267375-81.267375 81.422762 81.422762 0 0 1-81.267375 81.267375z m494.130501 0a81.345068 81.345068 0 1 1 81.267374-81.267375 81.391684 81.391684 0 0 1-81.282913 81.267375zM265.261062 789.831866a74.725584 74.725584 0 0 1-78.781183-66.971775L117.192838 121.667982l-0.388468-1.55387a39.810137 39.810137 0 0 0-38.147496-29.212746H0.264158V0h142.955994c37.168558 0 56.032534 14.606373 61.408922 46.926859 2.781426 16.626404 3.200971 22.997269 3.200972 22.997268a50.205524 50.205524 0 0 0 52.272169 43.508346h748.965099c40.058756 0 57.928255 25.794234 48.014568 66.971776l-132.280911 548.515933a74.585736 74.585736 0 0 1-80.039818 60.911684h-579.593323z m15.709621-93.387556h557.170986l111.878604-489.62428H230.936085z" fill="#FF7245" p-id="1704"></path></svg>