<?xml version="1.0" standalone="no"?><!DOCTYPE svg PUBLIC "-//W3C//DTD SVG 1.1//EN" "http://www.w3.org/Graphics/SVG/1.1/DTD/svg11.dtd"><svg t="1583405641175" class="icon" viewBox="0 0 1025 1024" version="1.1" xmlns="http://www.w3.org/2000/svg" p-id="2527" xmlns:xlink="http://www.w3.org/1999/xlink" width="200.1953125" height="200"><defs><style type="text/css"></style></defs><path d="M840.448949 902.748772 118.919001 902.748772 118.919001 184.120036l262.810941 0 0-55.261185L102.346786 128.858851c-21.333888 0-38.689993 17.525983-38.689993 39.067611l0 751.017931c0 21.542652 17.356106 39.069658 38.689993 39.069658l754.678473 0c21.332864 0 38.687947-17.527006 38.687947-39.069658l0-284.503003-55.261185 0L840.448949 902.748772 840.448949 902.748772z" p-id="2528"></path><path d="M564.294478 703.870929l-243.755042 0.00614 0.446183-244.785561L704.216823 75.150095c6.743911-6.731631 15.67678-10.813795 25.16226-11.503537 11.521957-0.837105 22.809566 3.368886 30.969801 11.540378l187.836863 188.176617c7.488914 7.503241 11.606896 17.472768 11.594615 28.070635-0.00921 10.601961-4.145612 20.565348-11.649877 28.054262L564.294478 703.870929zM371.799302 652.708282l171.356749-0.00307 360.693851-361.325261L732.251641 119.471613 372.114496 480.339434 371.799302 652.708282z" p-id="2529"></path></svg>