<?xml version="1.0" standalone="no"?>
<!DOCTYPE svg PUBLIC "-//W3C//DTD SVG 20010904//EN"
 "http://www.w3.org/TR/2001/REC-SVG-20010904/DTD/svg10.dtd">
<svg version="1.0" xmlns="http://www.w3.org/2000/svg"
 width="206.000000pt" height="201.000000pt" viewBox="0 0 206.000000 201.000000"
 preserveAspectRatio="xMidYMid meet">

<g transform="translate(0.000000,201.000000) scale(0.100000,-0.100000)"
fill="#000000" stroke="none">
<path d="M937 1820 c-49 -9 -65 -16 -56 -25 3 -2 39 -1 81 4 88 10 213 0 296
-24 72 -21 209 -93 269 -142 67 -55 147 -156 191 -240 34 -67 52 -89 52 -63 0
19 -52 114 -96 177 -97 136 -283 261 -444 297 -84 19 -232 27 -293 16z"/>
<path d="M494 1590 c-41 -16 -74 -68 -74 -116 0 -24 4 -44 8 -44 4 0 6 15 4
34 -8 64 48 126 113 126 67 0 124 -68 110 -131 -4 -18 -3 -29 4 -29 18 0 12
73 -9 107 -32 53 -99 76 -156 53z"/>
<path d="M1198 1163 c12 -2 22 -11 22 -20 0 -11 -7 -14 -25 -11 -21 4 -25 1
-25 -18 0 -20 5 -24 31 -24 29 0 30 2 27 38 -3 32 -7 37 -28 38 -22 1 -22 0
-2 -3z m22 -53 c0 -5 -9 -10 -20 -10 -11 0 -20 5 -20 10 0 6 9 10 20 10 11 0
20 -4 20 -10z"/>
<path d="M796 1125 c-9 -14 -13 -25 -9 -25 10 0 36 40 30 46 -2 3 -12 -7 -21
-21z"/>
<path d="M1541 1138 c-1 -9 -7 -19 -13 -21 -9 -4 -9 -6 -1 -6 20 -2 2 -40 -21
-44 -21 -4 -21 -4 1 -6 16 -1 21 -6 17 -18 -5 -16 -4 -16 6 0 12 18 13 18 33
-1 12 -10 29 -22 37 -26 8 -4 2 3 -14 15 -26 21 -27 23 -10 30 16 6 14 8 -8 8
-33 1 -38 21 -5 22 21 0 21 1 2 9 -13 6 -15 9 -5 9 10 1 11 4 4 9 -6 4 -14 14
-17 22 -4 12 -6 12 -6 -2z"/>
<path d="M908 1114 c12 -8 22 -22 22 -30 0 -20 -37 -18 -50 4 -11 16 -11 16
-6 -1 3 -10 6 -21 6 -23 0 -2 14 -4 30 -4 23 0 30 5 30 19 0 22 -25 51 -43 51
-6 0 -1 -7 11 -16z"/>
<path d="M550 1102 c0 -11 4 -23 8 -26 10 -6 9 30 -1 40 -4 4 -7 -2 -7 -14z"/>
<path d="M436 1092 c7 -4 14 -16 17 -27 4 -15 5 -14 6 8 1 20 -4 27 -16 27
-12 0 -14 -3 -7 -8z"/>
<path d="M588 1075 c2 -14 6 -25 8 -25 2 0 4 11 4 25 0 14 -4 25 -9 25 -4 0
-6 -11 -3 -25z"/>
<path d="M1275 1080 c3 -5 8 -10 11 -10 2 0 4 5 4 10 0 6 -5 10 -11 10 -5 0
-7 -4 -4 -10z"/>
<path d="M780 1069 c-24 -7 -24 -7 -2 -8 20 -1 22 -6 24 -68 1 -49 3 -56 5
-25 4 44 10 50 33 30 8 -7 4 -1 -9 14 -13 15 -21 34 -18 42 8 20 -2 25 -33 15z"/>
<path d="M515 1060 c-3 -5 -3 -10 2 -11 4 0 -1 -4 -12 -9 -16 -7 -17 -9 -3 -9
13 -1 18 -12 21 -48 3 -40 4 -37 5 20 2 66 -1 77 -13 57z"/>
<path d="M1138 1053 c15 -6 16 -67 2 -94 -7 -12 -7 -19 -1 -19 6 0 14 14 19
32 10 39 32 49 32 15 0 -14 -5 -28 -10 -30 -6 -3 -5 -4 2 -3 7 1 14 17 16 34
3 27 0 32 -17 32 -12 0 -21 5 -21 11 0 6 12 9 27 7 21 -2 29 -12 42 -48 15
-43 45 -79 65 -80 6 0 0 10 -13 21 -16 15 -20 24 -12 32 6 6 11 16 11 22 0 5
-5 3 -10 -5 -9 -13 -12 -12 -25 4 -22 29 -19 56 7 56 47 0 8 10 -58 14 -38 2
-63 2 -56 -1z"/>
<path d="M442 1033 c12 -3 18 -17 21 -46 l4 -42 1 48 c2 43 0 47 -20 46 -17
-1 -18 -3 -6 -6z"/>
<path d="M550 1032 c0 -5 14 -12 30 -14 17 -3 30 -1 30 4 0 4 -6 8 -14 8 -8 0
-21 3 -30 6 -9 3 -16 2 -16 -4z"/>
<path d="M755 1010 c-10 -11 -13 -20 -7 -20 6 0 16 9 22 20 6 11 9 20 7 20 -2
0 -12 -9 -22 -20z"/>
<path d="M896 1008 c1 -13 3 -30 3 -38 1 -10 4 -11 9 -4 4 6 14 14 22 17 12 4
11 6 -2 6 -10 1 -18 7 -18 15 0 8 8 17 18 19 11 3 8 5 -9 6 -21 1 -25 -3 -23
-21z"/>
<path d="M1496 1005 c-11 -8 -15 -15 -9 -15 6 0 16 7 23 15 16 19 11 19 -14 0z"/>
<path d="M421 993 c-1 -6 -4 -20 -7 -30 -5 -17 -5 -17 6 0 6 10 9 23 6 30 -3
9 -5 9 -5 0z"/>
<path d="M558 993 c6 -2 18 -2 25 0 6 3 1 5 -13 5 -14 0 -19 -2 -12 -5z"/>
<path d="M1552 963 c-1 -18 -7 -33 -13 -33 -5 0 -7 -5 -3 -11 12 -20 26 7 21
42 l-4 34 -1 -32z"/>
<path d="M1584 951 c7 -11 46 -35 46 -28 0 3 -12 12 -26 22 -15 9 -23 12 -20
6z"/>
<path d="M875 940 c19 -8 113 -14 104 -6 -2 2 -31 6 -64 9 -38 4 -53 2 -40 -3z"/>
<path d="M320 763 c1 -21 72 -143 120 -204 92 -117 234 -212 390 -261 64 -20
96 -23 220 -23 137 1 150 2 240 33 92 32 200 88 200 104 0 14 -12 9 -105 -37
-125 -63 -195 -79 -340 -79 -146 0 -215 16 -345 81 -128 64 -255 187 -318 311
-24 45 -47 82 -53 82 -5 0 -9 -3 -9 -7z"/>
<path d="M560 721 c-15 -29 -12 -41 13 -51 l22 -9 -22 0 c-36 -1 -29 -31 7
-31 47 0 70 69 23 71 -14 0 -13 2 5 9 31 13 27 30 -8 30 -19 0 -33 -7 -40 -19z"/>
<path d="M735 696 c-4 -25 -4 -49 0 -55 11 -18 54 -12 65 8 12 24 13 91 1 91
-11 0 -21 -25 -21 -56 0 -13 -5 -24 -11 -24 -7 0 -8 14 -4 40 5 32 4 40 -9 40
-10 0 -17 -14 -21 -44z"/>
<path d="M925 728 c-3 -7 -6 -31 -8 -53 -2 -38 -1 -40 31 -43 24 -2 32 1 32
12 0 9 -9 16 -20 16 -30 0 -26 38 5 52 14 6 25 15 25 20 0 13 -60 9 -65 -4z"/>
<path d="M1105 728 c-2 -7 -6 -31 -7 -53 -3 -39 -2 -40 30 -43 24 -2 32 1 32
12 0 9 -9 16 -20 16 -32 0 -23 40 13 53 9 3 17 11 17 17 0 14 -60 12 -65 -2z"/>
<path d="M1280 716 c0 -13 -3 -38 -6 -55 -6 -30 -6 -31 30 -31 25 0 36 4 36
15 0 8 -9 15 -20 15 -11 0 -20 5 -20 10 0 6 11 10 25 10 29 0 34 16 8 23 -17
4 -17 5 0 6 9 0 17 8 17 16 0 10 -11 15 -35 15 -30 0 -35 -3 -35 -24z"/>
<path d="M1456 718 c-9 -35 -8 -38 17 -48 l22 -9 -22 0 c-36 -1 -29 -31 7 -31
51 0 69 69 18 71 -23 1 -23 1 1 8 39 11 38 31 -2 31 -27 0 -36 -5 -41 -22z"/>
<path d="M1640 719 c-15 -27 -7 -46 22 -52 20 -4 20 -4 -4 -6 -40 -2 -38 -31
2 -31 47 0 70 69 23 71 -14 0 -13 2 5 9 31 13 27 30 -8 30 -19 0 -33 -7 -40
-21z"/>
</g>
</svg>
